<svg width="22" height="22" viewBox="0 0 22 22" fill="none" xmlns="http://www.w3.org/2000/svg">
<path d="M10.5 0C6.36453 0 3 3.43052 3 7.64709C3 12.9469 10.5074 22 10.5074 22C10.5074 22 18 12.6863 18 7.64709C18 3.43052 14.6356 0 10.5 0ZM12.7629 9.88617C12.1389 10.5222 11.3195 10.8403 10.5 10.8403C9.6806 10.8403 8.86093 10.5222 8.23723 9.88617C6.98942 8.61403 6.98942 6.54401 8.23723 5.27173C8.84144 4.6554 9.64517 4.31594 10.5 4.31594C11.3548 4.31594 12.1584 4.65553 12.7629 5.27173C14.0107 6.54401 14.0107 8.61403 12.7629 9.88617Z" fill="#213AA0"/>
</svg>
