<svg width="16" height="16" viewBox="0 0 16 16" fill="none" xmlns="http://www.w3.org/2000/svg">
<path d="M7.86432 0.492188C4.98938 0.492188 2.65039 2.83118 2.65039 5.70611C2.65039 9.31961 7.86945 15.4922 7.86945 15.4922C7.86945 15.4922 13.0782 9.14191 13.0782 5.70611C13.0782 2.83118 10.7393 0.492188 7.86432 0.492188ZM9.43747 7.23276C9.00369 7.66644 8.43405 7.88333 7.86432 7.88333C7.29468 7.88333 6.72485 7.66644 6.29126 7.23276C5.4238 6.36539 5.4238 4.95401 6.29126 4.08655C6.7113 3.66632 7.27005 3.43488 7.86432 3.43488C8.45859 3.43488 9.01724 3.66641 9.43747 4.08655C10.3049 4.95401 10.3049 6.36539 9.43747 7.23276Z" fill="#FCFCFC"/>
</svg>
