<svg width="45" height="45" viewBox="0 0 45 45" fill="none" xmlns="http://www.w3.org/2000/svg">
<path d="M22.4994 7.75861C24.6419 7.75861 26.3787 6.02178 26.3787 3.8793C26.3787 1.73682 24.6419 0 22.4994 0C20.3569 0 18.6201 1.73682 18.6201 3.8793C18.6201 6.02178 20.3569 7.75861 22.4994 7.75861Z" fill="#21B7D9"/>
<path d="M13.2112 12.4142C13.2048 13.2158 12.8932 13.985 12.34 14.5652C13.4916 14.9176 15.6292 15.104 18.6422 13.4988V12.0827C16.6162 10.9468 14.8679 9.37503 13.5234 7.481C13.209 7.02441 12.9283 6.54558 12.6835 6.04821L12.6449 5.97016C12.5601 5.73813 12.4233 5.52869 12.2448 5.35792C11.9467 5.19655 11.27 5.52843 11.0481 5.63829C10.128 6.1325 9.24958 6.70036 8.42121 7.33624L7.85071 7.74766C6.55143 8.71612 5.18518 9.59142 3.76232 10.367C2.59628 11.0159 1.32099 11.445 0 11.633C1.58651 13.5028 5.27421 16.6802 10.5358 14.0482C11.1593 13.7249 11.5807 13.1121 11.6595 12.4142C11.6595 11.9857 12.0069 11.6383 12.4354 11.6383C12.8638 11.6384 13.2112 11.9857 13.2112 12.4142Z" fill="#21B7D9"/>
<path d="M20.9482 9.24805V21.7238L22.5043 21.9328L24.0516 21.7238V9.24805C23.7976 9.2847 22.7641 9.31001 22.4999 9.31001C22.2358 9.31001 21.2023 9.28461 20.9482 9.24805Z" fill="#21B7D9"/>
<path d="M41.2325 10.3667C39.8097 9.59138 38.4436 8.71607 37.1445 7.74743L36.5717 7.33453C35.744 6.69864 34.8659 6.1313 33.946 5.63806C33.7251 5.52741 33.0512 5.19712 32.75 5.35769C32.5716 5.52847 32.4346 5.73791 32.3499 5.96994L32.3117 6.04798C32.0665 6.54553 31.7856 7.02462 31.471 7.48148C30.1265 9.37516 28.3783 10.9466 26.3525 12.0825V13.4985C29.3645 15.1032 31.5014 14.9185 32.6551 14.5652C32.1016 13.985 31.79 13.2158 31.7835 12.414C31.7835 11.9855 32.1309 11.6381 32.5594 11.6381C32.9879 11.6381 33.3353 11.9854 33.3353 12.414C33.415 13.1122 33.8368 13.725 34.4606 14.0487C39.7426 16.6884 43.4209 13.5056 44.9997 11.6336C43.6769 11.4458 42.4 11.0163 41.2325 10.3667Z" fill="#21B7D9"/>
<path d="M32.9352 28.7215C32.9359 27.3219 31.9924 26.0979 30.6387 25.7422L28.4973 25.1681L30.2896 24.6871C31.4871 24.3635 32.3774 23.3587 32.5544 22.1309C32.7315 20.9032 32.1614 19.6877 31.1042 19.0388L29.5292 18.0691C29.0552 17.778 28.462 17.762 27.9729 18.0269C27.4839 18.2918 27.1733 18.7976 27.1583 19.3536C27.1433 19.9096 27.4259 20.4314 27.8999 20.7225L29.4826 21.6845L24.0516 23.1431L22.5076 23.5544H22.4999L20.9482 23.1431L15.5249 21.6845L17.1077 20.7225C17.5817 20.4315 17.8644 19.9096 17.8493 19.3536C17.8343 18.7976 17.5236 18.2919 17.0346 18.0269C16.5456 17.7619 15.9523 17.778 15.4783 18.0691L13.9034 19.0388C12.8461 19.6877 12.2761 20.9032 12.4532 22.1309C12.6303 23.3587 13.5205 24.3635 14.718 24.6871L16.5103 25.1681L14.3689 25.7422C13.0208 26.1068 12.0814 27.3258 12.0723 28.7223C12.0633 30.1188 12.9868 31.3499 14.3301 31.7319L16.7664 32.4146L14.8423 32.9577C13.5629 33.3172 12.6549 34.4521 12.5846 35.7792C12.5144 37.1063 13.2976 38.3306 14.5319 38.8232L21.119 41.4612L22.4999 44.2232L23.8732 41.4689H23.8809L30.4757 38.8232C31.7099 38.3306 32.4931 37.1063 32.4229 35.7792C32.3527 34.4522 31.4447 33.3173 30.1654 32.9577L28.2413 32.4146L30.6775 31.7319C32.0257 31.3567 32.9525 30.1209 32.9352 28.7215ZM29.3275 35.9448L24.0516 38.0551L22.5076 38.6758L20.9482 38.0474L15.6801 35.9448L20.9482 34.4629L22.5076 34.0285L24.0516 34.4629L29.3275 35.9448ZM24.0516 30.3663L22.5076 30.8008L20.9482 30.3585L15.1758 28.7369L20.9482 27.193L22.5076 26.774L24.0516 27.1852L29.8318 28.7369L24.0516 30.3663Z" fill="#21B7D9"/>
</svg>
