<svg width="22" height="22" viewBox="0 0 22 22" fill="none" xmlns="http://www.w3.org/2000/svg">
<path d="M21.8064 4.37082L15.1343 11L21.8064 17.6292C21.927 17.3771 22.0002 17.0984 22.0002 16.8008V5.19921C22.0002 4.90157 21.927 4.62292 21.8064 4.37082Z" fill="#213AA0"/>
<path d="M20.0662 3.26562H1.93338C1.63573 3.26562 1.35708 3.3388 1.10498 3.45941L9.63269 11.9442C10.3867 12.6982 11.6129 12.6982 12.3669 11.9442L20.8946 3.45941C20.6425 3.3388 20.3638 3.26562 20.0662 3.26562Z" fill="#213AA0"/>
<path d="M0.193789 4.37082C0.0731758 4.62292 0 4.90157 0 5.19921V16.8008C0 17.0984 0.0731758 17.3771 0.193789 17.6292L6.86593 11L0.193789 4.37082Z" fill="#213AA0"/>
<path d="M14.2224 11.9114L13.2783 12.8556C12.0219 14.1119 9.9776 14.1119 8.72123 12.8556L7.77712 11.9114L1.10498 18.5406C1.35708 18.6612 1.63573 18.7344 1.93338 18.7344H20.0662C20.3638 18.7344 20.6425 18.6612 20.8946 18.5406L14.2224 11.9114Z" fill="#213AA0"/>
</svg>
