<svg width="22" height="22" viewBox="0 0 22 22" fill="none" xmlns="http://www.w3.org/2000/svg">
<path d="M19.3952 14.1277C18.1707 14.1277 16.9684 13.9362 15.8291 13.5597C15.2708 13.3693 14.5845 13.544 14.2438 13.8939L11.995 15.5915C9.38701 14.1994 7.78056 12.5934 6.40743 10.0051L8.05509 7.81484C8.48316 7.38734 8.6367 6.76286 8.45274 6.17693C8.07462 5.03161 7.88253 3.8299 7.88253 2.6049C7.88259 1.71995 7.16264 1 6.27775 1H2.60484C1.71995 1 1 1.71995 1 2.60484C1 12.7481 9.25196 21 19.3952 21C20.2801 21 21 20.2801 21 19.3952V15.7325C20.9999 14.8477 20.28 14.1277 19.3952 14.1277Z" fill="#213AA0"/>
</svg>
