<svg width="22" height="22" viewBox="0 0 22 22" fill="none" xmlns="http://www.w3.org/2000/svg">
<path d="M11.0004 20.7035C16.3609 20.7035 20.704 16.3604 20.704 11C20.704 5.63954 16.3609 1.29639 11.0004 1.29639C5.64003 1.29639 1.29688 5.63954 1.29688 11C1.29688 16.3604 5.64003 20.7035 11.0004 20.7035ZM5.73707 10.7897L15.0929 7.18241C15.5272 7.02554 15.9064 7.28834 15.7657 7.94495L15.7665 7.94414L14.1735 15.449C14.0555 15.9811 13.7393 16.1105 13.297 15.8598L10.8711 14.0719L9.70098 15.1992C9.5716 15.3286 9.46243 15.4377 9.21176 15.4377L9.38399 12.969L13.88 8.90722C14.0757 8.73498 13.8363 8.63795 13.5784 8.80938L8.02226 12.3075L5.62709 11.5603C5.10714 11.3954 5.09582 11.0404 5.73707 10.7897Z" fill="#FCFCFC"/>
</svg>
