<svg width="22" height="22" viewBox="0 0 22 22" fill="none" xmlns="http://www.w3.org/2000/svg">
<path fill-rule="evenodd" clip-rule="evenodd" d="M10.9978 1.29553H11.0027C16.3534 1.29553 20.7046 5.64915 20.7046 10.9999C20.7046 16.3506 16.3534 20.7042 11.0027 20.7042C9.02906 20.7042 7.19857 20.1171 5.66407 19.1006L1.93396 20.293L3.14337 16.6879C1.98006 15.0903 1.2959 13.1227 1.2959 10.9999C1.2959 5.64794 5.64709 1.29553 10.9978 1.29553ZM15.6999 14.4254L15.4002 12.8017C15.3754 12.6676 15.2715 12.5621 15.1377 12.5353L12.7804 12.0639C12.6709 12.0421 12.5581 12.0762 12.4792 12.155L11.5216 13.1128C9.90797 12.3898 9.01242 11.4923 8.22446 9.80942L9.17906 8.85486C9.25785 8.77603 9.29207 8.66298 9.27024 8.55369L8.79879 6.19636C8.77204 6.06265 8.66653 5.95866 8.53239 5.9339L6.90873 5.63421C6.86427 5.62605 6.81849 5.62691 6.77435 5.63695C6.34564 5.73433 5.95447 5.95034 5.64311 6.26179C5.10397 6.80092 4.89792 7.58764 5.04729 8.53689C5.29803 10.1309 6.07897 12.3491 7.51978 13.7957L7.53946 13.8153C8.98493 15.2551 11.2032 16.0361 12.7973 16.2868C12.9981 16.3185 13.1915 16.3341 13.377 16.3341C14.0682 16.3341 14.6473 16.1161 15.0725 15.691C15.3838 15.3796 15.5999 14.9884 15.6973 14.5598C15.7072 14.5156 15.7081 14.4699 15.6999 14.4254ZM11.0005 8.00033C11.0005 7.81623 11.1498 7.66697 11.3339 7.66697C12.4368 7.66697 13.3341 8.56423 13.3341 9.66719C13.3341 9.84883 13.1824 10.0006 13.0007 10.0006C12.8191 10.0006 12.6674 9.84883 12.6674 9.66719C12.6674 8.93188 12.0692 8.33368 11.3339 8.33368C11.1498 8.33368 11.0005 8.18443 11.0005 8.00033ZM11.3335 6.33347C11.2102 6.33347 11.0857 6.34031 10.9635 6.35378C10.7805 6.37398 10.6485 6.5387 10.6687 6.72175C10.6889 6.9048 10.854 7.03644 11.0367 7.01655C11.1347 7.00573 11.2345 7.00023 11.3335 7.00023C12.8041 7.00023 14.0005 8.19662 14.0005 9.6672C14.0005 9.76622 13.995 9.86607 13.9841 9.96404C13.9642 10.1445 14.0984 10.3121 14.2789 10.332C14.4595 10.3519 14.6269 10.2178 14.6469 10.0372C14.6604 9.91501 14.6672 9.79056 14.6672 9.6672C14.6672 7.82901 13.1717 6.33347 11.3335 6.33347ZM10.9749 5.01355C11.0937 5.00453 11.2143 5 11.3335 5C13.907 5 16.0007 7.0937 16.0007 9.66724C16.0007 10.0309 15.9587 10.3932 15.8758 10.744C15.833 10.9253 15.6428 11.038 15.4631 10.9888C15.2923 10.942 15.1862 10.7629 15.2269 10.5907C15.2979 10.29 15.334 9.97935 15.334 9.66724C15.334 7.46135 13.5394 5.66675 11.3335 5.66675C11.2311 5.66675 11.1273 5.67066 11.0253 5.67843C10.8422 5.69234 10.6815 5.55476 10.6677 5.37117C10.6538 5.18762 10.7913 5.02746 10.9749 5.01355Z" fill="#FCFCFC"/>
</svg>
