<svg width="22" height="22" viewBox="0 0 22 22" fill="none" xmlns="http://www.w3.org/2000/svg">
<path d="M11.0027 1.29553H10.9978C5.64709 1.29553 1.2959 5.64794 1.2959 10.9999C1.2959 13.1227 1.98006 15.0903 3.14337 16.6879L1.93396 20.293L5.66407 19.1006C7.19857 20.1171 9.02906 20.7042 11.0027 20.7042C16.3534 20.7042 20.7046 16.3506 20.7046 10.9999C20.7046 5.64915 16.3534 1.29553 11.0027 1.29553ZM16.6494 14.9993C16.4153 15.6604 15.4861 16.2087 14.7449 16.3688C14.2379 16.4768 13.5755 16.5629 11.346 15.6386C8.4941 14.4571 6.65756 11.5591 6.51442 11.3711C6.37734 11.1831 5.36202 9.83658 5.36202 8.444C5.36202 7.05143 6.06923 6.37334 6.35429 6.08221C6.58841 5.84324 6.97537 5.73406 7.34657 5.73406C7.46666 5.73406 7.57462 5.74013 7.67166 5.74498C7.95673 5.75711 8.09987 5.77409 8.28789 6.22413C8.52201 6.7882 9.09214 8.18077 9.16007 8.32391C9.22921 8.46705 9.29835 8.66114 9.20131 8.84916C9.11033 9.04325 9.03027 9.12937 8.88713 9.29435C8.74399 9.45932 8.60813 9.58548 8.46499 9.76258C8.33398 9.91664 8.18599 10.0816 8.35097 10.3667C8.51594 10.6457 9.08607 11.5761 9.9255 12.3233C11.0087 13.2877 11.887 13.5958 12.2012 13.7268C12.4353 13.8239 12.7143 13.8008 12.8853 13.6189C13.1025 13.3847 13.3705 12.9966 13.6435 12.6145C13.8376 12.3403 14.0826 12.3063 14.3398 12.4034C14.6018 12.4944 15.9883 13.1797 16.2734 13.3217C16.5584 13.4648 16.7464 13.5327 16.8156 13.6528C16.8835 13.7729 16.8835 14.337 16.6494 14.9993Z" fill="#FCFCFC"/>
</svg>
