<svg width="46" height="46" viewBox="0 0 46 46" fill="none" xmlns="http://www.w3.org/2000/svg">
<path opacity="0.1" d="M37.3882 9.82764H28.7906C28.4366 9.82764 28.1112 10.0277 27.9573 10.3465C27.5379 11.2148 26.8972 11.9561 26.1085 12.4973C25.3404 13.0246 24.4312 13.3616 23.4494 13.4409V10.2769H25.2684C25.5165 10.2769 25.7177 10.0757 25.7177 9.82764C25.7177 9.57958 25.5165 9.37842 25.2684 9.37842H24.278C24.7448 9.00386 25.044 8.42886 25.044 7.78379C25.044 6.65499 24.129 5.73993 23.0002 5.73993C21.8714 5.73993 20.9563 6.65499 20.9563 7.78379C20.9563 8.42886 21.2555 9.00386 21.7223 9.37842H20.7319C20.4838 9.37842 20.2827 9.57958 20.2827 9.82764C20.2827 10.0757 20.4838 10.2769 20.7319 10.2769H22.5509V13.4409C21.569 13.3616 20.6598 13.0246 19.8918 12.4973C19.103 11.9561 18.4624 11.2148 18.0429 10.3465C17.889 10.0277 17.5636 9.82764 17.2096 9.82764H8.61196C8.14837 9.82764 7.77246 10.2035 7.77246 10.6671C7.77246 11.6779 8.59184 12.4973 9.60258 12.4973H11.7499V13.3368C11.7499 14.3475 12.5693 15.1669 13.58 15.1669H14.9321V16.006C14.9321 17.0168 15.7515 17.8361 16.7622 17.8361H22.5509V20.1466C22.4239 20.0753 22.2776 20.0343 22.1217 20.0343H19.6279C19.4382 20.0343 19.2768 20.1521 19.2107 20.3182C16.9546 20.3726 15.1357 22.2235 15.1357 24.4925C15.1357 25.6297 15.5931 26.6618 16.333 27.4156C15.5932 28.1696 15.1357 29.2016 15.1357 30.3388C15.1357 32.4822 16.7588 34.2528 18.8403 34.4881C18.6085 35.0071 18.4786 35.5811 18.4786 36.1852C18.4786 38.4532 20.296 40.3034 22.5508 40.3593V41.8926H22.0228C21.7748 41.8926 21.5736 42.0938 21.5736 42.3418C21.5736 42.5899 21.7748 42.791 22.0228 42.791H22.5509V43.8232C22.5509 44.0712 22.752 44.2724 23.0001 44.2724C23.2481 44.2724 23.4493 44.0712 23.4493 43.8232V42.791H23.9771C24.2252 42.791 24.4263 42.5899 24.4263 42.3418C24.4263 42.0938 24.2252 41.8926 23.9771 41.8926H23.4493V40.3593C25.7041 40.3034 27.5215 38.4532 27.5215 36.1852C27.5215 35.5811 27.3915 35.0071 27.1597 34.4881C29.2413 34.2527 30.8644 32.4822 30.8644 30.3388C30.8644 29.2015 30.407 28.1695 29.6671 27.4156C30.4069 26.6617 30.8644 25.6296 30.8644 24.4925C30.8644 22.2235 29.0455 20.3726 26.7893 20.3182C26.7233 20.1521 26.5618 20.0343 26.3722 20.0343H23.8784C23.7224 20.0343 23.5762 20.0753 23.4492 20.1466V17.8361H29.2378C30.2486 17.8361 31.068 17.0168 31.068 16.006V15.1669H32.42C33.4308 15.1669 34.2501 14.3475 34.2501 13.3368V12.4973H36.3975C37.4082 12.4973 38.2276 11.6779 38.2276 10.6671C38.2277 10.2035 37.8518 9.82764 37.3882 9.82764ZM19.3125 22.8229H20.9644H21.3037C21.7977 22.8229 22.2409 22.6105 22.5509 22.2736V26.162H19.3126C18.392 26.162 17.6431 25.413 17.6431 24.4925C17.643 23.5718 18.3919 22.8229 19.3125 22.8229ZM17.643 30.3389C17.643 29.4182 18.392 28.6693 19.3125 28.6693H22.5509V32.0085H19.3125C18.3919 32.0084 17.643 31.2595 17.643 30.3389ZM20.9859 36.1853C20.9859 35.3 21.679 34.5754 22.5509 34.521V37.8496C21.679 37.7952 20.9859 37.0706 20.9859 36.1853ZM23.4493 37.8495V34.5209C24.3211 34.5754 25.0143 35.3 25.0143 36.1852C25.0143 37.0706 24.3211 37.7952 23.4493 37.8495ZM26.6876 32.0084H23.4493V28.6692H26.6876C27.6082 28.6692 28.3572 29.4182 28.3572 30.3388C28.3572 31.2593 27.6082 32.0084 26.6876 32.0084ZM24.6965 22.8229H25.0358H26.6877C27.6083 22.8229 28.3573 23.5718 28.3573 24.4925C28.3573 25.4131 27.6083 26.162 26.6877 26.162H23.4493V22.2735C23.7593 22.6105 24.2025 22.8229 24.6965 22.8229Z" fill="#2626BC"/>
<path d="M29.6911 4.96126C29.443 4.96126 29.2418 4.7601 29.2418 4.51204C29.2418 4.19831 28.9866 3.94306 28.6729 3.94306C28.4248 3.94306 28.2236 3.7419 28.2236 3.49384C28.2236 3.24579 28.4248 3.04463 28.6729 3.04463C28.9866 3.04463 29.2418 2.78938 29.2418 2.47556C29.2418 2.2275 29.443 2.02634 29.6911 2.02634C29.9391 2.02634 30.1403 2.2275 30.1403 2.47556C30.1403 2.78929 30.3955 3.04463 30.7092 3.04463C30.9573 3.04463 31.1585 3.24579 31.1585 3.49384C31.1585 3.7419 30.9573 3.94306 30.7092 3.94306C30.3955 3.94306 30.1403 4.19831 30.1403 4.51204C30.1403 4.76019 29.9391 4.96126 29.6911 4.96126Z" fill="#6583FE"/>
<path d="M36.651 17.0579C36.403 17.0579 36.2018 16.8568 36.2018 16.6087C36.2018 16.295 35.9465 16.0397 35.6328 16.0397C35.3848 16.0397 35.1836 15.8386 35.1836 15.5905C35.1836 15.3424 35.3848 15.1413 35.6328 15.1413C35.9465 15.1413 36.2018 14.886 36.2018 14.5723C36.2018 14.3242 36.403 14.1231 36.651 14.1231C36.8991 14.1231 37.1002 14.3242 37.1002 14.5723C37.1002 14.886 37.3555 15.1413 37.6692 15.1413C37.9173 15.1413 38.1184 15.3424 38.1184 15.5905C38.1184 15.8386 37.9173 16.0397 37.6692 16.0397C37.3555 16.0397 37.1002 16.295 37.1002 16.6087C37.1002 16.8568 36.8991 17.0579 36.651 17.0579Z" fill="#6583FE"/>
<path d="M11.0973 22.497C10.8492 22.497 10.6481 22.2958 10.6481 22.0478C10.6481 21.734 10.3928 21.4788 10.0791 21.4788C9.83104 21.4788 9.62988 21.2776 9.62988 21.0296C9.62988 20.7815 9.83104 20.5804 10.0791 20.5804C10.3928 20.5804 10.6481 20.3251 10.6481 20.0114C10.6481 19.7633 10.8492 19.5622 11.0973 19.5622C11.3454 19.5622 11.5465 19.7633 11.5465 20.0114C11.5465 20.3251 11.8018 20.5804 12.1155 20.5804C12.3636 20.5804 12.5647 20.7815 12.5647 21.0296C12.5647 21.2776 12.3636 21.4788 12.1155 21.4788C11.8018 21.4788 11.5465 21.734 11.5465 22.0478C11.5465 22.2958 11.3454 22.497 11.0973 22.497Z" fill="#6583FE"/>
<path d="M9.5791 15.8501C9.33104 15.8501 9.12988 15.6489 9.12988 15.4009V15.3874C9.12988 15.1393 9.33104 14.9382 9.5791 14.9382C9.82716 14.9382 10.0283 15.1393 10.0283 15.3874V15.4009C10.0283 15.6489 9.82716 15.8501 9.5791 15.8501Z" fill="#6583FE"/>
<path d="M9.5791 18.346C9.33104 18.346 9.12988 18.1448 9.12988 17.8968V17.8833C9.12988 17.6352 9.33104 17.4341 9.5791 17.4341C9.82716 17.4341 10.0283 17.6352 10.0283 17.8833V17.8968C10.0283 18.1449 9.82716 18.346 9.5791 18.346Z" fill="#6583FE"/>
<path d="M8.5035 16.4712C8.42713 16.4712 8.34978 16.4517 8.27889 16.4106L8.26721 16.4039C8.05249 16.2795 7.97917 16.0048 8.10352 15.7901C8.22777 15.5754 8.50251 15.5021 8.71733 15.6264L8.72901 15.6331C8.94374 15.7575 9.01705 16.0322 8.8927 16.2469C8.80951 16.3908 8.65857 16.4712 8.5035 16.4712Z" fill="#6583FE"/>
<path d="M10.6657 17.7192C10.5893 17.7192 10.5119 17.6997 10.441 17.6586L10.4293 17.6519C10.2146 17.5275 10.1413 17.2528 10.2656 17.038C10.3899 16.8233 10.6646 16.7499 10.8795 16.8743L10.8912 16.881C11.1059 17.0054 11.1792 17.2801 11.0549 17.4949C10.9717 17.6388 10.8208 17.7192 10.6657 17.7192Z" fill="#6583FE"/>
<path d="M8.49272 17.7192C8.33765 17.7192 8.1868 17.6388 8.10352 17.4949C7.97917 17.2802 8.05249 17.0054 8.26721 16.881L8.27889 16.8743C8.49371 16.7499 8.76845 16.8233 8.8927 17.038C9.01705 17.2527 8.94374 17.5275 8.72901 17.6519L8.71733 17.6586C8.64653 17.6997 8.56909 17.7192 8.49272 17.7192Z" fill="#6583FE"/>
<path d="M10.6548 16.4709C10.4998 16.4709 10.3489 16.3905 10.2656 16.2466C10.1413 16.0319 10.2146 15.7571 10.4293 15.6328L10.441 15.6261C10.6559 15.5018 10.9307 15.5751 11.0549 15.7898C11.1792 16.0045 11.1059 16.2793 10.8912 16.4036L10.8795 16.4103C10.8086 16.4513 10.7312 16.4709 10.6548 16.4709Z" fill="#6583FE"/>
<path d="M33.46 35.0919C33.2119 35.0919 33.0107 34.8907 33.0107 34.6427V34.6292C33.0107 34.3811 33.2119 34.18 33.46 34.18C33.708 34.18 33.9092 34.3811 33.9092 34.6292V34.6427C33.9092 34.8907 33.708 35.0919 33.46 35.0919Z" fill="#6583FE"/>
<path d="M33.46 37.5879C33.2119 37.5879 33.0107 37.3867 33.0107 37.1387V37.1252C33.0107 36.8771 33.2119 36.676 33.46 36.676C33.708 36.676 33.9092 36.8771 33.9092 37.1252V37.1387C33.9092 37.3867 33.708 37.5879 33.46 37.5879Z" fill="#6583FE"/>
<path d="M32.3844 35.713C32.308 35.713 32.2306 35.6935 32.1597 35.6524L32.1481 35.6457C31.9333 35.5213 31.86 35.2466 31.9844 35.0318C32.1086 34.8171 32.3833 34.7438 32.5983 34.8681L32.61 34.8748C32.8247 34.9992 32.898 35.2739 32.7736 35.4887C32.6903 35.6326 32.5394 35.713 32.3844 35.713Z" fill="#6583FE"/>
<path d="M34.5465 36.9615C34.4701 36.9615 34.3927 36.942 34.3219 36.9009L34.3102 36.8942C34.0955 36.7698 34.0221 36.4951 34.1465 36.2803C34.2707 36.0656 34.5454 35.9923 34.7603 36.1166L34.772 36.1233C34.9867 36.2477 35.06 36.5224 34.9357 36.7371C34.8524 36.8811 34.7015 36.9615 34.5465 36.9615Z" fill="#6583FE"/>
<path d="M32.3736 36.9612C32.2185 36.9612 32.0677 36.8808 31.9844 36.737C31.86 36.5222 31.9333 36.2474 32.1481 36.1232L32.1597 36.1164C32.3746 35.9922 32.6494 36.0654 32.7736 36.2801C32.898 36.4948 32.8247 36.7697 32.61 36.894L32.5983 36.9008C32.5273 36.9417 32.4499 36.9612 32.3736 36.9612Z" fill="#6583FE"/>
<path d="M34.5357 35.7127C34.3806 35.7127 34.2298 35.6323 34.1465 35.4884C34.0221 35.2737 34.0955 34.9989 34.3102 34.8745L34.3219 34.8678C34.5367 34.7435 34.8114 34.8168 34.9357 35.0315C35.06 35.2462 34.9867 35.5211 34.772 35.6454L34.7603 35.6521C34.6894 35.6932 34.6121 35.7127 34.5357 35.7127Z" fill="#6583FE"/>
<path d="M22.6555 38.1157C20.3524 38.1157 18.4786 36.242 18.4786 33.9388C18.4786 31.6357 20.3523 29.762 22.6555 29.762H26.6877C27.6083 29.762 28.3572 29.013 28.3572 28.0924C28.3572 27.1718 27.6083 26.4229 26.6877 26.4229H19.3126C17.0095 26.4229 15.1357 24.5492 15.1357 22.246C15.1357 19.9429 17.0094 18.0692 19.3126 18.0692H20.9644C21.6568 18.0692 22.218 18.6304 22.218 19.3228C22.218 20.0151 21.6568 20.5764 20.9644 20.5764H19.3126C18.3919 20.5764 17.643 21.3253 17.643 22.2459C17.643 23.1666 18.392 23.9155 19.3126 23.9155H26.6877C28.9907 23.9155 30.8645 25.7892 30.8645 28.0923C30.8645 30.3954 28.9908 32.2692 26.6877 32.2692H22.6555C21.7349 32.2692 20.9859 33.0182 20.9859 33.9387C20.9859 34.8594 21.7349 35.6083 22.6555 35.6083C23.3478 35.6083 23.9091 36.1696 23.9091 36.8619C23.9091 37.5542 23.3478 38.1157 22.6555 38.1157Z" fill="white"/>
<path d="M23.3448 38.1157C25.6478 38.1157 27.5216 36.242 27.5216 33.9388C27.5216 31.6357 25.6479 29.762 23.3448 29.762H19.3126C18.3919 29.762 17.643 29.013 17.643 28.0924C17.643 27.1718 18.392 26.4229 19.3126 26.4229H26.6877C28.9907 26.4229 30.8645 24.5492 30.8645 22.246C30.8645 19.9429 28.9908 18.0692 26.6877 18.0692H25.0358C24.3435 18.0692 23.7822 18.6304 23.7822 19.3228C23.7822 20.0151 24.3435 20.5764 25.0358 20.5764H26.6877C27.6083 20.5764 28.3572 21.3253 28.3572 22.2459C28.3572 23.1666 27.6083 23.9155 26.6877 23.9155H19.3126C17.0095 23.9155 15.1357 25.7892 15.1357 28.0923C15.1357 30.3954 17.0094 32.2692 19.3126 32.2692H23.3448C24.2654 32.2692 25.0143 33.0182 25.0143 33.9387C25.0143 34.8594 24.2653 35.6083 23.3448 35.6083C22.6524 35.6083 22.0912 36.1696 22.0912 36.8619C22.0912 37.5542 22.6524 38.1157 23.3448 38.1157Z" fill="#6583FE"/>
<path d="M23.7871 7.41905C24.8301 6.98673 25.3252 5.79074 24.8928 4.74773C24.4605 3.70473 23.2645 3.20968 22.2215 3.64201C21.1785 4.07434 20.6835 5.27032 21.1158 6.31333C21.5481 7.35633 22.7441 7.85138 23.7871 7.41905Z" fill="white"/>
<path d="M38.2277 8.42104C38.2277 9.43179 37.4083 10.2512 36.3976 10.2512H26.1084C26.8971 9.71003 27.5377 8.96873 27.9572 8.10039C28.1112 7.78162 28.4365 7.58154 28.7905 7.58154H37.3881C37.8518 7.58154 38.2277 7.95745 38.2277 8.42104Z" fill="white"/>
<path d="M34.2501 10.2513V11.0908C34.2501 12.1015 33.4308 12.9209 32.42 12.9209H23V11.2133C24.1535 11.2133 25.2243 10.8582 26.1083 10.2513H34.2501Z" fill="white"/>
<path d="M23 12.9207H31.068V13.7601C31.068 14.7708 30.2486 15.5902 29.2379 15.5902H23V12.9207Z" fill="white"/>
<path d="M19.8918 10.2512H9.60258C8.59184 10.2512 7.77246 9.43179 7.77246 8.42104C7.77246 7.95736 8.14837 7.58154 8.61196 7.58154H17.2096C17.5635 7.58154 17.889 7.78162 18.0429 8.10039C18.4623 8.96873 19.103 9.71012 19.8918 10.2512Z" fill="white"/>
<path d="M23.0001 11.2135V12.9211H13.5801C12.5694 12.9211 11.75 12.1017 11.75 11.0909V10.2514H19.8917C20.7758 10.8583 21.8466 11.2135 23.0001 11.2135Z" fill="white"/>
<path d="M23.0006 12.9207H14.9326V13.7601C14.9326 14.7708 15.752 15.5902 16.7627 15.5902H23.0006V12.9207Z" fill="white"/>
<path d="M26.8217 20.5774H24.6963C23.7595 20.5774 23 19.8178 23 18.8809V18.6671C23 18.1819 23.3932 17.7887 23.8784 17.7887H26.3722C26.6204 17.7887 26.8217 17.9899 26.8217 18.2382V20.5774Z" fill="white"/>
<path d="M19.1787 20.5774H21.304C22.2409 20.5774 23.0005 19.8178 23.0005 18.8809V18.6671C23.0005 18.1819 22.6072 17.7887 22.1221 17.7887H19.6283C19.38 17.7887 19.1788 17.9899 19.1788 18.2382V20.5774H19.1787Z" fill="white"/>
<path d="M28.0737 27.1666H30.7596C30.3372 25.3078 28.6725 23.9157 26.6877 23.9157H19.3126C18.8213 23.9157 18.3793 23.7018 18.0736 23.3629H15.2891C15.7788 25.1253 17.3964 26.4229 19.3127 26.4229H26.6878C27.2656 26.4229 27.7742 26.7191 28.0737 27.1666Z" fill="white"/>
<path d="M37.3881 7.13233H28.7905C28.2653 7.13233 27.7794 7.43564 27.5526 7.90507C27.1695 8.69812 26.5822 9.3813 25.8542 9.88074L25.8541 9.88083C25.8541 9.88083 25.8541 9.88083 25.8541 9.88083C25.1364 10.3737 24.3125 10.6676 23.4492 10.7435V8.03077H25.2683C25.5163 8.03077 25.7175 7.82961 25.7175 7.58155C25.7175 7.33349 25.5163 7.13233 25.2683 7.13233H24.9146C25.2755 6.69982 25.4931 6.14369 25.4931 5.53769C25.4931 4.16299 24.3747 3.04462 23 3.04462C21.6253 3.04462 20.5069 4.16299 20.5069 5.53769C20.5069 6.14369 20.7245 6.69982 21.0853 7.13233H20.7317C20.4836 7.13233 20.2825 7.33349 20.2825 7.58155C20.2825 7.82961 20.4836 8.03077 20.7317 8.03077H22.5508V10.7435C21.6875 10.6676 20.8637 10.3737 20.1459 9.88083C20.1459 9.88083 20.1459 9.88083 20.1458 9.88083L20.1457 9.88074C19.4176 9.3813 18.8303 8.69812 18.4473 7.90507C18.2206 7.43564 17.7347 7.13233 17.2095 7.13233H8.61196C7.9013 7.13233 7.32324 7.71047 7.32324 8.42105C7.32324 9.67787 8.34575 10.7004 9.60258 10.7004H11.3007V11.0907C11.3007 12.3475 12.3232 13.37 13.58 13.37H14.4828V13.7599C14.4828 15.0167 15.5053 16.0393 16.7621 16.0393H22.5508V17.4114C22.4159 17.3652 22.2719 17.3388 22.1216 17.3388H19.6278C19.3639 17.3388 19.127 17.4538 18.9625 17.6355C16.5748 17.8151 14.6865 19.8133 14.6865 22.2463C14.6865 23.3543 15.0784 24.3724 15.7305 25.1697C15.0559 25.9947 14.6865 27.0219 14.6865 28.0926C14.6865 30.271 16.2005 32.1015 18.2313 32.5898C18.0979 33.0257 18.0294 33.4778 18.0294 33.9391C18.0294 36.4548 20.0483 38.5065 22.5508 38.5625V39.6465H22.0228C21.7748 39.6465 21.5736 39.8477 21.5736 40.0957C21.5736 40.3438 21.7748 40.5449 22.0228 40.5449H22.5508V41.5771C22.5508 41.8251 22.7519 42.0263 23 42.0263C23.248 42.0263 23.4492 41.8251 23.4492 41.5771V40.5449H23.977C24.2251 40.5449 24.4263 40.3438 24.4263 40.0957C24.4263 39.8477 24.2251 39.6465 23.977 39.6465H23.4492V38.5625C25.9517 38.5065 27.9706 36.4548 27.9706 33.9391C27.9706 33.47 27.8999 33.0173 27.7694 32.5904C29.8158 32.0962 31.3135 30.2302 31.3135 28.0927C31.3135 26.9844 30.9214 25.9662 30.2691 25.1686C30.6284 24.7279 30.9083 24.2194 31.0841 23.6828C31.1613 23.447 31.0327 23.1932 30.797 23.1161C30.5611 23.0389 30.3075 23.1675 30.2303 23.4032C30.0984 23.806 29.8929 24.1887 29.6311 24.5267C29.2113 24.1796 28.729 23.9061 28.2045 23.7234C28.5765 23.3415 28.8063 22.8203 28.8063 22.2463C28.8063 21.2803 28.1563 20.4639 27.2709 20.2098V18.5645C28.6299 18.779 29.7776 19.7321 30.224 21.0706C30.3024 21.3059 30.5568 21.433 30.7922 21.3547C31.0276 21.2762 31.1547 21.0218 31.0763 20.7864C30.4819 19.0037 28.8841 17.7721 27.0359 17.6336C26.8714 17.453 26.6352 17.3388 26.3723 17.3388H23.8785C23.7282 17.3388 23.5842 17.3652 23.4493 17.4114V15.59V13.37H30.6188V13.7599C30.6188 14.5213 29.9994 15.1408 29.2379 15.1408H25.6145C25.3665 15.1408 25.1653 15.342 25.1653 15.59C25.1653 15.8381 25.3665 16.0393 25.6145 16.0393H29.2379C30.4947 16.0393 31.5173 15.0167 31.5173 13.7599V13.37H32.4201C33.6769 13.37 34.6994 12.3475 34.6994 11.0907V10.7004H36.3976C37.6544 10.7004 38.6769 9.67787 38.6769 8.42105C38.6768 7.71047 38.0987 7.13233 37.3881 7.13233ZM21.4053 5.53769C21.4053 4.65839 22.1207 3.94305 23 3.94305C23.8793 3.94305 24.5946 4.65839 24.5946 5.53769C24.5946 6.41699 23.8793 7.13233 23 7.13233C22.1207 7.13233 21.4053 6.41699 21.4053 5.53769ZM8.22159 8.42114C8.22159 8.20587 8.39669 8.03086 8.61187 8.03086H17.2095C17.3922 8.03086 17.5606 8.13489 17.6383 8.29589C17.9058 8.84951 18.2576 9.35758 18.6784 9.80203H11.7498H9.60249C8.84106 9.80194 8.22159 9.18247 8.22159 8.42114ZM12.1991 11.0907V10.7004H19.7552C20.5955 11.2486 21.5518 11.5713 22.5508 11.6458V12.4713H14.932C14.9309 12.4713 14.93 12.4716 14.929 12.4716H13.58C12.8185 12.4717 12.1991 11.8522 12.1991 11.0907ZM16.7621 15.1408C16.0007 15.1408 15.3812 14.5213 15.3812 13.7599V13.37H22.5508V15.1408H16.7621ZM19.3124 23.4667C18.6395 23.4667 18.0921 22.9192 18.0921 22.2463C18.0921 21.5734 18.6396 21.0259 19.3124 21.0259H20.4559H21.3036C21.7685 21.0259 22.199 20.8768 22.5508 20.6246V23.4667H19.3124ZM19.6278 18.2374H22.1216C22.3582 18.2374 22.5508 18.4299 22.5508 18.6666V18.8804C22.5508 19.5681 21.9913 20.1276 21.3036 20.1276H19.6276L19.6278 18.2374ZM18.9278 33.9392C18.9278 33.5184 18.9981 33.1072 19.1353 32.7143C19.1942 32.7166 19.2531 32.7188 19.3125 32.7188H20.925C20.6808 33.0641 20.5366 33.485 20.5366 33.9392C20.5366 34.8503 21.1148 35.6283 21.9234 35.9269C21.7459 36.1956 21.6418 36.5169 21.6418 36.8623C21.6418 37.1134 21.6979 37.3512 21.7958 37.5659C20.1536 37.1768 18.9278 35.6988 18.9278 33.9392ZM22.5508 32.7241V35.1542C21.9267 35.1009 21.435 34.5767 21.435 33.9391C21.435 33.3015 21.9267 32.7774 22.5508 32.7241ZM23.4492 32.7241C24.0733 32.7775 24.565 33.3016 24.565 33.9392C24.565 34.5768 24.0733 35.101 23.4492 35.1543V32.7241ZM23.3446 37.6668C22.9011 37.6668 22.5403 37.3059 22.5403 36.8624C22.5403 36.4189 22.9011 36.0581 23.3446 36.0581C24.513 36.0581 25.4634 35.1075 25.4634 33.9393C25.4634 32.771 24.513 31.8205 23.3446 31.8205H22.6558C22.6556 31.8205 22.6555 31.8205 22.6553 31.8205C22.6547 31.8205 22.6542 31.8205 22.6536 31.8205H19.3124C17.257 31.8205 15.5848 30.1483 15.5848 28.0929C15.5848 27.2618 15.8611 26.4632 16.3675 25.8114C16.7876 26.1591 17.2703 26.4329 17.7954 26.6158C17.4234 26.9977 17.1936 27.5189 17.1936 28.0929C17.1936 29.2612 18.144 30.2117 19.3123 30.2117H22.6553H23.3445C25.4 30.2117 27.0721 31.8838 27.0721 33.9393C27.0722 35.9945 25.4 37.6668 23.3446 37.6668ZM26.6875 26.8724C27.3605 26.8724 27.9079 27.4199 27.9079 28.0928C27.9079 28.7657 27.3604 29.3131 26.6875 29.3131H23.4492V26.8723H23.5926H26.6875V26.8724ZM22.5508 29.3131H19.3124C18.6395 29.3131 18.0921 28.7656 18.0921 28.0928C18.0921 27.4199 18.6396 26.8724 19.3124 26.8724H22.5508V29.3131ZM27.4178 31.7483C27.0905 31.1423 26.6317 30.6175 26.08 30.2116H26.6875C27.8559 30.2116 28.8063 29.2611 28.8063 28.0928C28.8063 26.9245 27.8559 25.974 26.6875 25.974H23.5926H19.3124C17.257 25.974 15.5848 24.3018 15.5848 22.2464C15.5848 20.3896 16.95 18.8472 18.7291 18.5664V20.2099C17.8436 20.4638 17.1937 21.2804 17.1937 22.2464C17.1937 23.4147 18.1441 24.3653 19.3124 24.3653H26.6875C28.743 24.3653 30.4151 26.0374 30.4151 28.0929C30.4151 29.8642 29.1387 31.4044 27.4178 31.7483ZM27.9079 22.2464C27.9079 22.9193 27.3604 23.4668 26.6875 23.4668H23.4492V20.6247C23.8009 20.877 24.2315 21.026 24.6963 21.026H26.6883C27.3609 21.0265 27.9079 21.5737 27.9079 22.2464ZM23.8784 18.2374L26.3724 18.2376V20.1276H24.6963C24.0087 20.1276 23.4492 19.5681 23.4492 18.8804V18.6666C23.4492 18.4299 23.6417 18.2374 23.8784 18.2374ZM33.8009 11.0907C33.8009 11.8521 33.1814 12.4716 32.42 12.4716H31.0706C31.0697 12.4716 31.0689 12.4713 31.068 12.4713H23.4492V11.6457C24.4482 11.5712 25.4045 11.2485 26.2448 10.7003H33.8009V11.0907ZM36.3975 9.80195H34.2501H27.3216C27.7424 9.35749 28.0942 8.84942 28.3617 8.2958C28.4394 8.1348 28.6078 8.03077 28.7905 8.03077H37.3881C37.6034 8.03077 37.7784 8.20587 37.7784 8.42105C37.7784 9.18247 37.1589 9.80195 36.3975 9.80195Z" fill="#0000CC"/>
<path d="M24.5223 19.3225L24.5343 19.3295C24.6052 19.3704 24.6825 19.3898 24.7588 19.3898C24.9139 19.3898 25.0649 19.3093 25.1481 19.1654C25.2722 18.9506 25.1987 18.6759 24.984 18.5517L24.972 18.5447C24.757 18.4205 24.4824 18.494 24.3582 18.7087C24.2341 18.9235 24.3076 19.1982 24.5223 19.3225Z" fill="#0000CC"/>
<path d="M21.6413 19.1653C21.7655 18.9505 21.692 18.6758 21.4773 18.5516L21.4652 18.5446C21.2503 18.4204 20.9756 18.4939 20.8514 18.7087C20.7272 18.9235 20.8007 19.1982 21.0154 19.3224L21.0275 19.3294C21.0983 19.3703 21.1756 19.3898 21.2519 19.3898C21.4072 19.3898 21.5581 19.3093 21.6413 19.1653Z" fill="#0000CC"/>
</svg>
