<svg width="46" height="46" viewBox="0 0 46 46" fill="none" xmlns="http://www.w3.org/2000/svg">
<path opacity="0.1" d="M35.3509 42.7271H10.6494C10.1532 42.7271 9.75098 42.3249 9.75098 41.8287V9.11334C9.75098 8.61714 10.1532 8.2149 10.6494 8.2149H35.3509C35.8471 8.2149 36.2493 8.61714 36.2493 9.11334V41.8287C36.2493 42.3249 35.8471 42.7271 35.3509 42.7271Z" fill="#2626BC"/>
<path d="M35.3509 40.481H10.6494C10.1532 40.481 9.75098 40.0788 9.75098 39.5826V6.86725C9.75098 6.37104 10.1532 5.96881 10.6494 5.96881H35.3509C35.8471 5.96881 36.2493 6.37104 36.2493 6.86725V39.5826C36.2493 40.0788 35.8471 40.481 35.3509 40.481Z" fill="#6583FE"/>
<path d="M32.9815 37.1768H13.0183C12.5827 37.1768 12.2295 36.8236 12.2295 36.3879V6.75764C12.2295 6.32199 12.5827 5.96881 13.0183 5.96881H32.9815C33.4172 5.96881 33.7703 6.32199 33.7703 6.75764V36.3879C33.7704 36.8236 33.4173 37.1768 32.9815 37.1768Z" fill="white"/>
<path d="M35.3509 40.9302H10.6494C9.90632 40.9302 9.30176 40.3257 9.30176 39.5826V6.86725C9.30176 6.12415 9.90632 5.51959 10.6494 5.51959H14.5511C14.7992 5.51959 15.0004 5.72075 15.0004 5.96881C15.0004 6.21687 14.7992 6.41803 14.5511 6.41803H10.6494C10.4017 6.41803 10.2002 6.61955 10.2002 6.86725V39.5826C10.2002 39.8303 10.4017 40.0318 10.6494 40.0318H35.3509C35.5986 40.0318 35.8001 39.8303 35.8001 39.5826V30.6491C35.8001 30.401 36.0012 30.1999 36.2493 30.1999C36.4975 30.1999 36.6985 30.401 36.6985 30.6491V39.5826C36.6985 40.3257 36.094 40.9302 35.3509 40.9302Z" fill="#0000CC"/>
<path d="M28.2678 6.41803H19.8975C19.6494 6.41803 19.4482 6.21687 19.4482 5.96881C19.4482 5.72075 19.6494 5.51959 19.8975 5.51959H28.2678C28.5159 5.51959 28.717 5.72075 28.717 5.96881C28.717 6.21687 28.5159 6.41803 28.2678 6.41803Z" fill="#0000CC"/>
<path d="M36.2498 28.4838C36.0016 28.4838 35.8006 28.2827 35.8006 28.0346V6.86725C35.8006 6.61955 35.599 6.41803 35.3513 6.41803H31.6641C31.4159 6.41803 31.2148 6.21687 31.2148 5.96881C31.2148 5.72075 31.4159 5.51959 31.6641 5.51959H35.3513C36.0944 5.51959 36.699 6.12415 36.699 6.86725V28.0346C36.699 28.2827 36.4978 28.4838 36.2498 28.4838Z" fill="#0000CC"/>
<path d="M16.8335 8.72576H15C14.7519 8.72576 14.5508 8.5246 14.5508 8.27654V4.98843C14.5508 4.74029 14.7519 4.53922 15 4.53922H16.8335C17.0816 4.53922 17.2828 4.74029 17.2828 4.98843V8.27645C17.2828 8.5246 17.0817 8.72576 16.8335 8.72576Z" fill="white"/>
<path d="M16.8336 9.17498H15C14.5046 9.17498 14.1016 8.77194 14.1016 8.27654V4.98843C14.1016 4.49304 14.5046 4.09 15 4.09H16.8336C17.329 4.09 17.7321 4.49304 17.7321 4.98843V8.27645C17.7321 8.77194 17.329 9.17498 16.8336 9.17498ZM15 4.98843V8.27645H16.8342L16.8336 4.98843H15Z" fill="#0000CC"/>
<path d="M30.9995 8.72576H29.166C28.918 8.72576 28.7168 8.5246 28.7168 8.27654V4.98843C28.7168 4.74029 28.918 4.53922 29.166 4.53922H30.9995C31.2477 4.53922 31.4488 4.74029 31.4488 4.98843V8.27645C31.4488 8.5246 31.2476 8.72576 30.9995 8.72576Z" fill="white"/>
<path d="M30.9995 9.17498H29.166C28.6706 9.17498 28.2676 8.77194 28.2676 8.27654V4.98843C28.2676 4.49304 28.6706 4.09 29.166 4.09H30.9995C31.4949 4.09 31.898 4.49304 31.898 4.98843V8.27645C31.898 8.77194 31.4949 9.17498 30.9995 9.17498ZM29.166 4.98843V8.27645H31.0002L30.9995 4.98843H29.166Z" fill="#0000CC"/>
<path d="M19.187 16.4094C20.5374 15.7022 21.0588 14.0341 20.3516 12.6836C19.6444 11.3332 17.9763 10.8118 16.6259 11.519C15.2754 12.2262 14.754 13.8943 15.4612 15.2448C16.1685 16.5952 17.8365 17.1166 19.187 16.4094Z" fill="#6583FE"/>
<path d="M19.1872 13.3849H18.4844V12.6821C18.4844 12.4628 18.3066 12.285 18.0873 12.285H17.7187C17.4993 12.285 17.3215 12.4628 17.3215 12.6821V13.3849H16.6188C16.3995 13.3849 16.2217 13.5627 16.2217 13.782V14.1506C16.2217 14.3699 16.3995 14.5477 16.6188 14.5477H17.3215V15.2505C17.3215 15.4698 17.4993 15.6476 17.7187 15.6476H18.0873C18.3066 15.6476 18.4844 15.4698 18.4844 15.2505V14.5477H19.1872C19.4065 14.5477 19.5843 14.3699 19.5843 14.1506V13.782C19.5843 13.5627 19.4065 13.3849 19.1872 13.3849Z" fill="white"/>
<path d="M30.9344 14.6772H22.7119C22.4638 14.6772 22.2627 14.4761 22.2627 14.228C22.2627 13.9799 22.4638 13.7788 22.7119 13.7788H30.9344C31.1825 13.7788 31.3836 13.9799 31.3836 14.228C31.3836 14.4761 31.1825 14.6772 30.9344 14.6772Z" fill="#0000CC"/>
<path d="M30.9344 16.3099H22.7119C22.4638 16.3099 22.2627 16.1087 22.2627 15.8607C22.2627 15.6126 22.4638 15.4114 22.7119 15.4114H30.9344C31.1825 15.4114 31.3836 15.6126 31.3836 15.8607C31.3836 16.1087 31.1825 16.3099 30.9344 16.3099Z" fill="#0000CC"/>
<path d="M25.0946 12.3872H22.7119C22.4638 12.3872 22.2627 12.1861 22.2627 11.938C22.2627 11.6899 22.4638 11.4888 22.7119 11.4888H25.0946C25.3427 11.4888 25.5438 11.6899 25.5438 11.938C25.5438 12.1861 25.3427 12.3872 25.0946 12.3872Z" fill="#0000CC"/>
<path d="M30.6715 23.2252H15.3291C15.081 23.2252 14.8799 23.0241 14.8799 22.776V19.6229C14.8799 19.3747 15.081 19.1736 15.3291 19.1736H30.6715C30.9195 19.1736 31.1207 19.3747 31.1207 19.6229V22.776C31.1207 23.0241 30.9196 23.2252 30.6715 23.2252Z" fill="white"/>
<path d="M19.0469 19.1736H15.3291C15.081 19.1736 14.8799 19.3748 14.8799 19.6229V22.776C14.8799 23.0241 15.081 23.2252 15.3291 23.2252H19.0469V19.1736Z" fill="#6583FE"/>
<path d="M28.6883 21.6488H20.915C20.6669 21.6488 20.4658 21.4476 20.4658 21.1996C20.4658 20.9515 20.6669 20.7503 20.915 20.7503H28.6883C28.9365 20.7503 29.1375 20.9515 29.1375 21.1996C29.1375 21.4476 28.9365 21.6488 28.6883 21.6488Z" fill="#0000CC"/>
<path d="M27.1109 27.7219H18.5596V28.6203H27.1109C27.3591 28.6203 27.5601 28.4192 27.5601 28.1711C27.5601 27.9231 27.359 27.7219 27.1109 27.7219Z" fill="#0000CC"/>
<path d="M22.1695 25.9288H18.5596V26.8273H22.1695C22.4176 26.8273 22.6187 26.6261 22.6187 26.3781C22.6187 26.13 22.4175 25.9288 22.1695 25.9288Z" fill="#0000CC"/>
<path d="M18.9461 26.3783C18.9461 25.5552 18.2765 24.8857 17.4535 24.8857C16.6305 24.8857 15.9609 25.5553 15.9609 26.3783C15.9609 26.7842 16.1243 27.1523 16.3881 27.4216C16.1243 27.691 15.9609 28.0591 15.9609 28.465C15.9609 28.7131 16.1621 28.9142 16.4102 28.9142C16.6582 28.9142 16.8594 28.7131 16.8594 28.465C16.8594 28.1373 17.1259 27.8709 17.4535 27.8709C17.7812 27.8709 18.0477 28.1374 18.0477 28.465C18.0477 28.7131 18.2488 28.9142 18.4969 28.9142C18.7449 28.9142 18.9461 28.7131 18.9461 28.465C18.9461 28.0591 18.7828 27.691 18.5189 27.4216C18.7827 27.1523 18.9461 26.7842 18.9461 26.3783ZM17.4534 25.7841C17.7811 25.7841 18.0476 26.0506 18.0476 26.3782C18.0476 26.7058 17.781 26.9723 17.4534 26.9723C17.1259 26.9723 16.8593 26.7058 16.8593 26.3782C16.8593 26.0506 17.1259 25.7841 17.4534 25.7841Z" fill="#0000CC"/>
<path d="M29.6785 31.6558H18.0195C17.7714 31.6558 17.5703 31.4546 17.5703 31.2066C17.5703 30.9585 17.7714 30.7574 18.0195 30.7574H29.6785C29.9267 30.7574 30.1278 30.9585 30.1278 31.2066C30.1278 31.4546 29.9267 31.6558 29.6785 31.6558Z" fill="#0000CC"/>
<path d="M16.3213 31.6607C16.5693 31.6607 16.7705 31.4595 16.7705 31.2114V31.2011C16.7705 30.9531 16.5693 30.7519 16.3213 30.7519C16.0732 30.7519 15.8721 30.9531 15.8721 31.2011V31.2114C15.8721 31.4595 16.0731 31.6607 16.3213 31.6607Z" fill="#0000CC"/>
<path d="M30.7656 26.8329C31.0137 26.8329 31.2148 26.6317 31.2148 26.3837V26.3734C31.2148 26.1253 31.0137 25.9241 30.7656 25.9241C30.5176 25.9241 30.3164 26.1253 30.3164 26.3734V26.3837C30.3164 26.6318 30.5176 26.8329 30.7656 26.8329Z" fill="#0000CC"/>
<path d="M29.3486 26.8329C29.5967 26.8329 29.7979 26.6317 29.7979 26.3837V26.3734C29.7979 26.1253 29.5967 25.9241 29.3486 25.9241C29.1006 25.9241 28.8994 26.1253 28.8994 26.3734V26.3837C28.8994 26.6318 29.1006 26.8329 29.3486 26.8329Z" fill="#0000CC"/>
<path d="M29.6785 33.4101H18.0195C17.7714 33.4101 17.5703 33.2089 17.5703 32.9609C17.5703 32.7128 17.7714 32.5117 18.0195 32.5117H29.6785C29.9267 32.5117 30.1278 32.7128 30.1278 32.9609C30.1278 33.209 29.9267 33.4101 29.6785 33.4101Z" fill="#0000CC"/>
<path d="M16.3213 33.415C16.5693 33.415 16.7705 33.2138 16.7705 32.9657V32.9554C16.7705 32.7074 16.5693 32.5062 16.3213 32.5062C16.0732 32.5062 15.8721 32.7074 15.8721 32.9554V32.9657C15.8721 33.2138 16.0731 33.415 16.3213 33.415Z" fill="#0000CC"/>
<path d="M29.6785 35.1636H18.0195C17.7714 35.1636 17.5703 34.9624 17.5703 34.7144C17.5703 34.4663 17.7714 34.2652 18.0195 34.2652H29.6785C29.9267 34.2652 30.1278 34.4663 30.1278 34.7144C30.1278 34.9624 29.9267 35.1636 29.6785 35.1636Z" fill="#0000CC"/>
<path d="M16.3213 35.1685C16.5693 35.1685 16.7705 34.9673 16.7705 34.7193V34.7089C16.7705 34.4609 16.5693 34.2597 16.3213 34.2597C16.0732 34.2597 15.8721 34.4609 15.8721 34.7089V34.7193C15.8721 34.9673 16.0731 35.1685 16.3213 35.1685Z" fill="#0000CC"/>
<path d="M5.74707 19.5079C5.49901 19.5079 5.29785 19.3067 5.29785 19.0587V19.0452C5.29785 18.7971 5.49901 18.596 5.74707 18.596C5.99513 18.596 6.19629 18.7971 6.19629 19.0452V19.0587C6.19629 19.3067 5.99513 19.5079 5.74707 19.5079Z" fill="#6583FE"/>
<path d="M5.74707 22.004C5.49901 22.004 5.29785 21.8028 5.29785 21.5547V21.5413C5.29785 21.2932 5.49901 21.092 5.74707 21.092C5.99513 21.092 6.19629 21.2932 6.19629 21.5413V21.5547C6.19629 21.8029 5.99513 22.004 5.74707 22.004Z" fill="#6583FE"/>
<path d="M4.67146 20.1284C4.59546 20.1284 4.51855 20.109 4.44793 20.0684L4.43625 20.0617C4.22117 19.9381 4.14714 19.6634 4.27085 19.4483C4.39457 19.2333 4.66904 19.1592 4.88422 19.2829L4.89589 19.2897C5.11098 19.4133 5.18501 19.688 5.0613 19.903C4.97828 20.0475 4.82698 20.1284 4.67146 20.1284Z" fill="#6583FE"/>
<path d="M6.83261 21.3763C6.75688 21.3763 6.68015 21.3572 6.60971 21.3167L6.59803 21.31C6.38277 21.1866 6.30829 20.9122 6.43155 20.6969C6.55491 20.4817 6.82947 20.407 7.04465 20.5305L7.05633 20.5373C7.27159 20.6606 7.34607 20.9351 7.22281 21.1504C7.13988 21.2952 6.9884 21.3763 6.83261 21.3763Z" fill="#6583FE"/>
<path d="M4.66068 21.3775C4.50516 21.3775 4.35396 21.2967 4.27085 21.1522C4.14714 20.9371 4.22117 20.6625 4.43625 20.5388L4.44793 20.5321C4.66311 20.4083 4.93767 20.4825 5.0613 20.6975C5.18501 20.9126 5.11098 21.1872 4.89589 21.3109L4.88422 21.3176C4.81369 21.3583 4.73669 21.3775 4.66068 21.3775Z" fill="#6583FE"/>
<path d="M6.82276 20.129C6.66697 20.129 6.51558 20.0479 6.43257 19.9031C6.30921 19.6878 6.38378 19.4133 6.59905 19.29L6.61073 19.2832C6.82599 19.1598 7.10046 19.2343 7.22382 19.4497C7.34717 19.665 7.2726 19.9394 7.05734 20.0628L7.04566 20.0695C6.97522 20.1099 6.8985 20.129 6.82276 20.129Z" fill="#6583FE"/>
<path d="M6.83372 26.7172C6.58566 26.7172 6.3845 26.516 6.3845 26.2679C6.3845 25.9542 6.12925 25.699 5.81543 25.699C5.56737 25.699 5.36621 25.4978 5.36621 25.2497C5.36621 25.0017 5.56737 24.8005 5.81543 24.8005C6.12916 24.8005 6.3845 24.5453 6.3845 24.2314C6.3845 23.9834 6.58566 23.7822 6.83372 23.7822C7.08178 23.7822 7.28293 23.9834 7.28293 24.2314C7.28293 24.5452 7.53818 24.8005 7.85191 24.8005C8.09997 24.8005 8.30113 25.0017 8.30113 25.2497C8.30113 25.4978 8.09997 25.699 7.85191 25.699C7.53818 25.699 7.28293 25.9542 7.28293 26.2679C7.28293 26.5161 7.08186 26.7172 6.83372 26.7172Z" fill="#6583FE"/>
<path d="M39.8805 16.6026C39.6324 16.6026 39.4313 16.4015 39.4313 16.1534C39.4313 15.8397 39.176 15.5843 38.8623 15.5843C38.6142 15.5843 38.4131 15.3832 38.4131 15.1351C38.4131 14.8871 38.6142 14.6859 38.8623 14.6859C39.176 14.6859 39.4313 14.4306 39.4313 14.1169C39.4313 13.8689 39.6324 13.6677 39.8805 13.6677C40.1287 13.6677 40.3297 13.8689 40.3297 14.1169C40.3297 14.4306 40.585 14.6859 40.8987 14.6859C41.1468 14.6859 41.3479 14.8871 41.3479 15.1351C41.3479 15.3832 41.1468 15.5843 40.8987 15.5843C40.585 15.5843 40.3297 15.8396 40.3297 16.1534C40.3297 16.4015 40.1286 16.6026 39.8805 16.6026Z" fill="#6583FE"/>
<path d="M39.8809 29.1512C39.6327 29.1512 39.4316 28.95 39.4316 28.702V28.6885C39.4316 28.4404 39.6327 28.2393 39.8809 28.2393C40.129 28.2393 40.3301 28.4404 40.3301 28.6885V28.702C40.3301 28.95 40.1289 29.1512 39.8809 29.1512Z" fill="#6583FE"/>
<path d="M39.8809 31.6473C39.6327 31.6473 39.4316 31.4461 39.4316 31.198V31.1846C39.4316 30.9365 39.6327 30.7354 39.8809 30.7354C40.129 30.7354 40.3301 30.9365 40.3301 31.1846V31.198C40.3301 31.4462 40.1289 31.6473 39.8809 31.6473Z" fill="#6583FE"/>
<path d="M38.8052 29.7716C38.7292 29.7716 38.6523 29.7523 38.5817 29.7117L38.57 29.705C38.355 29.5813 38.2809 29.3067 38.4046 29.0916C38.5282 28.8765 38.8028 28.8025 39.018 28.9262L39.0297 28.933C39.2448 29.0566 39.3188 29.3312 39.1951 29.5463C39.112 29.6908 38.9608 29.7716 38.8052 29.7716Z" fill="#6583FE"/>
<path d="M40.9674 31.0195C40.8914 31.0195 40.8145 31.0002 40.7438 30.9595L40.7322 30.9528C40.5171 30.8292 40.443 30.5545 40.5667 30.3394C40.6905 30.1244 40.9649 30.0503 41.1801 30.174L41.1918 30.1808C41.4069 30.3044 41.4809 30.5791 41.3572 30.7941C41.2742 30.9387 41.123 31.0195 40.9674 31.0195Z" fill="#6583FE"/>
<path d="M38.7945 31.0204C38.6389 31.0204 38.4877 30.9395 38.4046 30.795C38.2809 30.5799 38.355 30.3053 38.57 30.1817L38.5817 30.1749C38.797 30.0512 39.0715 30.1253 39.1951 30.3403C39.3188 30.5554 39.2448 30.8301 39.0297 30.9537L39.018 30.9604C38.9474 31.0011 38.8705 31.0204 38.7945 31.0204Z" fill="#6583FE"/>
<path d="M40.9566 29.7723C40.8011 29.7723 40.6499 29.6914 40.5667 29.5469C40.443 29.3318 40.5171 29.0572 40.7322 28.9336L40.7438 28.9268C40.9592 28.8032 41.2336 28.8772 41.3572 29.0922C41.4809 29.3073 41.4069 29.582 41.1918 29.7056L41.1801 29.7123C41.1095 29.753 41.0326 29.7723 40.9566 29.7723Z" fill="#6583FE"/>
<path d="M40.2184 36.1809C39.9702 36.1809 39.7692 35.9797 39.7692 35.7317C39.7692 35.4179 39.5139 35.1627 39.2002 35.1627C38.952 35.1627 38.751 34.9615 38.751 34.7135C38.751 34.4654 38.952 34.2643 39.2002 34.2643C39.5139 34.2643 39.7692 34.009 39.7692 33.6953C39.7692 33.4472 39.9702 33.2461 40.2184 33.2461C40.4665 33.2461 40.6676 33.4472 40.6676 33.6953C40.6676 34.009 40.9229 34.2643 41.2366 34.2643C41.4847 34.2643 41.6858 34.4654 41.6858 34.7135C41.6858 34.9615 41.4847 35.1627 41.2366 35.1627C40.9229 35.1627 40.6676 35.4179 40.6676 35.7317C40.6676 35.9798 40.4665 36.1809 40.2184 36.1809Z" fill="#6583FE"/>
<path d="M30.6715 23.6736H15.3291C14.8337 23.6736 14.4307 23.2705 14.4307 22.7751V19.622C14.4307 19.1266 14.8337 18.7235 15.3291 18.7235H30.6715C31.1669 18.7235 31.5699 19.1266 31.5699 19.622V22.7751C31.5699 23.2705 31.1668 23.6736 30.6715 23.6736ZM15.3291 19.622V22.7751H30.672L30.6715 19.6221H15.3291V19.622Z" fill="#0000CC"/>
</svg>
