<svg width="46" height="46" viewBox="0 0 46 46" fill="none" xmlns="http://www.w3.org/2000/svg">
<path opacity="0.1" d="M39.5145 11.2046H22.0613C21.8132 11.2046 21.6121 11.4057 21.6121 11.6538V14.8027C21.6121 15.0508 21.8132 15.2519 22.0613 15.2519H22.769V20.1889H6.48438C6.23632 20.1889 6.03516 20.39 6.03516 20.6382V23.7871C6.03516 24.0351 6.23632 24.2363 6.48438 24.2363H7.19207V42.2089C7.19207 42.7051 7.5943 43.1074 8.09051 43.1074H22.3316C22.5971 43.1074 22.835 42.9915 22.9995 42.8083C23.164 42.9915 23.402 43.1074 23.6675 43.1074H37.9086C38.4048 43.1074 38.807 42.7051 38.807 42.2089V15.252H39.5147C39.7628 15.252 39.9639 15.0509 39.9639 14.8028V11.6539C39.9637 11.4057 39.7626 11.2046 39.5145 11.2046Z" fill="#2626BC"/>
<path d="M37.9089 40.8616H23.668C23.1718 40.8616 22.7695 40.4594 22.7695 39.9632V12.0109H38.8074V39.9632C38.8074 40.4594 38.4051 40.8616 37.9089 40.8616Z" fill="white"/>
<path d="M38.8068 37.2189H26.7373C26.2411 37.2189 25.8389 36.8166 25.8389 36.3204V27.0009C25.8389 26.5047 26.2411 26.1025 26.7373 26.1025H38.8068V37.2189Z" fill="white"/>
<path d="M38.8068 28.8201V26.1025H26.7373C26.2411 26.1025 25.8389 26.5047 25.8389 27.0009V28.8201H38.8068Z" fill="#6583FE"/>
<path d="M39.5147 13.0059H22.0615C21.8135 13.0059 21.6123 12.8048 21.6123 12.5567V9.40768C21.6123 9.15963 21.8135 8.95847 22.0615 8.95847H39.5147C39.7628 8.95847 39.964 9.15963 39.964 9.40768V12.5567C39.964 12.8048 39.7628 13.0059 39.5147 13.0059Z" fill="white"/>
<path d="M34.7557 31.1672H27.8809C27.6327 31.1672 27.4316 30.966 27.4316 30.718C27.4316 30.4699 27.6327 30.2688 27.8809 30.2688H34.7557C35.0038 30.2688 35.2049 30.4699 35.2049 30.718C35.2049 30.966 35.0038 31.1672 34.7557 31.1672Z" fill="#0000CC"/>
<path d="M34.7557 32.7844H27.8809C27.6327 32.7844 27.4316 32.5832 27.4316 32.3352C27.4316 32.0871 27.6327 31.886 27.8809 31.886H34.7557C35.0038 31.886 35.2049 32.0871 35.2049 32.3352C35.2049 32.5832 35.0038 32.7844 34.7557 32.7844Z" fill="#0000CC"/>
<path d="M32.0604 34.4016H27.8809C27.6327 34.4016 27.4316 34.2004 27.4316 33.9524C27.4316 33.7043 27.6327 33.5031 27.8809 33.5031H32.0604C32.3085 33.5031 32.5096 33.7043 32.5096 33.9524C32.5096 34.2004 32.3085 34.4016 32.0604 34.4016Z" fill="#0000CC"/>
<path d="M36.7402 36.5763C36.9883 36.5763 37.1895 36.3752 37.1895 36.1271C37.1895 35.879 36.9883 35.6779 36.7402 35.6779C36.4921 35.6779 36.291 35.879 36.291 36.1271C36.291 36.3752 36.4921 36.5763 36.7402 36.5763Z" fill="#0000CC"/>
<path d="M27.8809 27.9319C28.129 27.9319 28.3301 27.7307 28.3301 27.4826C28.3301 27.2345 28.129 27.0334 27.8809 27.0334C27.6328 27.0334 27.4316 27.2345 27.4316 27.4826C27.4316 27.7307 27.6328 27.9319 27.8809 27.9319Z" fill="#0000CC"/>
<path d="M35.3066 36.5763C35.5547 36.5763 35.7559 36.3752 35.7559 36.1271C35.7559 35.879 35.5547 35.6779 35.3066 35.6779C35.0585 35.6779 34.8574 35.879 34.8574 36.1271C34.8574 36.3752 35.0585 36.5763 35.3066 36.5763Z" fill="#0000CC"/>
<path d="M33.873 36.5763C34.1211 36.5763 34.3223 36.3752 34.3223 36.1271C34.3223 35.879 34.1211 35.6779 33.873 35.6779C33.625 35.6779 33.4238 35.879 33.4238 36.1271C33.4238 36.3752 33.625 36.5763 33.873 36.5763Z" fill="#0000CC"/>
<path d="M22.3318 40.8617H8.09082C7.59461 40.8617 7.19238 40.4594 7.19238 39.9632V20.9953H23.2303V39.9632C23.2302 40.4594 22.828 40.8617 22.3318 40.8617Z" fill="white"/>
<path d="M23.2297 37.2189H11.1602C10.6639 37.2189 10.2617 36.8166 10.2617 36.3204V27.0009C10.2617 26.5047 10.6639 26.1025 11.1602 26.1025H23.2297V37.2189Z" fill="white"/>
<path d="M23.2297 28.8201V26.1025H11.1602C10.6639 26.1025 10.2617 26.5047 10.2617 27.0009V28.8201H23.2297Z" fill="#6583FE"/>
<path d="M23.9376 21.9903H6.48438C6.23632 21.9903 6.03516 21.7891 6.03516 21.5411V18.3921C6.03516 18.144 6.23632 17.9428 6.48438 17.9428H23.9376C24.1857 17.9428 24.3868 18.144 24.3868 18.3921V21.5411C24.3868 21.7891 24.1857 21.9903 23.9376 21.9903Z" fill="#6583FE"/>
<path d="M39.5145 8.50925H22.0613C21.5659 8.50925 21.1629 8.91229 21.1629 9.40768V12.5567C21.1629 13.0521 21.5659 13.4551 22.0613 13.4551H22.3198V17.4936H6.48438C5.98898 17.4936 5.58594 17.8967 5.58594 18.3921V21.5411C5.58594 22.0365 5.98898 22.4395 6.48438 22.4395H22.7808V39.9629C22.7808 40.2106 22.5793 40.4121 22.3316 40.4121H8.09051C7.84281 40.4121 7.64129 40.2106 7.64129 39.9629V24.6048C7.64129 24.3567 7.44013 24.1555 7.19207 24.1555C6.94402 24.1555 6.74286 24.3567 6.74286 24.6048V39.9629C6.74286 40.706 7.34741 41.3106 8.09051 41.3106H22.3316C22.5746 41.3106 22.8022 41.245 22.9993 41.132C23.2013 41.2476 23.4306 41.3106 23.6675 41.3106H37.9086C38.6517 41.3106 39.2562 40.706 39.2562 39.9629V13.4551H39.5147C40.0101 13.4551 40.4131 13.0521 40.4131 12.5567V9.40768C40.413 8.91229 40.01 8.50925 39.5145 8.50925ZM6.48438 18.3921H7.50177V20.4219C7.50177 20.67 7.70293 20.8711 7.95098 20.8711C8.19904 20.8711 8.4002 20.67 8.4002 20.4219V18.3921H9.57608V20.4219C9.57608 20.67 9.77724 20.8711 10.0253 20.8711C10.2734 20.8711 10.4745 20.67 10.4745 20.4219V18.3921H11.6504V20.4219C11.6504 20.67 11.8516 20.8711 12.0996 20.8711C12.3477 20.8711 12.5488 20.67 12.5488 20.4219V18.3921H13.7247V20.4219C13.7247 20.67 13.9259 20.8711 14.1739 20.8711C14.422 20.8711 14.6231 20.67 14.6231 20.4219V18.3921H15.799V20.4219C15.799 20.67 16.0002 20.8711 16.2482 20.8711C16.4963 20.8711 16.6975 20.67 16.6975 20.4219V18.3921H17.8733V20.4219C17.8733 20.67 18.0745 20.8711 18.3225 20.8711C18.5706 20.8711 18.7718 20.67 18.7718 20.4219V18.3921H19.9476V20.4219C19.9476 20.67 20.1488 20.8711 20.3969 20.8711C20.6449 20.8711 20.8461 20.67 20.8461 20.4219V18.3921H22.022V20.4219C22.022 20.67 22.2231 20.8711 22.4712 20.8711C22.7192 20.8711 22.9204 20.67 22.9204 20.4219V18.3921H23.9377L23.9382 21.541H6.48438V18.3921ZM39.5145 12.5567H35.9924C35.7443 12.5567 35.5432 12.7579 35.5432 13.0059C35.5432 13.254 35.7443 13.4551 35.9924 13.4551H38.3576V39.9629C38.3576 40.2106 38.1561 40.4121 37.9084 40.4121H23.6674C23.6456 40.4121 23.6241 40.4093 23.6028 40.4062C23.6514 40.2671 23.6792 40.1184 23.6792 39.9629V22.4395H23.9376C24.433 22.4395 24.836 22.0365 24.836 21.5411V18.3921C24.836 17.8967 24.433 17.4936 23.9376 17.4936H23.2182V13.4551H33.3779C33.626 13.4551 33.8272 13.254 33.8272 13.0059C33.8272 12.7579 33.626 12.5567 33.3779 12.5567H22.0613V9.40768H23.0786V11.4375C23.0786 11.6856 23.2798 11.8867 23.5278 11.8867C23.7759 11.8867 23.977 11.6856 23.977 11.4375V9.40768H25.1529V11.4375C25.1529 11.6856 25.3541 11.8867 25.6021 11.8867C25.8502 11.8867 26.0514 11.6856 26.0514 11.4375V9.40768H27.2272V11.4375C27.2272 11.6856 27.4284 11.8867 27.6765 11.8867C27.9245 11.8867 28.1257 11.6856 28.1257 11.4375V9.40768H29.3015V11.4375C29.3015 11.6856 29.5027 11.8867 29.7508 11.8867C29.9988 11.8867 30.2 11.6856 30.2 11.4375V9.40768H31.3759V11.4375C31.3759 11.6856 31.577 11.8867 31.8251 11.8867C32.0731 11.8867 32.2743 11.6856 32.2743 11.4375V9.40768H33.4502V11.4375C33.4502 11.6856 33.6513 11.8867 33.8994 11.8867C34.1474 11.8867 34.3486 11.6856 34.3486 11.4375V9.40768H35.5245V11.4375C35.5245 11.6856 35.7256 11.8867 35.9737 11.8867C36.2218 11.8867 36.4229 11.6856 36.4229 11.4375V9.40768H37.5988V11.4375C37.5988 11.6856 37.8 11.8867 38.048 11.8867C38.2961 11.8867 38.4972 11.6856 38.4972 11.4375V9.40768H39.5146V12.5567H39.5145Z" fill="#0000CC"/>
<path d="M19.1786 31.1672H12.3037C12.0556 31.1672 11.8545 30.966 11.8545 30.718C11.8545 30.4699 12.0556 30.2688 12.3037 30.2688H19.1786C19.4267 30.2688 19.6278 30.4699 19.6278 30.718C19.6278 30.966 19.4267 31.1672 19.1786 31.1672Z" fill="#0000CC"/>
<path d="M19.1786 32.7844H12.3037C12.0556 32.7844 11.8545 32.5832 11.8545 32.3352C11.8545 32.0871 12.0556 31.886 12.3037 31.886H19.1786C19.4267 31.886 19.6278 32.0871 19.6278 32.3352C19.6278 32.5832 19.4267 32.7844 19.1786 32.7844Z" fill="#0000CC"/>
<path d="M16.4832 34.4016H12.3037C12.0556 34.4016 11.8545 34.2004 11.8545 33.9524C11.8545 33.7043 12.0556 33.5031 12.3037 33.5031H16.4832C16.7314 33.5031 16.9325 33.7043 16.9325 33.9524C16.9325 34.2004 16.7314 34.4016 16.4832 34.4016Z" fill="#0000CC"/>
<path d="M21.1631 36.5763C21.4112 36.5763 21.6123 36.3752 21.6123 36.1271C21.6123 35.879 21.4112 35.6779 21.1631 35.6779C20.915 35.6779 20.7139 35.879 20.7139 36.1271C20.7139 36.3752 20.915 36.5763 21.1631 36.5763Z" fill="#0000CC"/>
<path d="M12.3037 27.9319C12.5518 27.9319 12.7529 27.7307 12.7529 27.4826C12.7529 27.2345 12.5518 27.0334 12.3037 27.0334C12.0556 27.0334 11.8545 27.2345 11.8545 27.4826C11.8545 27.7307 12.0556 27.9319 12.3037 27.9319Z" fill="#0000CC"/>
<path d="M19.7295 36.5763C19.9776 36.5763 20.1787 36.3752 20.1787 36.1271C20.1787 35.879 19.9776 35.6779 19.7295 35.6779C19.4814 35.6779 19.2803 35.879 19.2803 36.1271C19.2803 36.3752 19.4814 36.5763 19.7295 36.5763Z" fill="#0000CC"/>
<path d="M18.2959 36.5763C18.544 36.5763 18.7451 36.3752 18.7451 36.1271C18.7451 35.879 18.544 35.6779 18.2959 35.6779C18.0478 35.6779 17.8467 35.879 17.8467 36.1271C17.8467 36.3752 18.0478 36.5763 18.2959 36.5763Z" fill="#0000CC"/>
<path d="M34.8066 16.44H27.8301C27.582 16.44 27.3809 16.2388 27.3809 15.9908C27.3809 15.7427 27.582 15.5415 27.8301 15.5415H34.8066C35.0547 15.5415 35.2558 15.7427 35.2558 15.9908C35.2558 16.2388 35.0548 16.44 34.8066 16.44Z" fill="#0000CC"/>
<path d="M16.9489 11.7187C16.7008 11.7187 16.4996 11.5176 16.4996 11.2695C16.4996 10.9558 16.2444 10.7005 15.9307 10.7005C15.6826 10.7005 15.4814 10.4994 15.4814 10.2513C15.4814 10.0032 15.6826 9.80207 15.9307 9.80207C16.2444 9.80207 16.4996 9.54683 16.4996 9.23309C16.4996 8.98503 16.7008 8.78387 16.9489 8.78387C17.1969 8.78387 17.3981 8.98503 17.3981 9.23309C17.3981 9.54683 17.6533 9.80207 17.9671 9.80207C18.2151 9.80207 18.4163 10.0032 18.4163 10.2513C18.4163 10.4994 18.2151 10.7005 17.9671 10.7005C17.6533 10.7005 17.3981 10.9558 17.3981 11.2695C17.3981 11.5176 17.1969 11.7187 16.9489 11.7187Z" fill="#6583FE"/>
<path d="M12.8727 9.16872C12.6246 9.16872 12.4235 8.96756 12.4235 8.7195C12.4235 8.40577 12.1682 8.15052 11.8545 8.15052C11.6064 8.15052 11.4053 7.94936 11.4053 7.7013C11.4053 7.45324 11.6064 7.25208 11.8545 7.25208C12.1682 7.25208 12.4235 6.99684 12.4235 6.68301C12.4235 6.43496 12.6246 6.2338 12.8727 6.2338C13.1207 6.2338 13.3219 6.43496 13.3219 6.68301C13.3219 6.99675 13.5772 7.25208 13.8909 7.25208C14.1389 7.25208 14.3401 7.45324 14.3401 7.7013C14.3401 7.94936 14.1389 8.15052 13.8909 8.15052C13.5772 8.15052 13.3219 8.40577 13.3219 8.7195C13.3219 8.96756 13.1207 9.16872 12.8727 9.16872Z" fill="#6583FE"/>
<path d="M42.1032 23.4579C41.8551 23.4579 41.6539 23.2567 41.6539 23.0086C41.6539 22.6949 41.3987 22.4397 41.085 22.4397C40.8369 22.4397 40.6357 22.2385 40.6357 21.9905C40.6357 21.7424 40.8369 21.5412 41.085 21.5412C41.3987 21.5412 41.6539 21.286 41.6539 20.9723C41.6539 20.7242 41.8551 20.523 42.1032 20.523C42.3512 20.523 42.5524 20.7242 42.5524 20.9723C42.5524 21.286 42.8076 21.5412 43.1214 21.5412C43.3694 21.5412 43.5706 21.7424 43.5706 21.9905C43.5706 22.2385 43.3694 22.4397 43.1214 22.4397C42.8076 22.4397 42.5524 22.6949 42.5524 23.0086C42.5524 23.2567 42.3513 23.4579 42.1032 23.4579Z" fill="#6583FE"/>
<path d="M12.2881 12.117C12.04 12.117 11.8389 11.9159 11.8389 11.6678V11.6543C11.8389 11.4063 12.04 11.2051 12.2881 11.2051C12.5361 11.2051 12.7373 11.4063 12.7373 11.6543V11.6678C12.7373 11.9159 12.5361 12.117 12.2881 12.117Z" fill="#6583FE"/>
<path d="M12.2881 14.6131C12.04 14.6131 11.8389 14.4119 11.8389 14.1639V14.1504C11.8389 13.9023 12.04 13.7012 12.2881 13.7012C12.5361 13.7012 12.7373 13.9023 12.7373 14.1504V14.1639C12.7373 14.412 12.5361 14.6131 12.2881 14.6131Z" fill="#6583FE"/>
<path d="M11.2125 12.7377C11.1365 12.7377 11.0596 12.7184 10.9889 12.6778L10.9773 12.671C10.7622 12.5474 10.6882 12.2727 10.8119 12.0577C10.9355 11.8427 11.21 11.7685 11.4252 11.8923L11.4369 11.899C11.652 12.0226 11.726 12.2973 11.6023 12.5124C11.5192 12.6569 11.368 12.7377 11.2125 12.7377Z" fill="#6583FE"/>
<path d="M13.3736 13.9855C13.2979 13.9855 13.2212 13.9664 13.1507 13.9259L13.139 13.9192C12.9238 13.7958 12.8493 13.5214 12.9726 13.3061C13.0959 13.0908 13.3703 13.0163 13.5857 13.1396L13.5973 13.1464C13.8126 13.2697 13.8871 13.5442 13.7638 13.7595C13.6809 13.9043 13.5294 13.9855 13.3736 13.9855Z" fill="#6583FE"/>
<path d="M11.2017 13.9859C11.0462 13.9859 10.895 13.905 10.8119 13.7605C10.6882 13.5455 10.7622 13.2708 10.9773 13.1472L10.9889 13.1404C11.2041 13.0166 11.4787 13.0908 11.6023 13.3058C11.726 13.5209 11.652 13.7956 11.4369 13.9192L11.4252 13.9259C11.3547 13.9666 11.2776 13.9859 11.2017 13.9859Z" fill="#6583FE"/>
<path d="M13.3637 12.7374C13.2079 12.7374 13.0566 12.6563 12.9735 12.5115C12.8503 12.2962 12.9248 12.0217 13.14 11.8984L13.1517 11.8916C13.3669 11.7682 13.6414 11.8428 13.7648 12.0581C13.8881 12.2734 13.8136 12.5478 13.5983 12.6712L13.5866 12.6779C13.5162 12.7183 13.4394 12.7374 13.3637 12.7374Z" fill="#6583FE"/>
<path d="M42.0664 34.8117C41.8183 34.8117 41.6172 34.6105 41.6172 34.3625V34.349C41.6172 34.1009 41.8183 33.8998 42.0664 33.8998C42.3145 33.8998 42.5156 34.1009 42.5156 34.349V34.3625C42.5156 34.6105 42.3145 34.8117 42.0664 34.8117Z" fill="#6583FE"/>
<path d="M42.0664 37.3078C41.8183 37.3078 41.6172 37.1066 41.6172 36.8585V36.8451C41.6172 36.597 41.8183 36.3958 42.0664 36.3958C42.3145 36.3958 42.5156 36.597 42.5156 36.8451V36.8585C42.5156 37.1066 42.3145 37.3078 42.0664 37.3078Z" fill="#6583FE"/>
<path d="M40.9908 35.4327C40.9144 35.4327 40.8371 35.4132 40.7662 35.3721L40.7545 35.3654C40.5398 35.2411 40.4665 34.9663 40.5908 34.7515C40.7151 34.5369 40.9899 34.4635 41.2047 34.5878L41.2164 34.5945C41.4311 34.7189 41.5044 34.9936 41.3801 35.2084C41.2967 35.3523 41.1459 35.4327 40.9908 35.4327Z" fill="#6583FE"/>
<path d="M43.152 36.6812C43.0757 36.6812 42.9983 36.6617 42.9273 36.6206L42.9156 36.6139C42.7009 36.4896 42.6276 36.2148 42.752 36.0001C42.8762 35.7855 43.151 35.7121 43.3658 35.8364L43.3774 35.8431C43.5922 35.9675 43.6655 36.2422 43.5411 36.457C43.458 36.6008 43.3071 36.6812 43.152 36.6812Z" fill="#6583FE"/>
<path d="M40.98 36.681C40.825 36.681 40.6741 36.6006 40.5908 36.4568C40.4665 36.242 40.5398 35.9672 40.7545 35.8429L40.7662 35.8362C40.981 35.7119 41.2558 35.7852 41.38 35.9999C41.5043 36.2146 41.431 36.4895 41.2163 36.6137L41.2046 36.6205C41.1337 36.6615 41.0564 36.681 40.98 36.681Z" fill="#6583FE"/>
<path d="M43.1421 35.4325C42.9871 35.4325 42.8362 35.3521 42.7529 35.2083C42.6286 34.9936 42.7019 34.7187 42.9166 34.5945L42.9283 34.5877C43.1431 34.4635 43.4179 34.5367 43.5421 34.7514C43.6665 34.9662 43.5931 35.241 43.3784 35.3653L43.3667 35.3721C43.2959 35.413 43.2185 35.4325 43.1421 35.4325Z" fill="#6583FE"/>
<path d="M38.8068 37.669H26.7373C25.9942 37.669 25.3896 37.0644 25.3896 36.3213V27.0018C25.3896 26.2587 25.9942 25.6541 26.7373 25.6541H38.8068C39.0549 25.6541 39.256 25.8553 39.256 26.1034C39.256 26.3514 39.0549 26.5526 38.8068 26.5526H26.7373C26.4896 26.5526 26.2881 26.7541 26.2881 27.0018V36.3213C26.2881 36.569 26.4896 36.7705 26.7373 36.7705H38.8068C39.0549 36.7705 39.256 36.9717 39.256 37.2197C39.256 37.4678 39.055 37.669 38.8068 37.669Z" fill="#0000CC"/>
<path d="M23.2297 37.669H11.1602C10.4171 37.669 9.8125 37.0644 9.8125 36.3213V27.0018C9.8125 26.2587 10.4171 25.6541 11.1602 25.6541H23.2297C23.4777 25.6541 23.6789 25.8553 23.6789 26.1034C23.6789 26.3514 23.4777 26.5526 23.2297 26.5526H11.1602C10.9125 26.5526 10.7109 26.7541 10.7109 27.0018V36.3213C10.7109 36.569 10.9125 36.7705 11.1602 36.7705H23.2297C23.4777 36.7705 23.6789 36.9717 23.6789 37.2197C23.6789 37.4678 23.4778 37.669 23.2297 37.669Z" fill="#0000CC"/>
</svg>
