<svg width="46" height="46" viewBox="0 0 46 46" fill="none" xmlns="http://www.w3.org/2000/svg">
<g opacity="0.1">
<g opacity="0.1">
<path opacity="0.1" d="M22.3203 11.1933H23.9899C24.2379 11.1933 24.4391 10.9922 24.4391 10.7441C24.4391 10.4959 24.2379 10.2949 23.9899 10.2949H22.3203C22.0723 10.2949 21.8711 10.4959 21.8711 10.7441C21.8711 10.9922 22.0722 11.1933 22.3203 11.1933Z" fill="#2626BC"/>
<path opacity="0.1" d="M22.3203 12.845H27.5836C27.8317 12.845 28.0328 12.6439 28.0328 12.3958C28.0328 12.1476 27.8317 11.9465 27.5836 11.9465H22.3203C22.0723 11.9465 21.8711 12.1476 21.8711 12.3958C21.8711 12.6438 22.0722 12.845 22.3203 12.845Z" fill="#2626BC"/>
<path opacity="0.1" d="M22.3203 14.4966H27.5836C27.8317 14.4966 28.0328 14.2955 28.0328 14.0474C28.0328 13.7992 27.8317 13.5982 27.5836 13.5982H22.3203C22.0723 13.5982 21.8711 13.7992 21.8711 14.0474C21.8711 14.2955 22.0722 14.4966 22.3203 14.4966Z" fill="#2626BC"/>
</g>
<path opacity="0.1" d="M40.8141 26.308H36.406C38.1571 25.3127 39.3391 23.4317 39.3391 21.2736C39.3391 18.0768 36.7477 15.4853 33.5508 15.4853C30.354 15.4853 27.7626 18.0768 27.7626 21.2736C27.7626 23.4317 28.9445 25.3127 30.6957 26.308H30.6204C30.1242 26.308 29.722 26.7102 29.722 27.2064V32.9412C29.722 33.4374 30.1242 33.8396 30.6204 33.8396H32.6652V38.3987C32.6652 39.7787 31.5224 40.8964 30.1344 40.8551C28.7975 40.8146 27.7517 39.6835 27.7517 38.3466V33.018C27.7517 30.5221 25.697 28.497 23.1903 28.5447C20.7412 28.5905 18.8024 30.6425 18.8024 33.0935V38.7186C18.8024 39.8847 17.8635 40.8362 16.7018 40.856C15.5069 40.8757 14.5285 39.8659 14.5285 38.6701V29.7504C14.5285 28.6758 15.1592 27.692 16.1358 27.2437L18.1851 26.3022C19.6523 25.6283 20.5992 24.1504 20.5992 22.5368V16.2513C20.5992 16.0035 20.3981 15.8023 20.1503 15.8021V9.01955C20.1503 8.04573 19.5351 7.16832 18.6196 6.83617L17.5813 6.45963C17.4305 5.94842 16.9577 5.57395 16.3983 5.57395H16.061C16.0504 5.33515 15.8551 5.14432 15.6137 5.14432C15.3657 5.14432 15.1645 5.34539 15.1645 5.59354V7.59238V8.02201C15.1645 8.27016 15.3657 8.47123 15.6137 8.47123C15.8551 8.47123 16.0505 8.2804 16.061 8.0416H16.3983C16.8713 8.0416 17.2825 7.77368 17.4895 7.38197L18.3132 7.6807C18.8746 7.88437 19.2518 8.42236 19.2518 9.01946V15.8019H19.2516C19.0036 15.8019 18.8024 16.0032 18.8024 16.2512V22.5366C18.8024 23.4503 18.266 24.2877 17.4358 24.6686L15.3856 25.6111C14.6766 25.9366 14.0781 26.4331 13.6299 27.038C13.1816 26.433 12.5832 25.9362 11.8743 25.6106L9.82436 24.6691C8.99124 24.2863 8.45721 23.4535 8.45721 22.5366V16.2508C8.45721 16.0027 8.25614 15.8016 8.00799 15.8016V9.01937C8.00799 8.42227 8.38516 7.88419 8.9465 7.68061L9.75599 7.38709C9.96389 7.77602 10.3737 8.04151 10.8446 8.04151H11.182C11.1924 8.28031 11.3878 8.47114 11.6292 8.47114C11.8773 8.47114 12.0785 8.27007 12.0785 8.02192V7.59229V5.59363C12.0785 5.34548 11.8773 5.14441 11.6292 5.14441C11.3878 5.14441 11.1924 5.33524 11.182 5.57404H10.8446C10.2828 5.57404 9.80846 5.95192 9.65986 6.46655L8.64004 6.83625C7.72453 7.16832 7.10937 8.04582 7.10937 9.01964V15.8019C6.86132 15.8019 6.66016 16.003 6.66016 16.2511V22.5369C6.66016 24.1558 7.60298 25.6264 9.07417 26.3022L11.1241 27.2437C12.1005 27.6922 12.7313 28.6762 12.7313 29.7505V31.1499C12.7313 31.1508 12.7314 31.1517 12.7315 31.1526V38.7186C12.7315 40.8649 14.4592 42.6151 16.5975 42.6519C18.7978 42.6897 20.5991 40.8506 20.5991 38.6494V33.018C20.5991 31.5149 21.8444 30.2966 23.3582 30.3415C24.8146 30.3847 25.9547 31.6182 25.9547 33.0746V38.3987C25.9547 40.7715 27.9079 42.6968 30.2906 42.6519C32.6193 42.6079 34.462 40.6574 34.462 38.3277V33.8396H40.8139C41.3101 33.8396 41.7123 33.4374 41.7123 32.9412V27.2064C41.7125 26.7103 41.3103 26.308 40.8141 26.308Z" fill="#2626BC"/>
</g>
<path d="M40.8147 31.5939H30.6211C30.1249 31.5939 29.7227 31.1917 29.7227 30.6955V24.9608C29.7227 24.4645 30.1249 24.0623 30.6211 24.0623H40.8147C41.3109 24.0623 41.7131 24.4645 41.7131 24.9608V30.6955C41.7131 31.1917 41.3109 31.5939 40.8147 31.5939Z" fill="#6583FE"/>
<path d="M39.0914 26.4858H37.4219C37.1737 26.4858 36.9727 26.2846 36.9727 26.0366C36.9727 25.7885 37.1737 25.5873 37.4219 25.5873H39.0914C39.3396 25.5873 39.5407 25.7885 39.5407 26.0366C39.5407 26.2846 39.3396 26.4858 39.0914 26.4858Z" fill="#0000CC"/>
<path d="M39.0914 28.1373H33.8281C33.58 28.1373 33.3789 27.9362 33.3789 27.6881C33.3789 27.4401 33.58 27.2389 33.8281 27.2389H39.0914C39.3396 27.2389 39.5407 27.4401 39.5407 27.6881C39.5407 27.9362 39.3396 28.1373 39.0914 28.1373Z" fill="#0000CC"/>
<path d="M39.0914 29.789H33.8281C33.58 29.789 33.3789 29.5878 33.3789 29.3398C33.3789 29.0917 33.58 28.8905 33.8281 28.8905H39.0914C39.3396 28.8905 39.5407 29.0917 39.5407 29.3398C39.5407 29.5878 39.3396 29.789 39.0914 29.789Z" fill="#0000CC"/>
<path d="M11.6288 5.34619H10.8442C10.4109 5.34619 10.0596 4.9949 10.0596 4.56158C10.0596 4.12827 10.4109 3.77698 10.8442 3.77698H11.6288V5.34619Z" fill="white"/>
<path d="M15.6133 5.34619H16.3979C16.8312 5.34619 17.1825 4.9949 17.1825 4.56158C17.1825 4.12827 16.8312 3.77698 16.3979 3.77698H15.6133V5.34619Z" fill="white"/>
<path d="M8.45703 14.0049V20.2907C8.45703 21.2075 8.99106 22.0404 9.82418 22.4231L11.8741 23.3647C13.4864 24.1053 14.5282 25.7302 14.5282 27.5043V28.8729C14.5282 29.3514 14.1671 29.7693 13.6895 29.8002C13.1663 29.8341 12.7313 29.4196 12.7313 28.9037V27.5044C12.7313 26.4301 12.1006 25.4461 11.1241 24.9976L9.07417 24.056C7.60307 23.3803 6.66016 21.9098 6.66016 20.2909V14.005C6.66016 13.757 6.86132 13.5558 7.10937 13.5558H8.00781C8.25587 13.5556 8.45703 13.7568 8.45703 14.0049Z" fill="#6583FE"/>
<path d="M34.462 21.0517V36.0817C34.462 38.4113 32.6193 40.3618 30.2905 40.4058C27.9079 40.4508 25.9546 38.5254 25.9546 36.1526V30.8285C25.9546 29.3721 24.8145 28.1386 23.3582 28.0954C21.8443 28.0505 20.5991 29.2688 20.5991 30.7719V36.4033C20.5991 38.6045 18.7977 40.4436 16.5974 40.4058C14.4591 40.369 12.7314 38.6188 12.7314 36.4725V27.5043C12.7314 25.7299 13.7727 24.1055 15.3854 23.3652L17.4357 22.4227C18.2658 22.0418 18.8022 21.2044 18.8022 20.2907V14.0052C18.8022 13.7573 19.0034 13.556 19.2514 13.556H20.1498C20.3978 13.556 20.5991 13.7573 20.5991 14.0052V20.2907C20.5991 21.9043 19.6521 23.3822 18.185 24.0561L16.1356 24.9976C15.159 25.446 14.5283 26.4297 14.5283 27.5043V36.424C14.5283 37.6198 15.5067 38.6296 16.7016 38.6099C17.8633 38.5901 18.8022 37.6386 18.8022 36.4725V30.8474C18.8022 28.3964 20.741 26.3444 23.1902 26.2986C25.6968 26.251 27.7515 28.276 27.7515 30.7719V36.1005C27.7515 37.4374 28.7973 38.5685 30.1342 38.609C31.5223 38.6503 32.6651 37.5326 32.6651 36.1526V21.0822C32.6651 20.6034 33.0262 20.1856 33.5033 20.1551C34.0271 20.1209 34.462 20.5351 34.462 21.0517Z" fill="white"/>
<path d="M39.1861 20.3714C39.9214 17.2609 37.9959 14.1434 34.8854 13.4081C31.775 12.6728 28.6574 14.5983 27.9221 17.7088C27.1869 20.8193 29.1123 23.9368 32.2228 24.6721C35.3333 25.4074 38.4508 23.4819 39.1861 20.3714Z" fill="white"/>
<path d="M33.5508 21.8341C35.1008 21.8341 36.3574 20.5775 36.3574 19.0275C36.3574 17.4774 35.1008 16.2208 33.5508 16.2208C32.0007 16.2208 30.7441 17.4774 30.7441 19.0275C30.7441 20.5775 32.0007 21.8341 33.5508 21.8341Z" fill="#0000CC"/>
<path d="M33.55 21.0116C34.646 21.0116 35.5345 20.1231 35.5345 19.0271C35.5345 17.931 34.646 17.0425 33.55 17.0425C32.4539 17.0425 31.5654 17.931 31.5654 19.0271C31.5654 20.1231 32.4539 21.0116 33.55 21.0116Z" fill="#6583FE"/>
<path d="M40.8142 23.6127H37.7741C39.0115 22.4722 39.7884 20.8391 39.7884 19.0275C39.7884 15.5882 36.9903 12.7901 33.5509 12.7901C30.1115 12.7901 27.3134 15.5882 27.3134 19.0275C27.3134 21.0278 28.2609 22.8099 29.7295 23.9521C29.4502 24.1991 29.2729 24.559 29.2729 24.9604V30.6951C29.2729 31.4383 29.8775 32.0428 30.6206 32.0428H32.2159V36.1531C32.2159 36.6995 31.9992 37.2108 31.6057 37.5929C31.2125 37.9746 30.6932 38.1752 30.1476 38.1596C29.0743 38.1278 28.2012 37.2042 28.2012 36.1008V30.772C28.2012 29.4411 27.6766 28.1933 26.7241 27.2588C25.772 26.3246 24.5151 25.8227 23.1824 25.8492C20.5198 25.8997 18.3537 28.1417 18.3537 30.8471V36.4728C18.3537 37.3879 17.6095 38.1449 16.6948 38.1604C16.2557 38.1689 15.8312 37.9959 15.5062 37.6762C15.1704 37.3461 14.9779 36.8897 14.9779 36.4242V27.5046C14.9779 26.6051 15.506 25.7814 16.3233 25.406L18.3734 24.4644C19.9988 23.7177 21.049 22.0795 21.049 20.291V14.0051C21.049 13.5097 20.646 13.1067 20.1506 13.1067V6.77358C20.1506 5.79976 19.5354 4.92235 18.6199 4.59019L17.5816 4.21375C17.4308 3.70254 16.958 3.32807 16.3986 3.32807H16.0612C16.0507 3.08926 15.8554 2.89844 15.614 2.89844C15.3659 2.89844 15.1648 3.09951 15.1648 3.34765V3.77729V5.77613C15.1648 6.02428 15.3659 6.22535 15.614 6.22535C15.8554 6.22535 16.0508 6.03452 16.0612 5.79572H16.3986C16.8716 5.79572 17.2827 5.5278 17.4897 5.13608L18.3135 5.43481C18.8749 5.63849 19.2521 6.17647 19.2521 6.77358V13.1065C18.7567 13.1065 18.3537 13.5095 18.3537 14.0049V15.6177C18.3537 15.8659 18.5548 16.0669 18.8029 16.0669C19.051 16.0669 19.2521 15.8659 19.2521 15.6177V14.0049H20.1506V20.2908C20.1506 21.7295 19.3058 23.0472 17.9983 23.6478L15.9482 24.5893C14.8129 25.111 14.0795 26.2551 14.0795 27.5044V36.424C14.0795 37.129 14.3698 37.8188 14.8763 38.3167C15.3745 38.8066 16.0274 39.0705 16.7101 39.0585C18.1118 39.0348 19.2522 37.8747 19.2522 36.4726V30.8469C19.2522 28.6277 21.0229 26.7886 23.1996 26.7473C24.2883 26.7237 25.3164 27.1359 26.095 27.8999C26.8739 28.6642 27.3028 29.6841 27.3028 30.7719V36.1007C27.3028 37.685 28.567 39.0114 30.121 39.0576C30.1507 39.0585 30.1803 39.0589 30.2098 39.0589C30.9689 39.0589 31.684 38.7691 32.2316 38.2374C32.8009 37.6848 33.1145 36.9445 33.1145 36.153V25.2481C33.2588 25.2581 33.4041 25.265 33.551 25.265C33.7065 25.265 33.8602 25.2573 34.0129 25.2461V36.0818C34.0129 38.1794 32.3394 39.9177 30.2823 39.9567C29.2533 39.974 28.2817 39.5894 27.5459 38.8674C26.8097 38.145 26.4043 37.1811 26.4043 36.1531V30.8289C26.4043 29.1237 25.0439 27.696 23.3717 27.6463C22.52 27.6208 21.7129 27.9345 21.1006 28.5288C20.4879 29.1236 20.1505 29.9202 20.1505 30.7719V36.4028C20.1505 37.3544 19.7584 38.2856 19.0748 38.9577C18.4033 39.6178 17.5274 39.9734 16.605 39.9569C14.7169 39.9246 13.1808 38.3616 13.1808 36.4727V28.9038V27.5045C13.1808 25.9052 14.1199 24.4405 15.573 23.7731L17.6232 22.8315C18.6126 22.3769 19.2518 21.3797 19.2518 20.2909V18.2323C19.2518 17.9842 19.0507 17.7831 18.8026 17.7831C18.5546 17.7831 18.3534 17.9842 18.3534 18.2323V20.2909C18.3534 21.0299 17.9196 21.7067 17.2481 22.015L15.1979 22.9566C14.5953 23.2334 14.0656 23.6228 13.6285 24.0927C13.1847 23.6169 12.6512 23.2273 12.0618 22.9566L10.0119 22.015C9.34037 21.7066 8.90643 21.0298 8.90643 20.2909V14.005C8.90643 13.5096 8.50339 13.1066 8.00799 13.1066V6.77358C8.00799 6.17647 8.38516 5.6384 8.9465 5.43481L9.75599 5.1413C9.96389 5.53023 10.3737 5.79572 10.8446 5.79572H11.182C11.1924 6.03452 11.3878 6.22535 11.6292 6.22535C11.8773 6.22535 12.0785 6.02428 12.0785 5.77613V3.7772V3.34756C12.0785 3.09942 11.8773 2.89835 11.6292 2.89835C11.3878 2.89835 11.1924 3.08917 11.182 3.32798H10.8446C10.2828 3.32798 9.80846 3.70586 9.65986 4.22049L8.64004 4.59019C7.72453 4.92226 7.10937 5.79976 7.10937 6.77358V13.1066C6.61398 13.1066 6.21094 13.5096 6.21094 14.005V20.2908C6.21094 22.0794 7.26121 23.7177 8.88666 24.4643L10.9366 25.4058C11.754 25.7813 12.2821 26.6051 12.2821 27.5044V28.9037V36.4726C12.2821 38.8484 14.2143 40.8145 16.5893 40.8551C17.7506 40.875 18.8596 40.4287 19.7043 39.5984C20.5586 38.7585 21.0485 37.5938 21.0485 36.4028V30.7719C21.0485 30.1652 21.2891 29.5976 21.726 29.1735C22.1624 28.7497 22.7378 28.5265 23.3447 28.5444C24.5362 28.5798 25.5055 29.6046 25.5055 30.8289V36.1531C25.5055 37.4244 26.0066 38.616 26.9162 39.5087C27.8038 40.3795 28.9693 40.8559 30.2072 40.8559C30.2377 40.8559 30.2683 40.8556 30.2989 40.855C32.842 40.8067 34.9109 38.6655 34.9109 36.0818V25.1138C35.4811 24.9864 36.0227 24.7824 36.5226 24.5103C36.5256 24.5103 36.5283 24.5112 36.5311 24.5112H40.8138C41.0615 24.5112 41.263 24.7128 41.263 24.9605V30.6952C41.263 30.9429 41.0615 31.1444 40.8138 31.1444H37.0764C36.8283 31.1444 36.6272 31.3455 36.6272 31.5936C36.6272 31.8418 36.8283 32.0428 37.0764 32.0428H40.8138C41.5569 32.0428 42.1615 31.4384 42.1615 30.6952V24.9605C42.1618 24.2173 41.5573 23.6127 40.8142 23.6127ZM16.3984 4.89719H16.063V4.22642H16.3984C16.5833 4.22642 16.7338 4.3769 16.7338 4.5618C16.7338 4.7467 16.5833 4.89719 16.3984 4.89719ZM10.8448 4.22642H11.1802V4.89719H10.8448C10.6599 4.89719 10.5094 4.7467 10.5094 4.56189C10.5095 4.3769 10.6599 4.22642 10.8448 4.22642ZM11.312 24.5893L9.26203 23.6478C7.95462 23.0472 7.10973 21.7295 7.10973 20.2908V14.005H8.00817V20.2908C8.00817 21.3797 8.6475 22.3769 9.63704 22.8314L11.687 23.773C12.2145 24.0152 12.6887 24.3725 13.071 24.8129C12.8924 25.0926 12.7419 25.3901 12.6215 25.7006C12.2989 25.2269 11.8516 24.8373 11.312 24.5893ZM32.2159 31.1443H30.6206C30.3729 31.1443 30.1714 30.9428 30.1714 30.6951V24.9604C30.1714 24.7242 30.3553 24.5321 30.5871 24.5146C31.0921 24.7885 31.6395 24.9934 32.2159 25.1197V31.1443ZM28.212 19.0275C28.212 16.0835 30.607 13.6885 33.551 13.6885C36.495 13.6885 38.8901 16.0835 38.8901 19.0275C38.8901 21.9715 36.495 24.3666 33.551 24.3666C30.607 24.3666 28.212 21.9715 28.212 19.0275Z" fill="#0000CC"/>
<path d="M22.3203 8.94724H23.9899C24.2379 8.94724 24.4391 8.74616 24.4391 8.49802C24.4391 8.24987 24.2379 8.0488 23.9899 8.0488H22.3203C22.0723 8.0488 21.8711 8.24987 21.8711 8.49802C21.8711 8.74616 22.0722 8.94724 22.3203 8.94724Z" fill="#0000CC"/>
<path d="M22.3203 10.5989H27.5836C27.8317 10.5989 28.0328 10.3978 28.0328 10.1497C28.0328 9.90154 27.8317 9.70047 27.5836 9.70047H22.3203C22.0723 9.70047 21.8711 9.90154 21.8711 10.1497C21.8711 10.3977 22.0722 10.5989 22.3203 10.5989Z" fill="#0000CC"/>
<path d="M22.3203 12.2506H27.5836C27.8317 12.2506 28.0328 12.0495 28.0328 11.8013C28.0328 11.5532 27.8317 11.3521 27.5836 11.3521H22.3203C22.0723 11.3521 21.8711 11.5532 21.8711 11.8013C21.8711 12.0495 22.0722 12.2506 22.3203 12.2506Z" fill="#0000CC"/>
<path d="M34.4625 10.8858C34.2145 10.8858 34.0133 10.6847 34.0133 10.4366C34.0133 10.1228 33.7581 9.8676 33.4443 9.8676C33.1963 9.8676 32.9951 9.66653 32.9951 9.41838C32.9951 9.17023 33.1963 8.96916 33.4443 8.96916C33.7581 8.96916 34.0133 8.71391 34.0133 8.40018C34.0133 8.15203 34.2145 7.95096 34.4625 7.95096C34.7106 7.95096 34.9118 8.15203 34.9118 8.40018C34.9118 8.71391 35.167 8.96916 35.4807 8.96916C35.7288 8.96916 35.93 9.17023 35.93 9.41838C35.93 9.66653 35.7288 9.8676 35.4807 9.8676C35.167 9.8676 34.9118 10.1228 34.9118 10.4366C34.9118 10.6847 34.7106 10.8858 34.4625 10.8858Z" fill="#6583FE"/>
<path d="M8.4098 34.0795C8.16174 34.0795 7.96058 33.8784 7.96058 33.6303C7.96058 33.3165 7.70534 33.0613 7.3916 33.0613C7.14354 33.0613 6.94238 32.8602 6.94238 32.6121C6.94238 32.3639 7.14354 32.1629 7.3916 32.1629C7.70534 32.1629 7.96058 31.9076 7.96058 31.5939C7.96058 31.3457 8.16174 31.1447 8.4098 31.1447C8.65786 31.1447 8.85902 31.3457 8.85902 31.5939C8.85902 31.9076 9.11427 32.1629 9.42809 32.1629C9.67615 32.1629 9.87731 32.3639 9.87731 32.6121C9.87731 32.8602 9.67615 33.0613 9.42809 33.0613C9.11436 33.0613 8.85902 33.3165 8.85902 33.6303C8.85902 33.8784 8.65786 34.0795 8.4098 34.0795Z" fill="#6583FE"/>
<path d="M37.8707 8.82226C37.6227 8.82226 37.4215 8.62118 37.4215 8.37304C37.4215 8.0593 37.1663 7.80406 36.8525 7.80406C36.6045 7.80406 36.4033 7.60299 36.4033 7.35484C36.4033 7.10669 36.6045 6.90562 36.8525 6.90562C37.1663 6.90562 37.4215 6.65028 37.4215 6.33655C37.4215 6.0884 37.6227 5.88733 37.8707 5.88733C38.1188 5.88733 38.32 6.0884 38.32 6.33655C38.32 6.65028 38.5752 6.90562 38.8889 6.90562C39.137 6.90562 39.3382 7.10669 39.3382 7.35484C39.3382 7.60299 39.137 7.80406 38.8889 7.80406C38.5752 7.80406 38.32 8.0593 38.32 8.37304C38.32 8.62118 38.1189 8.82226 37.8707 8.82226Z" fill="#6583FE"/>
<path d="M40.3105 11.6042C40.0625 11.6042 39.8613 11.4032 39.8613 11.155V11.1416C39.8613 10.8935 40.0625 10.6924 40.3105 10.6924C40.5586 10.6924 40.7598 10.8935 40.7598 11.1416V11.155C40.7598 11.4032 40.5587 11.6042 40.3105 11.6042Z" fill="#6583FE"/>
<path d="M40.3105 14.1004C40.0625 14.1004 39.8613 13.8993 39.8613 13.6512V13.6378C39.8613 13.3896 40.0625 13.1886 40.3105 13.1886C40.5586 13.1886 40.7598 13.3896 40.7598 13.6378V13.6512C40.7598 13.8992 40.5587 14.1004 40.3105 14.1004Z" fill="#6583FE"/>
<path d="M39.235 12.2252C39.1586 12.2252 39.0812 12.2057 39.0103 12.1647L38.9987 12.1579C38.7839 12.0336 38.7106 11.7589 38.835 11.5441C38.9593 11.3294 39.234 11.256 39.4488 11.3804L39.4605 11.3872C39.6752 11.5115 39.7485 11.7863 39.6242 12.001C39.5409 12.1449 39.39 12.2252 39.235 12.2252Z" fill="#6583FE"/>
<path d="M41.3971 13.4737C41.3207 13.4737 41.2433 13.4542 41.1724 13.4132L41.1608 13.4064C40.946 13.2821 40.8727 13.0073 40.9971 12.7926C41.1213 12.5779 41.3961 12.5045 41.6109 12.6289L41.6226 12.6357C41.8373 12.76 41.9106 13.0347 41.7863 13.2495C41.703 13.3934 41.5521 13.4737 41.3971 13.4737Z" fill="#6583FE"/>
<path d="M39.2242 13.4739C39.0691 13.4739 38.9182 13.3936 38.835 13.2497C38.7106 13.0349 38.7839 12.7602 38.9987 12.6358L39.0103 12.6291C39.2252 12.5047 39.4999 12.5782 39.6242 12.7928C39.7485 13.0075 39.6752 13.2823 39.4605 13.4066L39.4488 13.4133C39.3779 13.4544 39.3005 13.4739 39.2242 13.4739Z" fill="#6583FE"/>
<path d="M41.3863 12.2254C41.2312 12.2254 41.0804 12.145 40.9971 12.0012C40.8727 11.7865 40.946 11.5117 41.1608 11.3874L41.1724 11.3806C41.3874 11.2562 41.6621 11.3297 41.7863 11.5443C41.9106 11.7591 41.8373 12.0338 41.6226 12.1581L41.6109 12.1649C41.54 12.206 41.4626 12.2254 41.3863 12.2254Z" fill="#6583FE"/>
<path d="M14.5283 10.9763C14.2803 10.9763 14.0791 10.7752 14.0791 10.5271V10.5136C14.0791 10.2655 14.2803 10.0644 14.5283 10.0644C14.7764 10.0644 14.9775 10.2655 14.9775 10.5136V10.5271C14.9775 10.7752 14.7765 10.9763 14.5283 10.9763Z" fill="#6583FE"/>
<path d="M14.5283 13.4724C14.2803 13.4724 14.0791 13.2713 14.0791 13.0232V13.0097C14.0791 12.7615 14.2803 12.5605 14.5283 12.5605C14.7764 12.5605 14.9775 12.7615 14.9775 13.0097V13.0232C14.9775 13.2713 14.7765 13.4724 14.5283 13.4724Z" fill="#6583FE"/>
<path d="M13.4527 11.597C13.3765 11.597 13.2994 11.5775 13.2287 11.5368L13.217 11.53C13.0021 11.406 12.9284 11.1313 13.0524 10.9165C13.1763 10.7016 13.4509 10.6278 13.6659 10.7518L13.6776 10.7585C13.8925 10.8825 13.9663 11.1573 13.8423 11.3721C13.7591 11.5164 13.608 11.597 13.4527 11.597Z" fill="#6583FE"/>
<path d="M15.6139 12.8452C15.5376 12.8452 15.4601 12.8257 15.3892 12.7846L15.3776 12.7779C15.1628 12.6535 15.0895 12.3788 15.2139 12.1641C15.3381 11.9493 15.6128 11.8759 15.8277 12.0004L15.8394 12.0071C16.0541 12.1315 16.1274 12.4062 16.0031 12.6209C15.9199 12.7648 15.769 12.8452 15.6139 12.8452Z" fill="#6583FE"/>
<path d="M13.4419 12.8451C13.2866 12.8451 13.1356 12.7644 13.0524 12.6202C12.9284 12.4053 13.0021 12.1307 13.217 12.0067L13.2287 12C13.4436 11.8757 13.7184 11.9497 13.8423 12.1646C13.9662 12.3796 13.8925 12.6542 13.6776 12.7782L13.6659 12.7849C13.5953 12.8257 13.518 12.8451 13.4419 12.8451Z" fill="#6583FE"/>
<path d="M15.6041 11.5969C15.449 11.5969 15.2981 11.5166 15.2148 11.3727C15.0905 11.1579 15.1638 10.8832 15.3785 10.7589L15.3902 10.7521C15.605 10.6276 15.8799 10.7011 16.0041 10.9158C16.1285 11.1305 16.0552 11.4053 15.8404 11.5296L15.8288 11.5364C15.7579 11.5774 15.6804 11.5969 15.6041 11.5969Z" fill="#6583FE"/>
</svg>
