<svg width="25" height="25" viewBox="0 0 25 25" fill="none" xmlns="http://www.w3.org/2000/svg">
<g opacity="0.8">
<path d="M22.8027 4.44336H2.19727C0.985693 4.44336 0 5.42905 0 6.64062V18.3594C0 19.5709 0.985693 20.5566 2.19727 20.5566H22.8027C24.0143 20.5566 25 19.5709 25 18.3594V6.64062C25 5.42905 24.0143 4.44336 22.8027 4.44336ZM23.5352 18.3594C23.5352 18.7632 23.2066 19.0918 22.8027 19.0918H2.19727C1.79341 19.0918 1.46484 18.7632 1.46484 18.3594V6.64062C1.46484 6.23677 1.79341 5.9082 2.19727 5.9082H22.8027C23.2066 5.9082 23.5352 6.23677 23.5352 6.64062V18.3594Z" fill="#FCFCFC"/>
<path d="M2.97852 13.2324H6.64062V14.6973H2.97852V13.2324Z" fill="#FCFCFC"/>
<path d="M8.10547 13.2324H11.7676V14.6973H8.10547V13.2324Z" fill="#FCFCFC"/>
<path d="M13.2324 13.2324H16.8945V14.6973H13.2324V13.2324Z" fill="#FCFCFC"/>
<path d="M18.3594 13.2324H22.0215V14.6973H18.3594V13.2324Z" fill="#FCFCFC"/>
<path d="M2.97852 16.1621H8.59375V17.627H2.97852V16.1621Z" fill="#FCFCFC"/>
<path d="M10.0586 16.1621H12.5V17.627H10.0586V16.1621Z" fill="#FCFCFC"/>
<path d="M19.8242 7.37305C19.2619 7.37305 18.7484 7.58564 18.3594 7.93433C17.9703 7.58564 17.4569 7.37305 16.8945 7.37305C15.683 7.37305 14.6973 8.35874 14.6973 9.57031C14.6973 10.7819 15.683 11.7676 16.8945 11.7676C17.4569 11.7676 17.9703 11.555 18.3594 11.2063C18.7484 11.555 19.2619 11.7676 19.8242 11.7676C21.0358 11.7676 22.0215 10.7819 22.0215 9.57031C22.0215 8.35874 21.0358 7.37305 19.8242 7.37305ZM16.8945 10.3027C16.4907 10.3027 16.1621 9.97417 16.1621 9.57031C16.1621 9.16646 16.4907 8.83789 16.8945 8.83789C17.2984 8.83789 17.627 9.16646 17.627 9.57031C17.627 9.97417 17.2984 10.3027 16.8945 10.3027ZM19.8242 10.3027C19.4204 10.3027 19.0918 9.97417 19.0918 9.57031C19.0918 9.16646 19.4204 8.83789 19.8242 8.83789C20.2281 8.83789 20.5566 9.16646 20.5566 9.57031C20.5566 9.97417 20.2281 10.3027 19.8242 10.3027Z" fill="#FCFCFC"/>
</g>
</svg>
