<svg width="25" height="25" viewBox="0 0 25 25" fill="none" xmlns="http://www.w3.org/2000/svg">
<g opacity="0.8">
<path d="M18.3594 0H6.64062C5.42905 0 4.44336 0.985693 4.44336 2.19727V22.8027C4.44336 24.0143 5.42905 25 6.64062 25H18.3594C19.5709 25 20.5566 24.0143 20.5566 22.8027V2.19727C20.5566 0.985693 19.5709 0 18.3594 0ZM19.0918 22.8027C19.0918 23.2066 18.7632 23.5352 18.3594 23.5352H6.64062C6.23677 23.5352 5.9082 23.2066 5.9082 22.8027V2.19727C5.9082 1.79341 6.23677 1.46484 6.64062 1.46484H18.3594C18.7632 1.46484 19.0918 1.79341 19.0918 2.19727V22.8027Z" fill="#FCFCFC"/>
<path d="M12.5 2.92969H15.4297V4.39453H12.5V2.92969Z" fill="#FCFCFC"/>
<path d="M10.3027 4.39453C10.7072 4.39453 11.0352 4.06661 11.0352 3.66211C11.0352 3.2576 10.7072 2.92969 10.3027 2.92969C9.89823 2.92969 9.57031 3.2576 9.57031 3.66211C9.57031 4.06661 9.89823 4.39453 10.3027 4.39453Z" fill="#FCFCFC"/>
<path d="M8.34961 22.0703H16.6504V16.2109H8.34961V22.0703ZM9.81445 17.6758H15.1855V20.6055H9.81445V17.6758Z" fill="#FCFCFC"/>
<path d="M15.6305 11.4206C14.7944 10.5845 13.6827 10.124 12.5003 10.124C11.3179 10.124 10.2062 10.5845 9.37012 11.4206L10.4059 12.4564C10.9653 11.897 11.7091 11.5889 12.5003 11.5889C13.2916 11.5889 14.0354 11.897 14.5948 12.4564L15.6305 11.4206Z" fill="#FCFCFC"/>
<path d="M7.29492 9.34512L8.33071 10.3809C10.6298 8.08179 14.3708 8.08179 16.6699 10.3809L17.7057 9.34512C14.8354 6.4748 10.1652 6.4748 7.29492 9.34512Z" fill="#FCFCFC"/>
<path d="M11.4453 13.4969L12.4811 14.5327C12.4917 14.5221 12.5089 14.5221 12.5195 14.5327L13.5553 13.4969C12.9735 12.9151 12.027 12.9151 11.4453 13.4969Z" fill="#FCFCFC"/>
</g>
</svg>
