<svg width="25" height="25" viewBox="0 0 25 25" fill="none" xmlns="http://www.w3.org/2000/svg">
<g opacity="0.8">
<path d="M23.9746 4.3457H20.4126C20.0969 3.5188 19.2958 2.92969 18.3594 2.92969C18.0734 2.92969 17.8003 2.98516 17.5495 3.08501C17.2954 2.15254 16.4416 1.46484 15.4297 1.46484C15.1437 1.46484 14.8707 1.52031 14.6198 1.62017C14.3657 0.687695 13.5119 0 12.5 0C11.4881 0 10.6343 0.687695 10.3802 1.62017C10.1293 1.52031 9.8563 1.46484 9.57031 1.46484C8.35874 1.46484 7.37305 2.45054 7.37305 3.66211V4.3457H1.02539V15.0879H4.44336V18.5547C4.44336 20.3634 5.71108 21.8805 7.40435 22.267C7.61968 23.809 8.94644 25 10.5469 25H17.3828C19.1329 25 20.5566 23.5762 20.5566 21.8262V15.0879H23.9746V4.3457ZM22.5098 7.14941C21.8865 6.92837 21.3919 6.43379 21.1709 5.81055H22.5098V7.14941ZM15.4297 2.92969C15.8335 2.92969 16.1621 3.25825 16.1621 3.66211V4.3457H14.6973V3.66211C14.6973 3.25825 15.0258 2.92969 15.4297 2.92969ZM11.7676 2.19727C11.7676 1.79341 12.0961 1.46484 12.5 1.46484C12.9039 1.46484 13.2324 1.79341 13.2324 2.19727V4.3457H11.7676V2.19727ZM8.83789 3.66211C8.83789 3.25825 9.16646 2.92969 9.57031 2.92969C9.97417 2.92969 10.3027 3.25825 10.3027 3.66211V4.3457H8.83789V3.66211ZM3.8291 5.81055C3.60806 6.43379 3.11348 6.92837 2.49023 7.14941V5.81055H3.8291ZM2.49023 12.2842C3.11348 12.5052 3.60806 12.9998 3.8291 13.623H2.49023V12.2842ZM5.10845 8.43481C4.67954 8.85215 4.44336 9.41143 4.44336 10.0098V11.8692C3.93232 11.3176 3.25439 10.9228 2.49023 10.7671V8.66655C3.92305 8.37456 5.0542 7.24336 5.34624 5.81055H19.6538C19.9458 7.24336 21.077 8.37451 22.5098 8.66655V10.7671C21.077 11.0591 19.9458 12.1903 19.6538 13.6231H8.83789V10.0403C8.83789 8.84468 7.87969 7.8457 6.70186 7.81343C6.10352 7.79707 5.53721 8.01758 5.10845 8.43481ZM19.0918 21.8262C19.0918 22.7685 18.3251 23.5352 17.3828 23.5352H10.5469C9.60454 23.5352 8.83789 22.7685 8.83789 21.8262V20.8984H8.25195C6.95962 20.8984 5.9082 19.8471 5.9082 18.5547V10.0098C5.9082 9.81035 5.98696 9.62388 6.12998 9.48472C6.27285 9.3457 6.46108 9.2728 6.66177 9.27764C7.054 9.28843 7.3731 9.63052 7.3731 10.0402V16.5039H8.10552C10.6633 16.5039 12.7442 18.5848 12.7442 21.1426H14.209C14.209 18.0383 11.8797 15.4682 8.87695 15.0879H19.0918V21.8262ZM21.1709 13.623C21.3919 12.9998 21.8865 12.5052 22.5098 12.2842V13.623H21.1709Z" fill="#FCFCFC"/>
<path d="M12.5488 12.1582C13.895 12.1582 14.9902 11.063 14.9902 9.7168C14.9902 8.37061 13.895 7.27539 12.5488 7.27539C11.2026 7.27539 10.1074 8.37061 10.1074 9.7168C10.1074 11.063 11.2026 12.1582 12.5488 12.1582ZM12.5488 8.74023C13.0873 8.74023 13.5254 9.17832 13.5254 9.7168C13.5254 10.2553 13.0873 10.6934 12.5488 10.6934C12.0104 10.6934 11.5723 10.2553 11.5723 9.7168C11.5723 9.17832 12.0104 8.74023 12.5488 8.74023Z" fill="#FCFCFC"/>
</g>
</svg>
