<?xml version="1.0" standalone="no"?>
<!DOCTYPE svg PUBLIC "-//W3C//DTD SVG 20010904//EN"
 "http://www.w3.org/TR/2001/REC-SVG-20010904/DTD/svg10.dtd">
<svg version="1.0" xmlns="http://www.w3.org/2000/svg"
 width="700.000000pt" height="700.000000pt" viewBox="0 0 700.000000 700.000000"
 preserveAspectRatio="xMidYMid meet">
<metadata>
Created by potrace 1.11, written by Peter Selinger 2001-2013
</metadata>
<g transform="translate(0.000000,700.000000) scale(0.100000,-0.100000)"
fill="#000000" stroke="none">
<path d="M3354 6920 c-231 -59 -396 -233 -443 -468 -17 -83 -18 -112 -7 -203
26 -206 185 -401 391 -480 93 -36 293 -47 344 -19 12 6 21 9 21 6 0 -10 128
48 177 81 117 77 225 238 253 374 10 52 14 186 7 219 -2 8 -7 33 -12 55 -9 48
-66 166 -102 213 -70 92 -173 166 -291 209 -90 34 -236 39 -338 13z"/>
<path d="M1768 6085 c-110 -48 -301 -168 -478 -300 -117 -87 -106 -79 -286
-200 -393 -265 -628 -378 -904 -436 -52 -11 -96 -21 -97 -22 -4 -4 126 -135
193 -193 170 -150 377 -259 579 -306 119 -27 338 -33 450 -12 182 34 405 120
479 185 52 46 103 142 110 208 6 55 32 92 80 110 50 19 107 2 137 -40 50 -71
10 -253 -82 -370 l-29 -37 47 -11 c255 -58 570 -4 873 149 l60 30 0 113 0 112
-35 17 c-34 17 -175 107 -185 118 -3 3 -32 25 -65 50 -255 189 -500 472 -626
720 -64 128 -75 140 -123 140 -23 -1 -67 -12 -98 -25z"/>
<path d="M5074 6083 c-11 -16 -37 -62 -58 -103 -38 -75 -149 -251 -177 -280
-8 -8 -26 -31 -40 -50 -73 -97 -224 -246 -364 -362 -5 -5 -21 -18 -35 -29 -24
-20 -217 -149 -272 -183 -28 -16 -28 -17 -28 -127 l0 -110 103 -49 c94 -44
255 -103 309 -114 13 -2 43 -9 68 -15 69 -15 157 -24 245 -23 81 1 106 4 203
23 l52 11 -29 37 c-90 113 -133 296 -87 366 19 29 71 55 108 55 27 0 73 -29
94 -58 8 -12 17 -40 20 -64 9 -69 52 -154 101 -198 69 -64 294 -159 433 -184
19 -3 46 -8 59 -11 156 -30 367 -16 536 36 144 44 359 165 470 264 59 53 215
208 212 211 -1 2 -38 10 -82 19 -218 43 -397 118 -660 273 -141 83 -425 272
-495 329 -8 7 -62 46 -120 87 -58 41 -110 79 -116 83 -5 4 -21 15 -35 23 -13
8 -63 38 -110 66 -173 105 -267 129 -305 77z"/>
<path d="M3259 5270 c-1 -626 0 -1703 3 -1706 4 -4 42 -10 123 -21 77 -10 154
-10 232 1 35 4 74 10 89 11 14 2 28 5 30 8 4 3 5 668 4 1702 l0 230 -240 0
-240 0 -1 -225z"/>
<path d="M2487 4158 c-48 -10 -63 -18 -232 -123 -78 -48 -161 -108 -186 -135
-85 -89 -130 -195 -134 -317 -7 -190 98 -365 269 -448 39 -19 134 -50 211 -70
76 -20 141 -37 142 -39 2 -2 -76 -24 -174 -51 -192 -50 -262 -79 -325 -132
-52 -43 -109 -116 -135 -173 -18 -39 -25 -64 -40 -130 -6 -26 -4 -113 2 -153
23 -138 120 -274 244 -341 29 -15 123 -48 210 -72 86 -25 181 -52 211 -60 l55
-16 -120 -35 c-221 -63 -251 -73 -305 -110 -228 -151 -289 -442 -142 -669 58
-90 138 -151 249 -194 26 -10 257 -102 513 -205 256 -103 470 -189 475 -191 6
-3 58 -99 115 -214 58 -116 107 -210 110 -210 3 0 52 94 110 210 l104 210 66
26 c36 15 85 34 110 44 69 26 602 240 625 250 11 5 71 29 133 54 174 69 235
109 301 200 64 88 89 163 92 271 5 137 -45 259 -143 355 -83 81 -135 105 -373
170 -146 41 -139 34 -60 57 39 12 131 38 205 59 171 46 238 80 315 158 184
186 183 488 -3 674 -76 76 -149 111 -322 156 -74 20 -155 41 -180 49 l-45 13
160 43 c187 50 259 85 336 163 184 188 181 497 -8 680 -52 51 -336 225 -394
242 -78 23 -159 4 -222 -53 -52 -47 -80 -110 -80 -181 1 -110 39 -158 202
-257 69 -42 131 -81 138 -87 9 -8 -69 -33 -295 -94 -169 -46 -314 -85 -322
-87 -56 -13 -255 -67 -277 -76 -16 -6 -29 -10 -31 -9 -1 1 -35 -6 -75 -16
l-73 -17 -230 62 c-126 34 -238 64 -249 67 -11 2 -137 36 -280 75 -269 73
-285 77 -297 78 -25 3 5 26 115 91 137 82 185 126 208 191 63 174 -94 356
-274 317z m1111 -1409 c210 -56 762 -204 877 -235 72 -19 137 -37 145 -40 12
-5 -256 -87 -435 -133 -16 -5 -177 -49 -356 -100 l-327 -92 -163 46 c-90 26
-171 48 -179 50 -8 2 -80 22 -160 45 -80 23 -167 48 -195 55 -27 7 -81 22
-120 33 -91 26 -218 61 -275 76 -45 12 -44 21 1 30 27 6 144 36 234 61 33 9
116 32 185 50 69 19 168 45 220 59 354 95 428 114 448 115 12 1 57 -8 100 -20z
m227 -1194 c188 -54 574 -161 643 -178 45 -12 82 -24 82 -27 0 -3 -172 -74
-382 -158 -211 -84 -393 -157 -405 -163 -13 -5 -33 -13 -45 -18 -13 -6 -66
-27 -119 -49 l-96 -39 -526 210 c-289 116 -524 214 -522 218 3 4 17 10 32 13
16 4 116 31 223 61 107 30 285 80 395 111 110 31 232 65 270 76 39 11 84 23
100 27 28 7 76 -5 350 -84z"/>
</g>
</svg>
