<svg width="61" height="61" viewBox="0 0 61 61" fill="none" xmlns="http://www.w3.org/2000/svg">
<path d="M38.7336 57.3551V57.3341V52.7437C38.7336 49.6113 36.1944 47.0723 33.0622 47.0723H13.7789C10.6467 47.0723 8.10742 49.6115 8.10742 52.7437V57.3341V57.3551H38.7336Z" fill="#4671C6"/>
<path d="M12.7217 57.7851C12.4845 57.7851 12.292 57.5926 12.292 57.3554V53.1924C12.292 52.9552 12.4845 52.7627 12.7217 52.7627C12.9589 52.7627 13.1514 52.9552 13.1514 53.1924V57.3554C13.1514 57.5926 12.9589 57.7851 12.7217 57.7851Z" fill="#3762CC"/>
<path d="M33.8203 57.7851C33.5831 57.7851 33.3906 57.5926 33.3906 57.3554V53.6025C33.3906 53.3654 33.5831 53.1729 33.8203 53.1729C34.0575 53.1729 34.25 53.3654 34.25 53.6025V57.3554C34.25 57.5926 34.0577 57.7851 33.8203 57.7851Z" fill="#3762CC"/>
<path d="M17.75 40.5439V47.5261V47.5268C17.75 50.6558 20.2867 53.1924 23.4156 53.1924C26.5446 53.1924 29.0813 50.6558 29.0813 47.5268V47.5261C29.0813 44.9109 29.0813 42.9949 29.0813 40.5439H17.75Z" fill="#F9CFCF"/>
<path d="M38.7338 57.7852H8.10742C7.87023 57.7852 7.67773 57.5927 7.67773 57.3555V52.7441C7.67773 49.3798 10.4146 46.6429 13.7789 46.6429H17.3197V40.5439C17.3197 40.3068 17.5122 40.1143 17.7494 40.1143H29.0807C29.3179 40.1143 29.5104 40.3068 29.5104 40.5439V46.6427H33.0622C36.4264 46.6427 39.1633 49.3796 39.1633 52.7438V57.3342C39.1635 57.5716 38.9712 57.7852 38.7338 57.7852ZM8.53711 56.9258H38.3041V52.7441C38.3041 49.8538 35.9527 47.5023 33.0624 47.5023H29.0809C28.8437 47.5023 28.6512 47.3098 28.6512 47.0726V40.9736H18.1793V47.0724C18.1793 47.3096 17.9868 47.5021 17.7496 47.5021H13.7791C10.8888 47.5021 8.53732 49.8536 8.53732 52.7438V56.9258H8.53711Z" fill="#3762CC"/>
<path d="M23.4205 43.0913C16.0829 43.0913 10.1348 37.1431 10.1348 29.8056V24.2409C10.1348 22.3965 11.6299 20.9014 13.4743 20.9014H36.7062V29.8056C36.7062 37.1431 30.758 43.0913 23.4205 43.0913Z" fill="#4671C6"/>
<path d="M23.4205 43.5208C15.8578 43.5208 9.70508 37.3681 9.70508 29.8054V24.2407C9.70508 22.1625 11.3959 20.4717 13.4743 20.4717H36.7062C36.9434 20.4717 37.1359 20.6642 37.1359 20.9014V29.8056C37.1359 37.3681 30.9832 43.5208 23.4205 43.5208ZM13.4743 21.3308C11.8698 21.3308 10.5645 22.6362 10.5645 24.2405V29.8051C10.5645 36.8939 16.3317 42.6612 23.4205 42.6612C30.5092 42.6612 36.2765 36.8939 36.2765 29.8051V21.3308H13.4743Z" fill="#3762CC"/>
<path d="M34.7359 30.7038V29.6442C34.7359 23.4511 29.6699 18.4307 23.4203 18.4307C17.1709 18.4307 12.1047 23.4511 12.1047 29.6442V30.7038C10.1397 30.6639 8.58105 32.2292 8.58105 34.1213C8.58105 36.1417 10.3449 37.7397 12.4036 37.5221C13.5712 42.4833 18.0589 46.1797 23.4201 46.1797C28.7817 46.1797 33.269 42.4831 34.4366 37.5221C36.4927 37.7395 38.2591 36.1445 38.2591 34.1213C38.2596 32.2284 36.6996 30.6641 34.7359 30.7038Z" fill="#F9CFCF"/>
<path d="M29.2954 36.4515C28.5055 36.4515 27.8652 35.8112 27.8652 35.0213V33.4956C27.8652 32.7057 28.5055 32.0654 29.2954 32.0654C30.0854 32.0654 30.7257 32.7057 30.7257 33.4956V35.0213C30.7257 35.8112 30.0852 36.4515 29.2954 36.4515Z" fill="#3762CC"/>
<path d="M17.5435 36.4515C16.7535 36.4515 16.1133 35.8112 16.1133 35.0213V33.4956C16.1133 32.7057 16.7535 32.0654 17.5435 32.0654C18.3335 32.0654 18.9737 32.7057 18.9737 33.4956V35.0213C18.9737 35.8112 18.3335 36.4515 17.5435 36.4515Z" fill="#3762CC"/>
<path d="M23.4203 46.6094C18.0552 46.6094 13.4406 43.0756 12.0736 37.9709C11.0988 37.9765 10.1513 37.6267 9.42561 36.9738C8.61586 36.2451 8.15137 35.2055 8.15137 34.1211C8.15137 33.0834 8.5615 32.11 9.30594 31.3806C9.95154 30.7479 10.7804 30.3687 11.675 30.289V29.6442C11.675 23.224 16.9438 18.001 23.4201 18.001C29.8963 18.001 35.1652 23.224 35.1652 29.6442V30.289C36.0598 30.3685 36.8884 30.7479 37.5345 31.3806C38.2789 32.1102 38.689 33.0834 38.689 34.1211C38.689 35.2052 38.2246 36.2451 37.415 36.9736C36.6893 37.6265 35.7354 37.9821 34.7669 37.9709C33.4002 43.0756 28.7854 46.6094 23.4203 46.6094ZM12.8221 37.4237C13.976 42.326 18.3343 45.75 23.4205 45.75C28.5067 45.75 32.8648 42.326 34.019 37.4237C34.0686 37.2132 34.2661 37.0716 34.4824 37.0948C35.3435 37.185 36.2029 36.9087 36.8407 36.3349C37.4696 35.769 37.8301 34.9622 37.8301 34.1213C37.8301 33.3165 37.5117 32.5612 36.9336 31.9946C36.3496 31.4225 35.5693 31.118 34.7447 31.1335C34.6298 31.1361 34.5179 31.0916 34.4354 31.0108C34.3529 30.9301 34.3064 30.8194 34.3064 30.7038V29.6442C34.3064 23.698 29.423 18.8604 23.4207 18.8604C17.4184 18.8604 12.5346 23.6982 12.5346 29.6444V30.704C12.5346 30.8196 12.4882 30.9301 12.4057 31.0111C12.323 31.0918 12.2093 31.1361 12.0963 31.1337C11.2614 31.1172 10.4914 31.4229 9.9075 31.9948C9.32936 32.5614 9.01096 33.3168 9.01096 34.1216C9.01096 34.9625 9.37168 35.7694 10.0007 36.3353C10.6384 36.9092 11.4993 37.1852 12.3587 37.095C12.5711 37.0716 12.772 37.211 12.8221 37.4237Z" fill="#3762CC"/>
<path d="M36.7066 28.5287H18.9538C15.1715 28.5287 12.1055 25.4625 12.1055 21.6804C12.1055 17.8981 15.1717 14.832 18.9538 14.832H30.5741C33.9611 14.832 36.7066 17.5777 36.7066 20.9645V28.5287Z" fill="#4671C6"/>
<path d="M36.7066 28.9584H18.9538C14.9405 28.9584 11.6758 25.6935 11.6758 21.6804C11.6758 17.6673 14.9408 14.4023 18.9538 14.4023H30.5739C34.1923 14.4023 37.1361 17.3461 37.1361 20.9645V28.5287C37.1363 28.7659 36.944 28.9584 36.7066 28.9584ZM18.9538 15.2615C15.4145 15.2615 12.5352 18.1408 12.5352 21.6802C12.5352 25.2195 15.4145 28.0988 18.9538 28.0988H36.2769V20.9643C36.2769 17.8196 33.7185 15.2615 30.5741 15.2615H18.9538Z" fill="#3762CC"/>
<path d="M41.0042 3.64453C34.4385 3.64453 29.1162 8.96686 29.1162 15.5325C29.1162 17.865 29.7906 20.0388 30.9514 21.8747L29.4694 26.0093C29.347 26.3512 29.6772 26.6814 30.0188 26.5589L33.9962 25.1334C35.9616 26.5705 38.3831 27.4206 41.0042 27.4206C47.5698 27.4206 52.8921 22.0981 52.8921 15.5327C52.8921 8.96729 47.5698 3.64453 41.0042 3.64453Z" fill="#F9A7A7"/>
<path d="M39.9295 17.7845C38.6771 7.82371 38.765 8.60295 38.765 8.36555C38.765 7.03395 39.8255 6.26953 41.1199 6.26953C42.5531 6.26953 43.6637 7.17811 43.4488 8.75377L42.2844 17.7847C42.2122 18.6095 41.7124 19.001 41.1199 19.001C40.4408 19.0007 40.0238 18.509 39.9295 17.7845ZM38.9203 22.5717C38.9203 21.3107 39.8154 20.3463 41.1199 20.3463C42.4253 20.3463 43.3195 21.3116 43.3195 22.5717C43.3195 23.8356 42.4216 24.797 41.1199 24.797C39.8154 24.797 38.9203 23.833 38.9203 22.5717Z" fill="#E0EBFC"/>
<path d="M41.0042 27.8503C38.4507 27.8503 36.0095 27.0778 33.9289 25.614L30.1638 26.9637C29.8471 27.0769 29.5036 26.9995 29.2662 26.7621C29.0288 26.5247 28.9516 26.1808 29.0649 25.8645L30.4768 21.9252C29.3048 19.9993 28.6865 17.7937 28.6865 15.5327C28.6865 8.74062 34.2121 3.21484 41.0042 3.21484C47.7962 3.21484 53.3218 8.74062 53.3218 15.5325C53.322 22.3246 47.7962 27.8503 41.0042 27.8503ZM33.9962 24.7037C34.086 24.7037 34.1751 24.7319 34.2499 24.7867C36.222 26.2287 38.5575 26.991 41.0042 26.991C47.3223 26.991 52.4624 21.8508 52.4624 15.5327C52.4626 9.21436 47.3223 4.07422 41.0042 4.07422C34.686 4.07422 29.5459 9.21436 29.5459 15.5325C29.5459 17.7013 30.1576 19.815 31.3145 21.6452C31.3852 21.7571 31.4004 21.8953 31.3557 22.0199L29.8738 26.1546L33.8512 24.7289C33.8984 24.7119 33.9474 24.7037 33.9962 24.7037Z" fill="#3762CC"/>
<path d="M23.4204 43.2764C24.9778 43.2764 26.2402 42.2664 26.2402 41.0205C26.2402 39.7746 24.9778 38.7646 23.4204 38.7646C21.8631 38.7646 20.6006 39.7746 20.6006 41.0205C20.6006 42.2664 21.8631 43.2764 23.4204 43.2764Z" fill="#F9A7A7"/>
</svg>
