<svg width="61" height="61" viewBox="0 0 61 61" fill="none" xmlns="http://www.w3.org/2000/svg">
<path d="M39.8303 30.585H20.2409C17.059 30.585 14.4795 33.1751 14.4795 36.3705V41.0533V43.6311H19.6024V54.9576H40.4693C40.4693 49.7347 40.4693 45.9792 40.4693 43.6311H45.592V41.0533V36.3705C45.5917 33.1751 43.0123 30.585 39.8303 30.585Z" fill="#4671C6"/>
<path d="M24.1592 25.5527V31.0487V31.0495C24.1592 34.2414 26.7359 36.829 29.9146 36.829C33.0918 36.829 35.6701 34.2433 35.6701 31.049C35.6701 29.9373 35.6701 26.7022 35.6701 25.553H24.1592V25.5527Z" fill="#F9CFCF"/>
<path d="M14.4795 43.6309V54.2118C14.4795 54.6236 14.8133 54.9574 15.2251 54.9574H19.6025V43.6309H14.4795Z" fill="#F9CFCF"/>
<path d="M45.5917 43.6309H40.4688V54.9574H44.5976C45.1466 54.9574 45.5917 54.5122 45.5917 53.9632V43.6309Z" fill="#F9CFCF"/>
<path d="M40.4691 55.4546H19.6025C19.3282 55.4546 19.1055 55.2319 19.1055 54.9576V39.7627C19.1055 39.4883 19.3282 39.2656 19.6025 39.2656C19.8769 39.2656 20.0996 39.4883 20.0996 39.7627V54.4605H39.9723V39.7627C39.9723 39.4883 40.195 39.2656 40.4694 39.2656C40.7438 39.2656 40.9664 39.4883 40.9664 39.7627V54.9576C40.9662 55.2322 40.7438 55.4546 40.4691 55.4546Z" fill="#3762CC"/>
<path d="M40.469 55.4551H19.6024C19.3281 55.4551 19.1054 55.2325 19.1054 54.9581V44.1286H14.4795C14.2051 44.1286 13.9824 43.9059 13.9824 43.6316V36.3712C13.9824 32.907 16.7901 30.0887 20.2412 30.0887H23.6622V25.5527C23.6622 25.2783 23.8849 25.0557 24.1592 25.0557H35.6702C35.9445 25.0557 36.1672 25.2783 36.1672 25.5527V30.0887H39.8306C43.2814 30.0887 46.089 32.907 46.089 36.3712V43.6316C46.089 43.9059 45.8664 44.1286 45.592 44.1286H40.9663V54.9581C40.9661 55.2327 40.7437 55.4551 40.469 55.4551ZM20.0997 54.461H39.9722V43.6316C39.9722 43.3572 40.1949 43.1345 40.4693 43.1345H45.0949V36.3712C45.0949 33.4552 42.7334 31.0828 39.8306 31.0828H35.6702C35.3958 31.0828 35.1731 30.8601 35.1731 30.5857V26.0498H24.656V30.5857C24.656 30.8601 24.4334 31.0828 24.159 31.0828H20.2412C17.3383 31.0828 14.9765 33.455 14.9765 36.3712V43.1345H19.6024C19.8768 43.1345 20.0995 43.3572 20.0995 43.6316V54.461H20.0997Z" fill="#3762CC"/>
<path d="M19.6024 55.4544H15.2251C14.5399 55.4544 13.9824 54.897 13.9824 54.2118V43.6308C13.9824 43.3565 14.2051 43.1338 14.4795 43.1338H19.6022C19.8766 43.1338 20.0992 43.3565 20.0992 43.6308V54.9574C20.0995 55.232 19.8768 55.4544 19.6024 55.4544ZM14.9765 44.1282V54.212C14.9765 54.349 15.0879 54.4606 15.2251 54.4606H19.1051V44.1282H14.9765Z" fill="#3762CC"/>
<path d="M44.5983 55.4544H40.4697C40.1953 55.4544 39.9727 55.2317 39.9727 54.9574V43.6308C39.9727 43.3565 40.1953 43.1338 40.4697 43.1338H45.5924C45.8668 43.1338 46.0895 43.3565 46.0895 43.6308V53.9632C46.0895 54.7856 45.4204 55.4544 44.5983 55.4544ZM40.9665 54.4603H44.598C44.8722 54.4603 45.0951 54.2374 45.0951 53.9632V44.1279H40.9665V54.4603Z" fill="#3762CC"/>
<path d="M30.036 26.8848C23.4442 26.8848 18.1006 21.5412 18.1006 14.9494V9.9502C18.1006 8.29325 19.4436 6.9502 21.1006 6.9502H41.9712V14.9494C41.9714 21.5412 36.6278 26.8848 30.036 26.8848Z" fill="#4671C6"/>
<path d="M30.0357 27.3816C23.1805 27.3816 17.6035 21.8046 17.6035 14.9494V9.95019C17.6035 8.02185 19.1725 6.45312 21.1006 6.45312H41.9714C42.2458 6.45312 42.4685 6.67581 42.4685 6.95019V14.9494C42.4682 21.8046 36.8912 27.3816 30.0357 27.3816ZM21.1006 7.44725C19.7202 7.44725 18.5976 8.57011 18.5976 9.95019V14.9494C18.5976 21.2563 23.7288 26.3875 30.0357 26.3875C36.3429 26.3875 41.4741 21.2563 41.4741 14.9494V7.44725H21.1006Z" fill="#3762CC"/>
<path d="M40.2014 15.7553V14.8034C40.2014 9.23982 35.6503 4.72949 30.036 4.72949C24.4217 4.72949 19.8706 9.23982 19.8706 14.8034V15.7553C18.1055 15.7195 16.7051 17.1257 16.7051 18.8254C16.7051 20.6404 18.2897 22.0762 20.139 21.8806C21.1881 26.3375 25.2197 29.6581 30.036 29.6581C34.8527 29.6581 38.8839 26.3372 39.9329 21.8806C41.78 22.0759 43.3669 20.6429 43.3669 18.8254C43.3669 17.1249 41.9654 15.7195 40.2014 15.7553Z" fill="#F9CFCF"/>
<path d="M30.0357 30.1554C25.1944 30.1554 21.0255 26.9849 19.7575 22.3948C18.8849 22.3826 18.0407 22.0568 17.3898 21.4707C16.639 20.795 16.208 19.8309 16.208 18.8254C16.208 17.8628 16.588 16.9604 17.2787 16.2839C17.853 15.7212 18.5832 15.3748 19.3738 15.2823V14.8034C19.3738 8.97463 24.1567 4.23242 30.036 4.23242C35.9152 4.23242 40.6984 8.97463 40.6984 14.8034V15.2823C41.489 15.3748 42.2192 15.7212 42.7935 16.2839C43.4839 16.9604 43.8642 17.8631 43.8642 18.8254C43.8642 19.8307 43.4337 20.7947 42.6829 21.4705C42.0315 22.0565 41.1868 22.3823 40.3147 22.3948C39.0459 26.9849 34.8773 30.1554 30.0357 30.1554ZM20.1395 21.3838C20.3674 21.3838 20.5695 21.5406 20.6229 21.767C21.6473 26.1207 25.5182 29.1613 30.0357 29.1613C34.5535 29.1613 38.4241 26.1205 39.4488 21.767C39.506 21.5232 39.7396 21.3591 39.9849 21.3865C40.7258 21.4645 41.4676 21.2262 42.0176 20.7316C42.5592 20.2445 42.8698 19.5496 42.8698 18.8256C42.8698 18.1327 42.5955 17.4823 42.0976 16.9942C41.5949 16.5014 40.9179 16.2367 40.2116 16.2523C40.0806 16.2563 39.9489 16.2041 39.8537 16.1104C39.7585 16.0167 39.7043 15.889 39.7043 15.7553V14.8034C39.7043 9.52264 35.3672 5.22654 30.036 5.22654C24.705 5.22654 20.3679 9.52264 20.3679 14.8034V15.7553C20.3679 15.889 20.314 16.0167 20.2185 16.1104C20.1231 16.2039 19.9901 16.2568 19.8607 16.2523C19.1489 16.2404 18.4776 16.5014 17.9746 16.9942C17.4765 17.4821 17.2024 18.1327 17.2024 18.8256C17.2024 19.5496 17.513 20.2445 18.0548 20.7319C18.6125 21.2334 19.333 21.4655 20.0873 21.3862C20.1042 21.3845 20.1219 21.3838 20.1395 21.3838Z" fill="#3762CC"/>
<path d="M41.9719 13.8018H26.0235C22.6256 13.8018 19.8711 11.0473 19.8711 7.64944C19.8711 4.25153 22.6256 1.49707 26.0235 1.49707H36.4627C39.5055 1.49707 41.9719 3.96373 41.9719 7.00624V13.8018Z" fill="#4671C6"/>
<path d="M41.9716 14.2989H26.0234C22.3569 14.2989 19.374 11.316 19.374 7.64943C19.374 3.98286 22.3569 1 26.0234 1H36.4625C39.7744 1 42.4689 3.69432 42.4689 7.00623V13.8018C42.4687 14.0764 42.2463 14.2989 41.9716 14.2989ZM26.0234 1.99412C22.9051 1.99412 20.3681 4.53112 20.3681 7.64943C20.3681 10.7677 22.9051 13.3047 26.0234 13.3047H41.4748V7.00623C41.4748 4.24233 39.2264 1.99412 36.4625 1.99412H26.0234Z" fill="#3762CC"/>
<path d="M48.467 50.5458C48.2893 50.5458 48.1111 50.4827 47.9687 50.3547C47.6628 50.0793 47.6374 49.6078 47.9126 49.3017L50.3872 46.5487L49.4085 46.2865C49.1652 46.2211 48.9708 46.0375 48.8928 45.7976C48.8145 45.5581 48.8627 45.2951 49.0208 45.0988L52.4791 40.8034C52.7375 40.4828 53.2068 40.4319 53.5276 40.6903C53.8482 40.9486 53.8989 41.418 53.6407 41.7386L50.9002 45.1425L51.9475 45.4231C52.198 45.4902 52.3956 45.6826 52.4694 45.9313C52.5432 46.1801 52.4825 46.449 52.3091 46.6419L49.0218 50.2988C48.8746 50.4625 48.6711 50.5458 48.467 50.5458Z" fill="#F9A7A7"/>
<path d="M49.5384 55.1397C49.2946 55.1397 49.0558 55.0204 48.9126 54.8007C48.6882 54.4555 48.7859 53.9937 49.1311 53.7691L52.2337 51.7505L51.3562 51.244C51.1377 51.118 50.998 50.8901 50.9844 50.6383C50.971 50.3866 51.0855 50.145 51.2891 49.9964L55.7412 46.7424C56.074 46.4993 56.5403 46.5719 56.7831 46.9044C57.0261 47.2369 56.9536 47.7032 56.6213 47.9462L53.0931 50.5247L54.0321 51.0668C54.2565 51.1965 54.3977 51.4334 54.4046 51.6926C54.4114 51.9518 54.2834 52.1959 54.0659 52.3373L49.9443 55.0187C49.8188 55.1007 49.6779 55.1397 49.5384 55.1397Z" fill="#F9A7A7"/>
<path d="M11.6051 50.5457C11.4011 50.5457 11.1975 50.4625 11.0504 50.2987L7.76308 46.6418C7.58985 46.4489 7.52921 46.1798 7.60278 45.9312C7.67634 45.6827 7.87417 45.4904 8.12469 45.423L9.172 45.1424L6.43145 41.7385C6.17323 41.4177 6.22393 40.9485 6.54453 40.6902C6.86539 40.432 7.33486 40.4827 7.59308 40.8033L11.0514 45.0987C11.2094 45.295 11.2577 45.558 11.1794 45.7975C11.1013 46.0371 10.907 46.221 10.6637 46.2864L9.68496 46.5486L12.1596 49.3016C12.4347 49.6078 12.4096 50.0792 12.1034 50.3546C11.961 50.4826 11.7828 50.5457 11.6051 50.5457Z" fill="#F9A7A7"/>
<path d="M10.5342 55.1397C10.3947 55.1397 10.2538 55.1007 10.1283 55.0189L6.00644 52.3375C5.78898 52.1961 5.66073 51.9518 5.66769 51.6928C5.67465 51.4338 5.81582 51.1965 6.04024 51.067L6.97919 50.525L3.45105 47.9462C3.11877 47.7032 3.0462 47.2367 3.28926 46.9044C3.53232 46.5716 3.99856 46.4995 4.3311 46.7423L8.78327 49.9963C8.98657 50.1452 9.10114 50.3868 9.08797 50.6383C9.0743 50.8901 8.93462 51.118 8.71616 51.244L7.83885 51.7505L10.9415 53.769C11.2867 53.9937 11.3844 54.4555 11.16 54.8007C11.0168 55.0201 10.778 55.1397 10.5342 55.1397Z" fill="#F9A7A7"/>
<path d="M23.7945 21.0535C23.6196 21.0535 23.4498 20.961 23.3594 20.7973C23.2262 20.5572 23.3129 20.2545 23.5532 20.1215L25.6859 18.9402L23.5532 17.759C23.3129 17.626 23.2262 17.3236 23.3594 17.0832C23.4921 16.8431 23.7953 16.7567 24.0349 16.8894L26.9524 18.5056C27.1107 18.5933 27.2086 18.7596 27.2086 18.9405C27.2086 19.1214 27.1104 19.2877 26.9524 19.3754L24.0349 20.9916C23.9586 21.0334 23.8758 21.0535 23.7945 21.0535Z" fill="#3762CC"/>
<path d="M36.2773 21.0541C36.1958 21.0541 36.1133 21.0339 36.037 20.9917L33.1195 19.3755C32.9612 19.2877 32.8633 19.1215 32.8633 18.9405C32.8633 18.7596 32.9615 18.5934 33.1195 18.5056L36.037 16.8894C36.2776 16.7565 36.5801 16.8434 36.7125 17.0833C36.8457 17.3234 36.759 17.6261 36.5187 17.759L34.386 18.9403L36.5187 20.1216C36.759 20.2545 36.8457 20.557 36.7125 20.7973C36.6221 20.9616 36.4523 21.0541 36.2773 21.0541Z" fill="#3762CC"/>
<path d="M31.9994 24.7482C31.8714 24.7482 31.7436 24.6992 31.6465 24.6011C31.4255 24.3784 31.1231 24.2039 30.7714 24.0968C30.5485 24.0289 30.292 23.9969 29.986 24.0019C29.7079 24.0053 29.4547 24.0446 29.2342 24.1184C28.9117 24.2265 28.6323 24.3933 28.426 24.6013C28.2322 24.7962 27.9178 24.7974 27.7229 24.604C27.5283 24.4107 27.5271 24.096 27.7202 23.9012C28.0353 23.5838 28.4499 23.3328 28.9186 23.176C29.2372 23.0694 29.5921 23.013 29.9734 23.008C30.3837 23.0047 30.7386 23.048 31.0607 23.1462C31.5694 23.301 32.016 23.5622 32.3523 23.9014C32.5457 24.0963 32.5442 24.4112 32.3493 24.6045C32.2526 24.7002 32.1259 24.7482 31.9994 24.7482Z" fill="#3762CC"/>
<path d="M39.6457 52.7857L34.0234 52.7564C33.8713 52.7557 33.7478 52.6329 33.7458 52.4808L33.7446 52.3839V52.3811C33.7426 52.2313 33.8557 52.1045 34.005 52.0896L38.5616 51.6348C39.0174 51.5893 39.3497 51.1822 39.303 50.7264L39.302 50.7177C39.2552 50.2624 38.8489 49.9306 38.3936 49.9761L36.7871 50.1364L32.2812 50.4553L31.7521 50.2294L33.8273 48.0271C34.1837 47.6489 34.228 46.9918 33.8852 46.6011C33.4752 46.1336 32.7636 46.1296 32.3473 46.5712L31.2717 47.7127C29.5829 49.5049 27.5512 50.3308 27.0226 50.8982C26.9624 50.9628 26.8946 51.0179 26.8233 51.0674L14.8284 50.885C14.6366 50.882 14.4795 51.0368 14.4795 51.2287V55.2382C14.4795 56.1337 15.2194 56.8527 16.1143 56.8291C30.9499 56.4369 25.851 56.4602 28.1748 57.0505C31.2135 57.8224 31.0257 57.7983 35.5136 59.4973C35.9572 59.6653 36.459 59.3971 36.5475 58.9055C36.6139 58.5357 36.38 58.1761 36.0286 58.0429L33.086 56.929C32.9575 56.8803 32.8993 56.7314 32.9607 56.6084C33.0074 56.5147 33.1111 56.464 33.2137 56.4846L38.5805 57.557C39.0084 57.6425 39.4899 57.3788 39.5975 56.9558C39.7163 56.4893 39.4193 56.0246 38.9533 55.9314L33.9576 54.9333C33.8301 54.9077 33.7416 54.7911 33.7513 54.6614C33.7615 54.5267 33.8741 54.4228 34.0093 54.4233L39.6365 54.4526C40.0943 54.4551 40.4673 54.0853 40.4691 53.6275V53.6168C40.4711 53.16 40.1025 52.7882 39.6457 52.7857Z" fill="#F9CFCF"/>
<path d="M35.7882 60.0442C35.6366 60.0442 35.4843 60.0168 35.3386 59.9617L34.0157 59.4596C30.8536 58.2585 30.7301 58.2118 28.0534 57.5318C27.6819 57.4376 27.4498 57.3041 27.2634 57.197C26.9515 57.0176 26.9791 57.0417 26.4189 57.0551C25.7737 57.0705 25.7737 57.0705 20.2978 57.2154L16.1285 57.3258C15.5688 57.3407 15.0225 57.1304 14.6147 56.7335C14.2076 56.3371 13.9834 55.806 13.9834 55.2381V51.2286C13.9834 51.0014 14.0724 50.7887 14.2342 50.6296C14.396 50.4703 14.6122 50.385 14.8371 50.3878L26.652 50.5675C26.9045 50.3035 27.2174 50.1072 27.8395 49.7237C28.6999 49.1936 29.8782 48.4674 30.9106 47.3716L31.9864 46.2301C32.2822 45.916 32.7097 45.7418 33.1309 45.7482C33.5621 45.7559 33.9737 45.9473 34.2595 46.2731C34.7658 46.8505 34.7342 47.7901 34.1897 48.368L32.7218 49.9258L36.7528 49.6405L38.3451 49.4814C39.0713 49.4108 39.7229 49.9409 39.7973 50.6671C39.8343 51.0287 39.7306 51.3742 39.5065 51.6488C39.2823 51.9235 38.9644 52.0942 38.6115 52.1295L37.1482 52.2754L39.6489 52.2885C40.3786 52.2925 40.9696 52.8892 40.9671 53.6187C40.9658 53.984 40.8264 54.3165 40.5747 54.5661C40.3229 54.8153 39.9963 54.9563 39.635 54.9498L36.4965 54.9334L39.0517 55.4439C39.4078 55.5152 39.7232 55.7322 39.9165 56.0394C40.1131 56.351 40.171 56.7201 40.0801 57.0782C39.9108 57.741 39.1816 58.1827 38.484 58.0443L36.2597 57.5996C36.8164 57.8377 37.1417 58.4148 37.0378 58.9931C36.9702 59.3694 36.7426 59.6923 36.4133 59.8787C36.2197 59.9885 36.0044 60.0442 35.7882 60.0442ZM27.7582 56.3351C27.9128 56.4238 28.0587 56.5076 28.298 56.5682C31.0301 57.2621 31.2187 57.334 34.3686 58.5304L35.6905 59.0319C35.7673 59.0607 35.8521 59.0543 35.9234 59.0138C35.9652 58.9902 36.0387 58.933 36.0594 58.8172C36.0815 58.6954 35.991 58.5592 35.8538 58.5073L32.9112 57.3934C32.7191 57.3208 32.5653 57.1692 32.4905 56.9776C32.4157 56.7859 32.4251 56.5702 32.5171 56.3861C32.6637 56.0928 32.9898 55.9335 33.3114 55.9966L38.6789 57.069C38.86 57.1048 39.077 56.9882 39.1168 56.8324C39.1401 56.7415 39.1255 56.6478 39.0758 56.569C39.0261 56.4902 38.9483 56.4365 38.8571 56.4184L33.8611 55.42C33.4878 55.3455 33.2281 55.003 33.2564 54.6235C33.286 54.2313 33.6161 53.9256 34.0085 53.9256H34.0127L39.6402 53.9549C39.7292 53.9676 39.8122 53.9214 39.8748 53.859C39.9377 53.7969 39.9727 53.7136 39.973 53.6251C39.9737 53.432 39.8258 53.2832 39.6437 53.2822L34.0214 53.2528C33.6006 53.2506 33.2542 52.9061 33.2497 52.4856L33.2485 52.3894C33.2433 51.9761 33.5475 51.6354 33.9565 51.5944L38.5133 51.1396C38.6013 51.1309 38.6806 51.0881 38.7365 51.0195C38.7927 50.951 38.8185 50.8645 38.8096 50.7765C38.79 50.5851 38.6215 50.4529 38.444 50.4703L36.8373 50.6306L32.3172 50.9507C32.2362 50.9564 32.1594 50.943 32.0868 50.9119L31.5575 50.686C31.4081 50.6224 31.2993 50.4894 31.266 50.3304C31.2326 50.1713 31.2794 50.006 31.391 49.888L33.4664 47.6858C33.6556 47.4849 33.6779 47.1169 33.5124 46.9282C33.4093 46.8107 33.2676 46.7446 33.1135 46.7418C32.9624 46.7329 32.8158 46.7993 32.7099 46.9116L31.6343 48.0531C30.5117 49.2445 29.2688 50.0105 28.3611 50.5697C27.0556 51.3744 27.5758 51.15 27.1083 51.4746C27.023 51.534 26.9246 51.5633 26.8168 51.5638L14.9775 51.3839V55.2376C14.9775 55.5348 15.0951 55.8129 15.3083 56.0207C15.522 56.229 15.8069 56.3423 16.1021 56.3314L20.2712 56.2213C25.7498 56.0764 25.7498 56.0764 26.3953 56.061C27.0161 56.0466 27.1997 56.0143 27.7582 56.3351Z" fill="#3762CC"/>
</svg>
