<svg width="61" height="61" viewBox="0 0 61 61" fill="none" xmlns="http://www.w3.org/2000/svg">
<path d="M42.5321 57.8174C42.5321 52.9243 42.5321 49.1406 42.5321 44.3383C42.5321 40.938 39.7757 38.1816 36.3755 38.1816H15.4428C12.0425 38.1816 9.28613 40.938 9.28613 44.3383V57.8174H42.5321Z" fill="#4671C6"/>
<path d="M32.0545 32.8252H25.9042H19.7539V41.7546H32.0542C32.0545 38.6505 32.0545 36.1319 32.0545 32.8252Z" fill="#F9CFCF"/>
<path d="M42.5327 58.2547H9.28668C9.04542 58.2547 8.84961 58.0589 8.84961 57.8176V44.3383C8.84961 40.7025 11.8075 37.7446 15.4433 37.7446H19.3164V32.8257C19.3164 32.5845 19.5122 32.3887 19.7535 32.3887H32.0538C32.2951 32.3887 32.4909 32.5845 32.4909 32.8257V37.7446H36.3758C40.0116 37.7446 42.9695 40.7025 42.9695 44.3383V57.8176C42.9698 58.0589 42.7742 58.2547 42.5327 58.2547ZM9.72376 57.3805H42.0956V44.3383C42.0956 41.1846 39.5298 38.6187 36.3761 38.6187H32.0541C31.8128 38.6187 31.617 38.4229 31.617 38.1816V33.2628H20.1906V38.1816C20.1906 38.4229 19.9948 38.6187 19.7535 38.6187H15.4435C12.2896 38.6187 9.72398 41.1846 9.72398 44.3383V57.3805H9.72376Z" fill="#3762CC"/>
<path d="M14.4517 58.2544C14.2105 58.2544 14.0146 58.0586 14.0146 57.8173V48.566C14.0146 48.3247 14.2105 48.1289 14.4517 48.1289C14.693 48.1289 14.8888 48.3247 14.8888 48.566V57.8173C14.8888 58.0586 14.6932 58.2544 14.4517 58.2544Z" fill="#3762CC"/>
<path d="M37.355 58.2544C37.1138 58.2544 36.918 58.0586 36.918 57.8173V48.566C36.918 48.3247 37.1138 48.1289 37.355 48.1289C37.5963 48.1289 37.7921 48.3247 37.7921 48.566V57.8173C37.7921 58.0586 37.5965 58.2544 37.355 58.2544Z" fill="#3762CC"/>
<path d="M25.9094 33.8593C17.9442 33.8593 11.4873 27.4024 11.4873 19.4372V13.3966C11.4873 11.3946 13.1104 9.77148 15.1124 9.77148H40.3315V19.4374C40.3315 27.4024 33.8747 33.8593 25.9094 33.8593Z" fill="#4671C6"/>
<path d="M25.91 34.2969C17.7166 34.2969 11.0508 27.6311 11.0508 19.4377V13.3971C11.0508 11.1571 12.8732 9.33496 15.1129 9.33496H40.3321C40.5734 9.33496 40.7692 9.53077 40.7692 9.77204V19.4379C40.7692 27.6311 34.1034 34.2969 25.91 34.2969ZM15.1129 10.2089C13.355 10.2089 11.9249 11.639 11.9249 13.3969V19.4377C11.9249 27.149 18.1987 33.4228 25.91 33.4228C33.6213 33.4228 39.895 27.149 39.895 19.4377V10.2089H15.1129Z" fill="#3762CC"/>
<path d="M38.1934 20.4127V19.2626C38.1934 12.5397 32.6939 7.08984 25.9101 7.08984C19.1261 7.08984 13.6268 12.5397 13.6268 19.2626V20.4127C11.4939 20.3694 9.80176 22.0686 9.80176 24.1226C9.80176 26.3158 11.7164 28.0506 13.9513 27.8143C15.2191 33.2 20.0905 37.2123 25.9103 37.2123C31.7306 37.2123 36.6018 33.1995 37.8693 27.8143C40.1012 28.0504 42.0189 26.3189 42.0189 24.1226C42.0184 22.0677 40.325 20.3694 38.1934 20.4127Z" fill="#F9CFCF"/>
<path d="M25.9099 37.6499C20.0916 37.6499 15.0882 33.8124 13.615 28.2725C12.556 28.2872 11.5256 27.9069 10.738 27.198C9.86493 26.4123 9.36426 25.2917 9.36426 24.1232C9.36426 23.0045 9.80614 21.9555 10.6088 21.169C11.3112 20.4808 12.2149 20.0706 13.1893 19.9902V19.2631C13.1893 12.3101 18.8957 6.65332 25.9099 6.65332C32.9241 6.65332 38.6305 12.3101 38.6305 19.2631V19.9902C39.6049 20.0706 40.5084 20.4808 41.211 21.1692C42.0134 21.9557 42.4555 23.0047 42.4555 24.1234C42.4555 25.2919 41.9549 26.4125 41.0823 27.1977C40.2944 27.9067 39.261 28.2882 38.2048 28.2725C36.7316 33.8124 31.728 37.6499 25.9099 37.6499ZM13.9513 27.3776C14.152 27.3776 14.3296 27.5155 14.3764 27.7146C15.6321 33.0497 20.3748 36.7756 25.9099 36.7756C31.4448 36.7756 36.1877 33.0495 37.4434 27.7146C37.4939 27.5004 37.6951 27.3571 37.9148 27.38C38.8573 27.4801 39.799 27.1763 40.4974 26.5476C41.1863 25.9278 41.5812 25.0441 41.5812 24.1229C41.5812 23.2411 41.2324 22.414 40.5991 21.7933C39.9596 21.1666 39.1058 20.8335 38.2022 20.8501C38.0859 20.8536 37.9714 20.8077 37.8875 20.7253C37.8035 20.6432 37.7563 20.5306 37.7563 20.4131V19.2629C37.7563 12.7918 32.4422 7.52725 25.9099 7.52725C19.3776 7.52725 14.0635 12.7918 14.0635 19.2629V20.4131C14.0635 20.5306 14.0163 20.643 13.9323 20.7253C13.8484 20.8075 13.7348 20.853 13.6176 20.8501C12.7063 20.832 11.8602 21.1666 11.2207 21.7931C10.5874 22.4138 10.2384 23.2411 10.2384 24.1229C10.2384 25.0441 10.6337 25.928 11.3226 26.548C12.021 27.1765 12.9629 27.4794 13.9048 27.38C13.9205 27.3785 13.936 27.3776 13.9513 27.3776Z" fill="#3762CC"/>
<path d="M40.3314 18.051H21.0602C16.9543 18.051 13.626 14.7227 13.626 10.6168C13.626 6.51093 16.9543 3.18262 21.0602 3.18262H33.6743C37.351 3.18262 40.3314 6.16302 40.3314 9.83968V18.051Z" fill="#4671C6"/>
<path d="M40.3319 18.4886H21.0607C16.7206 18.4886 13.1895 14.9575 13.1895 10.6174C13.1895 6.27721 16.7204 2.74609 21.0607 2.74609H33.6749C37.5867 2.74609 40.769 5.92865 40.769 9.84024V18.0515C40.769 18.293 40.5734 18.4886 40.3319 18.4886ZM21.0607 3.62024C17.2024 3.62024 14.0636 6.75908 14.0636 10.6174C14.0636 14.4756 17.2024 17.6145 21.0607 17.6145H39.8951V9.84024C39.8949 6.41052 37.1046 3.62024 33.6749 3.62024H21.0607Z" fill="#3762CC"/>
<path d="M31.1181 22.2646C30.8797 22.5376 30.7344 22.8936 30.7344 23.2843V24.9404C30.7344 25.7977 31.4295 26.4929 32.2869 26.4929C33.1444 26.4929 33.8393 25.7977 33.8393 24.9404V23.3595C32.7281 23.1652 31.8013 22.7092 31.1181 22.2646Z" fill="#3762CC"/>
<path d="M17.9766 23.3597V24.9422C17.9766 25.7995 18.6717 26.4947 19.529 26.4947C20.3864 26.4947 21.0815 25.7995 21.0815 24.9422V23.2861C21.0815 22.8936 20.9347 22.5361 20.6945 22.2627C20.0127 22.7074 19.0869 23.1642 17.9766 23.3597Z" fill="#3762CC"/>
<path d="M34.9446 23.8959C31.6849 23.8959 29.5752 21.5895 29.4849 21.4889C29.3237 21.3093 29.3385 21.0331 29.5179 20.8718C29.6971 20.7105 29.9731 20.7251 30.1346 20.9043C30.1548 20.9266 32.1712 23.1223 35.1494 23.0182C35.3959 23.0121 35.593 23.1992 35.6011 23.4402C35.6092 23.6815 35.4202 23.8837 35.1791 23.892C35.1002 23.8946 35.022 23.8959 34.9446 23.8959Z" fill="#3762CC"/>
<path d="M16.8626 23.8957C16.785 23.8957 16.7072 23.8944 16.6283 23.8918C16.387 23.8835 16.1982 23.6813 16.2063 23.4401C16.2144 23.1988 16.4126 23.0135 16.658 23.0181C19.648 23.1204 21.6522 20.9269 21.6721 20.9048C21.8334 20.7252 22.1096 20.7103 22.2893 20.8718C22.4689 21.0331 22.4838 21.3093 22.3223 21.489C22.2322 21.5893 20.122 23.8957 16.8626 23.8957Z" fill="#3762CC"/>
<path d="M23.1061 31.0022C22.9948 31.0022 22.8834 30.96 22.7982 30.8754C22.6268 30.7054 22.6257 30.4287 22.7958 30.2572C23.2206 29.8291 23.7818 29.4899 24.419 29.2766C24.8517 29.1317 25.3365 29.0548 25.8596 29.0482C26.4232 29.0425 26.9088 29.1026 27.3477 29.2359C28.0387 29.4462 28.6442 29.7993 29.0986 30.2572C29.2686 30.4285 29.2675 30.7052 29.0962 30.8754C28.9248 31.0452 28.6482 31.0441 28.4779 30.873C28.1252 30.5174 27.6462 30.2406 27.0931 30.0723C26.7419 29.9652 26.3426 29.9173 25.8708 29.9224C25.4383 29.9278 25.0432 29.9895 24.6966 30.1055C24.1881 30.2757 23.7453 30.541 23.4162 30.873C23.331 30.9591 23.2186 31.0022 23.1061 31.0022Z" fill="#3762CC"/>
<path d="M35.0334 19.6835H16.8608C16.0159 19.6835 15.3311 18.9986 15.3311 18.1538V12.144C15.3311 11.2992 16.0159 10.6143 16.8608 10.6143H35.0334C35.8783 10.6143 36.5632 11.2992 36.5632 12.144V18.1538C36.5632 18.9986 35.8783 19.6835 35.0334 19.6835Z" fill="#E0EBFC"/>
<path d="M35.0333 20.1192H16.8604C15.776 20.1192 14.8936 19.2368 14.8936 18.1524V12.1426C14.8936 11.0582 15.776 10.1758 16.8604 10.1758H35.033C36.1174 10.1758 36.9999 11.0582 36.9999 12.1426V18.1524C37.0001 19.2368 36.1176 20.1192 35.0333 20.1192ZM16.8604 11.0499C16.2579 11.0499 15.7677 11.5401 15.7677 12.1426V18.1524C15.7677 18.7549 16.2579 19.2451 16.8604 19.2451H35.033C35.6355 19.2451 36.1257 18.7549 36.1257 18.1524V12.1426C36.1257 11.5401 35.6355 11.0499 35.033 11.0499H16.8604Z" fill="#3762CC"/>
<path d="M34.5083 53.9564H25.6908C25.3287 53.9564 25.0352 53.6629 25.0352 53.3008V41.0726C25.0352 40.7105 25.3287 40.417 25.6908 40.417H34.5083C34.8704 40.417 35.1639 40.7105 35.1639 41.0726V53.3008C35.1639 53.6629 34.8704 53.9564 34.5083 53.9564Z" fill="#6BDDDD"/>
<path d="M36.7105 26.9936L35.7222 29.0008C35.4644 29.5249 35.5533 30.1532 35.9467 30.585C36.5103 31.2037 37.4836 31.2037 38.047 30.585C38.4404 30.1532 38.5293 29.5249 38.2715 29.0008L37.2832 26.9936C37.1661 26.756 36.8274 26.756 36.7105 26.9936Z" fill="#A4C9FF"/>
<path d="M36.9973 31.4856C36.4757 31.4856 35.9752 31.2644 35.624 30.8789C35.1061 30.3103 34.9912 29.4971 35.3308 28.8074L36.3188 26.8001C36.447 26.5399 36.7069 26.3779 36.9971 26.3779C37.2873 26.3779 37.5474 26.5399 37.6754 26.8001L38.6637 28.8074C39.0033 29.4971 38.8881 30.3103 38.3704 30.8789C38.0192 31.2644 37.5187 31.4856 36.9973 31.4856ZM36.9973 27.4009L36.1149 29.1933C35.935 29.5585 35.996 29.9892 36.27 30.2902C36.4586 30.4973 36.7169 30.6114 36.9971 30.6114C37.2773 30.6114 37.5356 30.4973 37.7242 30.2902C37.9982 29.9892 38.0592 29.5585 37.8793 29.1933L36.9973 27.4009ZM37.1029 27.1861C37.1029 27.1863 37.1029 27.1863 37.1029 27.1861V27.1861Z" fill="#3762CC"/>
<path d="M13.3403 18.2289L12.3521 20.2362C12.0942 20.7603 12.1832 21.3885 12.5766 21.8204C13.1402 22.4391 14.1135 22.4391 14.6769 21.8204C15.0703 21.3885 15.1592 20.7603 14.9013 20.2362L13.9131 18.2289C13.796 17.9914 13.4573 17.9914 13.3403 18.2289Z" fill="#A4C9FF"/>
<path d="M13.6262 22.7219C13.1045 22.7219 12.6041 22.5007 12.2529 22.1152C11.7352 21.5468 11.62 20.7336 11.9596 20.0437L12.9478 18.0365C13.0761 17.776 13.336 17.6143 13.6264 17.6143C13.9166 17.6143 14.1767 17.776 14.3047 18.0365L15.293 20.0437C15.6326 20.7336 15.5174 21.5468 14.9995 22.1152C14.6481 22.5007 14.1476 22.7219 13.6262 22.7219ZM13.6262 18.6372L12.7437 20.4297C12.5639 20.7948 12.6248 21.2256 12.8989 21.5265C13.0875 21.7337 13.3458 21.8477 13.626 21.8477C13.9061 21.8477 14.1644 21.7337 14.353 21.5265C14.6273 21.2256 14.6883 20.7948 14.5084 20.4297L13.6262 18.6372Z" fill="#3762CC"/>
<path d="M49.6886 30.6634V9.78328C49.6886 8.36694 48.5404 7.21875 47.1241 7.21875C45.7078 7.21875 44.5596 8.36694 44.5596 9.78328V30.6634C43.1677 31.6024 42.3185 33.2843 42.5805 35.1403C42.869 37.1836 44.548 38.8058 46.5987 39.0336C49.3696 39.3413 51.7151 37.1804 51.7151 34.4718C51.7151 32.8861 50.9111 31.4881 49.6886 30.6634Z" fill="#E0EBFC"/>
<path d="M48.0967 31.6376V9.78325C48.0967 9.24609 47.6612 8.81055 47.124 8.81055C46.5869 8.81055 46.1513 9.24609 46.1513 9.78325V31.6376C44.9909 32.0373 44.1489 33.1276 44.1255 34.4165C44.0962 36.0245 45.3969 37.4054 47.0041 37.4684C48.7124 37.5355 50.1235 36.1652 50.1235 34.4716C50.1232 33.1586 49.2738 32.0428 48.0967 31.6376Z" fill="#F9A7A7"/>
<path d="M47.1116 39.4984C46.925 39.4984 46.7375 39.4881 46.55 39.4674C44.3126 39.2189 42.4609 37.4247 42.1471 35.2009C41.8848 33.3435 42.6388 31.5399 44.122 30.437V9.78285C44.122 8.12766 45.4686 6.78125 47.1236 6.78125C48.7786 6.78125 50.1252 8.12766 50.1252 9.78285V30.4374C51.3984 31.3854 52.1515 32.8763 52.1515 34.4714C52.1515 35.8997 51.5407 37.2656 50.4758 38.2189C49.5513 39.0462 48.3496 39.4984 47.1116 39.4984ZM47.1236 7.65518C45.9505 7.65518 44.9962 8.60953 44.9962 9.78263V30.6627C44.9962 30.8081 44.924 30.9438 44.8036 31.0251C43.473 31.923 42.7868 33.4762 43.0129 35.0787C43.2719 36.9131 44.7999 38.3935 46.6466 38.5985C47.8485 38.7313 49.0013 38.3657 49.8929 37.5672C50.773 36.7796 51.2776 35.651 51.2776 34.4712C51.2776 33.0883 50.592 31.8 49.4438 31.0251C49.3234 30.9438 49.2513 30.8081 49.2513 30.6627V9.78285C49.2511 8.60975 48.2967 7.65518 47.1236 7.65518Z" fill="#3762CC"/>
<path d="M25.0352 50.9326H35.1639V52.0253H25.0352V50.9326Z" fill="#E0EBFC"/>
<path d="M34.5089 54.3933H25.6913C25.0888 54.3933 24.5986 53.9031 24.5986 53.3006V41.0722C24.5986 40.4697 25.0888 39.9795 25.6913 39.9795H34.5089C35.1114 39.9795 35.6015 40.4697 35.6015 41.0722V53.3006C35.6015 53.9031 35.1114 54.3933 34.5089 54.3933ZM25.6913 40.8539C25.5709 40.8539 25.4728 40.952 25.4728 41.0724V53.3008C25.4728 53.4213 25.5709 53.5194 25.6913 53.5194H34.5089C34.6293 53.5194 34.7274 53.4213 34.7274 53.3008V41.0724C34.7274 40.952 34.6293 40.8539 34.5089 40.8539H25.6913Z" fill="#3762CC"/>
<path d="M34.8123 43.9028H17.0076C15.8007 43.9028 14.8223 42.9244 14.8223 41.7174V37.3084C14.8223 36.1014 15.8007 35.123 17.0076 35.123H34.8123C36.0192 35.123 36.9976 36.1014 36.9976 37.3084V41.7174C36.9976 42.9244 36.0192 43.9028 34.8123 43.9028Z" fill="#6BDDDD"/>
<path d="M34.8121 44.3404H17.0072C15.5611 44.3404 14.3848 43.164 14.3848 41.7179V37.309C14.3848 35.8629 15.5611 34.6865 17.0072 34.6865H34.8121C36.2581 34.6865 37.4345 35.8629 37.4345 37.309V41.7179C37.4345 43.164 36.2579 44.3404 34.8121 44.3404ZM17.0072 35.5607C16.0432 35.5607 15.2589 36.345 15.2589 37.309V41.7179C15.2589 42.6819 16.0432 43.4662 17.0072 43.4662H34.8121C35.776 43.4662 36.5603 42.6819 36.5603 41.7179V37.309C36.5603 36.345 35.776 35.5607 34.8121 35.5607H17.0072Z" fill="#3762CC"/>
</svg>
