<svg width="61" height="61" viewBox="0 0 61 61" fill="none" xmlns="http://www.w3.org/2000/svg">
<g clip-path="url(#clip0)">
<path d="M40.9476 35.3938H36.6333C36.6333 32.0278 36.6333 29.7482 36.6333 25.9219H24.3547V35.3938H20.0521C16.658 35.3938 13.9062 38.1453 13.9062 41.5393V54.9945H47.0931C47.0931 53.0805 47.0931 43.4743 47.0931 41.5393C47.0934 38.1453 44.3419 35.3938 40.9476 35.3938Z" fill="#F9CFCF"/>
<path d="M18.907 55.553C18.5993 55.553 18.3496 55.3033 18.3496 54.9956V44.7517C18.3496 44.444 18.5993 44.1943 18.907 44.1943C19.2146 44.1943 19.4643 44.444 19.4643 44.7517V54.9956C19.4643 55.3033 19.2149 55.553 18.907 55.553Z" fill="#3762CC"/>
<path d="M41.7693 55.5526C41.4616 55.5526 41.2119 55.3029 41.2119 54.9953V45.7605C41.2119 45.4528 41.4616 45.2031 41.7693 45.2031C42.077 45.2031 42.3267 45.4528 42.3267 45.7605V54.9953C42.3267 55.3029 42.077 55.5526 41.7693 55.5526Z" fill="#3762CC"/>
<path d="M47.0938 55.5516H13.907C13.5993 55.5516 13.3496 55.3019 13.3496 54.9943V41.5391C13.3496 37.8429 16.3566 34.8359 20.0528 34.8359H23.7978V25.9216C23.7978 25.614 24.0475 25.3643 24.3551 25.3643H36.6337C36.9414 25.3643 37.1911 25.614 37.1911 25.9216V34.8359H40.948C44.6442 34.8359 47.6512 37.8429 47.6512 41.5391V54.9943C47.6512 55.3019 47.4015 55.5516 47.0938 55.5516ZM14.4643 54.4369H46.5365V41.5391C46.5365 38.4577 44.0294 35.9506 40.948 35.9506H36.6337C36.326 35.9506 36.0763 35.7009 36.0763 35.3933V26.479H24.9125V35.3933C24.9125 35.7009 24.6628 35.9506 24.3551 35.9506H20.0528C16.9714 35.9506 14.4643 38.4577 14.4643 41.5391V54.4369Z" fill="#3762CC"/>
<path d="M30.5001 31.0794C22.5492 31.0794 16.1035 24.6339 16.1035 16.6828V10.6529C16.1035 8.65445 17.7238 7.03418 19.7222 7.03418H44.8964V16.6828C44.8966 24.6339 38.451 31.0794 30.5001 31.0794Z" fill="#4671C6"/>
<path d="M30.4998 31.6365C22.2541 31.6365 15.5459 24.9283 15.5459 16.6825V10.6527C15.5459 8.34988 17.4195 6.47656 19.722 6.47656H44.8961C45.2038 6.47656 45.4535 6.72626 45.4535 7.03393V16.6825C45.4535 24.9283 38.7453 31.6365 30.4998 31.6365ZM19.722 7.5913C18.0337 7.5913 16.6606 8.96466 16.6606 10.6527V16.6825C16.6606 24.3135 22.8689 30.5217 30.4998 30.5217C38.1308 30.5217 44.3387 24.3135 44.3387 16.6825V7.5913H19.722Z" fill="#3762CC"/>
<path d="M42.7623 17.6558V16.5077C42.7623 9.79693 37.2725 4.35645 30.5007 4.35645C23.729 4.35645 18.2392 9.79665 18.2392 16.5077V17.6558C16.11 17.6126 14.4209 19.3087 14.4209 21.359C14.4209 23.5483 16.3321 25.2801 18.563 25.044C19.8285 30.4202 24.6913 34.4254 30.5007 34.4254C36.3105 34.4254 41.1732 30.4196 42.4385 25.044C44.6663 25.2795 46.5805 23.5511 46.5805 21.359C46.5805 19.3079 44.89 17.6129 42.7623 17.6558Z" fill="#F9CFCF"/>
<path d="M33.1557 28.691C33.0122 28.691 32.869 28.6361 32.76 28.5263C32.4476 28.2111 32.0212 27.965 31.5271 27.8148C31.23 27.7245 30.8936 27.6804 30.4985 27.6804C30.1036 27.6804 29.7672 27.7245 29.4701 27.8148C28.9763 27.965 28.5496 28.2111 28.2372 28.5263C28.0207 28.7445 27.6673 28.7461 27.4491 28.5293C27.2306 28.3125 27.2289 27.9597 27.4458 27.7409C27.8877 27.2953 28.4755 26.952 29.1457 26.748C29.5495 26.6253 29.9921 26.5654 30.4985 26.5654C31.0051 26.5654 31.4477 26.6251 31.8515 26.748C32.5214 26.9517 33.1095 27.295 33.5515 27.7409C33.7683 27.9597 33.7666 28.3125 33.5481 28.5293C33.4397 28.6372 33.2976 28.691 33.1557 28.691Z" fill="#3762CC"/>
<path d="M30.5005 34.9823C24.6687 34.9823 19.6493 31.1568 18.135 25.6221C17.0815 25.6148 16.0604 25.2249 15.2745 24.5179C14.3775 23.7109 13.8633 22.5593 13.8633 21.3588C13.8633 20.2092 14.3175 19.1312 15.1419 18.3233C15.8369 17.6425 16.7231 17.2267 17.6815 17.123V16.5074C17.6815 9.49988 23.4322 3.79883 30.5005 3.79883C37.5687 3.79883 43.3194 9.49988 43.3194 16.5074V17.123C44.2778 17.2267 45.164 17.6425 45.8591 18.3236C46.6834 19.1315 47.1377 20.2095 47.1377 21.3588C47.1377 22.5596 46.6232 23.7109 45.7267 24.5176C44.9408 25.2249 43.9194 25.6151 42.8657 25.6221C41.3519 31.1568 36.3322 34.9823 30.5005 34.9823ZM18.5633 24.4862C18.8188 24.4862 19.0454 24.6617 19.1053 24.9159C20.3458 30.1866 25.0318 33.8675 30.5005 33.8675C35.9694 33.8675 40.6552 30.1866 41.8956 24.9159C41.96 24.6425 42.2217 24.4574 42.4967 24.4892C43.4069 24.5845 44.3093 24.2933 44.9812 23.6886C45.6434 23.0927 46.0229 22.2433 46.0229 21.3582C46.0229 20.5107 45.6877 19.7156 45.0787 19.1192C44.464 18.5167 43.646 18.1985 42.7735 18.2124C42.6207 18.2152 42.4789 18.1581 42.3722 18.0533C42.2651 17.9485 42.2047 17.805 42.2047 17.655V16.5069C42.2047 10.1141 36.9542 4.91301 30.5005 4.91301C24.0467 4.91301 18.7963 10.1144 18.7963 16.5071V17.6553C18.7963 17.8052 18.7358 17.9485 18.6288 18.0536C18.5218 18.1586 18.3743 18.2166 18.2275 18.2127C17.3583 18.1957 16.537 18.517 15.9222 19.1195C15.3133 19.7162 14.978 20.5113 14.978 21.3588C14.978 22.2439 15.3579 23.0933 16.02 23.6894C16.7014 24.3025 17.5834 24.587 18.5042 24.4898C18.5237 24.487 18.5438 24.4862 18.5633 24.4862Z" fill="#3762CC"/>
<path d="M44.8964 15.3002H25.6594C21.5608 15.3002 18.2383 11.9777 18.2383 7.8791C18.2383 3.78048 21.5608 0.458008 25.6594 0.458008H38.2512C41.9212 0.458008 44.8964 3.43324 44.8964 7.10324V15.3002Z" fill="#4671C6"/>
<path d="M44.8969 15.857H25.6601C21.2608 15.857 17.6816 12.2779 17.6816 7.87885C17.6816 3.47953 21.2608 -0.0996094 25.6601 -0.0996094H38.2519C42.2234 -0.0996094 45.4545 3.13146 45.4545 7.10327V15.2999C45.4542 15.6076 45.2048 15.857 44.8969 15.857ZM25.6601 1.01513C21.8756 1.01513 18.7964 4.09403 18.7964 7.87885C18.7964 11.6634 21.8756 14.7423 25.6601 14.7423H44.3395V7.10327C44.3395 3.74624 41.6084 1.01513 38.2516 1.01513H25.6601Z" fill="#3762CC"/>
<path d="M35.6986 19.5068C35.4606 19.7794 35.3154 20.1347 35.3154 20.5249V22.178C35.3154 23.0339 36.0094 23.7278 36.8652 23.7278C37.721 23.7278 38.415 23.0339 38.415 22.178V20.5998C37.3058 20.4062 36.3806 19.9508 35.6986 19.5068Z" fill="#3762CC"/>
<path d="M22.5811 20.5979V22.1775C22.5811 23.0333 23.275 23.7272 24.1308 23.7272C24.9867 23.7272 25.6806 23.0333 25.6806 22.1775V20.5243C25.6806 20.1325 25.534 19.7758 25.2943 19.5029C24.6135 19.9466 23.6894 20.4025 22.5811 20.5979Z" fill="#3762CC"/>
<path d="M39.5193 21.2536C36.2116 21.2536 34.0702 18.9129 33.9785 18.8106C33.7731 18.5816 33.7918 18.2293 34.0206 18.0236C34.25 17.818 34.6014 17.8369 34.807 18.0649C34.8335 18.0939 36.7258 20.1386 39.5249 20.1386C39.589 20.1386 39.6536 20.1377 39.7191 20.1352C40.0251 20.1296 40.2843 20.366 40.2949 20.6736C40.3052 20.9813 40.0644 21.2391 39.7565 21.2494C39.6776 21.2522 39.5979 21.2536 39.5193 21.2536Z" fill="#3762CC"/>
<path d="M21.4688 21.2533C21.3902 21.2533 21.3111 21.2522 21.2311 21.2494C20.9235 21.2388 20.6824 20.9811 20.6927 20.6737C20.7033 20.366 20.9602 20.1297 21.2685 20.1352C24.1999 20.2406 26.1602 18.0872 26.1794 18.0657C26.3854 17.8369 26.7374 17.8177 26.9667 18.0237C27.1955 18.2293 27.2145 18.5816 27.0088 18.8107C26.9177 18.9124 24.776 21.2533 21.4688 21.2533Z" fill="#3762CC"/>
<path d="M29.3993 60.2011C30.0102 60.6612 30.8521 60.6604 31.4621 60.1989L38.8977 54.5736C40.9937 52.9946 41.7302 50.1827 40.6774 47.7793C39.5345 45.1697 36.6306 43.8156 33.897 44.6176C32.3352 45.0758 31.0968 46.1626 30.4131 47.5472C29.7298 46.1626 28.4913 45.0758 26.9296 44.6176C24.0572 43.7752 20.997 45.3127 19.9889 48.1862C19.1621 50.5438 20.0614 53.1671 22.0571 54.6703L29.3993 60.2011Z" fill="#F9A7A7"/>
<path d="M30.4294 61.1008C29.9478 61.1008 29.4663 60.9495 29.0644 60.6465L21.7222 55.1158C19.5083 53.4478 18.5792 50.5225 19.4632 48.0018C20.5612 44.8724 23.9104 43.151 27.0866 44.0826C28.436 44.4784 29.6087 45.325 30.4135 46.4618C31.2186 45.325 32.3911 44.4786 33.7405 44.0826C36.7344 43.2042 39.9362 44.6974 41.1883 47.5556C42.3499 50.2078 41.5459 53.2767 39.2333 55.0188L31.7986 60.6435C31.3959 60.9483 30.9124 61.1008 30.4294 61.1008ZM25.3362 44.9449C23.219 44.9449 21.2512 46.2723 20.5152 48.3705C19.7898 50.4383 20.562 52.8459 22.3927 54.2251L29.7349 59.7559H29.7352C30.1449 60.0644 30.7167 60.0638 31.1258 59.7545L38.5617 54.1289C40.4607 52.6984 41.1206 50.1794 40.1672 48.0026C39.1397 45.6569 36.5125 44.4316 34.054 45.1519C32.689 45.5524 31.5441 46.5153 30.9129 47.7936C30.819 47.9839 30.6256 48.1043 30.4132 48.1043C30.2009 48.1043 30.0075 47.9839 29.9136 47.7936C29.2823 46.5156 28.1378 45.5524 26.7725 45.1519C26.2946 45.0121 25.8116 44.9449 25.3362 44.9449Z" fill="#3762CC"/>
<path d="M29.7695 48.8672L32.3638 51.4615L29.7695 54.0558L32.3638 56.6501" stroke="#3762CC" stroke-width="0.5"/>
</g>
<defs>
<clipPath id="clip0">
<rect width="61" height="61" fill="white"/>
</clipPath>
</defs>
</svg>
