<svg width="61" height="61" viewBox="0 0 61 61" fill="none" xmlns="http://www.w3.org/2000/svg">
<g clip-path="url(#clip0)">
<path d="M40.7717 34.8955H36.53C36.53 31.5862 36.53 29.3449 36.53 25.583H24.4581V34.8955H20.2279C16.891 34.8955 14.1855 37.6006 14.1855 40.9376V54.1663H46.8138C46.8138 52.2845 46.8138 42.8399 46.8138 40.9376C46.8141 37.6006 44.1089 34.8955 40.7717 34.8955Z" fill="#F9CFCF"/>
<path d="M19.1017 54.7153C18.7992 54.7153 18.5537 54.4698 18.5537 54.1673V44.0958C18.5537 43.7933 18.7992 43.5479 19.1017 43.5479C19.4042 43.5479 19.6497 43.7933 19.6497 44.0958V54.1673C19.6497 54.4698 19.4045 54.7153 19.1017 54.7153Z" fill="#3762CC"/>
<path d="M41.5792 54.7153C41.2767 54.7153 41.0312 54.4698 41.0312 54.1673V45.088C41.0312 44.7855 41.2767 44.54 41.5792 44.54C41.8817 44.54 42.1272 44.7855 42.1272 45.088V54.1673C42.1272 54.4698 41.8817 54.7153 41.5792 54.7153Z" fill="#3762CC"/>
<path d="M46.8139 54.7144H14.1857C13.8832 54.7144 13.6377 54.4689 13.6377 54.1664V40.9377C13.6377 37.3038 16.5941 34.3474 20.2281 34.3474H23.91V25.5831C23.91 25.2807 24.1555 25.0352 24.458 25.0352H36.5299C36.8323 25.0352 37.0778 25.2807 37.0778 25.5831V34.3474H40.7715C44.4055 34.3474 47.3619 37.3038 47.3619 40.9377V54.1664C47.3619 54.4689 47.1164 54.7144 46.8139 54.7144ZM14.7337 53.6184H46.2659V40.9377C46.2659 37.9082 43.8011 35.4433 40.7715 35.4433H36.5299C36.2274 35.4433 35.9819 35.1978 35.9819 34.8954V26.1311H25.006V34.8954C25.006 35.1978 24.7605 35.4433 24.458 35.4433H20.2281C17.1985 35.4433 14.7337 37.9082 14.7337 40.9377V53.6184Z" fill="#3762CC"/>
<path d="M30.4999 30.6541C22.6829 30.6541 16.3457 24.3172 16.3457 16.4999V10.5715C16.3457 8.60667 17.9387 7.01367 19.9035 7.01367H44.6539V16.4999C44.6542 24.3172 38.317 30.6541 30.4999 30.6541Z" fill="#4671C6"/>
<path d="M30.5001 31.2022C22.3931 31.2022 15.7979 24.6069 15.7979 16.5V10.5716C15.7979 8.30761 17.6399 6.46582 19.9036 6.46582H44.654C44.9565 6.46582 45.202 6.71132 45.202 7.01381V16.5C45.202 24.6069 38.6067 31.2022 30.5001 31.2022ZM19.9036 7.56179C18.2438 7.56179 16.8938 8.91203 16.8938 10.5716V16.5C16.8938 24.0025 22.9976 30.1063 30.5001 30.1063C38.0026 30.1063 44.106 24.0025 44.106 16.5V7.56179H19.9036Z" fill="#3762CC"/>
<path d="M42.5547 17.4564V16.3275C42.5547 9.72976 37.1574 4.38086 30.4996 4.38086C23.8418 4.38086 18.4444 9.72949 18.4444 16.3275V17.4564C16.3511 17.4139 14.6904 19.0814 14.6904 21.0972C14.6904 23.2497 16.5695 24.9523 18.7628 24.7202C20.007 30.0058 24.7879 33.9437 30.4996 33.9437C36.2115 33.9437 40.9924 30.0053 42.2364 24.7202C44.4267 24.9518 46.3087 23.2525 46.3087 21.0972C46.3087 19.0806 44.6467 17.4142 42.5547 17.4564Z" fill="#F9CFCF"/>
<path d="M33.1106 28.3056C32.9695 28.3056 32.8287 28.2516 32.7215 28.1436C32.4144 27.8338 31.9952 27.5918 31.5094 27.4441C31.2173 27.3554 30.8866 27.3121 30.4981 27.3121C30.1098 27.3121 29.7791 27.3554 29.487 27.4441C29.0015 27.5918 28.582 27.8338 28.2749 28.1436C28.062 28.3582 27.7146 28.3598 27.5 28.1467C27.2852 27.9335 27.2836 27.5866 27.4967 27.3715C27.9313 26.9334 28.5092 26.5958 29.1681 26.3953C29.5651 26.2747 30.0002 26.2158 30.4981 26.2158C30.9962 26.2158 31.4313 26.2745 31.8283 26.3953C32.487 26.5956 33.0651 26.9331 33.4997 27.3715C33.7128 27.5866 33.7112 27.9335 33.4964 28.1467C33.3898 28.2527 33.2501 28.3056 33.1106 28.3056Z" fill="#3762CC"/>
<path d="M30.4997 34.4915C24.7661 34.4915 19.8312 30.7304 18.3424 25.2889C17.3067 25.2818 16.3027 24.8985 15.5301 24.2033C14.6481 23.4099 14.1426 22.2777 14.1426 21.0974C14.1426 19.9671 14.5892 18.9073 15.3997 18.113C16.083 17.4436 16.9543 17.0348 17.8966 16.9329V16.3277C17.8966 9.4381 23.5504 3.83301 30.4997 3.83301C37.449 3.83301 43.1029 9.4381 43.1029 16.3277V16.9329C44.0451 17.0348 44.9164 17.4436 45.5998 18.1133C46.4103 18.9076 46.8569 19.9674 46.8569 21.0974C46.8569 22.278 46.3511 23.4099 45.4696 24.2031C44.697 24.8985 43.6928 25.2821 42.6568 25.2889C41.1685 30.7304 36.2333 34.4915 30.4997 34.4915ZM18.7635 24.1721C19.0147 24.1721 19.2375 24.3447 19.2964 24.5946C20.5159 29.7766 25.1231 33.3956 30.4997 33.3956C35.8766 33.3956 40.4835 29.7766 41.703 24.5946C41.7663 24.3258 42.0236 24.1439 42.294 24.1751C43.1889 24.2688 44.0761 23.9825 44.7367 23.3879C45.3877 22.8021 45.7609 21.967 45.7609 21.0968C45.7609 20.2636 45.4313 19.4819 44.8326 18.8955C44.2282 18.3032 43.424 17.9903 42.5661 18.004C42.416 18.0067 42.2765 17.9505 42.1716 17.8475C42.0664 17.7445 42.0069 17.6034 42.0069 17.456V16.3271C42.0069 10.042 36.8449 4.92843 30.4997 4.92843C24.1546 4.92843 18.9925 10.0423 18.9925 16.3274V17.4562C18.9925 17.6037 18.9331 17.7445 18.8279 17.8478C18.7227 17.9511 18.5777 18.0081 18.4333 18.0042C17.5787 17.9875 16.7713 18.3034 16.1668 18.8958C15.5682 19.4824 15.2386 20.2641 15.2386 21.0974C15.2386 21.9676 15.612 22.8027 16.263 23.3888C16.9329 23.9915 17.8001 24.2713 18.7054 24.1757C18.7246 24.1729 18.7443 24.1721 18.7635 24.1721Z" fill="#3762CC"/>
<path d="M44.6537 15.1402H25.7405C21.7109 15.1402 18.4443 11.8736 18.4443 7.84403C18.4443 3.8144 21.7109 0.547852 25.7405 0.547852H38.1204C41.7286 0.547852 44.6537 3.47301 44.6537 7.08123V15.1402Z" fill="#4671C6"/>
<path d="M44.6536 15.688H25.7406C21.4154 15.688 17.8965 12.1691 17.8965 7.84416C17.8965 3.5189 21.4154 0 25.7406 0H38.1205C42.0252 0 45.2019 3.17668 45.2019 7.08163V15.1403C45.2016 15.4428 44.9564 15.688 44.6536 15.688ZM25.7406 1.09597C22.0198 1.09597 18.9925 4.12305 18.9925 7.84416C18.9925 11.565 22.0198 14.5921 25.7406 14.5921H44.1056V7.08163C44.1056 3.78111 41.4205 1.09597 38.1202 1.09597H25.7406Z" fill="#3762CC"/>
<path d="M35.6111 19.2773C35.3771 19.5453 35.2344 19.8947 35.2344 20.2782V21.9036C35.2344 22.745 35.9166 23.4272 36.7581 23.4272C37.5995 23.4272 38.2817 22.745 38.2817 21.9036V20.3519C37.1912 20.1615 36.2816 19.7138 35.6111 19.2773Z" fill="#3762CC"/>
<path d="M22.7139 20.349V21.902C22.7139 22.7434 23.3961 23.4257 24.2375 23.4257C25.079 23.4257 25.7612 22.7434 25.7612 21.902V20.2766C25.7612 19.8914 25.6171 19.5407 25.3815 19.2725C24.7121 19.7087 23.8035 20.1569 22.7139 20.349Z" fill="#3762CC"/>
<path d="M39.367 20.9937C36.115 20.9937 34.0096 18.6924 33.9195 18.5919C33.7175 18.3666 33.7359 18.0203 33.9608 17.8181C34.1863 17.6159 34.5318 17.6345 34.7341 17.8587C34.7601 17.8871 36.6205 19.8974 39.3725 19.8974C39.4355 19.8974 39.4991 19.8966 39.5635 19.8941C39.8643 19.8887 40.1191 20.121 40.1295 20.4235C40.1397 20.726 39.9029 20.9794 39.6002 20.9896C39.5226 20.9923 39.4443 20.9937 39.367 20.9937Z" fill="#3762CC"/>
<path d="M21.6208 20.9954C21.5435 20.9954 21.4657 20.9943 21.3871 20.9916C21.0846 20.9811 20.8476 20.7277 20.8577 20.4255C20.8681 20.123 21.1208 19.8907 21.4238 19.8961C24.3059 19.9997 26.2332 17.8826 26.2521 17.8615C26.4546 17.6365 26.8006 17.6176 27.0261 17.8201C27.2511 18.0223 27.2697 18.3686 27.0675 18.5938C26.9779 18.6938 24.8723 20.9954 21.6208 20.9954Z" fill="#3762CC"/>
<path d="M31.3829 44.4359H28.4844V42.3545C28.4844 41.5541 29.1332 40.9053 29.9336 40.9053C30.7333 40.9053 31.3829 41.5533 31.3829 42.3545V44.4359Z" fill="#4671C6"/>
<path d="M31.3831 44.6718H28.4846C28.3546 44.6718 28.249 44.5662 28.249 44.4362V42.3548C28.249 41.4258 29.0049 40.6699 29.9339 40.6699C30.8629 40.6699 31.6187 41.4258 31.6187 42.3548V44.4362C31.6187 44.5663 31.5133 44.6718 31.3831 44.6718ZM28.7202 44.2005H31.1475V42.3548C31.1475 41.6855 30.603 41.1411 29.9339 41.1411C29.2647 41.1411 28.7202 41.6856 28.7202 42.3548V44.2005Z" fill="#3762CC"/>
<path d="M36.317 60.7645H23.5511C22.1206 60.7645 20.9609 59.6048 20.9609 58.1743V46.9502H38.9071V58.1743C38.9071 59.6048 37.7475 60.7645 36.317 60.7645Z" fill="#4671C6"/>
<path d="M20.96 48.4482H18.0923C17.7517 48.4482 17.4756 48.7244 17.4756 49.065V49.5994C17.4756 49.94 17.7517 50.2161 18.0923 50.2161H20.96V48.4482Z" fill="#A4C9FF"/>
<path d="M41.775 48.4492H38.9072V50.2171H41.775C42.1155 50.2171 42.3917 49.941 42.3917 49.6004V49.0659C42.3917 48.7254 42.1155 48.4492 41.775 48.4492Z" fill="#A4C9FF"/>
<path d="M38.468 43.8746C38.383 43.405 37.9742 43.0635 37.497 43.0635H29.9339H22.3709C21.8937 43.0635 21.4849 43.405 21.4 43.8746L20.9609 46.3012H29.9339H38.907L38.468 43.8746Z" fill="#A4C9FF"/>
<path d="M36.3163 61.0004H23.5504C21.9922 61.0004 20.7246 59.7328 20.7246 58.1746V46.9505C20.7246 46.8204 20.8302 46.7148 20.9602 46.7148H38.9064C39.0365 46.7148 39.142 46.8204 39.142 46.9505V58.1746C39.142 59.7328 37.8745 61.0004 36.3163 61.0004ZM21.1958 47.1862V58.1747C21.1958 59.473 22.2521 60.5293 23.5504 60.5293H36.3163C37.6146 60.5293 38.6708 59.473 38.6708 58.1747V47.1862H21.1958Z" fill="#3762CC"/>
<path d="M20.9603 50.452H18.0926C17.6226 50.452 17.2402 50.0696 17.2402 49.5997V49.0652C17.2402 48.5953 17.6226 48.2129 18.0926 48.2129H20.9603C21.0903 48.2129 21.1959 48.3184 21.1959 48.4485V50.2164C21.1959 50.3466 21.0905 50.452 20.9603 50.452ZM18.0926 48.6842C17.8824 48.6842 17.7115 48.8552 17.7115 49.0653V49.5998C17.7115 49.81 17.8824 49.9809 18.0926 49.9809H20.7247V48.6842H18.0926Z" fill="#3762CC"/>
<path d="M41.7742 50.452H38.9065C38.7765 50.452 38.6709 50.3465 38.6709 50.2164V48.4485C38.6709 48.3184 38.7765 48.2129 38.9065 48.2129H41.7742C42.2442 48.2129 42.6266 48.5953 42.6266 49.0652V49.5997C42.6266 50.0697 42.2442 50.452 41.7742 50.452ZM39.1421 49.9808H41.7742C41.9844 49.9808 42.1553 49.8099 42.1553 49.5997V49.0652C42.1553 48.855 41.9844 48.6841 41.7742 48.6841H39.1421V49.9808Z" fill="#3762CC"/>
<path d="M38.9065 46.5371H20.9602C20.8904 46.5371 20.8242 46.5061 20.7794 46.4525C20.7346 46.3989 20.7159 46.3282 20.7284 46.2596L21.1676 43.8329C21.273 43.2507 21.7787 42.8281 22.3704 42.8281H37.4964C38.0881 42.8281 38.5938 43.2507 38.6992 43.8329L39.1384 46.2596C39.1508 46.3282 39.1322 46.3989 39.0874 46.4525C39.0425 46.5061 38.9763 46.5371 38.9065 46.5371ZM21.2424 46.0659H38.6244L38.2355 43.9168C38.1709 43.559 37.86 43.2993 37.4966 43.2993H22.3702C22.0067 43.2993 21.6959 43.559 21.6313 43.9168L21.2424 46.0659Z" fill="#3762CC"/>
<path d="M39.3685 46.9484H20.4973C20.2248 46.9484 20.0039 46.7275 20.0039 46.455V46.1467C20.0039 45.8742 20.2248 45.6533 20.4973 45.6533H39.3686C39.6411 45.6533 39.862 45.8742 39.862 46.1467V46.455C39.8619 46.7275 39.641 46.9484 39.3685 46.9484Z" fill="#E0EBFC"/>
<path d="M39.3687 47.1832H20.4975C20.0956 47.1832 19.7686 46.8562 19.7686 46.4543V46.146C19.7686 45.744 20.0956 45.417 20.4975 45.417H39.3687C39.7707 45.417 40.0977 45.744 40.0977 46.146V46.4543C40.0977 46.8562 39.7707 47.1832 39.3687 47.1832ZM20.4975 45.8882C20.3553 45.8882 20.2398 46.0038 20.2398 46.146V46.4543C20.2398 46.5965 20.3553 46.712 20.4975 46.712H39.3687C39.5109 46.712 39.6265 46.5965 39.6265 46.4543V46.146C39.6265 46.0038 39.5109 45.8882 39.3687 45.8882H20.4975Z" fill="#3762CC"/>
<path d="M30.1935 59.2904C33.3116 59.2904 35.8392 56.7627 35.8392 53.6447C35.8392 50.5267 33.3116 47.999 30.1935 47.999C27.0755 47.999 24.5479 50.5267 24.5479 53.6447C24.5479 56.7627 27.0755 59.2904 30.1935 59.2904Z" fill="#F9A7A7"/>
<path d="M31.312 53.644L33.5919 51.3641C33.901 51.055 33.9008 50.5553 33.5919 50.2463C33.283 49.9374 32.7831 49.9374 32.4742 50.2463L30.1942 52.5263L27.9143 50.2463C27.6055 49.9375 27.1055 49.9374 26.7965 50.2463C26.4884 50.5545 26.4884 51.0559 26.7965 51.3641L29.0765 53.644L26.7965 55.924C26.4884 56.2321 26.4884 56.7336 26.7965 57.0417C27.1052 57.3504 27.6055 57.3508 27.9143 57.0417L30.1942 54.7618L32.4742 57.0417C32.7829 57.3504 33.2831 57.3508 33.5919 57.0417C33.901 56.7327 33.9008 56.2329 33.5919 55.924L31.312 53.644Z" fill="#4671C6"/>
<path d="M30.1938 59.5155C26.9562 59.5155 24.3223 56.8815 24.3223 53.644C24.3223 50.4064 26.9562 47.7725 30.1938 47.7725C33.4314 47.7725 36.0653 50.4064 36.0653 53.644C36.0653 56.8815 33.4314 59.5155 30.1938 59.5155ZM30.1938 48.2241C27.2052 48.2241 24.7739 50.6554 24.7739 53.644C24.7739 56.6326 27.2052 59.0638 30.1938 59.0638C33.1824 59.0638 35.6136 56.6326 35.6136 53.644C35.6136 50.6554 33.1824 48.2241 30.1938 48.2241Z" fill="#3762CC"/>
</g>
<defs>
<clipPath id="clip0">
<rect width="61" height="61" fill="white"/>
</clipPath>
</defs>
</svg>
