<svg width="61" height="61" viewBox="0 0 61 61" fill="none" xmlns="http://www.w3.org/2000/svg">
<path d="M40.7898 38.0519H36.5408C36.5408 34.7371 36.5408 32.4918 36.5408 28.7236H24.4481V38.0519H20.2108C16.868 38.0519 14.1582 40.7618 14.1582 44.1045V57.3561H46.8424C46.8424 55.471 46.8424 46.0102 46.8424 44.1045C46.8424 40.7618 44.1326 38.0519 40.7898 38.0519Z" fill="#F9CFCF"/>
<path d="M19.2412 57.7205C19.004 57.7205 18.8115 57.528 18.8115 57.2908V47.2021C18.8115 46.965 19.004 46.7725 19.2412 46.7725C19.4784 46.7725 19.6709 46.965 19.6709 47.2021V57.2908C19.6709 57.528 19.4784 57.7205 19.2412 57.7205Z" fill="#3762CC"/>
<path d="M41.7568 57.7205C41.5196 57.7205 41.3271 57.528 41.3271 57.2908V47.2021C41.3271 46.965 41.5196 46.7725 41.7568 46.7725C41.994 46.7725 42.1865 46.965 42.1865 47.2021V57.2908C42.1865 57.528 41.9942 57.7205 41.7568 57.7205Z" fill="#3762CC"/>
<path d="M46.8424 57.7848H14.1582C13.921 57.7848 13.7285 57.5923 13.7285 57.3551V44.1035C13.7285 40.5292 16.6364 37.6213 20.2108 37.6213H24.0185V28.7227C24.0185 28.4855 24.211 28.293 24.4481 28.293H36.5406C36.7778 28.293 36.9703 28.4855 36.9703 28.7227V37.6213H40.7896C44.3639 37.6213 47.2719 40.5292 47.2719 44.1035V57.3551C47.2721 57.5923 47.0796 57.7848 46.8424 57.7848ZM14.5879 56.9254H46.4127V44.1035C46.4127 41.0031 43.8902 38.4806 40.7898 38.4806H36.5408C36.3037 38.4806 36.1112 38.2881 36.1112 38.051V29.1523H24.8778V38.051C24.8778 38.2881 24.6853 38.4806 24.4481 38.4806H20.2108C17.1102 38.4806 14.5879 41.0031 14.5879 44.1035V56.9254Z" fill="#3762CC"/>
<path d="M30.5007 33.8028C22.67 33.8028 16.3223 27.4548 16.3223 19.6244V13.6859C16.3223 11.7177 17.9179 10.1221 19.8861 10.1221H44.6791V19.6246C44.6791 27.455 38.3313 33.8028 30.5007 33.8028Z" fill="#4671C6"/>
<path d="M30.5007 34.2325C22.4457 34.2325 15.8926 27.6793 15.8926 19.6244V13.6859C15.8926 11.4838 17.6842 9.69238 19.8861 9.69238H44.6791C44.9163 9.69238 45.1087 9.88488 45.1087 10.1221V19.6246C45.1087 27.6793 38.5556 34.2325 30.5007 34.2325ZM19.8861 10.5515C18.1579 10.5515 16.752 11.9575 16.752 13.6857V19.6244C16.752 27.2054 22.9197 33.3731 30.5007 33.3731C38.0816 33.3731 44.2494 27.2054 44.2494 19.6244V10.5515H19.8861Z" fill="#3762CC"/>
<path d="M42.5759 20.5831V19.4524C42.5759 12.8431 37.1694 7.48535 30.5002 7.48535C23.8308 7.48535 18.4245 12.8431 18.4245 19.4524V20.5831C16.3276 20.5405 14.6641 22.211 14.6641 24.2303C14.6641 26.3864 16.5463 28.0919 18.7435 27.8596C19.9898 33.1542 24.7789 37.0988 30.5004 37.0988C36.2223 37.0988 41.0112 33.1538 42.2573 27.8596C44.4515 28.0917 46.3368 26.3895 46.3368 24.2303C46.3365 22.2101 44.6715 20.5405 42.5759 20.5831Z" fill="#F9CFCF"/>
<path d="M27.8819 31.3323C27.7725 31.3323 27.663 31.2908 27.5792 31.2077C27.4107 31.0405 27.4097 30.7685 27.5768 30.5999C28.2302 29.9412 29.2309 29.4775 30.4989 29.4775C31.7656 29.4775 32.7694 29.9431 33.421 30.5999C33.5882 30.7683 33.5871 31.0405 33.4186 31.2077C33.25 31.3746 32.978 31.3738 32.8109 31.2053C32.3171 30.7077 31.5349 30.3371 30.4989 30.3371C29.4647 30.3371 28.6803 30.7082 28.187 31.2053C28.103 31.2898 27.9923 31.3323 27.8819 31.3323Z" fill="#3762CC"/>
<path d="M30.5004 37.5285C24.7804 37.5285 19.8616 33.7558 18.4133 28.3095C17.3704 28.3237 16.3592 27.9501 15.5849 27.2531C14.7266 26.4808 14.2344 25.379 14.2344 24.2303C14.2344 23.1305 14.6688 22.0992 15.4579 21.326C16.1484 20.6495 17.0368 20.2462 17.9948 20.1671V19.4524C17.9948 12.6169 23.6048 7.05566 30.5004 7.05566C37.396 7.05566 43.006 12.6169 43.006 19.4524V20.1671C43.964 20.2462 44.8522 20.6495 45.5429 21.3262C46.3318 22.0995 46.7664 23.1307 46.7664 24.2305C46.7664 25.3795 46.2742 26.481 45.4164 27.2531C44.6416 27.9503 43.6226 28.3267 42.5875 28.3097C41.1393 33.7558 36.2202 37.5285 30.5004 37.5285ZM18.7439 27.4297C18.9412 27.4297 19.1158 27.5653 19.1618 27.761C20.3963 33.006 25.0588 36.6689 30.5004 36.6689C35.9418 36.6689 40.6045 33.0058 41.839 27.761C41.8886 27.5505 42.0865 27.4089 42.3024 27.4321C43.229 27.5305 44.1546 27.2319 44.8414 26.6138C45.5186 26.0045 45.9069 25.1356 45.9069 24.2301C45.9069 23.3632 45.564 22.55 44.9413 21.9398C44.3127 21.3237 43.4735 20.9956 42.5849 21.0126C42.4704 21.0166 42.3581 20.9709 42.2756 20.8899C42.1931 20.8091 42.1467 20.6985 42.1467 20.5829V19.4521C42.1467 13.0904 36.9223 7.91482 30.5004 7.91482C24.0785 7.91482 18.8542 13.0904 18.8542 19.4521V20.5829C18.8542 20.6985 18.8078 20.8089 18.7253 20.8899C18.6428 20.9707 18.5306 21.016 18.4159 21.0126C17.5193 20.9945 16.6881 21.3237 16.0595 21.9396C15.4369 22.5498 15.0937 23.3632 15.0937 24.2301C15.0937 25.1356 15.4824 26.0047 16.1596 26.6142C16.8462 27.2321 17.7729 27.5301 18.6982 27.4321C18.7137 27.4306 18.7289 27.4297 18.7439 27.4297Z" fill="#3762CC"/>
<path d="M44.6789 18.2616H25.7334C21.6969 18.2616 18.4248 14.9896 18.4248 10.9531C18.4248 6.9166 21.6969 3.64453 25.7334 3.64453H38.1344C41.7489 3.64453 44.6789 6.57457 44.6789 10.1891V18.2616Z" fill="#4671C6"/>
<path d="M44.6792 18.6913H25.7334C21.4666 18.6913 17.9951 15.2199 17.9951 10.9531C17.9951 6.68629 21.4666 3.21484 25.7336 3.21484H38.1346C41.9803 3.21484 45.1088 6.34361 45.1088 10.1891V18.2616C45.1088 18.499 44.9166 18.6913 44.6792 18.6913ZM25.7336 4.07422C21.9405 4.07422 18.8545 7.16002 18.8545 10.9531C18.8545 14.7462 21.9403 17.832 25.7334 17.832H44.2495V10.1891C44.2495 6.81734 41.5063 4.07422 38.1346 4.07422H25.7336Z" fill="#3762CC"/>
<path d="M35.6204 22.4033C35.386 22.6717 35.2432 23.0216 35.2432 23.4058V25.0339C35.2432 25.8767 35.9266 26.5601 36.7694 26.5601C37.6125 26.5601 38.2957 25.8767 38.2957 25.0339V23.4797C37.2032 23.2887 36.292 22.8403 35.6204 22.4033Z" fill="#3762CC"/>
<path d="M22.7021 23.4789V25.0346C22.7021 25.8774 23.3856 26.5608 24.2284 26.5608C25.0712 26.5608 25.7547 25.8774 25.7547 25.0346V23.4065C25.7547 23.0206 25.6103 22.6692 25.3742 22.4004C24.7038 22.8376 23.7938 23.2866 22.7021 23.4789Z" fill="#3762CC"/>
<path d="M39.3827 24.006C36.1781 24.006 34.104 21.7386 34.0153 21.6398C33.8567 21.4632 33.8713 21.1916 34.0477 21.033C34.2239 20.8745 34.4952 20.8887 34.654 21.0651C34.6738 21.087 36.6566 23.2466 39.584 23.1432C39.8264 23.1398 40.0202 23.3209 40.0281 23.5581C40.0361 23.7953 39.8502 23.994 39.6132 24.0022C39.5357 24.0048 39.4588 24.006 39.3827 24.006Z" fill="#3762CC"/>
<path d="M21.6064 24.0059C21.5301 24.0059 21.4536 24.0046 21.376 24.002C21.1389 23.9938 20.9532 23.7951 20.9612 23.5579C20.9691 23.3207 21.1651 23.1371 21.4053 23.1431C24.3424 23.246 26.3151 21.0872 26.3346 21.0655C26.4932 20.8887 26.7648 20.8743 26.9414 21.0331C27.118 21.1916 27.1326 21.4632 26.9738 21.6398C26.8853 21.7384 24.8108 24.0059 21.6064 24.0059Z" fill="#3762CC"/>
</svg>
