<svg width="61" height="61" viewBox="0 0 61 61" fill="none" xmlns="http://www.w3.org/2000/svg">
<path d="M41.6498 37.9736H21.2833C17.9749 37.9736 15.293 40.6556 15.293 43.9639V51.4813H20.1666V57.0788H42.4502V51.4813H47.6401C47.6401 48.6747 47.6401 46.7823 47.6401 43.9639C47.6401 40.6556 44.9581 37.9736 41.6498 37.9736Z" fill="#4671C6"/>
<path d="M15.293 51.4805H20.1666V57.078H15.293V51.4805Z" fill="#F9CFCF"/>
<path d="M20.1656 57.5421H15.2921C15.036 57.5421 14.8281 57.3342 14.8281 57.0781V51.4806C14.8281 51.2245 15.036 51.0166 15.2921 51.0166H20.1658C20.4219 51.0166 20.6298 51.2245 20.6298 51.4806V57.0781C20.6296 57.3342 20.4219 57.5421 20.1656 57.5421ZM15.7561 56.6141H19.7018V51.9446H15.7561V56.6141Z" fill="#3762CC"/>
<path d="M42.4492 51.4805H47.6391V57.078H42.4492V51.4805Z" fill="#F9CFCF"/>
<path d="M47.6392 57.5421H42.4494C42.1932 57.5421 41.9854 57.3342 41.9854 57.0781V51.4806C41.9854 51.2245 42.1932 51.0166 42.4494 51.0166H47.6392C47.8954 51.0166 48.1032 51.2245 48.1032 51.4806V57.0781C48.1032 57.3342 47.8954 57.5421 47.6392 57.5421ZM42.9134 56.6141H47.1752V51.9446H42.9134V56.6141Z" fill="#3762CC"/>
<path d="M42.4494 51.9445C42.1932 51.9445 41.9854 51.7366 41.9854 51.4805V47.5255C41.9854 47.2694 42.1932 47.0615 42.4494 47.0615C42.7055 47.0615 42.9134 47.2694 42.9134 47.5255V51.4805C42.9134 51.7366 42.7055 51.9445 42.4494 51.9445Z" fill="#3762CC"/>
<path d="M25.4766 32.7617V38.452V38.4527C25.4766 41.7576 28.1557 44.4365 31.4606 44.4365C34.7638 44.4365 37.4446 41.7592 37.4446 38.452C37.4446 37.3008 37.4446 33.9514 37.4446 32.7617H25.4766Z" fill="#F9CFCF"/>
<path d="M42.4494 57.5422H20.1656C19.9094 57.5422 19.7016 57.3343 19.7016 57.0782V51.9447H15.2921C15.036 51.9447 14.8281 51.7368 14.8281 51.4807V43.9631C14.8281 40.4042 17.7235 37.5091 21.2824 37.5091H25.0121V32.7619C25.0121 32.5057 25.22 32.2979 25.4761 32.2979H37.4439C37.7 32.2979 37.9079 32.5057 37.9079 32.7619V37.5091H41.6492C45.2081 37.5091 48.1032 40.4042 48.1032 43.9631V51.4805C48.1032 51.7366 47.8954 51.9445 47.6392 51.9445H42.9134V57.0782C42.9134 57.3343 42.7055 57.5422 42.4494 57.5422ZM20.6296 56.6142H41.9851V51.4807C41.9851 51.2246 42.193 51.0167 42.4491 51.0167H47.175V43.9631C47.175 40.916 44.6958 38.4371 41.6489 38.4371H37.4437C37.1875 38.4371 36.9797 38.2292 36.9797 37.9731V33.2259H25.9401V37.9731C25.9401 38.2292 25.7322 38.4371 25.4761 38.4371H21.2822C18.2351 38.4371 15.7559 40.9163 15.7559 43.9631V51.0165H20.1656C20.4217 51.0165 20.6296 51.2243 20.6296 51.4805V56.6142Z" fill="#3762CC"/>
<path d="M31.4658 33.7686C23.716 33.7686 17.4336 27.4863 17.4336 19.7365V13.8592C17.4336 11.9113 19.0128 10.332 20.9607 10.332H45.4979V19.7365C45.4979 27.4863 39.2156 33.7686 31.4658 33.7686Z" fill="#4671C6"/>
<path d="M31.4659 34.2318C23.4725 34.2318 16.9697 27.7288 16.9697 19.7356V13.8583C16.9697 11.6578 18.7601 9.86719 20.9609 9.86719H45.4983C45.7544 9.86719 45.9623 10.0751 45.9623 10.3312V19.7356C45.9621 27.7288 39.4591 34.2318 31.4659 34.2318ZM20.9609 10.795C19.2719 10.795 17.8977 12.1691 17.8977 13.8581V19.7354C17.8977 27.217 23.9843 33.3036 31.4659 33.3036C38.9475 33.3036 45.0341 27.217 45.0341 19.7354V10.795H20.9609Z" fill="#3762CC"/>
<path d="M43.4174 20.6863V19.5673C43.4174 13.0263 38.0668 7.72363 31.4661 7.72363C24.8656 7.72363 19.5147 13.0263 19.5147 19.5673V20.6863C17.4395 20.6443 15.793 22.2973 15.793 24.2958C15.793 26.4297 17.6559 28.1175 19.8303 27.8876C21.0636 33.1276 25.8034 37.0315 31.4659 37.0315C37.1288 37.0315 41.8681 33.1272 43.1015 27.8876C45.273 28.1173 47.1388 26.4325 47.1388 24.2958C47.139 22.2966 45.4913 20.6443 43.4174 20.6863Z" fill="#F9CFCF"/>
<path d="M54.3678 17.9362H52.8652C53.1517 14.5139 50.9087 10.6585 46.9811 8.40992C42.3269 5.74561 36.9238 6.26228 34.4126 9.45602C34.1094 9.84161 34.2303 10.4098 34.656 10.6534C35.0075 10.8545 35.4495 10.7627 35.7 10.4446C37.7187 7.88282 42.2288 7.56103 46.174 9.81934C49.6053 11.7837 51.5697 15.1053 51.2419 17.9362H49.8046C49.439 17.9362 49.2172 18.3392 49.4125 18.6482L51.694 22.2567C51.8761 22.5447 52.2963 22.5447 52.4784 22.2567L54.7599 18.6482C54.9553 18.3392 54.7333 17.9362 54.3678 17.9362Z" fill="#F9A7A7"/>
<path d="M17.4069 36.5397V35.037C13.9846 35.3236 10.1292 33.0806 7.88063 29.153C5.21631 24.4988 5.73298 19.0957 8.92672 16.5845C9.31231 16.2813 9.88048 16.4022 10.1241 16.8279C10.3252 17.1794 10.2334 17.6213 9.91528 17.8719C7.35352 19.8906 7.03173 24.4007 9.29004 28.3459C11.2544 31.7772 14.576 33.7415 17.4069 33.4137V31.9765C17.4069 31.6108 17.8098 31.389 18.1189 31.5844L21.7274 33.8659C22.0153 34.048 22.0153 34.4682 21.7274 34.6503L18.1189 36.9318C17.8098 37.1271 17.4069 36.9051 17.4069 36.5397Z" fill="#F9A7A7"/>
<path d="M31.4662 37.4942C25.798 37.4942 20.9217 33.7619 19.474 28.3707C18.4544 28.3797 17.4447 28.0046 16.6784 27.3148C15.8209 26.5434 15.3291 25.4424 15.3291 24.2944C15.3291 23.1957 15.7634 22.1649 16.5518 21.3923C17.2331 20.7246 18.1073 20.3235 19.0509 20.2374V19.5655C19.0509 12.779 24.6203 7.25781 31.4662 7.25781C38.3121 7.25781 43.8816 12.779 43.8816 19.5655V20.2374C44.8251 20.3232 45.6993 20.7246 46.3807 21.3925C47.1691 22.1649 47.6034 23.1954 47.6034 24.2944C47.6034 25.4424 47.1118 26.543 46.2545 27.3146C45.4959 27.9969 44.5078 28.3707 43.4904 28.3707C43.4798 28.3707 43.4691 28.3707 43.4584 28.3707C42.0105 33.7619 37.1345 37.4942 31.4662 37.4942ZM19.8309 27.422C20.0438 27.422 20.2325 27.5684 20.2821 27.7798C21.4999 32.953 26.0989 36.5659 31.4662 36.5659C36.8336 36.5659 41.4326 32.953 42.6501 27.7798C42.7037 27.5522 42.9202 27.4014 43.1505 27.4246C44.0572 27.5206 44.962 27.229 45.6334 26.6246C46.2956 26.0291 46.6751 25.1795 46.6751 24.2944C46.6751 23.4471 46.3399 22.6518 45.7311 22.0554C45.1168 21.4529 44.2966 21.1292 43.4269 21.1489C43.3032 21.1461 43.1816 21.1037 43.0928 21.0165C43.0039 20.9292 42.9533 20.8095 42.9533 20.6849V19.566C42.9533 13.2913 37.8001 8.18628 31.466 8.18628C25.1319 8.18628 19.9787 13.2913 19.9787 19.566V20.6849C19.9787 20.8095 19.9285 20.9292 19.8395 21.0165C19.7504 21.1037 19.6307 21.1489 19.5054 21.1489C18.6293 21.1311 17.8155 21.4533 17.2009 22.0551C16.5921 22.6516 16.2569 23.4469 16.2569 24.2944C16.2569 25.1795 16.6367 26.0291 17.299 26.6251C17.9702 27.229 18.8741 27.5202 19.7815 27.4246C19.7984 27.423 19.8146 27.422 19.8309 27.422Z" fill="#3762CC"/>
<path d="M45.4982 18.3871H26.7478C22.7529 18.3871 19.5146 15.1486 19.5146 11.154C19.5146 7.15918 22.7532 3.9209 26.7478 3.9209H39.0209C42.5981 3.9209 45.4982 6.82092 45.4982 10.3982V18.3871Z" fill="#4671C6"/>
<path d="M45.4983 18.8515H26.7479C22.5037 18.8515 19.0508 15.3984 19.0508 11.1542C19.0508 6.90992 22.5039 3.45703 26.7481 3.45703H39.0213C42.8486 3.45703 45.9626 6.57096 45.9626 10.3983V18.3878C45.9623 18.6439 45.7547 18.8515 45.4983 18.8515ZM26.7481 4.38504C23.0157 4.38504 19.979 7.42171 19.979 11.1544C19.979 14.8871 23.0157 17.9237 26.7481 17.9237H45.0345V10.3983C45.0345 7.08253 42.3371 4.38504 39.0213 4.38504H26.7481Z" fill="#3762CC"/>
<path d="M20.1662 51.9445C19.91 51.9445 19.7021 51.7366 19.7021 51.4805V47.5255C19.7021 47.2694 19.91 47.0615 20.1662 47.0615C20.4223 47.0615 20.6302 47.2694 20.6302 47.5255V51.4805C20.6302 51.7366 20.4225 51.9445 20.1662 51.9445Z" fill="#3762CC"/>
<path d="M34.8651 33.8033H34.8655C35.1762 33.8458 35.4947 33.8476 35.7991 33.7724C36.915 33.4971 37.7428 32.4895 37.7428 31.2884C37.7428 30.0873 36.9153 29.0795 35.7991 28.8044C35.4947 28.7292 35.1762 28.731 34.8655 28.7735C32.6082 29.0818 30.3192 29.0818 28.0619 28.7735C27.7512 28.731 27.4327 28.7292 27.1283 28.8044C26.0124 29.0797 25.1846 30.0873 25.1846 31.2884C25.1846 32.4895 26.0121 33.4971 27.1283 33.7724C27.4327 33.8476 27.7512 33.8458 28.0619 33.8033H28.0623C30.3192 33.495 32.6079 33.495 34.8651 33.8033Z" fill="#F9A7A7"/>
<path d="M38.0637 27.1496C37.9746 27.1496 37.8848 27.1243 37.8055 27.0707L34.5969 24.9161C34.4686 24.83 34.3916 24.6855 34.3916 24.531C34.3916 24.3765 34.4686 24.2319 34.5969 24.1458L37.8055 21.9912C38.0187 21.8476 38.3066 21.9052 38.4493 22.1177C38.5922 22.3304 38.5356 22.6188 38.3229 22.7615L35.688 24.531L38.3229 26.3004C38.5356 26.4431 38.5922 26.7315 38.4493 26.9443C38.36 27.0774 38.2134 27.1496 38.0637 27.1496Z" fill="#3762CC"/>
<path d="M24.8562 27.1495C24.7068 27.1495 24.5601 27.0773 24.4706 26.9442C24.3277 26.7314 24.3843 26.443 24.597 26.3003L27.2321 24.5309L24.597 22.7614C24.3843 22.6187 24.3275 22.3303 24.4706 22.1176C24.6133 21.9051 24.9014 21.8478 25.1144 21.9911L28.3232 24.1457C28.4515 24.2318 28.5285 24.3764 28.5285 24.5309C28.5285 24.6854 28.4515 24.8299 28.3232 24.916L25.1144 27.0706C25.0351 27.124 24.9453 27.1495 24.8562 27.1495Z" fill="#3762CC"/>
</svg>
