<svg width="61" height="61" viewBox="0 0 61 61" fill="none" xmlns="http://www.w3.org/2000/svg">
<path d="M40.7703 38.0586H20.2304C16.8941 38.0586 14.1895 40.7744 14.1895 44.1247V49.0345V51.7373H19.5608V57.3039H41.4398V51.7373H46.8111V49.0345V44.1247C46.8113 40.7746 44.1067 38.0586 40.7703 38.0586Z" fill="#4671C6"/>
<path d="M24.3389 32.7812V38.5438V38.5444C24.3389 41.8913 27.0407 44.6043 30.3736 44.6043C33.705 44.6043 36.4083 41.8932 36.4083 38.5438C36.4083 37.378 36.4083 33.9861 36.4083 32.7812H24.3389Z" fill="#F9CFCF"/>
<path d="M14.1895 51.7373H19.5608V57.3039H14.1895V51.7373Z" fill="#F9CFCF"/>
<path d="M41.4404 51.7373H46.8117V57.3039H41.4404V51.7373Z" fill="#F9CFCF"/>
<path d="M46.8113 57.7336H14.1895C13.9523 57.7336 13.7598 57.5411 13.7598 57.3039V44.1248C13.7598 40.5429 16.6625 37.629 20.2304 37.629H23.909V32.7812C23.909 32.5441 24.1015 32.3516 24.3387 32.3516H36.4082C36.6453 32.3516 36.8379 32.5441 36.8379 32.7812V37.6288H40.7703C44.3383 37.6288 47.241 40.5427 47.241 44.1246V57.3037C47.241 57.5411 47.0485 57.7336 46.8113 57.7336ZM14.6191 56.8743H46.3816V44.1248C46.3816 41.0169 43.8643 38.4884 40.7703 38.4884H36.4082C36.171 38.4884 35.9785 38.2959 35.9785 38.0587V33.2109H24.7684V38.0585C24.7684 38.2956 24.5759 38.4881 24.3387 38.4881H20.2304C17.1365 38.4881 14.6191 41.0166 14.6191 44.1246V56.8743Z" fill="#3762CC"/>
<path d="M19.5605 57.734C19.3234 57.734 19.1309 57.5415 19.1309 57.3043V47.6816C19.1309 47.4445 19.3234 47.252 19.5605 47.252C19.7977 47.252 19.9902 47.4445 19.9902 47.6816V57.3043C19.9902 57.5415 19.7979 57.734 19.5605 57.734Z" fill="#3762CC"/>
<path d="M41.4404 57.734C41.2032 57.734 41.0107 57.5415 41.0107 57.3043V47.6816C41.0107 47.4445 41.2032 47.252 41.4404 47.252C41.6776 47.252 41.8701 47.4445 41.8701 47.6816V57.3043C41.8701 57.5415 41.6776 57.734 41.4404 57.734Z" fill="#3762CC"/>
<path d="M19.5608 57.7334H14.1895C13.9523 57.7334 13.7598 57.5409 13.7598 57.3037V51.7373C13.7598 51.5001 13.9523 51.3076 14.1895 51.3076H19.5608C19.7979 51.3076 19.9904 51.5001 19.9904 51.7373V57.3037C19.9904 57.5409 19.7982 57.7334 19.5608 57.7334ZM14.6191 56.874H19.1311V52.167H14.6191V56.874Z" fill="#3762CC"/>
<path d="M46.8117 57.7334H41.4404C41.2032 57.7334 41.0107 57.5409 41.0107 57.3037V51.7373C41.0107 51.5001 41.2032 51.3076 41.4404 51.3076H46.8117C47.0489 51.3076 47.2414 51.5001 47.2414 51.7373V57.3037C47.2414 57.5409 47.0489 57.7334 46.8117 57.7334ZM41.8701 56.874H46.382V52.167H41.8701V56.874Z" fill="#3762CC"/>
<path d="M30.5 33.7979C22.6844 33.7979 16.3486 27.4622 16.3486 19.6466V13.7193C16.3486 11.7547 17.9413 10.1621 19.9058 10.1621H44.6515V19.6466C44.6513 27.4622 38.3155 33.7979 30.5 33.7979Z" fill="#4671C6"/>
<path d="M30.5 34.2276C22.4599 34.2276 15.9189 27.6867 15.9189 19.6466V13.7193C15.9189 11.521 17.7073 9.73242 19.9058 9.73242H44.6515C44.8887 9.73242 45.0812 9.92492 45.0812 10.1621V19.6466C45.081 27.6865 38.5401 34.2276 30.5 34.2276ZM19.9056 10.5918C18.1813 10.5918 16.7781 11.9947 16.7781 13.7193V19.6466C16.7781 27.2128 22.9336 33.3682 30.4997 33.3682C38.0659 33.3682 44.2214 27.2128 44.2214 19.6466V10.5918H19.9056Z" fill="#3762CC"/>
<path d="M42.5531 20.6031V19.4745C42.5531 12.8779 37.1569 7.53027 30.5004 7.53027C23.8439 7.53027 18.4477 12.8779 18.4477 19.4745V20.6031C16.3549 20.5605 14.6943 22.2279 14.6943 24.2432C14.6943 26.3953 16.5731 28.0975 18.7661 27.8657C20.01 33.1502 24.7901 37.0872 30.5006 37.0872C36.2116 37.0872 40.9912 33.1497 42.2352 27.8657C44.4251 28.0973 46.3069 26.3983 46.3069 24.2432C46.3064 22.2269 44.6448 20.5608 42.5531 20.6031Z" fill="#F9CFCF"/>
<path d="M30.5004 37.5169C24.7909 37.5169 19.8811 33.7517 18.4358 28.3153C17.399 28.3319 16.3858 27.9563 15.6126 27.2609C14.756 26.49 14.2646 25.39 14.2646 24.2432C14.2646 23.1453 14.6984 22.1156 15.486 21.3439C16.1753 20.6686 17.0619 20.2662 18.018 20.1869V19.4745C18.018 12.6515 23.6174 7.10059 30.5006 7.10059C37.3838 7.10059 42.9832 12.6515 42.9832 19.4745V20.1869C43.9395 20.2662 44.8257 20.6686 45.5152 21.3441C46.3028 22.1158 46.7366 23.1453 46.7366 24.2432C46.7366 25.39 46.2454 26.4898 45.3888 27.2604C44.6154 27.9561 43.6044 28.3241 42.5654 28.3153C41.1195 33.7517 36.2097 37.5169 30.5004 37.5169ZM18.7665 27.436C18.9635 27.436 19.1382 27.5715 19.1844 27.7673C20.4161 33.0017 25.0696 36.6575 30.5004 36.6575C35.931 36.6575 40.5845 33.0017 41.8164 27.7673C41.8661 27.5565 42.0672 27.4147 42.2798 27.4383C43.206 27.5354 44.1284 27.2383 44.8135 26.6217C45.4894 26.0137 45.8768 25.1468 45.8768 24.2432C45.8768 23.3782 45.5345 22.5665 44.9134 21.9579C44.2861 21.3432 43.4486 21.0171 42.5622 21.0326C42.447 21.036 42.3351 20.9907 42.2528 20.9099C42.1703 20.8291 42.1237 20.7185 42.1237 20.6029V19.4743C42.1237 13.125 36.9094 7.95975 30.5004 7.95975C24.0914 7.95975 18.8771 13.1254 18.8771 19.4745V20.6031C18.8771 20.7187 18.8305 20.8291 18.748 20.9101C18.6655 20.9909 18.5551 21.0369 18.4386 21.0328C17.5561 21.0175 16.7147 21.3432 16.0874 21.9579C15.4661 22.5668 15.124 23.3784 15.124 24.2434C15.124 25.147 15.5118 26.0139 16.1875 26.6221C16.8724 27.2385 17.7947 27.5357 18.7209 27.4383C18.736 27.4366 18.7512 27.436 18.7665 27.436Z" fill="#3762CC"/>
<path d="M44.6513 18.2855H25.7419C21.7131 18.2855 18.4473 15.0196 18.4473 10.9909C18.4473 6.96213 21.7131 3.69629 25.7419 3.69629H38.1192C41.7269 3.69629 44.6513 6.62074 44.6513 10.2284V18.2855Z" fill="#4671C6"/>
<path d="M44.6515 18.7154H25.7419C21.4828 18.7154 18.0176 15.2504 18.0176 10.9911C18.0176 6.73182 21.4828 3.2666 25.7421 3.2666H38.1194C41.9583 3.2666 45.0812 6.38978 45.0812 10.2284V18.2855C45.0812 18.5229 44.8889 18.7154 44.6515 18.7154ZM25.7421 4.12598C21.9567 4.12598 18.8772 7.20555 18.8772 10.9911C18.8772 14.7766 21.9567 17.856 25.7421 17.856H44.2221V10.2284C44.2221 6.86352 41.4845 4.12598 38.1196 4.12598H25.7421Z" fill="#3762CC"/>
<path d="M30.5003 35.2888C33.0532 35.2888 35.1227 33.7004 35.1227 31.7411C35.1227 29.7817 33.0532 28.1934 30.5003 28.1934C27.9474 28.1934 25.8779 29.7817 25.8779 31.7411C25.8779 33.7004 27.9474 35.2888 30.5003 35.2888Z" fill="#F9A7A7"/>
<path d="M22.4098 26.4818C22.2585 26.4818 22.1118 26.4019 22.0334 26.2603C21.9184 26.0527 21.9934 25.791 22.2012 25.6761L25.1553 24.0396L22.2012 22.4032C21.9934 22.2882 21.9184 22.0268 22.0334 21.819C22.1485 21.6115 22.4106 21.5367 22.6175 21.6514L26.2503 23.6637C26.3872 23.7395 26.4718 23.8832 26.4718 24.0396C26.4718 24.1961 26.387 24.3398 26.2503 24.4156L22.6175 26.4281C22.5516 26.4644 22.48 26.4818 22.4098 26.4818Z" fill="#3762CC"/>
<path d="M38.5798 26.482C38.5094 26.482 38.438 26.4646 38.3721 26.4281L34.7391 24.4157C34.6022 24.3398 34.5176 24.1961 34.5176 24.0397C34.5176 23.8833 34.6024 23.7396 34.7391 23.6637L38.3721 21.6515C38.5798 21.5366 38.8415 21.6117 38.9562 21.8191C39.0712 22.0266 38.9962 22.2883 38.7885 22.4032L35.8341 24.0397L38.7885 25.6762C38.9962 25.7911 39.0712 26.0526 38.9562 26.2603C38.8778 26.4021 38.7313 26.482 38.5798 26.482Z" fill="#3762CC"/>
<path d="M33.1669 32.626H27.8332C27.3741 32.626 27.002 32.9981 27.002 33.4572V47.4736V50.4685V53.5601C27.002 54.0938 27.3921 54.5703 27.9234 54.6208C28.5327 54.6788 29.0453 54.2012 29.0453 53.604V50.6821C29.0453 50.5641 29.1409 50.4685 29.2589 50.4685C29.3768 50.4685 29.4724 50.5641 29.4724 50.6821V55.4304C29.4724 55.964 29.8626 56.4405 30.3937 56.4913C31.003 56.5493 31.5158 56.0717 31.5158 55.4744V53.0789C31.5158 52.9577 31.614 52.8595 31.7352 52.8595C31.8563 52.8595 31.9545 52.9577 31.9545 53.0789V53.4899C31.9545 54.0236 32.3447 54.5001 32.876 54.5508C33.4853 54.6088 33.9981 54.1312 33.9981 53.5339V50.4688V47.4036V33.4574C33.9981 32.9983 33.626 32.626 33.1669 32.626Z" fill="#6BDDDD"/>
<path d="M31.9565 40.8339C32.4837 40.8339 32.9111 40.4065 32.9111 39.8794C32.9111 39.3522 32.4837 38.9248 31.9565 38.9248C31.4293 38.9248 31.002 39.3522 31.002 39.8794C31.002 40.4065 31.4293 40.8339 31.9565 40.8339Z" fill="#FFEA92"/>
<path d="M29.2827 44.579C29.8099 44.579 30.2372 44.1517 30.2372 43.6245C30.2372 43.0973 29.8099 42.6699 29.2827 42.6699C28.7555 42.6699 28.3281 43.0973 28.3281 43.6245C28.3281 44.1517 28.7555 44.579 29.2827 44.579Z" fill="#FFEA92"/>
<path d="M31.6215 48.7607C32.1487 48.7607 32.5761 48.3333 32.5761 47.8061C32.5761 47.2789 32.1487 46.8516 31.6215 46.8516C31.0944 46.8516 30.667 47.2789 30.667 47.8061C30.667 48.3333 31.0944 48.7607 31.6215 48.7607Z" fill="#FFEA92"/>
<path d="M29.7124 36.872C30.2395 36.872 30.6669 36.4446 30.6669 35.9174C30.6669 35.3903 30.2395 34.9629 29.7124 34.9629C29.1852 34.9629 28.7578 35.3903 28.7578 35.9174C28.7578 36.4446 29.1852 36.872 29.7124 36.872Z" fill="#FFEA92"/>
</svg>
