<svg width="55" height="55" viewBox="0 0 55 55" fill="none" xmlns="http://www.w3.org/2000/svg">
<path opacity="0.1" d="M42.172 7.87256H21.4355C20.906 7.87256 20.478 8.30054 20.478 8.83001V10.6683H13.5371C12.4795 10.6683 11.6222 11.5256 11.6222 12.5832V16.3965C11.6222 16.9253 12.0508 17.3539 12.5796 17.3539H13.4232V22.0972C10.4907 22.3658 8.19336 24.8309 8.19336 27.8336V49.1594C8.19336 50.217 9.05066 51.0743 10.1083 51.0743H21.4272C21.4299 51.0743 21.4327 51.0747 21.4355 51.0747H42.172C42.7014 51.0747 43.1294 50.6457 43.1294 50.1172V8.83001C43.1294 8.30054 42.7014 7.87256 42.172 7.87256Z" fill="#2626BC"/>
<path d="M43.1299 6.43645V47.7237C43.1299 48.2522 42.7019 48.6811 42.1725 48.6811H21.436C20.9065 48.6811 20.4785 48.2522 20.4785 47.7237V6.43645C20.4785 5.90698 20.9065 5.479 21.436 5.479H42.1725C42.7019 5.479 43.1299 5.90698 43.1299 6.43645Z" fill="white"/>
<path d="M27.3877 28.1969H38.1889C38.4532 28.1969 38.6676 27.9825 38.6676 27.7181V25.4406C38.6676 25.1763 38.4532 24.9619 38.1889 24.9619H27.3877V28.1969Z" fill="#6583FE"/>
<path d="M38.1884 31.6191H31.8713C31.6213 31.6191 31.3981 31.4363 31.3743 31.1875C31.347 30.9019 31.5709 30.6616 31.8509 30.6616H38.1885C38.4529 30.6616 38.6672 30.876 38.6672 31.1403C38.6671 31.4047 38.4528 31.6191 38.1884 31.6191Z" fill="#003960"/>
<path d="M38.1884 33.4731H31.8713C31.6213 33.4731 31.3981 33.2903 31.3743 33.0415C31.347 32.7559 31.5709 32.5156 31.8509 32.5156H38.1885C38.4529 32.5156 38.6672 32.7299 38.6672 32.9944C38.6671 33.2588 38.4528 33.4731 38.1884 33.4731Z" fill="#003960"/>
<path d="M43.1299 6.43645V8.97849L20.4785 25.2548V6.43645C20.4785 5.90698 20.9065 5.479 21.436 5.479H42.1725C42.7019 5.479 43.1299 5.90698 43.1299 6.43645Z" fill="#6583FE"/>
<path d="M22.1576 19.704V14.085H13.4232V19.704C10.4906 19.9725 8.19336 22.4377 8.19336 25.4403V46.7661C8.19336 47.8237 9.05066 48.681 10.1083 48.681H25.4725C26.5301 48.681 27.3874 47.8237 27.3874 46.7661V25.4403C27.3875 22.4377 25.0903 19.9725 22.1576 19.704Z" fill="white"/>
<path d="M27.3872 42.7413H14.5248C13.996 42.7413 13.5674 42.3126 13.5674 41.7838V28.0224C13.5674 27.4936 13.996 27.0649 14.5248 27.0649H27.3871V42.7413H27.3872Z" fill="white"/>
<path d="M27.387 33.4745H18.177C17.9125 33.4745 17.6982 33.2602 17.6982 32.9958C17.6982 32.7315 17.9125 32.5171 18.177 32.5171H27.387V33.4745Z" fill="#003960"/>
<path d="M27.3869 35.2724H20.5705C20.3061 35.2724 20.0918 35.058 20.0918 34.7937C20.0918 34.5293 20.3061 34.3149 20.5705 34.3149H27.3869V35.2724Z" fill="#003960"/>
<path d="M27.3869 37.0688H20.5705C20.3061 37.0688 20.0918 36.8544 20.0918 36.5901C20.0918 36.3257 20.3061 36.1113 20.5705 36.1113H27.3869V37.0688Z" fill="#003960"/>
<path d="M27.3872 29.9601V27.064H14.5248C13.996 27.064 13.5674 27.4926 13.5674 28.0214V29.9601H27.3872Z" fill="#6583FE"/>
<path d="M23.0012 14.9605H12.5795C12.0507 14.9605 11.6221 14.5318 11.6221 14.003V10.1898C11.6221 9.1322 12.4794 8.2749 13.537 8.2749H22.0437C23.1013 8.2749 23.9586 9.1322 23.9586 10.1898V14.003C23.9586 14.5318 23.53 14.9605 23.0012 14.9605Z" fill="white"/>
<path d="M42.1725 5H37.8278C37.5635 5 37.3491 5.21437 37.3491 5.47873C37.3491 5.74308 37.5635 5.95745 37.8278 5.95745H42.1725C42.4364 5.95745 42.6512 6.17221 42.6512 6.43618V47.7234C42.6512 47.9874 42.4364 48.2021 42.1725 48.2021H27.3863C27.6876 47.8018 27.8664 47.3044 27.8664 46.7659V25.4401C27.8664 23.8739 27.2836 22.3761 26.2252 21.223C25.2732 20.1857 24.0119 19.5065 22.6365 19.2824V15.4392H23.0014C23.7933 15.4392 24.4376 14.7949 24.4376 14.003V10.1898C24.4376 8.86992 23.3638 7.79614 22.044 7.79614H20.9565V6.43618C20.9565 6.17221 21.1712 5.95745 21.4352 5.95745H35.0416C35.3059 5.95745 35.5203 5.74308 35.5203 5.47873C35.5203 5.21437 35.3059 5 35.0416 5H21.4352C20.6433 5 19.999 5.64427 19.999 6.43618V7.79624H13.5373C12.2174 7.79624 11.1437 8.87002 11.1437 10.1899V14.0031C11.1437 14.795 11.7879 15.4393 12.5798 15.4393H21.6792V19.7039C21.6792 19.9514 21.8678 20.1581 22.1142 20.1806C23.42 20.3002 24.6296 20.9003 25.5199 21.8705C26.4157 22.8465 26.9091 24.1144 26.9091 25.4402V46.766C26.9091 47.5579 26.2648 48.2022 25.4729 48.2022H10.1085C9.31656 48.2022 8.67229 47.5579 8.67229 46.766V25.4401C8.67229 24.1143 9.16567 22.8465 10.0615 21.8704C10.9518 20.9002 12.1613 20.3001 13.4671 20.1805C13.7136 20.158 13.9022 19.9513 13.9022 19.7038V17.7467C13.9022 17.4824 13.6878 17.268 13.4235 17.268C13.1591 17.268 12.9447 17.4824 12.9447 17.7467V19.2824C11.5694 19.5065 10.3081 20.1857 9.35611 21.223C8.29774 22.3761 7.71484 23.8739 7.71484 25.4401V46.7659C7.71484 48.0858 8.78863 49.1596 10.1085 49.1596H42.1725C42.9644 49.1596 43.6086 48.5153 43.6086 47.7234V6.43618C43.6086 5.64427 42.9644 5 42.1725 5ZM12.1011 14.003V10.1898C12.1011 9.39786 12.7454 8.75359 13.5373 8.75359H22.0441C22.836 8.75359 23.4802 9.39786 23.4802 10.1898V14.003C23.4802 14.267 23.2655 14.4817 23.0015 14.4817H12.5798C12.3159 14.4817 12.1011 14.267 12.1011 14.003Z" fill="#003960"/>
<path d="M19.9988 41.189H16.3127C16.0483 41.189 15.834 40.9746 15.834 40.7102V38.9719C15.834 38.7075 16.0483 38.4932 16.3127 38.4932H19.9988C20.2632 38.4932 20.4775 38.7075 20.4775 38.9719V40.7102C20.4775 40.9747 20.2632 41.189 19.9988 41.189Z" fill="#6583FE"/>
<path d="M24.7092 40.3193C24.9736 40.3193 25.1879 40.1049 25.1879 39.8405C25.1879 39.5761 24.9736 39.3618 24.7092 39.3618C24.4448 39.3618 24.2305 39.5761 24.2305 39.8405C24.2305 40.1049 24.4448 40.3193 24.7092 40.3193Z" fill="#003960"/>
<path d="M23.2082 40.3193C23.4726 40.3193 23.6869 40.1049 23.6869 39.8405C23.6869 39.5761 23.4726 39.3618 23.2082 39.3618C22.9438 39.3618 22.7295 39.5761 22.7295 39.8405C22.7295 40.1049 22.9438 40.3193 23.2082 40.3193Z" fill="#003960"/>
<path d="M39.7739 39.1147C39.9429 37.5136 38.7819 36.0786 37.1808 35.9097C35.5797 35.7407 34.1448 36.9017 33.9759 38.5028C33.8069 40.1039 34.9679 41.5388 36.569 41.7078C38.1701 41.8767 39.605 40.7158 39.7739 39.1147Z" fill="#6583FE"/>
<path d="M39.636 17.9096C39.9003 17.9096 40.1147 17.6953 40.1147 17.4309C40.1147 17.1665 39.9003 16.9521 39.636 16.9521C39.3716 16.9521 39.1572 17.1665 39.1572 17.4309C39.1572 17.6953 39.3716 17.9096 39.636 17.9096Z" fill="#003960"/>
<path d="M38.136 17.9096C38.4003 17.9096 38.6147 17.6953 38.6147 17.4309C38.6147 17.1665 38.4003 16.9521 38.136 16.9521C37.8716 16.9521 37.6572 17.1665 37.6572 17.4309C37.6572 17.6953 37.8716 17.9096 38.136 17.9096Z" fill="#003960"/>
<path d="M33.4376 9.7413H32.5434V8.84714C32.5434 8.56804 32.3172 8.3418 32.0381 8.3418H31.569C31.2899 8.3418 31.0637 8.56804 31.0637 8.84714V9.7413H30.1694C29.8903 9.7413 29.6641 9.96755 29.6641 10.2466V10.7157C29.6641 10.9948 29.8903 11.221 30.1694 11.221H31.0637V12.1153C31.0637 12.3944 31.2899 12.6206 31.569 12.6206H32.0381C32.3172 12.6206 32.5434 12.3944 32.5434 12.1153V11.221H33.4376C33.7167 11.221 33.9429 10.9948 33.9429 10.7157V10.2466C33.9429 9.96755 33.7167 9.7413 33.4376 9.7413Z" fill="white"/>
<path d="M8.259 16.587C7.99465 16.587 7.78027 16.3727 7.78027 16.1083V16.094C7.78027 15.8296 7.99465 15.6152 8.259 15.6152C8.52335 15.6152 8.73772 15.8296 8.73772 16.094V16.1083C8.73772 16.3727 8.52335 16.587 8.259 16.587Z" fill="#6583FE"/>
<path d="M8.259 19.2467C7.99465 19.2467 7.78027 19.0323 7.78027 18.768V18.7536C7.78027 18.4893 7.99465 18.2749 8.259 18.2749C8.52335 18.2749 8.73772 18.4893 8.73772 18.7536V18.768C8.73772 19.0323 8.52335 19.2467 8.259 19.2467Z" fill="#6583FE"/>
<path d="M7.11285 17.2489C7.03147 17.2489 6.94894 17.2282 6.87349 17.1844L6.86104 17.1772C6.63221 17.0447 6.55408 16.7519 6.68659 16.5231C6.81901 16.2944 7.11189 16.2162 7.34082 16.3486L7.35327 16.3558C7.5821 16.4883 7.66023 16.7811 7.52772 17.0101C7.43896 17.1632 7.27811 17.2489 7.11285 17.2489Z" fill="#6583FE"/>
<path d="M9.41662 18.5787C9.33523 18.5787 9.2528 18.5579 9.17716 18.5141L9.16471 18.507C8.93588 18.3744 8.85785 18.0816 8.99026 17.8527C9.12268 17.624 9.41556 17.5458 9.64449 17.6783L9.65693 17.6855C9.88577 17.818 9.96389 18.1108 9.83138 18.3397C9.74263 18.493 9.58187 18.5787 9.41662 18.5787Z" fill="#6583FE"/>
<path d="M7.10136 18.5787C6.93611 18.5787 6.77535 18.493 6.68659 18.3397C6.55408 18.1109 6.63221 17.818 6.86104 17.6855L6.87349 17.6783C7.10242 17.5458 7.3952 17.6239 7.52772 17.8527C7.66023 18.0816 7.5821 18.3745 7.35327 18.507L7.34082 18.5141C7.26528 18.5578 7.18275 18.5787 7.10136 18.5787Z" fill="#6583FE"/>
<path d="M9.40507 17.2486C9.23982 17.2486 9.07906 17.1629 8.99031 17.0096C8.85779 16.7807 8.93592 16.4879 9.16475 16.3554L9.1772 16.3482C9.40613 16.2158 9.69901 16.2938 9.83143 16.5226C9.96394 16.7514 9.88581 17.0443 9.65698 17.1767L9.64453 17.1839C9.56889 17.2278 9.48646 17.2486 9.40507 17.2486Z" fill="#6583FE"/>
<path d="M46.7404 40.1647C46.4761 40.1647 46.2617 39.9503 46.2617 39.686V39.6716C46.2617 39.4072 46.4761 39.1929 46.7404 39.1929C47.0048 39.1929 47.2192 39.4072 47.2192 39.6716V39.686C47.2192 39.9503 47.0048 40.1647 46.7404 40.1647Z" fill="#6583FE"/>
<path d="M46.7404 42.8244C46.4761 42.8244 46.2617 42.61 46.2617 42.3456V42.3313C46.2617 42.0669 46.4761 41.8525 46.7404 41.8525C47.0048 41.8525 47.2192 42.0669 47.2192 42.3313V42.3456C47.2192 42.61 47.0048 42.8244 46.7404 42.8244Z" fill="#6583FE"/>
<path d="M45.5943 40.8266C45.5133 40.8266 45.4313 40.8061 45.3561 40.7628L45.3436 40.7556C45.1144 40.6239 45.0355 40.3312 45.1674 40.102C45.2991 39.8728 45.5917 39.7937 45.821 39.9257L45.8335 39.9329C46.0626 40.0646 46.1416 40.3573 46.0097 40.5865C45.9212 40.7405 45.76 40.8266 45.5943 40.8266Z" fill="#6583FE"/>
<path d="M47.898 42.1567C47.817 42.1567 47.735 42.1361 47.6598 42.0929L47.6473 42.0857C47.4181 41.9539 47.3392 41.6612 47.4711 41.432C47.6029 41.2029 47.8954 41.1238 48.1247 41.2558L48.1372 41.2629C48.3664 41.3948 48.4453 41.6874 48.3134 41.9166C48.2249 42.0706 48.0637 42.1567 47.898 42.1567Z" fill="#6583FE"/>
<path d="M45.5828 42.1572C45.4171 42.1572 45.2559 42.071 45.1674 41.9171C45.0355 41.6879 45.1144 41.3952 45.3436 41.2634L45.3561 41.2563C45.5854 41.1243 45.878 41.2034 46.0097 41.4325C46.1416 41.6617 46.0627 41.9544 45.8335 42.0862L45.821 42.0934C45.7459 42.1366 45.6637 42.1572 45.5828 42.1572Z" fill="#6583FE"/>
<path d="M47.8865 40.8266C47.7208 40.8266 47.5596 40.7405 47.4711 40.5865C47.3392 40.3573 47.4181 40.0646 47.6473 39.9329L47.6598 39.9257C47.8891 39.7937 48.1816 39.8728 48.3134 40.102C48.4453 40.3312 48.3664 40.6239 48.1372 40.7556L48.1247 40.7628C48.0495 40.8061 47.9674 40.8266 47.8865 40.8266Z" fill="#6583FE"/>
<path d="M8.33822 13.9157C8.07387 13.9157 7.85949 13.7013 7.85949 13.437C7.85949 13.1026 7.58748 12.8306 7.25314 12.8306C6.98879 12.8306 6.77441 12.6162 6.77441 12.3519C6.77441 12.0875 6.98879 11.8732 7.25314 11.8732C7.58748 11.8732 7.85949 11.6012 7.85949 11.2668C7.85949 11.0025 8.07387 10.7881 8.33822 10.7881C8.60257 10.7881 8.81694 11.0025 8.81694 11.2668C8.81694 11.6012 9.08895 11.8732 9.4233 11.8732C9.68765 11.8732 9.90202 12.0875 9.90202 12.3519C9.90202 12.6162 9.68765 12.8306 9.4233 12.8306C9.08895 12.8306 8.81694 13.1026 8.81694 13.437C8.81694 13.7014 8.60257 13.9157 8.33822 13.9157Z" fill="#6583FE"/>
<path d="M46.7406 28.7278C46.4762 28.7278 46.2618 28.5134 46.2618 28.2491C46.2618 27.9147 45.9898 27.6427 45.6555 27.6427C45.3911 27.6427 45.1768 27.4284 45.1768 27.164C45.1768 26.8997 45.3911 26.6853 45.6555 26.6853C45.9898 26.6853 46.2618 26.4133 46.2618 26.0788C46.2618 25.8145 46.4762 25.6001 46.7406 25.6001C47.0049 25.6001 47.2193 25.8145 47.2193 26.0788C47.2193 26.4132 47.4913 26.6853 47.8256 26.6853C48.09 26.6853 48.3044 26.8997 48.3044 27.164C48.3044 27.4284 48.09 27.6427 47.8256 27.6427C47.4913 27.6427 47.2193 27.9147 47.2193 28.2491C47.2193 28.5134 47.0049 28.7278 46.7406 28.7278Z" fill="#6583FE"/>
<path d="M46.1341 35.4001C45.8698 35.4001 45.6554 35.1857 45.6554 34.9213C45.6554 34.587 45.3834 34.315 45.049 34.315C44.7847 34.315 44.5703 34.1006 44.5703 33.8363C44.5703 33.5719 44.7847 33.3575 45.049 33.3575C45.3834 33.3575 45.6554 33.0855 45.6554 32.7512C45.6554 32.4868 45.8698 32.2725 46.1341 32.2725C46.3985 32.2725 46.6128 32.4868 46.6128 32.7512C46.6128 33.0855 46.8849 33.3575 47.2192 33.3575C47.4836 33.3575 47.6979 33.5719 47.6979 33.8363C47.6979 34.1006 47.4836 34.315 47.2192 34.315C46.8849 34.315 46.6128 34.587 46.6128 34.9213C46.6128 35.1857 46.3985 35.4001 46.1341 35.4001Z" fill="#6583FE"/>
<path d="M27.3874 43.2193H14.525C13.7331 43.2193 13.0889 42.575 13.0889 41.7831V28.0216C13.0889 27.2297 13.7331 26.5854 14.525 26.5854H27.3873C27.6517 26.5854 27.8661 26.7998 27.8661 27.0642C27.8661 27.3285 27.6517 27.5429 27.3873 27.5429H14.525C14.2611 27.5429 14.0463 27.7577 14.0463 28.0216V41.7831C14.0463 42.0471 14.2611 42.2618 14.525 42.2618H27.3873C27.6517 42.2618 27.8661 42.4762 27.8661 42.7405C27.8662 43.005 27.6518 43.2193 27.3874 43.2193Z" fill="#003960"/>
</svg>
