<svg width="55" height="55" viewBox="0 0 55 55" fill="none" xmlns="http://www.w3.org/2000/svg">
<g opacity="0.1">
<path opacity="0.1" d="M14.6844 45.8832C13.9663 47.2036 12.6279 49.8004 12.6279 50.8106C12.6279 52.191 13.7471 53.3102 15.1275 53.3102C16.5079 53.3102 17.627 52.191 17.627 50.8106C17.627 49.8004 16.2886 47.2036 15.5706 45.8832C15.3794 45.5318 14.8755 45.5318 14.6844 45.8832Z" fill="#2626BC"/>
</g>
<path d="M42.9473 6.37842L45.574 9.0052L25.3287 29.2506L22.7019 26.6238L42.9473 6.37842Z" fill="#6583FE"/>
<path d="M16.1525 37.3168L14.6437 35.808C14.1669 35.3312 14.1669 34.5581 14.6437 34.0813L17.622 31.103L20.8574 34.3385L17.8792 37.3168C17.4024 37.7935 16.6293 37.7935 16.1525 37.3168Z" fill="white"/>
<path d="M38.6212 19.6354L22.2505 36.0072C21.7731 36.4846 21.0002 36.4846 20.5228 36.0072L15.9528 31.4372C15.4754 30.9598 15.4754 30.1869 15.9528 29.7095L16.9894 28.6741L32.3246 13.3389L38.6212 19.6354Z" fill="white"/>
<path d="M20.5229 36.0077L15.9523 31.4372C15.4755 30.9604 15.4755 30.1873 15.9523 29.7105L20.2703 25.3926L26.5675 31.6898L22.2496 36.0077C21.7728 36.4845 20.9997 36.4845 20.5229 36.0077Z" fill="white"/>
<path d="M22.6973 26.6304L33.9492 15.3785L36.5763 18.0056L25.3244 29.2575L22.6973 26.6304Z" fill="#6583FE"/>
<path d="M26.8442 31.4143C26.4291 31.8294 25.8858 32.0369 25.3412 32.0369C24.7967 32.0369 24.2534 31.8294 23.8382 31.4143L20.5465 28.1225C19.7163 27.2923 19.7163 25.9468 20.5465 25.1165C20.7846 24.8784 21.0972 24.7588 21.4097 24.7588C21.7223 24.7588 22.0349 24.8784 22.273 25.1165L24.9066 27.7501L26.8442 29.6878C27.3204 30.164 27.3204 30.9381 26.8442 31.4143Z" fill="#6583FE"/>
<path d="M39.3283 20.75L31.2093 12.631C30.7662 12.188 30.7662 11.4697 31.2093 11.0267C31.6524 10.5836 32.3706 10.5836 32.8136 11.0267L40.9326 19.1457C41.3757 19.5888 41.3757 20.3071 40.9326 20.75C40.4897 21.1931 39.7714 21.1931 39.3283 20.75Z" fill="white"/>
<path d="M47.3591 12.0844L39.8751 4.60031C39.3489 4.0742 39.3489 3.22111 39.8751 2.69488C40.4012 2.16876 41.2542 2.16876 41.7805 2.69488L49.2646 10.1789C49.7907 10.705 49.7907 11.5581 49.2646 12.0843C48.7384 12.6107 47.8853 12.6107 47.3591 12.0844Z" fill="white"/>
<path d="M17.628 47.7574C17.628 49.1378 16.5089 50.2569 15.1285 50.2569C13.7479 50.2569 12.6289 49.1378 12.6289 47.7574C12.6289 46.7472 13.9673 44.1504 14.6854 42.83C14.8765 42.4786 15.3805 42.4786 15.5715 42.83C16.2895 44.1504 17.628 46.7473 17.628 47.7574Z" fill="white"/>
<path d="M20.0807 26.8268C24.7668 26.8268 28.5656 23.028 28.5656 18.3419C28.5656 13.6558 24.7668 9.85693 20.0807 9.85693C15.3945 9.85693 11.5957 13.6558 11.5957 18.3419C11.5957 23.028 15.3945 26.8268 20.0807 26.8268Z" fill="white"/>
<path d="M49.6966 9.74705L42.2126 2.26317C41.4493 1.49958 40.2072 1.49946 39.4438 2.26317C38.6805 3.02639 38.6805 4.26835 39.4438 5.03182L41.4406 7.02858L35.5601 12.9091L33.2458 10.5948C32.5654 9.91481 31.4585 9.91445 30.7779 10.5949C30.0979 11.2752 30.0979 12.3823 30.7781 13.0626L31.2573 13.5418L28.8524 15.9467C27.9629 12.7128 25.3185 10.1309 21.9202 9.4329C21.5901 9.36452 21.2671 9.57795 21.1995 9.9081C21.1316 10.2384 21.3444 10.5611 21.6747 10.6288C25.3143 11.3764 27.9557 14.6202 27.9557 18.342C27.9557 22.684 24.4232 26.2164 20.0812 26.2164C15.7392 26.2164 12.2067 22.6839 12.2067 18.342C12.2067 14.677 14.8013 11.4441 18.3759 10.6548C18.7051 10.5821 18.913 10.2562 18.8405 9.92702C18.7677 9.59785 18.4418 9.39004 18.1127 9.46245C16.122 9.90211 14.3138 11.0197 13.0206 12.6092C11.7085 14.2226 10.9858 16.2586 10.9858 18.3419C10.9858 22.5276 13.8288 26.0598 17.6846 27.1145L15.5203 29.2788C14.8062 29.9928 14.8062 31.1547 15.5203 31.8687L15.7563 32.1047L14.2117 33.6493C13.8657 33.9952 13.6752 34.4552 13.6752 34.9443C13.6752 35.4334 13.8657 35.8932 14.2116 36.2391L14.5344 36.5619L5.52161 45.5746C5.28316 45.8129 5.28316 46.1995 5.52161 46.4378C5.64078 46.5571 5.79706 46.6167 5.95322 46.6167C6.10938 46.6167 6.26579 46.5571 6.38483 46.4378L15.3976 37.4253L15.7202 37.7479H15.7203C16.0662 38.0939 16.5261 38.2843 17.0153 38.2843C17.5045 38.2843 17.9643 38.0939 18.3102 37.7479L19.8549 36.2032L20.0907 36.4391C20.4478 36.7962 20.9168 36.9747 21.3857 36.9747C21.8547 36.9747 22.3238 36.7962 22.6806 36.4391L38.4176 20.7023L38.8969 21.1815V21.1816C39.237 21.5216 39.6838 21.6917 40.1306 21.6917C40.5774 21.6917 41.0243 21.5216 41.3647 21.1815C42.0447 20.5012 42.0447 19.3941 41.3645 18.7138L39.0503 16.3996L39.6397 15.8101C39.878 15.5716 39.878 15.1852 39.6396 14.9468C39.4011 14.7086 39.0147 14.7084 38.7762 14.9469L38.187 15.5362L36.4232 13.7723L42.3037 7.89168L44.0676 9.6556L41.2888 12.4345C41.0504 12.6728 41.0504 13.0594 41.2888 13.2977C41.408 13.417 41.5643 13.4766 41.7204 13.4766C41.8766 13.4766 42.033 13.417 42.1521 13.2977L44.931 10.5188L46.9278 12.5157C47.3095 12.8975 47.8107 13.0882 48.3122 13.0882C48.8134 13.0882 49.315 12.8974 49.6965 12.5158C50.0663 12.1461 50.27 11.6544 50.27 11.1314C50.2701 10.6084 50.0665 10.1169 49.6966 9.74705ZM17.4471 36.8848C17.2089 37.1227 16.8219 37.1227 16.5837 36.8848H16.5838L15.075 35.376C14.8371 35.1379 14.8371 34.7508 15.075 34.5127L16.6198 32.968L18.9919 35.3401L17.4471 36.8848ZM21.8177 35.5759C21.7024 35.6911 21.5491 35.7546 21.3859 35.7546C21.2228 35.7546 21.0695 35.6911 20.9542 35.5759L16.3837 31.0053C16.2684 30.8901 16.2049 30.7367 16.2049 30.5737C16.2049 30.4106 16.2684 30.2573 16.3837 30.142L19.1374 27.3884C19.4478 27.4205 19.7625 27.4373 20.0812 27.4373C25.0964 27.4373 29.1766 23.3571 29.1766 18.342C29.1766 18.0246 29.1581 17.7107 29.1255 17.4003L32.1206 14.4051L37.5545 19.839L21.8177 35.5759ZM40.5017 20.3183C40.2973 20.5226 39.9649 20.5226 39.7606 20.3183V20.3184L31.6417 12.1994C31.4374 11.995 31.4374 11.6626 31.6415 11.4584C31.8459 11.2537 32.1783 11.2541 32.3827 11.4582L40.5016 19.5773C40.7057 19.7815 40.7057 20.114 40.5017 20.3183ZM48.8334 11.6525C48.6941 11.7917 48.5091 11.8684 48.3123 11.8684C48.1155 11.8684 47.9305 11.7917 47.7912 11.6525L40.3072 4.16848C40.0199 3.88106 40.0199 3.41368 40.3071 3.12639C40.4508 2.9828 40.6395 2.91089 40.8282 2.91089C41.0169 2.91089 41.2057 2.9828 41.3493 3.12639L48.8333 10.6104C48.9725 10.7497 49.0491 10.9347 49.0491 11.1315C49.0491 11.3283 48.9725 11.5132 48.8334 11.6525Z" fill="#003960"/>
<path d="M15.1285 41.9556C14.7197 41.9556 14.3445 42.1788 14.1493 42.538C12.7354 45.1378 12.0186 46.8937 12.0186 47.7571C12.0186 49.4719 13.4137 50.8671 15.1287 50.8671C16.8435 50.8671 18.2387 49.4719 18.2387 47.7571C18.2387 46.8937 17.5219 45.1378 16.108 42.5381C15.9126 42.1788 15.5374 41.9556 15.1285 41.9556ZM15.1286 49.6462C14.087 49.6462 13.2394 48.7988 13.2394 47.7571C13.2394 47.2885 13.738 45.8718 15.1285 43.2935C16.5193 45.8718 17.0177 47.2885 17.0177 47.7571C17.0177 48.7987 16.1702 49.6462 15.1286 49.6462Z" fill="#003960"/>
<path d="M18.4924 22.5484C16.6242 22.5484 15.1045 21.0286 15.1045 19.1604C15.1045 17.2922 16.6242 15.7725 18.4924 15.7725C20.3606 15.7725 21.8803 17.2922 21.8803 19.1604C21.8803 21.0286 20.3606 22.5484 18.4924 22.5484ZM18.4924 16.9934C17.2976 16.9934 16.3255 17.9656 16.3255 19.1604C16.3255 20.3553 17.2976 21.3275 18.4924 21.3275C19.6873 21.3275 20.6594 20.3553 20.6594 19.1604C20.6594 17.9656 19.6873 16.9934 18.4924 16.9934Z" fill="#003960"/>
<path d="M23.6095 18.0685C23.2723 18.0685 22.999 17.7952 22.999 17.458V15.1744C22.999 14.8372 23.2723 14.564 23.6095 14.564C23.9467 14.564 24.22 14.8372 24.22 15.1744V17.458C24.22 17.7952 23.9467 18.0685 23.6095 18.0685Z" fill="#003960"/>
<path d="M24.7515 16.927H22.4679C22.1307 16.927 21.8574 16.6538 21.8574 16.3165C21.8574 15.9793 22.1307 15.7061 22.4679 15.7061H24.7515C25.0887 15.7061 25.3619 15.9793 25.3619 16.3165C25.3619 16.6538 25.0887 16.927 24.7515 16.927Z" fill="#003960"/>
<path d="M30.4015 33.8184C30.0643 33.8184 29.791 33.5451 29.791 33.2079V33.1896C29.791 32.8524 30.0643 32.5791 30.4015 32.5791C30.7387 32.5791 31.012 32.8524 31.012 33.1896V33.2079C31.012 33.5451 30.7386 33.8184 30.4015 33.8184Z" fill="#6583FE"/>
<path d="M30.4015 37.2105C30.0643 37.2105 29.791 36.9372 29.791 36.6V36.5817C29.791 36.2444 30.0643 35.9712 30.4015 35.9712C30.7387 35.9712 31.012 36.2444 31.012 36.5817V36.6C31.012 36.9372 30.7386 37.2105 30.4015 37.2105Z" fill="#6583FE"/>
<path d="M28.9403 34.6618C28.8376 34.6618 28.7336 34.6358 28.638 34.5812L28.6221 34.5721C28.3294 34.4049 28.2277 34.032 28.395 33.7393C28.5621 33.4467 28.935 33.3448 29.2278 33.5122L29.2437 33.5213C29.5363 33.6885 29.638 34.0614 29.4708 34.3541C29.3582 34.5513 29.1522 34.6618 28.9403 34.6618Z" fill="#6583FE"/>
<path d="M31.8788 36.3583C31.775 36.3583 31.6698 36.3318 31.5735 36.276L31.5577 36.2669C31.2659 36.0979 31.1662 35.7245 31.3352 35.4327C31.5041 35.1408 31.8778 35.0413 32.1694 35.2102L32.1852 35.2194C32.477 35.3884 32.5767 35.7617 32.4077 36.0536C32.2946 36.249 32.0895 36.3583 31.8788 36.3583Z" fill="#6583FE"/>
<path d="M28.9256 36.3584C28.7148 36.3584 28.5099 36.2491 28.3967 36.0536C28.2277 35.7618 28.3275 35.3884 28.6192 35.2195L28.635 35.2103C28.9269 35.0411 29.3003 35.1411 29.4692 35.4328C29.6382 35.7246 29.5384 36.0979 29.2467 36.2669L29.2309 36.2761C29.1347 36.3319 29.0293 36.3584 28.9256 36.3584Z" fill="#6583FE"/>
<path d="M31.8641 34.6623C31.6521 34.6623 31.4462 34.5518 31.3335 34.3545C31.1662 34.0618 31.2679 33.6889 31.5606 33.5217L31.5764 33.5126C31.8692 33.3454 32.2421 33.4472 32.4093 33.7397C32.5765 34.0324 32.4748 34.4053 32.1822 34.5725L32.1663 34.5816C32.0709 34.6363 31.9668 34.6623 31.8641 34.6623Z" fill="#6583FE"/>
<path d="M6.81849 21.2416C6.48126 21.2416 6.20801 20.9683 6.20801 20.6311V20.6129C6.20801 20.2757 6.48126 20.0024 6.81849 20.0024C7.15572 20.0024 7.42897 20.2757 7.42897 20.6129V20.6311C7.42897 20.9683 7.15572 21.2416 6.81849 21.2416Z" fill="#6583FE"/>
<path d="M6.81849 24.6343C6.48126 24.6343 6.20801 24.361 6.20801 24.0238V24.0055C6.20801 23.6683 6.48126 23.395 6.81849 23.395C7.15572 23.395 7.42897 23.6683 7.42897 24.0055V24.0238C7.42897 24.361 7.15572 24.6343 6.81849 24.6343Z" fill="#6583FE"/>
<path d="M5.3573 22.0854C5.2534 22.0854 5.14827 22.0589 5.05206 22.0031L5.03619 21.994C4.74438 21.825 4.64475 21.4516 4.81373 21.1598C4.98259 20.8679 5.35632 20.7682 5.64789 20.9373L5.66376 20.9465C5.95557 21.1155 6.0552 21.4889 5.88622 21.7807C5.77304 21.9763 5.56792 22.0854 5.3573 22.0854Z" fill="#6583FE"/>
<path d="M8.29578 23.7812C8.19187 23.7812 8.08675 23.7547 7.99054 23.6989L7.97466 23.6897C7.68285 23.5207 7.58322 23.1474 7.7522 22.8555C7.92119 22.5636 8.29492 22.4641 8.58637 22.6331L8.60224 22.6422C8.89405 22.8112 8.99368 23.1846 8.8247 23.4764C8.71151 23.6719 8.50652 23.7812 8.29578 23.7812Z" fill="#6583FE"/>
<path d="M5.34262 23.7817C5.13176 23.7817 4.92688 23.6724 4.8137 23.477C4.64472 23.1851 4.74447 22.8118 5.03616 22.6428L5.05203 22.6336C5.34384 22.4644 5.71733 22.5644 5.88619 22.8561C6.05517 23.1479 5.95542 23.5213 5.66373 23.6903L5.64786 23.6994C5.55165 23.7552 5.4464 23.7817 5.34262 23.7817Z" fill="#6583FE"/>
<path d="M8.2811 22.0854C8.07024 22.0854 7.86536 21.9761 7.75218 21.7807C7.5832 21.4889 7.68295 21.1155 7.97464 20.9465L7.99051 20.9373C8.28244 20.7681 8.65581 20.8681 8.82467 21.1598C8.99365 21.4516 8.8939 21.825 8.60221 21.994L8.58634 22.0031C8.49013 22.0589 8.38488 22.0854 8.2811 22.0854Z" fill="#6583FE"/>
<path d="M45.5773 25.7505C45.24 25.7505 44.9668 25.4773 44.9668 25.14V25.1217C44.9668 24.7845 45.24 24.5112 45.5773 24.5112C45.9145 24.5112 46.1878 24.7845 46.1878 25.1217V25.14C46.1878 25.4771 45.9145 25.7505 45.5773 25.7505Z" fill="#6583FE"/>
<path d="M45.5763 29.1431C45.2391 29.1431 44.9658 28.8698 44.9658 28.5326V28.5143C44.9658 28.1771 45.2391 27.9038 45.5763 27.9038C45.9135 27.9038 46.1868 28.1771 46.1868 28.5143V28.5326C46.1868 28.8698 45.9135 29.1431 45.5763 29.1431Z" fill="#6583FE"/>
<path d="M44.1151 26.5946C44.0112 26.5946 43.9061 26.5681 43.8099 26.5123L43.794 26.5032C43.5022 26.3342 43.4026 25.9608 43.5715 25.669C43.7405 25.3771 44.1143 25.2776 44.4057 25.4466L44.4216 25.4557C44.7134 25.6247 44.813 25.9981 44.644 26.2899C44.5309 26.4854 44.3259 26.5946 44.1151 26.5946Z" fill="#6583FE"/>
<path d="M47.0526 28.2905C46.9487 28.2905 46.8436 28.264 46.7474 28.2082L46.7315 28.1991C46.4397 28.0301 46.3401 27.6567 46.509 27.3649C46.6779 27.0729 47.0516 26.9733 47.3432 27.1424L47.3591 27.1516C47.6509 27.3206 47.7505 27.6939 47.5815 27.9857C47.4683 28.1813 47.2632 28.2905 47.0526 28.2905Z" fill="#6583FE"/>
<path d="M44.1004 28.29C43.8896 28.29 43.6847 28.1807 43.5715 27.9852C43.4025 27.6934 43.5023 27.32 43.794 27.1511L43.8098 27.1419C44.1017 26.9728 44.4753 27.0726 44.644 27.3644C44.813 27.6562 44.7132 28.0295 44.4215 28.1985L44.4057 28.2077C44.3095 28.2636 44.2042 28.29 44.1004 28.29Z" fill="#6583FE"/>
<path d="M47.0389 26.5942C46.828 26.5942 46.6232 26.4849 46.51 26.2895C46.341 25.9976 46.4408 25.6243 46.7324 25.4553L46.7483 25.4461C47.0401 25.2769 47.4136 25.3769 47.5825 25.6686C47.7514 25.9604 47.6517 26.3338 47.36 26.5028L47.3441 26.5119C47.2478 26.5677 47.1426 26.5942 47.0389 26.5942Z" fill="#6583FE"/>
<path d="M45.5762 20.3362C45.239 20.3362 44.9657 20.0629 44.9657 19.7257C44.9657 19.2993 44.6189 18.9525 44.1925 18.9525C43.8553 18.9525 43.582 18.6792 43.582 18.342C43.582 18.0047 43.8553 17.7315 44.1925 17.7315C44.6189 17.7315 44.9657 17.3845 44.9657 16.9581C44.9657 16.6209 45.239 16.3477 45.5762 16.3477C45.9135 16.3477 46.1867 16.6209 46.1867 16.9581C46.1867 17.3845 46.5336 17.7315 46.9599 17.7315C47.2972 17.7315 47.5704 18.0047 47.5704 18.342C47.5704 18.6792 47.2972 18.9525 46.9599 18.9525C46.5336 18.9525 46.1867 19.2993 46.1867 19.7257C46.1867 20.0629 45.9135 20.3362 45.5762 20.3362Z" fill="#6583FE"/>
<path d="M9.12994 32.3653C8.79271 32.3653 8.51946 32.0921 8.51946 31.7549C8.51946 31.3285 8.17258 30.9816 7.74622 30.9816C7.40899 30.9816 7.13574 30.7084 7.13574 30.3712C7.13574 30.0339 7.40899 29.7607 7.74622 29.7607C8.17258 29.7607 8.51946 29.4138 8.51946 28.9874C8.51946 28.6502 8.79271 28.377 9.12994 28.377C9.46717 28.377 9.74042 28.6502 9.74042 28.9874C9.74042 29.4138 10.0874 29.7607 10.5138 29.7607C10.851 29.7607 11.1243 30.0339 11.1243 30.3712C11.1243 30.7084 10.851 30.9816 10.5138 30.9816C10.0874 30.9816 9.74042 31.3285 9.74042 31.7549C9.74042 32.0921 9.46717 32.3653 9.12994 32.3653Z" fill="#6583FE"/>
</svg>
