<svg width="55" height="55" viewBox="0 0 55 55" fill="none" xmlns="http://www.w3.org/2000/svg">
<g opacity="0.1">
<g opacity="0.1">
<path opacity="0.1" d="M40.02 43.2554C43.5691 43.2557 47.0676 41.6122 49.3086 38.518C53.0204 33.3932 51.875 26.2298 46.7503 22.5179C41.1202 18.4401 34.4636 16.2847 27.5002 16.2847C20.5366 16.2847 13.8798 18.4401 8.24989 22.518C3.12522 26.2301 1.98 33.3935 5.69196 38.5182C9.40382 43.6431 16.5678 44.788 21.6919 41.0761C23.3869 39.8485 25.3955 39.1995 27.5002 39.1995C29.6048 39.1995 31.6134 39.8484 33.3085 41.0762C35.3392 42.5471 37.6909 43.2552 40.02 43.2554Z" fill="#2626BC"/>
</g>
<g opacity="0.1">
<path opacity="0.1" d="M38.1986 26.1725C42.3215 26.1725 45.6637 22.8303 45.6637 18.7074C45.6637 14.5845 42.3215 11.2422 38.1986 11.2422C34.0757 11.2422 30.7334 14.5845 30.7334 18.7074C30.7334 22.8303 34.0757 26.1725 38.1986 26.1725Z" fill="#2626BC"/>
</g>
<g opacity="0.1">
<g opacity="0.1">
<path opacity="0.1" d="M30.6544 44.1421H28.6582C28.3615 44.1421 28.1211 43.9016 28.1211 43.605C28.1211 43.3084 28.3615 43.0679 28.6582 43.0679H30.6544C30.9511 43.0679 31.1915 43.3084 31.1915 43.605C31.1915 43.9016 30.9511 44.1421 30.6544 44.1421Z" fill="#2626BC"/>
</g>
<g opacity="0.1">
<path opacity="0.1" d="M34.9513 46.1167H28.6582C28.3615 46.1167 28.1211 45.8762 28.1211 45.5796C28.1211 45.283 28.3615 45.0425 28.6582 45.0425H34.9513C35.248 45.0425 35.4884 45.283 35.4884 45.5796C35.4884 45.8762 35.248 46.1167 34.9513 46.1167Z" fill="#2626BC"/>
</g>
<g opacity="0.1">
<path opacity="0.1" d="M34.9513 48.0913H28.6582C28.3615 48.0913 28.1211 47.8508 28.1211 47.5542C28.1211 47.2576 28.3615 47.0171 28.6582 47.0171H34.9513C35.248 47.0171 35.4884 47.2576 35.4884 47.5542C35.4884 47.8508 35.248 48.0913 34.9513 48.0913Z" fill="#2626BC"/>
</g>
</g>
</g>
<path d="M40.02 40.5699C43.5691 40.5702 47.0676 38.9266 49.3086 35.8324C53.0204 30.7077 51.875 23.5442 46.7503 19.8324C41.1202 15.7545 34.4636 13.5991 27.5002 13.5991C20.5366 13.5991 13.8798 15.7545 8.24989 19.8325C3.12522 23.5446 1.98 30.708 5.69196 35.8327C9.40382 40.9575 16.5678 42.1024 21.6919 38.3906C23.3869 37.163 25.3955 36.5139 27.5002 36.5139C29.6048 36.5139 31.6134 37.1629 33.3085 38.3907C35.3392 39.8615 37.6909 40.5696 40.02 40.5699Z" fill="#6583FE"/>
<path d="M8.39783 35.7056C8.04914 35.3568 7.72429 34.9757 7.43232 34.5725C5.97364 32.5587 5.38647 30.0973 5.77899 27.6421C6.17151 25.1868 7.49677 23.0312 9.5105 21.5725C14.7715 17.7618 20.9923 15.7476 27.5006 15.7476C34.0084 15.7476 40.2292 17.7617 45.4904 21.5724C45.8935 21.8645 46.2747 22.1892 46.6233 22.5378C48.1695 24.084 49.1225 26.1441 49.3067 28.3384C49.4926 30.5545 48.8755 32.7682 47.5689 34.5722C45.8231 36.9827 43.0012 38.4216 40.0206 38.4214C38.0534 38.4213 36.1682 37.8091 34.5691 36.6509C32.5053 35.1559 30.061 34.3656 27.5007 34.3656C24.94 34.3656 22.4958 35.1558 20.432 36.6508C18.628 37.9574 16.4143 38.5747 14.1983 38.389C12.0043 38.205 9.94417 37.2519 8.39804 35.7059C8.39794 35.7057 8.39794 35.7058 8.39783 35.7056Z" fill="white"/>
<path d="M21.8964 31.9816L18.9838 34.8943C18.5111 35.367 17.77 35.4357 17.2165 35.0609C16.4265 34.5259 15.63 33.8703 14.8685 33.1088C14.107 32.3473 13.4514 31.5509 12.9165 30.7609C12.5416 30.2073 12.6103 29.4663 13.0831 28.9937L15.9957 26.081C16.4685 25.6084 17.2095 25.5396 17.763 25.9144C18.553 26.4494 19.3494 27.1051 20.1109 27.8665C20.8723 28.6279 21.528 29.4244 22.063 30.2144C22.4379 30.7679 22.3692 31.5089 21.8964 31.9816Z" fill="white"/>
<path d="M20.8354 28.6366L15.639 33.8331C15.3784 33.6034 15.1215 33.3614 14.8678 33.1075C14.6146 32.8543 14.3726 32.5975 14.1436 32.3375L19.34 27.1411C19.5999 27.3701 19.8568 27.6123 20.11 27.8654C20.3637 28.1192 20.6057 28.376 20.8354 28.6366Z" fill="#6583FE"/>
<path d="M17.9988 35.8378C17.6228 35.8378 17.2447 35.7286 16.9153 35.5056C16.0733 34.9354 15.2569 34.2568 14.4887 33.4887C13.7205 32.7204 13.0418 31.904 12.4719 31.0622C11.9532 30.2965 12.0505 29.2669 12.7034 28.614L15.616 25.7013C16.2688 25.0486 17.2984 24.9512 18.0642 25.4698C18.9061 26.04 19.7225 26.7186 20.4907 27.4868C21.2588 28.2549 21.9375 29.0713 22.5076 29.9132C23.0262 30.6791 22.9289 31.7087 22.2761 32.3615L19.3634 35.2741C18.9914 35.6461 18.4971 35.8378 17.9988 35.8378ZM16.98 26.2114C16.7591 26.2114 16.5402 26.2961 16.3755 26.4608L13.4629 29.3734C13.1737 29.6627 13.1308 30.1196 13.3612 30.4597C13.8932 31.2453 14.5281 32.0087 15.2483 32.729C15.9684 33.4491 16.7319 34.084 17.5176 34.6161C17.8578 34.8465 18.3146 34.8036 18.6038 34.5144L21.5165 31.6018C21.8057 31.3125 21.8484 30.8557 21.6181 30.5156C21.0861 29.7299 20.4512 28.9664 19.731 28.2463C19.011 27.5261 18.2474 26.8912 17.4618 26.3592C17.3153 26.2599 17.1471 26.2114 16.98 26.2114ZM21.8963 31.9817H21.8974H21.8963Z" fill="#003960"/>
<path d="M17.1004 35.1569C17.1004 36.1216 17.0102 37.0422 16.849 37.8822C16.8232 38.0165 16.7771 38.1422 16.7126 38.256C15.8897 38.4129 15.0443 38.4591 14.1979 38.3882C12.9335 38.2818 11.7143 37.9209 10.6121 37.3376C10.509 36.6501 10.4531 35.9175 10.4531 35.1569C10.4531 34.1912 10.5434 33.2706 10.7045 32.4306C10.8173 31.8419 11.3308 31.4165 11.9302 31.4165H15.6233C16.2228 31.4165 16.7362 31.8419 16.849 32.4306C17.0102 33.2706 17.1004 34.1912 17.1004 35.1569Z" fill="white"/>
<path d="M17.0713 36.1045H10.4831C10.4636 35.7937 10.4541 35.4775 10.4541 35.1557C10.4541 34.8348 10.4634 34.5185 10.4831 34.2085H17.0713C17.0908 34.5185 17.1003 34.8348 17.1003 35.1557C17.1003 35.4775 17.0908 35.7937 17.0713 36.1045Z" fill="#6583FE"/>
<path d="M14.9719 38.9577C14.6988 38.9577 14.4256 38.9463 14.1531 38.9235C12.8176 38.8112 11.5417 38.4374 10.3608 37.8124C10.2101 37.7326 10.1063 37.586 10.0809 37.4173C9.97145 36.6879 9.91602 35.9275 9.91602 35.1569C9.91602 34.1835 10.0038 33.2321 10.1771 32.3294C10.338 31.4892 11.0753 30.8794 11.9302 30.8794H15.6233C16.4781 30.8794 17.2154 31.4892 17.3765 32.3295C17.5496 33.2321 17.6375 34.1835 17.6375 35.1569C17.6375 36.1297 17.5497 37.0806 17.3765 37.9834C17.3398 38.1742 17.2738 38.3548 17.18 38.5205C17.1023 38.6579 16.9682 38.7542 16.8131 38.7837C16.2054 38.8996 15.5888 38.9577 14.9719 38.9577ZM16.7126 38.2562H16.7137H16.7126ZM11.1055 36.9864C12.0893 37.4693 13.1434 37.7605 14.2429 37.853C14.9362 37.9111 15.6342 37.8861 16.322 37.7788C16.4821 36.9434 16.5633 36.0613 16.5633 35.157C16.5633 34.2513 16.482 33.368 16.3216 32.5319C16.2572 32.1968 15.9637 31.9537 15.6233 31.9537H11.9302C11.5898 31.9537 11.2962 32.1968 11.232 32.5318C11.0716 33.368 10.9902 34.2513 10.9902 35.157C10.9903 35.7789 11.029 36.393 11.1055 36.9864Z" fill="#003960"/>
<path d="M38.1986 23.487C42.3215 23.487 45.6637 20.1447 45.6637 16.0218C45.6637 11.8989 42.3215 8.55664 38.1986 8.55664C34.0757 8.55664 30.7334 11.8989 30.7334 16.0218C30.7334 20.1447 34.0757 23.487 38.1986 23.487Z" fill="#6583FE"/>
<path d="M41.6718 14.4488H39.771V12.5479C39.771 11.9546 39.29 11.4736 38.6967 11.4736H37.6997C37.1064 11.4736 36.6254 11.9546 36.6254 12.5479V14.4488H34.7246C34.1313 14.4488 33.6504 14.9297 33.6504 15.523V16.5201C33.6504 17.1134 34.1313 17.5943 34.7246 17.5943H36.6254V19.4951C36.6254 20.0884 37.1064 20.5694 37.6997 20.5694H38.6967C39.29 20.5694 39.771 20.0884 39.771 19.4951V17.5943H41.6718C42.2651 17.5943 42.746 17.1134 42.746 16.5201V15.523C42.746 14.9297 42.2651 14.4488 41.6718 14.4488Z" fill="white"/>
<path d="M47.0653 19.3974C46.6497 19.0964 46.2235 18.803 45.7947 18.5212C46.0578 17.7293 46.2011 16.8883 46.2011 16.0218C46.2011 11.6094 42.6113 8.01953 38.1988 8.01953C33.7864 8.01953 30.1965 11.6092 30.1965 16.0218C30.1965 19.7715 32.8548 23.0619 36.5173 23.8456C36.8076 23.9079 37.0928 23.7229 37.155 23.4327C37.217 23.1427 37.0322 22.8572 36.7421 22.7951C33.5717 22.1167 31.2708 19.2681 31.2708 16.0217C31.2708 12.2016 34.3787 9.09364 38.1988 9.09364C42.019 9.09364 45.1269 12.2016 45.1269 16.0217C45.1269 19.2738 42.8211 22.1235 39.6443 22.7977C39.3541 22.8592 39.1688 23.1444 39.2304 23.4346C39.284 23.6871 39.5069 23.8603 39.7553 23.8603C39.7922 23.8603 39.8297 23.8564 39.8673 23.8485C42.3187 23.3282 44.3196 21.6862 45.3792 19.5342C45.7354 19.7716 46.0891 20.0166 46.4352 20.2673C51.3117 23.7995 52.4057 30.6406 48.8734 35.5174C46.8256 38.3449 43.5165 40.0328 40.0209 40.0328C40.0207 40.0328 40.0202 40.0328 40.0199 40.0328C37.7111 40.0326 35.4993 39.3144 33.6235 37.9559C31.8362 36.6612 29.7187 35.9769 27.5001 35.9769C25.2813 35.9769 23.1639 36.6612 21.3767 37.9556C19.0145 39.6669 16.127 40.3553 13.2469 39.895C10.3665 39.4345 7.83775 37.8799 6.12673 35.5176C2.59449 30.6411 3.68815 23.7999 8.56478 20.2676C14.0053 16.3268 20.4349 14.2072 27.1584 14.138C27.455 14.135 27.6931 13.892 27.69 13.5954C27.6869 13.3006 27.447 13.0638 27.153 13.0638C27.151 13.0638 27.1492 13.0638 27.1473 13.064C20.2 13.1355 13.5564 15.3257 7.93464 19.3977C2.57827 23.2775 1.37697 30.7916 5.25683 36.1478C7.13618 38.7426 9.91368 40.4502 13.0775 40.9559C13.7186 41.0584 14.3597 41.109 14.9963 41.109C17.5023 41.109 19.9382 40.3243 22.0069 38.8258C23.6096 37.6649 25.5093 37.0513 27.5003 37.0513C29.4911 37.0513 31.3906 37.665 32.9936 38.826C35.0537 40.3182 37.4835 41.107 40.0201 41.1071H40.0211C43.8597 41.107 47.4945 39.2531 49.7437 36.1476C53.6231 30.7912 52.4216 23.2771 47.0653 19.3974Z" fill="#003960"/>
<path d="M28.6582 41.4565H30.6544C30.9511 41.4565 31.1915 41.216 31.1915 40.9194C31.1915 40.6228 30.9511 40.3823 30.6544 40.3823H28.6582C28.3615 40.3823 28.1211 40.6228 28.1211 40.9194C28.1211 41.216 28.3616 41.4565 28.6582 41.4565Z" fill="#003960"/>
<path d="M34.9513 42.3564H28.6582C28.3615 42.3564 28.1211 42.597 28.1211 42.8936C28.1211 43.1901 28.3615 43.4307 28.6582 43.4307H34.9513C35.248 43.4307 35.4884 43.1901 35.4884 42.8936C35.4884 42.597 35.248 42.3564 34.9513 42.3564Z" fill="#003960"/>
<path d="M34.9513 44.3311H28.6582C28.3615 44.3311 28.1211 44.5716 28.1211 44.8682C28.1211 45.1648 28.3615 45.4053 28.6582 45.4053H34.9513C35.248 45.4053 35.4884 45.1648 35.4884 44.8682C35.4884 44.5716 35.248 44.3311 34.9513 44.3311Z" fill="#003960"/>
<path d="M39.2731 47.697C38.9764 47.697 38.736 47.4565 38.736 47.1599C38.736 46.7848 38.4308 46.4796 38.0557 46.4796C37.759 46.4796 37.5186 46.2391 37.5186 45.9425C37.5186 45.6459 37.759 45.4054 38.0557 45.4054C38.4308 45.4054 38.736 45.1002 38.736 44.7251C38.736 44.4285 38.9764 44.188 39.2731 44.188C39.5698 44.188 39.8102 44.4285 39.8102 44.7251C39.8102 45.1002 40.1154 45.4054 40.4905 45.4054C40.7872 45.4054 41.0276 45.6459 41.0276 45.9425C41.0276 46.2391 40.7872 46.4796 40.4905 46.4796C40.1154 46.4796 39.8102 46.7848 39.8102 47.1599C39.8102 47.4565 39.5697 47.697 39.2731 47.697Z" fill="#6583FE"/>
<path d="M25.7369 8.94898C25.4402 8.94898 25.1998 8.70847 25.1998 8.41187C25.1998 8.03676 24.8946 7.73157 24.5195 7.73157C24.2228 7.73157 23.9824 7.49105 23.9824 7.19446C23.9824 6.89787 24.2228 6.65735 24.5195 6.65735C24.8946 6.65735 25.1998 6.35217 25.1998 5.97705C25.1998 5.68046 25.4402 5.43994 25.7369 5.43994C26.0336 5.43994 26.2741 5.68046 26.2741 5.97705C26.2741 6.35217 26.5793 6.65735 26.9545 6.65735C27.2512 6.65735 27.4916 6.89787 27.4916 7.19446C27.4916 7.49105 27.2512 7.73157 26.9545 7.73157C26.5793 7.73157 26.2741 8.03676 26.2741 8.41187C26.2741 8.70847 26.0336 8.94898 25.7369 8.94898Z" fill="#6583FE"/>
<path d="M24.4244 43.891C24.1277 43.891 23.8873 43.6505 23.8873 43.3539C23.8873 42.9788 23.5821 42.6736 23.207 42.6736C22.9103 42.6736 22.6699 42.4331 22.6699 42.1365C22.6699 41.8399 22.9103 41.5994 23.207 41.5994C23.5821 41.5994 23.8873 41.2942 23.8873 40.9189C23.8873 40.6224 24.1277 40.3818 24.4244 40.3818C24.7211 40.3818 24.9616 40.6224 24.9616 40.9189C24.9616 41.2941 25.2667 41.5994 25.6419 41.5994C25.9386 41.5994 26.179 41.8399 26.179 42.1365C26.179 42.4331 25.9386 42.6736 25.6419 42.6736C25.2667 42.6736 24.9616 42.9788 24.9616 43.3539C24.9616 43.6505 24.7211 43.891 24.4244 43.891Z" fill="#6583FE"/>
<path d="M21.4492 9.0752C21.1525 9.0752 20.9121 8.83468 20.9121 8.53809V8.52197C20.9121 8.22538 21.1525 7.98486 21.4492 7.98486C21.7459 7.98486 21.9863 8.22538 21.9863 8.52197V8.53809C21.9863 8.83479 21.7459 9.0752 21.4492 9.0752Z" fill="#6583FE"/>
<path d="M21.4492 12.0596C21.1525 12.0596 20.9121 11.8191 20.9121 11.5225V11.5063C20.9121 11.2098 21.1525 10.9692 21.4492 10.9692C21.7459 10.9692 21.9863 11.2098 21.9863 11.5063V11.5225C21.9863 11.8191 21.7459 12.0596 21.4492 12.0596Z" fill="#6583FE"/>
<path d="M20.1629 9.81779C20.0715 9.81779 19.979 9.79448 19.8944 9.74539L19.8804 9.73733C19.6237 9.58866 19.536 9.26016 19.6847 9.00342C19.8334 8.74668 20.1622 8.65913 20.4186 8.8077L20.4326 8.81575C20.6893 8.96443 20.777 9.29292 20.6283 9.54977C20.5288 9.72165 20.3484 9.81779 20.1629 9.81779Z" fill="#6583FE"/>
<path d="M22.7479 11.3105C22.6565 11.3105 22.564 11.2872 22.4793 11.2381L22.4654 11.23C22.2086 11.0813 22.121 10.7528 22.2697 10.4961C22.4182 10.2394 22.747 10.1518 23.0036 10.3004L23.0175 10.3084C23.2743 10.4571 23.3619 10.7856 23.2132 11.0424C23.1137 11.2143 22.9332 11.3105 22.7479 11.3105Z" fill="#6583FE"/>
<path d="M20.15 11.3101C19.9645 11.3101 19.7843 11.214 19.6847 11.042C19.536 10.7852 19.6238 10.4566 19.8804 10.308L19.8944 10.2999C20.1511 10.1512 20.4797 10.239 20.6283 10.4956C20.7769 10.7524 20.6892 11.081 20.4325 11.2295L20.4186 11.2376C20.3339 11.2868 20.2413 11.3101 20.15 11.3101Z" fill="#6583FE"/>
<path d="M22.735 9.81743C22.5495 9.81743 22.3692 9.72129 22.2696 9.5493C22.121 9.29257 22.2087 8.96396 22.4654 8.81529L22.4793 8.80723C22.7362 8.65856 23.0647 8.74632 23.2132 9.00296C23.3619 9.25969 23.2741 9.5883 23.0175 9.73686L23.0035 9.74492C22.9189 9.79412 22.8262 9.81743 22.735 9.81743Z" fill="#6583FE"/>
<path d="M15.9297 6.62793C15.633 6.62793 15.3926 6.38741 15.3926 6.09082V6.07471C15.3926 5.77812 15.633 5.5376 15.9297 5.5376C16.2264 5.5376 16.4668 5.77812 16.4668 6.07471V6.09082C16.4668 6.38741 16.2264 6.62793 15.9297 6.62793Z" fill="#6583FE"/>
<path d="M15.9297 9.6123C15.633 9.6123 15.3926 9.37179 15.3926 9.0752V9.05908C15.3926 8.76249 15.633 8.52197 15.9297 8.52197C16.2264 8.52197 16.4668 8.76249 16.4668 9.05908V9.0752C16.4668 9.37189 16.2264 9.6123 15.9297 9.6123Z" fill="#6583FE"/>
<path d="M14.6434 7.37006C14.552 7.37006 14.4595 7.34675 14.3749 7.29766L14.3609 7.28961C14.1042 7.14093 14.0165 6.81244 14.1652 6.55559C14.3138 6.29896 14.6425 6.21142 14.8991 6.35987L14.913 6.36793C15.1698 6.5166 15.2574 6.84509 15.1088 7.10183C15.0093 7.27392 14.8288 7.37006 14.6434 7.37006Z" fill="#6583FE"/>
<path d="M17.2284 8.86233C17.137 8.86233 17.0445 8.83902 16.9598 8.78993L16.9458 8.78187C16.6891 8.6332 16.6015 8.3047 16.7501 8.04785C16.8988 7.79112 17.2276 7.70357 17.484 7.85213L17.498 7.86019C17.7547 8.00886 17.8424 8.33736 17.6937 8.5942C17.5941 8.76619 17.4138 8.86233 17.2284 8.86233Z" fill="#6583FE"/>
<path d="M14.6305 8.86284C14.445 8.86284 14.2647 8.7667 14.1651 8.59471C14.0165 8.33798 14.1042 8.00937 14.3609 7.8607L14.3748 7.85264C14.6316 7.70397 14.9602 7.79173 15.1087 8.04837C15.2574 8.3051 15.1696 8.63371 14.913 8.78238L14.899 8.79044C14.8144 8.83953 14.7218 8.86284 14.6305 8.86284Z" fill="#6583FE"/>
<path d="M17.2155 7.37006C17.0299 7.37006 16.8497 7.27391 16.7501 7.10193C16.6014 6.84519 16.6892 6.51659 16.9458 6.36802L16.9598 6.35997C17.2165 6.2113 17.5451 6.29906 17.6937 6.55569C17.8424 6.81243 17.7546 7.14103 17.498 7.2897L17.484 7.29776C17.3994 7.34674 17.3067 7.37006 17.2155 7.37006Z" fill="#6583FE"/>
</svg>
