<svg width="55" height="55" viewBox="0 0 55 55" fill="none" xmlns="http://www.w3.org/2000/svg">
<path opacity="0.1" d="M48.1866 30.7223H43.7713V11.3174C43.7713 10.4275 43.0499 9.70605 42.16 9.70605H12.8401C11.9502 9.70605 11.2287 10.4275 11.2287 11.3174V30.5682H6.81348C6.51688 30.5682 6.27637 30.8087 6.27637 31.1054C6.27637 31.4021 6.51688 31.6425 6.81348 31.6425H11.2287V50.1271C11.2287 51.017 11.9502 51.7384 12.8401 51.7384H42.1601C43.05 51.7384 43.7714 51.017 43.7714 50.1271V31.7965H48.1867C48.4833 31.7965 48.7238 31.5561 48.7238 31.2594C48.7238 30.9627 48.4833 30.7223 48.1866 30.7223Z" fill="#2626BC"/>
<path d="M42.1598 49.053H12.8398C11.95 49.053 11.2285 48.3315 11.2285 47.4416V8.63184C11.2285 7.74195 11.95 7.02051 12.8398 7.02051H42.1599C43.0498 7.02051 43.7712 7.74195 43.7712 8.63184V47.4415C43.7711 48.3315 43.0497 49.053 42.1598 49.053Z" fill="#6583FE"/>
<path d="M15.6477 46.165H14.9473C14.6506 46.165 14.4102 45.9245 14.4102 45.6279C14.4102 45.3313 14.6506 45.0908 14.9473 45.0908H15.6477C15.9444 45.0908 16.1848 45.3313 16.1848 45.6279C16.1848 45.9245 15.9444 46.165 15.6477 46.165Z" fill="#003960"/>
<path d="M26.3897 44.2285H14.9473C14.6506 44.2285 14.4102 43.988 14.4102 43.6914C14.4102 43.3948 14.6506 43.1543 14.9473 43.1543H26.3897C26.6864 43.1543 26.9268 43.3948 26.9268 43.6914C26.9268 43.988 26.6864 44.2285 26.3897 44.2285Z" fill="#003960"/>
<path d="M19.257 46.165H18.5566C18.2599 46.165 18.0195 45.9245 18.0195 45.6279C18.0195 45.3313 18.2599 45.0908 18.5566 45.0908H19.257C19.5537 45.0908 19.7941 45.3313 19.7941 45.6279C19.7941 45.9245 19.5537 46.165 19.257 46.165Z" fill="#003960"/>
<path d="M22.8663 46.165H22.166C21.8693 46.165 21.6289 45.9245 21.6289 45.6279C21.6289 45.3313 21.8693 45.0908 22.166 45.0908H22.8663C23.163 45.0908 23.4034 45.3313 23.4034 45.6279C23.4034 45.9245 23.1629 46.165 22.8663 46.165Z" fill="#003960"/>
<path d="M29.5207 44.2285H28.8203C28.5236 44.2285 28.2832 43.988 28.2832 43.6914C28.2832 43.3948 28.5236 43.1543 28.8203 43.1543H29.5207C29.8174 43.1543 30.0578 43.3948 30.0578 43.6914C30.0578 43.988 29.8173 44.2285 29.5207 44.2285Z" fill="#003960"/>
<path d="M40.0518 46.171C39.7552 46.171 39.5146 45.9305 39.5146 45.6339V45.6216C39.5146 45.325 39.7552 45.0845 40.0518 45.0845C40.3483 45.0845 40.5889 45.325 40.5889 45.6216V45.6339C40.5889 45.9305 40.3483 46.171 40.0518 46.171Z" fill="#003960"/>
<path d="M40.0518 44.2345C39.7552 44.2345 39.5146 43.994 39.5146 43.6974V43.6851C39.5146 43.3885 39.7552 43.1479 40.0518 43.1479C40.3483 43.1479 40.5889 43.3885 40.5889 43.6851V43.6974C40.5889 43.994 40.3483 44.2345 40.0518 44.2345Z" fill="#003960"/>
<path d="M40.0518 42.2975C39.7552 42.2975 39.5146 42.057 39.5146 41.7604V41.748C39.5146 41.4515 39.7552 41.2109 40.0518 41.2109C40.3483 41.2109 40.5889 41.4515 40.5889 41.748V41.7604C40.5889 42.0571 40.3483 42.2975 40.0518 42.2975Z" fill="#003960"/>
<path d="M40.0518 40.361C39.7552 40.361 39.5146 40.1205 39.5146 39.8239V39.8115C39.5146 39.5149 39.7552 39.2744 40.0518 39.2744C40.3483 39.2744 40.5889 39.5149 40.5889 39.8115V39.8239C40.5889 40.1205 40.3483 40.361 40.0518 40.361Z" fill="#003960"/>
<path d="M15.2979 16.798C15.0013 16.798 14.7607 16.5575 14.7607 16.2609V16.2485C14.7607 15.9519 15.0013 15.7114 15.2979 15.7114C15.5944 15.7114 15.835 15.9519 15.835 16.2485V16.2609C15.835 16.5575 15.5944 16.798 15.2979 16.798Z" fill="#003960"/>
<path d="M15.2979 14.8615C15.0013 14.8615 14.7607 14.621 14.7607 14.3244V14.312C14.7607 14.0154 15.0013 13.7749 15.2979 13.7749C15.5944 13.7749 15.835 14.0154 15.835 14.312V14.3244C15.835 14.621 15.5944 14.8615 15.2979 14.8615Z" fill="#003960"/>
<path d="M15.2979 12.9245C15.0013 12.9245 14.7607 12.6839 14.7607 12.3874V12.375C14.7607 12.0784 15.0013 11.8379 15.2979 11.8379C15.5944 11.8379 15.835 12.0784 15.835 12.375V12.3874C15.835 12.6839 15.5944 12.9245 15.2979 12.9245Z" fill="#003960"/>
<path d="M15.2979 10.9879C15.0013 10.9879 14.7607 10.7474 14.7607 10.4508V10.4385C14.7607 10.1419 15.0013 9.90137 15.2979 9.90137C15.5944 9.90137 15.835 10.1419 15.835 10.4385V10.4508C15.835 10.7474 15.5944 10.9879 15.2979 10.9879Z" fill="#003960"/>
<path d="M47.6491 24.9945C47.3525 24.9945 47.1119 24.7541 47.1119 24.4574C47.1119 24.0823 46.8068 23.7771 46.4316 23.7771C46.135 23.7771 45.8945 23.5367 45.8945 23.24C45.8945 22.9433 46.135 22.7029 46.4316 22.7029C46.8068 22.7029 47.1119 22.3976 47.1119 22.0225C47.1119 21.7258 47.3525 21.4854 47.6491 21.4854C47.9456 21.4854 48.1862 21.7258 48.1862 22.0225C48.1862 22.3976 48.4913 22.7029 48.8665 22.7029C49.1631 22.7029 49.4036 22.9433 49.4036 23.24C49.4036 23.5367 49.1631 23.7771 48.8665 23.7771C48.4913 23.7771 48.1862 24.0823 48.1862 24.4574C48.1862 24.7541 47.9458 24.9945 47.6491 24.9945Z" fill="#6583FE"/>
<path d="M7.49378 41.8641C7.19719 41.8641 6.95667 41.6237 6.95667 41.327C6.95667 40.9519 6.65149 40.6466 6.27637 40.6466C5.97978 40.6466 5.73926 40.4062 5.73926 40.1095C5.73926 39.8128 5.97978 39.5724 6.27637 39.5724C6.65149 39.5724 6.95667 39.2672 6.95667 38.8921C6.95667 38.5954 7.19719 38.355 7.49378 38.355C7.79037 38.355 8.03089 38.5954 8.03089 38.8921C8.03089 39.2672 8.33608 39.5724 8.71119 39.5724C9.00779 39.5724 9.2483 39.8128 9.2483 40.1095C9.2483 40.4062 9.00779 40.6466 8.71119 40.6466C8.33608 40.6466 8.03089 40.9519 8.03089 41.327C8.03089 41.6237 7.79048 41.8641 7.49378 41.8641Z" fill="#6583FE"/>
<path d="M26.2828 5.03443C25.9863 5.03443 25.7457 4.79402 25.7457 4.49732C25.7457 4.12221 25.4406 3.81702 25.0654 3.81702C24.7688 3.81702 24.5283 3.57661 24.5283 3.27991C24.5283 2.98321 24.7688 2.7428 25.0654 2.7428C25.4406 2.7428 25.7457 2.43762 25.7457 2.0625C25.7457 1.7658 25.9863 1.52539 26.2828 1.52539C26.5794 1.52539 26.82 1.7658 26.82 2.0625C26.82 2.43762 27.1251 2.7428 27.5004 2.7428C27.797 2.7428 28.0375 2.98321 28.0375 3.27991C28.0375 3.57661 27.797 3.81702 27.5004 3.81702C27.1253 3.81702 26.82 4.12221 26.82 4.49732C26.82 4.79402 26.5794 5.03443 26.2828 5.03443Z" fill="#6583FE"/>
<path d="M6.81348 33.9336C6.51689 33.9336 6.27637 33.6932 6.27637 33.3965V33.3804C6.27637 33.0837 6.51689 32.8433 6.81348 32.8433C7.11007 32.8433 7.35059 33.0837 7.35059 33.3804V33.3965C7.35059 33.6931 7.11007 33.9336 6.81348 33.9336Z" fill="#6583FE"/>
<path d="M6.81348 36.918C6.51689 36.918 6.27637 36.6776 6.27637 36.3809V36.3647C6.27637 36.068 6.51689 35.8276 6.81348 35.8276C7.11007 35.8276 7.35059 36.068 7.35059 36.3647V36.3809C7.35059 36.6776 7.11007 36.918 6.81348 36.918Z" fill="#6583FE"/>
<path d="M5.5272 34.6754C5.43589 34.6754 5.34329 34.6521 5.25864 34.603L5.24468 34.5949C4.98794 34.4463 4.90028 34.1178 5.04896 33.861C5.19752 33.6042 5.52602 33.5164 5.78297 33.6653L5.79693 33.6733C6.05367 33.822 6.14133 34.1505 5.99266 34.4073C5.89297 34.5792 5.71261 34.6754 5.5272 34.6754Z" fill="#6583FE"/>
<path d="M8.11219 36.1677C8.02206 36.1677 7.93086 36.1451 7.84696 36.0974L7.833 36.0894C7.57519 35.9427 7.48517 35.6146 7.63201 35.3569C7.77886 35.0991 8.10692 35.0092 8.36452 35.1558L8.37848 35.1638C8.6363 35.3105 8.72632 35.6386 8.57958 35.8963C8.48032 36.0702 8.29888 36.1677 8.11219 36.1677Z" fill="#6583FE"/>
<path d="M5.51427 36.1673C5.32779 36.1673 5.14657 36.0701 5.04742 35.8965C4.90025 35.639 4.98973 35.311 5.24733 35.1638L5.26129 35.1558C5.51868 35.0087 5.84696 35.098 5.99412 35.3556C6.14129 35.6131 6.05181 35.9412 5.79421 36.0884L5.78025 36.0963C5.69624 36.1444 5.60472 36.1673 5.51427 36.1673Z" fill="#6583FE"/>
<path d="M8.09925 34.6754C7.91352 34.6754 7.73295 34.579 7.63347 34.4065C7.48523 34.1495 7.57342 33.8211 7.83038 33.6729L7.84434 33.6648C8.10119 33.5164 8.42968 33.6047 8.57793 33.8617C8.72617 34.1187 8.63798 34.4471 8.38102 34.5953L8.36706 34.6034C8.28252 34.6521 8.19024 34.6754 8.09925 34.6754Z" fill="#6583FE"/>
<path d="M49.1172 16.9321C48.8206 16.9321 48.5801 16.6917 48.5801 16.395V16.3789C48.5801 16.0822 48.8206 15.8418 49.1172 15.8418C49.4138 15.8418 49.6543 16.0822 49.6543 16.3789V16.395C49.6543 16.6917 49.4138 16.9321 49.1172 16.9321Z" fill="#6583FE"/>
<path d="M49.1172 19.9165C48.8206 19.9165 48.5801 19.6761 48.5801 19.3794V19.3633C48.5801 19.0666 48.8206 18.8262 49.1172 18.8262C49.4138 18.8262 49.6543 19.0666 49.6543 19.3633V19.3794C49.6543 19.6761 49.4138 19.9165 49.1172 19.9165Z" fill="#6583FE"/>
<path d="M47.8309 17.6739C47.7396 17.6739 47.6471 17.6506 47.5624 17.6015L47.5484 17.5935C47.2917 17.4448 47.204 17.1163 47.3527 16.8595C47.5013 16.6027 47.8297 16.5149 48.0867 16.6638L48.1006 16.6719C48.3574 16.8205 48.445 17.149 48.2964 17.4058C48.1967 17.5779 48.0163 17.6739 47.8309 17.6739Z" fill="#6583FE"/>
<path d="M50.4159 19.1662C50.3256 19.1662 50.234 19.1433 50.15 19.0953L50.136 19.0873C49.8784 18.9402 49.7889 18.6121 49.9361 18.3546C50.0833 18.097 50.4115 18.0078 50.6689 18.1548L50.6829 18.1628C50.9405 18.3099 51.03 18.638 50.8828 18.8955C50.7836 19.069 50.6023 19.1662 50.4159 19.1662Z" fill="#6583FE"/>
<path d="M47.818 19.1664C47.6315 19.1664 47.4503 19.0691 47.3511 18.8955C47.204 18.6381 47.2934 18.31 47.551 18.1628L47.565 18.1549C47.8224 18.0077 48.1507 18.0971 48.2978 18.3547C48.445 18.6123 48.3555 18.9402 48.0979 19.0874L48.084 19.0953C48 19.1435 47.9084 19.1664 47.818 19.1664Z" fill="#6583FE"/>
<path d="M50.403 17.6739C50.2176 17.6739 50.0372 17.5777 49.9376 17.4058C49.789 17.149 49.8766 16.8205 50.1334 16.6719L50.1473 16.6638C50.4043 16.5149 50.7326 16.6028 50.8812 16.8595C51.0299 17.1163 50.9422 17.4448 50.6855 17.5934L50.6715 17.6015C50.5869 17.6507 50.4944 17.6739 50.403 17.6739Z" fill="#6583FE"/>
<path d="M38.4716 29.2478C41.1953 26.5241 41.1953 22.1082 38.4716 19.3846C35.7479 16.6609 31.332 16.6609 28.6083 19.3846L27.4999 20.493L26.3914 19.3846C23.6677 16.6609 19.2518 16.6609 16.5281 19.3846C13.8044 22.1082 13.8044 26.5241 16.5281 29.2478L26.8157 39.5354C27.1936 39.9133 27.8062 39.9133 28.1841 39.5354L38.4716 29.2478Z" fill="white"/>
<path d="M48.1866 28.0367H44.3084V8.63184C44.3084 7.44719 43.3447 6.4834 42.16 6.4834H12.8401C11.6554 6.4834 10.6916 7.44719 10.6916 8.63184V25.454C10.6916 25.7507 10.9321 25.9911 11.2287 25.9911C11.5253 25.9911 11.7658 25.7507 11.7658 25.454V8.63184C11.7658 8.03951 12.2477 7.55762 12.8401 7.55762H42.16C42.7523 7.55762 43.2342 8.03951 43.2342 8.63184V28.0367H38.3467C38.0876 28.0367 37.8655 28.2217 37.8185 28.4764L36.4427 35.9327L34.3573 25.197C34.3086 24.9466 34.0907 24.765 33.8356 24.7623C33.8337 24.7623 33.8318 24.7623 33.83 24.7623C33.5772 24.7623 33.3583 24.9388 33.305 25.1862L32.6905 28.0367H32.0304C31.7996 28.0367 31.5944 28.1843 31.5212 28.4033L30.5637 31.2621L29.5477 28.2933C29.4734 28.0761 29.2692 27.9301 29.0396 27.9301H27.6008C27.3952 27.9301 27.2076 28.0475 27.1177 28.2322L26.5256 29.4501L24.262 16.1585C24.2175 15.8975 23.9892 15.7102 23.725 15.7116C23.4603 15.7153 23.2379 15.9113 23.2007 16.1734L20.9069 32.3734L20.0754 28.3121C20.0241 28.0622 19.8043 27.8827 19.5492 27.8827H6.81348C6.51688 27.8827 6.27637 28.1231 6.27637 28.4198C6.27637 28.7165 6.51688 28.9569 6.81348 28.9569H10.6916V47.4415C10.6916 48.6262 11.6554 49.59 12.8401 49.59H42.16C43.3447 49.59 44.3084 48.6262 44.3084 47.4415V31.7061C44.3084 31.4094 44.0679 31.1689 43.7713 31.1689C43.4747 31.1689 43.2342 31.4094 43.2342 31.7061V47.4415C43.2342 48.0339 42.7523 48.5157 42.16 48.5157H12.8401C12.2477 48.5157 11.7658 48.0339 11.7658 47.4415V28.9569H19.1108L20.4772 35.6302C20.5296 35.8862 20.7622 36.0667 21.0199 36.0593C21.2811 36.0513 21.4986 35.8564 21.5352 35.5977L23.7814 19.7346L25.7477 31.28C25.7869 31.5101 25.9701 31.6885 26.2012 31.7215C26.4319 31.7542 26.6582 31.6345 26.7602 31.4246L27.937 29.0043H28.6558L30.0612 33.1109C30.1355 33.3281 30.3397 33.4741 30.5693 33.4741H30.5711C30.8014 33.4734 31.0055 33.3259 31.0787 33.1076L32.4171 29.111H33.1242C33.3772 29.111 33.596 28.9344 33.6493 28.6871L33.8027 27.9755L35.9289 38.9216C35.978 39.1742 36.1991 39.3563 36.4561 39.3563H36.4587C36.7168 39.355 36.9375 39.1706 36.9843 38.9166L38.7937 29.111H48.1866C48.4832 29.111 48.7237 28.8705 48.7237 28.5738C48.7237 28.2771 48.4833 28.0367 48.1866 28.0367Z" fill="#003960"/>
</svg>
