<svg width="55" height="55" viewBox="0 0 55 55" fill="none" xmlns="http://www.w3.org/2000/svg">
<path opacity="0.1" d="M46.0901 44.3434H45.3391L45.4801 42.8713C45.5341 42.3071 45.1427 41.8123 44.6062 41.7136V30.8577H45.0245C45.4991 30.8577 45.8839 30.4729 45.8839 29.9983V22.479C45.8839 22.0044 45.4991 21.6196 45.0245 21.6196H44.6062V16.501C44.6062 14.5419 43.0124 12.9481 41.0533 12.9481C39.2139 12.9481 37.6965 14.3532 37.518 16.1463C36.9957 16.3533 36.6259 16.8619 36.6259 17.4578C36.6259 18.047 36.9872 18.5514 37.5002 18.7628V33.8323C37.5002 35.4776 36.5862 36.9573 35.1151 37.694C33.2778 38.6138 32.1366 40.4616 32.1366 42.5162V51.1919C32.1366 52.5523 31.0297 53.6592 29.6693 53.6592C28.3088 53.6592 27.2021 52.5523 27.2021 51.1919V44.9613C27.2021 43.242 25.8033 41.8433 24.084 41.8433C22.3648 41.8433 20.966 43.242 20.966 44.9613V51.0629C20.966 52.4945 19.8013 53.6592 18.3696 53.6592C16.938 53.6592 15.7733 52.4945 15.7733 51.0629V39.9236H16.0602C16.6535 39.9236 17.1344 39.4426 17.1344 38.8493V35.5098H21.8187V38.8493C21.8187 39.4426 22.2997 39.9236 22.8929 39.9236H23.4666C24.0599 39.9236 24.5408 39.4426 24.5408 38.8493V35.5098H28.2728C29.6876 35.5098 30.8338 34.3636 30.8338 32.9489V11.2121C30.8338 9.79731 29.6876 8.65112 28.2728 8.65112H11.4721C10.0573 8.65112 8.91113 9.79731 8.91113 11.2121V32.9489C8.91113 34.3636 10.0573 35.5098 11.4721 35.5098H13.338V38.8493C13.338 39.4426 13.8189 39.9236 14.4122 39.9236H14.699V51.0628C14.699 53.0867 16.3456 54.7333 18.3695 54.7333C20.3935 54.7333 22.04 53.0867 22.04 51.0628V44.9612C22.04 43.8343 22.9569 42.9174 24.0838 42.9174C25.2108 42.9174 26.1276 43.8343 26.1276 44.9612V51.1918C26.1276 53.1446 27.7164 54.7333 29.6692 54.7333C31.622 54.7333 33.2107 53.1446 33.2107 51.1918V42.5161C33.2107 40.8708 34.1247 39.3911 35.5959 38.6545C37.433 37.7345 38.5743 35.8868 38.5743 33.8322V18.7628C39.0873 18.5514 39.4486 18.0471 39.4486 17.4578C39.4486 16.8776 39.0983 16.3797 38.5979 16.1627C38.7635 14.9554 39.801 14.0222 41.053 14.0222C42.4199 14.0222 43.5318 15.1341 43.5318 16.5009L43.5333 21.6195H43.1135C42.6389 21.6195 42.2541 22.0043 42.2541 22.4789V29.9982C42.2541 30.4728 42.6389 30.8576 43.1135 30.8576H43.536L43.5392 41.7123C42.9989 41.8077 42.6036 42.3045 42.6578 42.8712L42.9891 46.3284C43.024 46.6931 43.2392 46.9998 43.5408 47.1662L43.5421 51.5749C43.5421 51.8716 43.7826 52.112 44.0792 52.112C44.3758 52.112 44.6163 51.8716 44.6163 51.5749L44.6088 47.1594C44.9041 46.9916 45.114 46.6882 45.1485 46.3285L45.2357 45.4177H46.0896C46.3862 45.4177 46.6267 45.1772 46.6267 44.8805C46.6267 44.5838 46.3866 44.3434 46.0901 44.3434Z" fill="#2626BC"/>
<path d="M16.06 37.2375H14.4121C13.8188 37.2375 13.3379 36.7566 13.3379 36.1633V31.7495H17.1342V36.1633C17.1342 36.7566 16.6533 37.2375 16.06 37.2375Z" fill="white"/>
<path d="M23.4662 37.2375H22.8926C22.2993 37.2375 21.8184 36.7566 21.8184 36.1633V31.7495H24.5404V36.1633C24.5404 36.7566 24.0594 37.2375 23.4662 37.2375Z" fill="white"/>
<path d="M30.8338 8.52627V30.2631C30.8338 31.6778 29.6876 32.824 28.2728 32.824H11.4721C10.0573 32.824 8.91113 31.6778 8.91113 30.2631V8.52627C8.91113 7.11152 10.0573 5.96533 11.4721 5.96533H28.2728C29.6876 5.96533 30.8338 7.11152 30.8338 8.52627Z" fill="white"/>
<path d="M30.8338 11.9241V30.2632C30.8338 31.6779 29.6876 32.8241 28.2728 32.8241H11.4721C10.0573 32.8241 8.91113 31.6779 8.91113 30.2632V14.5581C11.4764 15.2617 15.7324 15.7924 20.2474 13.6428C24.1844 11.7694 28.0891 11.6459 30.8338 11.9241Z" fill="#6583FE"/>
<path d="M26.6617 28.3983H13.083C12.7864 28.3983 12.5459 28.1578 12.5459 27.8612V20.3311C12.5459 20.0344 12.7864 19.7939 13.083 19.7939H26.6617C26.9584 19.7939 27.1988 20.0344 27.1988 20.3311V27.8612C27.1988 28.1578 26.9584 28.3983 26.6617 28.3983Z" fill="white"/>
<path d="M26.6617 28.9354H13.083C12.4907 28.9354 12.0088 28.4535 12.0088 27.8612V20.3311C12.0088 19.7387 12.4907 19.2568 13.083 19.2568H26.6617C27.254 19.2568 27.7359 19.7387 27.7359 20.3311V27.8612C27.7359 28.4535 27.2541 28.9354 26.6617 28.9354ZM13.083 20.3312V27.8613H26.6624L26.6618 20.3312H13.083Z" fill="#0000CC"/>
<path d="M23.0911 14.1342C23.5048 12.3592 22.4012 10.5849 20.6262 10.1712C18.8511 9.75747 17.0768 10.8611 16.6631 12.6361C16.2494 14.4111 17.353 16.1855 19.1281 16.5991C20.9031 17.0128 22.6774 15.9092 23.0911 14.1342Z" fill="#6583FE"/>
<path d="M19.8721 17.2199C17.7564 17.2199 16.0352 15.4988 16.0352 13.383C16.0352 11.2674 17.7564 9.54614 19.8721 9.54614C21.9877 9.54614 23.7089 11.2673 23.7089 13.383C23.7089 15.4987 21.9877 17.2199 19.8721 17.2199ZM19.8721 10.6204C18.3487 10.6204 17.1094 11.8597 17.1094 13.383C17.1094 14.9064 18.3487 16.1457 19.8721 16.1457C21.3954 16.1457 22.6347 14.9064 22.6347 13.383C22.6347 11.8597 21.3954 10.6204 19.8721 10.6204Z" fill="#0000CC"/>
<path d="M21.407 12.6881H20.5667V11.8479C20.5667 11.5856 20.3542 11.373 20.0919 11.373H19.6512C19.389 11.373 19.1764 11.5856 19.1764 11.8479V12.6881H18.3361C18.0739 12.6881 17.8613 12.9007 17.8613 13.1629V13.6037C17.8613 13.8659 18.0739 14.0785 18.3361 14.0785H19.1764V14.9187C19.1764 15.1809 19.389 15.3935 19.6512 15.3935H20.0919C20.3542 15.3935 20.5667 15.1809 20.5667 14.9187V14.0785H21.407C21.6692 14.0785 21.8818 13.8659 21.8818 13.6037V13.1629C21.8819 12.9007 21.6693 12.6881 21.407 12.6881Z" fill="white"/>
<path d="M25.0127 24.6393C25.3093 24.6393 25.5498 24.3988 25.5498 24.1022V24.0898C25.5498 23.7933 25.3093 23.5527 25.0127 23.5527C24.7161 23.5527 24.4756 23.7933 24.4756 24.0898V24.1022C24.4756 24.3988 24.7161 24.6393 25.0127 24.6393Z" fill="#0000CC"/>
<path d="M45.024 28.1719H43.1133C42.6387 28.1719 42.2539 27.7871 42.2539 27.3125V19.7932C42.2539 19.3186 42.6387 18.9338 43.1133 18.9338H45.024C45.4986 18.9338 45.8834 19.3186 45.8834 19.7932V27.3125C45.8834 27.7871 45.4986 28.1719 45.024 28.1719Z" fill="white"/>
<path d="M44.6055 18.9324V19.7865C44.6055 20.0832 44.365 20.3236 44.0684 20.3236C43.7718 20.3236 43.5312 20.0832 43.5312 19.7865V18.9324H44.6055Z" fill="#0000CC"/>
<path d="M42.2539 24.1003V27.3124C42.2539 27.7869 42.6387 28.1717 43.1133 28.1717H45.024C45.4986 28.1717 45.8834 27.7869 45.8834 27.3124V24.1003H42.2539Z" fill="#6583FE"/>
<path d="M39.4096 15.0952C39.5896 14.3367 39.1208 13.5759 38.3623 13.3958C37.6038 13.2158 36.843 13.6846 36.663 14.4431C36.4829 15.2016 36.9518 15.9624 37.7102 16.1424C38.4687 16.3225 39.2295 15.8536 39.4096 15.0952Z" fill="white"/>
<path d="M44.5149 21.3553C44.5149 21.6015 44.3153 21.8012 44.069 21.8012C43.8227 21.8012 43.623 21.6017 43.623 21.3553C43.623 21.1091 43.8226 20.9094 44.069 20.9094C44.3153 20.9094 44.5149 21.1091 44.5149 21.3553Z" fill="#0000CC"/>
<path d="M44.5149 22.8336C44.5149 23.0798 44.3153 23.2795 44.069 23.2795C43.8227 23.2795 43.623 23.0799 43.623 22.8336C43.623 22.5874 43.8226 22.3877 44.069 22.3877C44.3153 22.3878 44.5149 22.5874 44.5149 22.8336Z" fill="#0000CC"/>
<path d="M43.7267 39.0088H44.41C45.0438 39.0088 45.5398 39.5546 45.4793 40.1855L45.148 43.6425C45.0952 44.1936 44.6323 44.6143 44.0787 44.6143H44.0579C43.5043 44.6143 43.0414 44.1936 42.9886 43.6425L42.6573 40.1855C42.597 39.5546 43.0929 39.0088 43.7267 39.0088Z" fill="white"/>
<path d="M42.8506 42.1946L42.9894 43.6425C43.0421 44.1936 43.5051 44.6143 44.0587 44.6143H44.0795C44.633 44.6143 45.096 44.1936 45.1488 43.6425L45.2876 42.1946H42.8506Z" fill="#6583FE"/>
<path d="M19.0205 6.5022H28.2729C29.3888 6.5022 30.2965 7.41002 30.2965 8.52592V22.1213C30.2965 22.418 30.537 22.6584 30.8336 22.6584C31.1302 22.6584 31.3707 22.418 31.3707 22.1213V8.52592C31.3707 6.8178 29.981 5.42798 28.2729 5.42798H19.0205C18.7239 5.42798 18.4834 5.66839 18.4834 5.96509C18.4834 6.26179 18.7239 6.5022 19.0205 6.5022Z" fill="#0000CC"/>
<path d="M46.0896 41.6576H45.8782L46.0143 40.2366C46.0575 39.7856 45.9075 39.3346 45.6028 38.9994C45.3423 38.7127 44.9865 38.5316 44.6058 38.4848V28.709H45.0241C45.7941 28.709 46.4206 28.0825 46.4206 27.3125V19.7932C46.4206 19.0232 45.7941 18.3967 45.0241 18.3967H44.6058V13.8152C44.6058 11.8561 43.012 10.2623 41.0528 10.2623C39.4222 10.2623 38.0456 11.3669 37.6296 12.8669C36.7502 13.0548 36.0883 13.8373 36.0883 14.772C36.0883 15.6599 36.686 16.4096 37.4999 16.6436V31.1465C37.4999 32.7918 36.5859 34.2715 35.1148 35.0082C33.2775 35.928 32.1363 37.7758 32.1363 39.8304V48.5061C32.1363 49.8665 31.0294 50.9734 29.669 50.9734C28.3085 50.9734 27.2017 49.8665 27.2017 48.5061V42.2755C27.2017 40.5562 25.803 39.1575 24.0837 39.1575C22.3644 39.1575 20.9657 40.5562 20.9657 42.2755V48.3771C20.9657 49.8087 19.801 50.9734 18.3693 50.9734C16.9377 50.9734 15.773 49.8087 15.773 48.3771V37.7751H16.0598C16.9483 37.7751 17.6712 37.0522 17.6712 36.1637V33.3613H21.2813V36.1637C21.2813 37.0522 22.0041 37.7751 22.8926 37.7751H23.4663C24.3547 37.7751 25.0776 37.0522 25.0776 36.1637V33.3613H28.2726C29.9808 33.3613 31.3705 31.9715 31.3705 30.2634V25.2475C31.3705 24.9508 31.13 24.7104 30.8334 24.7104C30.5368 24.7104 30.2963 24.9508 30.2963 25.2475V30.2634C30.2963 31.3793 29.3884 32.2871 28.2726 32.2871H11.4719C10.356 32.2871 9.44824 31.3793 9.44824 30.2634V8.52592C9.44824 7.41002 10.3561 6.5022 11.4719 6.5022H15.8943C16.1909 6.5022 16.4314 6.26179 16.4314 5.96509C16.4314 5.66839 16.1909 5.42798 15.8943 5.42798H11.4719C9.76374 5.42798 8.37402 6.8178 8.37402 8.52592V30.2633C8.37402 31.9714 9.76374 33.3612 11.4719 33.3612H12.8007V36.1636C12.8007 37.0521 13.5235 37.775 14.412 37.775H14.6988V48.377C14.6988 50.4009 16.3454 52.0475 18.3693 52.0475C20.3932 52.0475 22.0398 50.4009 22.0398 48.377V42.2754C22.0398 41.1484 22.9566 40.2316 24.0836 40.2316C25.2106 40.2316 26.1274 41.1484 26.1274 42.2754V48.506C26.1274 50.4588 27.7162 52.0475 29.669 52.0475C31.6218 52.0475 33.2105 50.4588 33.2105 48.506V39.8303C33.2105 38.185 34.1244 36.7053 35.5957 35.9687C37.4328 35.0487 38.5741 33.2009 38.5741 31.1464V16.6436C39.3879 16.4096 39.9856 15.66 39.9856 14.772C39.9856 13.9417 39.4627 13.2329 38.7295 12.9528C39.0803 12.0099 39.9892 11.3364 41.0528 11.3364C42.4197 11.3364 43.5316 12.4483 43.5316 13.8151V18.3966H43.1134C42.3433 18.3966 41.7169 19.0231 41.7169 19.7931V27.3124C41.7169 28.0824 42.3433 28.7089 43.1134 28.7089H43.5316V38.4847C43.1508 38.5315 42.7951 38.7124 42.5346 38.9993C42.2299 39.3345 42.0799 39.7855 42.1231 40.2365L42.4544 43.6937C42.5167 44.3448 42.9543 44.8689 43.542 45.066V48.8889C43.542 49.1856 43.7825 49.426 44.0791 49.426C44.3757 49.426 44.6162 49.1856 44.6162 48.8889V45.0589C45.1935 44.8565 45.6215 44.3372 45.6831 43.6937L45.7753 42.7317H46.0896C46.3862 42.7317 46.6267 42.4913 46.6267 42.1946C46.6267 41.8979 46.3862 41.6576 46.0896 41.6576ZM24.0034 36.1635C24.0034 36.4597 23.7624 36.7006 23.4663 36.7006H22.8926C22.5965 36.7006 22.3555 36.4597 22.3555 36.1635V33.3611H24.0034V36.1635ZM13.8748 36.1635V33.3611H16.5968V36.1635C16.5968 36.4597 16.3559 36.7006 16.0597 36.7006H14.4119C14.1157 36.7006 13.8748 36.4597 13.8748 36.1635ZM38.037 15.6463C37.5549 15.6463 37.1625 15.2541 37.1625 14.7719C37.1625 14.2896 37.5547 13.8974 38.037 13.8974C38.5191 13.8974 38.9114 14.2896 38.9114 14.7719C38.9114 15.2541 38.5192 15.6463 38.037 15.6463ZM42.7911 27.3125V19.7932C42.7911 19.6155 42.9357 19.4709 43.1134 19.4709H45.0241C45.2018 19.4709 45.3464 19.6155 45.3464 19.7932V27.3125C45.3464 27.4902 45.2018 27.6348 45.0241 27.6348H43.1134C42.9357 27.6348 42.7911 27.4902 42.7911 27.3125ZM44.6139 43.5913C44.5873 43.8684 44.3575 44.0772 44.0791 44.0772H44.0583C43.7801 44.0772 43.5502 43.8684 43.5236 43.5913L43.1924 40.1342C43.1777 39.9815 43.2265 39.8351 43.3295 39.7216C43.4327 39.6081 43.5737 39.5457 43.727 39.5457H44.4103C44.5636 39.5457 44.7047 39.6081 44.8078 39.7216C44.9108 39.8351 44.9595 39.9815 44.9449 40.1342L44.799 41.6575H44.6161C44.3195 41.6575 44.079 41.8979 44.079 42.1946C44.079 42.4913 44.3195 42.7317 44.6161 42.7317H44.696L44.6139 43.5913Z" fill="#0000CC"/>
<path d="M10.1285 39.7479C9.83195 39.7479 9.59144 39.5075 9.59144 39.2108C9.59144 38.8357 9.28625 38.5305 8.91113 38.5305C8.61454 38.5305 8.37402 38.2901 8.37402 37.9934C8.37402 37.6967 8.61454 37.4563 8.91113 37.4563C9.28625 37.4563 9.59144 37.151 9.59144 36.7759C9.59144 36.4792 9.83195 36.2388 10.1285 36.2388C10.4251 36.2388 10.6657 36.4792 10.6657 36.7759C10.6657 37.151 10.9708 37.4563 11.3461 37.4563C11.6427 37.4563 11.8832 37.6967 11.8832 37.9934C11.8832 38.2901 11.6427 38.5305 11.3461 38.5305C10.9709 38.5305 10.6657 38.8357 10.6657 39.2108C10.6657 39.5074 10.4251 39.7479 10.1285 39.7479Z" fill="#6583FE"/>
<path d="M39.2545 48.8497C38.9579 48.8497 38.7174 48.6093 38.7174 48.3126C38.7174 47.9375 38.4122 47.6322 38.0371 47.6322C37.7405 47.6322 37.5 47.3918 37.5 47.0951C37.5 46.7984 37.7405 46.558 38.0371 46.558C38.4122 46.558 38.7174 46.2528 38.7174 45.8777C38.7174 45.581 38.9579 45.3406 39.2545 45.3406C39.5511 45.3406 39.7916 45.581 39.7916 45.8777C39.7916 46.2528 40.0968 46.558 40.4719 46.558C40.7685 46.558 41.009 46.7984 41.009 47.0951C41.009 47.3918 40.7685 47.6322 40.4719 47.6322C40.0968 47.6322 39.7916 47.9375 39.7916 48.3126C39.7916 48.6093 39.5511 48.8497 39.2545 48.8497Z" fill="#6583FE"/>
<path d="M37.8434 8.661C37.5468 8.661 37.3063 8.42059 37.3063 8.12389C37.3063 7.74878 37.0011 7.44359 36.626 7.44359C36.3294 7.44359 36.0889 7.20318 36.0889 6.90648C36.0889 6.60978 36.3294 6.36937 36.626 6.36937C37.0011 6.36937 37.3063 6.06408 37.3063 5.68896C37.3063 5.39227 37.5468 5.15186 37.8434 5.15186C38.14 5.15186 38.3805 5.39227 38.3805 5.68896C38.3805 6.06408 38.6857 6.36937 39.0608 6.36937C39.3574 6.36937 39.5979 6.60978 39.5979 6.90648C39.5979 7.20318 39.3574 7.44359 39.0608 7.44359C38.6857 7.44359 38.3805 7.74878 38.3805 8.12389C38.3805 8.42059 38.1401 8.661 37.8434 8.661Z" fill="#6583FE"/>
<path d="M6.85645 40.8645C6.55985 40.8645 6.31934 40.6241 6.31934 40.3274V40.3113C6.31934 40.0146 6.55985 39.7742 6.85645 39.7742C7.15304 39.7742 7.39355 40.0146 7.39355 40.3113V40.3274C7.39355 40.6241 7.15314 40.8645 6.85645 40.8645Z" fill="#6583FE"/>
<path d="M6.85645 43.8489C6.55985 43.8489 6.31934 43.6085 6.31934 43.3118V43.2957C6.31934 42.999 6.55985 42.7585 6.85645 42.7585C7.15304 42.7585 7.39355 42.999 7.39355 43.2957V43.3118C7.39355 43.6085 7.15314 43.8489 6.85645 43.8489Z" fill="#6583FE"/>
<path d="M5.57024 41.6069C5.4799 41.6069 5.38827 41.584 5.30426 41.536L5.2903 41.528C5.0327 41.3809 4.94322 41.0528 5.09039 40.7953C5.23755 40.5377 5.56594 40.4484 5.82322 40.5955L5.83718 40.6034C6.09478 40.7506 6.18426 41.0787 6.03709 41.3362C5.93794 41.5097 5.75662 41.6069 5.57024 41.6069Z" fill="#6583FE"/>
<path d="M8.15511 43.0991C8.06402 43.0991 7.97185 43.0759 7.88731 43.0272L7.87335 43.0191C7.61639 42.8709 7.5282 42.5424 7.67644 42.2855C7.82458 42.0285 8.15296 41.9403 8.41002 42.0886L8.42399 42.0967C8.68094 42.2449 8.76914 42.5734 8.62089 42.8303C8.52142 43.0028 8.34084 43.0991 8.15511 43.0991Z" fill="#6583FE"/>
<path d="M5.55728 43.0991C5.37187 43.0991 5.1915 43.003 5.09192 42.831C4.94325 42.5743 5.03091 42.2458 5.28765 42.0971L5.30161 42.089C5.55857 41.9403 5.88695 42.028 6.03563 42.2848C6.1843 42.5415 6.09664 42.87 5.8399 43.0187L5.82594 43.0267C5.74118 43.0758 5.64869 43.0991 5.55728 43.0991Z" fill="#6583FE"/>
<path d="M8.14219 41.6066C7.95549 41.6066 7.77395 41.509 7.67491 41.3351C7.52817 41.0774 7.61819 40.7493 7.876 40.6026L7.88997 40.5947C8.14767 40.4478 8.47563 40.5378 8.62248 40.7957C8.76922 41.0535 8.6792 41.3815 8.42138 41.5283L8.40742 41.5362C8.32352 41.5839 8.23221 41.6066 8.14219 41.6066Z" fill="#6583FE"/>
<path d="M42.8506 4.7417C42.554 4.7417 42.3135 4.50129 42.3135 4.20459V4.18848C42.3135 3.89178 42.554 3.65137 42.8506 3.65137C43.1472 3.65137 43.3877 3.89178 43.3877 4.18848V4.20459C43.3877 4.50118 43.1472 4.7417 42.8506 4.7417Z" fill="#6583FE"/>
<path d="M42.8506 7.72608C42.554 7.72608 42.3135 7.48567 42.3135 7.18897V7.17285C42.3135 6.87615 42.554 6.63574 42.8506 6.63574C43.1472 6.63574 43.3877 6.87615 43.3877 7.17285V7.18897C43.3877 7.48567 43.1472 7.72608 42.8506 7.72608Z" fill="#6583FE"/>
<path d="M41.5643 5.48391C41.4732 5.48391 41.381 5.4607 41.2965 5.41193L41.2825 5.40388C41.0256 5.25563 40.9374 4.92714 41.0856 4.67029C41.2339 4.41323 41.5622 4.32504 41.8192 4.47339L41.8332 4.48144C42.0901 4.62969 42.1783 4.95818 42.0301 5.21503C41.9306 5.38744 41.75 5.48391 41.5643 5.48391Z" fill="#6583FE"/>
<path d="M44.1494 6.97586C44.0581 6.97586 43.9655 6.95255 43.8807 6.90346L43.8667 6.8954C43.61 6.74673 43.5224 6.41824 43.671 6.1615C43.8197 5.90465 44.1481 5.817 44.4049 5.96578L44.4189 5.97383C44.6756 6.1225 44.7633 6.451 44.6146 6.70774C44.5152 6.87983 44.3348 6.97586 44.1494 6.97586Z" fill="#6583FE"/>
<path d="M41.5514 6.97661C41.3657 6.97661 41.1851 6.88025 41.0856 6.70773C40.9374 6.45078 41.0256 6.12239 41.2825 5.97414L41.2965 5.96609C41.5534 5.81763 41.8818 5.90604 42.0301 6.16299C42.1783 6.41995 42.0901 6.74834 41.8332 6.89658L41.8192 6.90463C41.7348 6.95351 41.6424 6.97661 41.5514 6.97661Z" fill="#6583FE"/>
<path d="M44.1364 5.48414C43.951 5.48414 43.7706 5.388 43.671 5.21601C43.5224 4.95928 43.61 4.63078 43.8667 4.48211L43.8807 4.47405C44.1376 4.32527 44.466 4.41304 44.6147 4.66977C44.7634 4.92651 44.6757 5.25501 44.419 5.40368L44.405 5.41174C44.3203 5.46083 44.2277 5.48414 44.1364 5.48414Z" fill="#6583FE"/>
<path d="M24.6925 25.8218H15.0283C14.7317 25.8218 14.4912 26.0623 14.4912 26.3589C14.4912 26.6556 14.7317 26.896 15.0283 26.896H24.7156C25.0297 26.896 25.2808 26.6264 25.2503 26.306C25.2235 26.0268 24.973 25.8218 24.6925 25.8218Z" fill="#0000CC"/>
<path d="M18.7843 23.679H15.0283C14.7317 23.679 14.4912 23.9194 14.4912 24.2161C14.4912 24.5127 14.7317 24.7532 15.0283 24.7532H18.8074C19.1215 24.7532 19.3726 24.4835 19.3421 24.1632C19.3153 23.884 19.0648 23.679 18.7843 23.679Z" fill="#0000CC"/>
<path d="M12.983 11.3367H12.1084C11.8118 11.3367 11.5713 11.0963 11.5713 10.7996C11.5713 10.5029 11.8118 10.2625 12.1084 10.2625H12.983C13.2796 10.2625 13.5201 10.5029 13.5201 10.7996C13.5201 11.0963 13.2796 11.3367 12.983 11.3367Z" fill="#0000CC"/>
<path d="M12.983 13.3835H12.1084C11.8118 13.3835 11.5713 13.1431 11.5713 12.8464C11.5713 12.5497 11.8118 12.3093 12.1084 12.3093H12.983C13.2796 12.3093 13.5201 12.5497 13.5201 12.8464C13.5201 13.1431 13.2796 13.3835 12.983 13.3835Z" fill="#0000CC"/>
<path d="M12.983 15.4309H12.1084C11.8118 15.4309 11.5713 15.1905 11.5713 14.8938C11.5713 14.5971 11.8118 14.3567 12.1084 14.3567H12.983C13.2796 14.3567 13.5201 14.5971 13.5201 14.8938C13.5201 15.1905 13.2796 15.4309 12.983 15.4309Z" fill="#0000CC"/>
<path d="M12.983 17.4778H12.1084C11.8118 17.4778 11.5713 17.2374 11.5713 16.9407C11.5713 16.644 11.8118 16.4036 12.1084 16.4036H12.983C13.2796 16.4036 13.5201 16.644 13.5201 16.9407C13.5201 17.2374 13.2796 17.4778 12.983 17.4778Z" fill="#0000CC"/>
<path d="M27.1988 22.9138H12.5459C12.2493 22.9138 12.0088 22.6734 12.0088 22.3767C12.0088 22.08 12.2493 21.8396 12.5459 21.8396H27.1988C27.4954 21.8396 27.7359 22.08 27.7359 22.3767C27.7359 22.6733 27.4955 22.9138 27.1988 22.9138Z" fill="#0000CC"/>
</svg>
