<svg width="55" height="55" viewBox="0 0 55 55" fill="none" xmlns="http://www.w3.org/2000/svg">
<g opacity="0.1">
<path opacity="0.1" d="M46.775 46.0576H46.212L44.8945 39.6106C44.7962 39.1294 44.3729 38.7839 43.8818 38.7839H43.7753V24.4207C43.7753 16.787 37.587 10.5985 29.9532 10.5985H29.9531C26.2035 10.5985 22.8032 12.0923 20.3131 14.5165C19.5253 11.4041 16.7067 9.10083 13.3495 9.10083C9.38221 9.10083 6.16602 12.3169 6.16602 16.2843C6.16602 20.2516 9.3821 23.4677 13.3495 23.4677C14.3695 23.4677 15.3392 23.2538 16.218 22.8705C16.1612 23.3795 16.131 23.8965 16.131 24.4207V38.7838H16.0245C15.5334 38.7838 15.1101 39.1293 15.0118 39.6105L13.6943 46.0575H13.1313C12.5604 46.0575 12.0976 46.5202 12.0976 47.0911V49.0401C12.0976 49.611 12.5604 50.0738 13.1313 50.0738H46.7748C47.3457 50.0738 47.8085 49.611 47.8085 49.0401V47.0911C47.8087 46.5203 47.3459 46.0576 46.775 46.0576Z" fill="#2626BC"/>
<path opacity="0.1" d="M13.7483 27.1118C14.0338 27.1118 14.2651 26.8805 14.2651 26.595C14.2651 26.3095 14.0338 26.0781 13.7483 26.0781H11.8274C11.5419 26.0781 11.3105 26.3095 11.3105 26.595C11.3105 26.8805 11.5419 27.1118 11.8274 27.1118H13.7483Z" fill="#2626BC"/>
<path opacity="0.1" d="M7.17578 28.4946C7.17578 28.7801 7.40712 29.0115 7.69262 29.0115H13.7482C14.0337 29.0115 14.2651 28.7801 14.2651 28.4946C14.2651 28.2091 14.0337 27.9778 13.7482 27.9778H7.69262C7.40712 27.9778 7.17578 28.2091 7.17578 28.4946Z" fill="#2626BC"/>
<path opacity="0.1" d="M14.2651 30.395C14.2651 30.1095 14.0337 29.8782 13.7482 29.8782H7.69262C7.40712 29.8782 7.17578 30.1095 7.17578 30.395C7.17578 30.6805 7.40712 30.9119 7.69262 30.9119H13.7482C14.0337 30.9119 14.2651 30.6804 14.2651 30.395Z" fill="#2626BC"/>
</g>
<path d="M43.7752 41.1359H16.1309V21.8366C16.1309 14.2028 22.3192 8.0144 29.953 8.0144C37.5867 8.0144 43.7752 14.2027 43.7752 21.8366V41.1359Z" fill="white"/>
<path d="M29.9537 31.9169C31.9507 31.9169 33.5695 28.6724 33.5695 24.67C33.5695 20.6676 31.9507 17.4231 29.9537 17.4231C27.9567 17.4231 26.3379 20.6676 26.3379 24.67C26.3379 28.6724 27.9567 31.9169 29.9537 31.9169Z" fill="white"/>
<path d="M29.9537 31.9169C31.9507 31.9169 33.5695 28.6724 33.5695 24.67C33.5695 20.6676 31.9507 17.4231 29.9537 17.4231C27.9567 17.4231 26.3379 20.6676 26.3379 24.67C26.3379 28.6724 27.9567 31.9169 29.9537 31.9169Z" fill="#6583FE"/>
<path d="M26.0244 30.6006V36.1999H33.8825V30.6006C33.8825 30.3151 33.6511 30.0837 33.3657 30.0837H26.5413C26.2558 30.0837 26.0244 30.3152 26.0244 30.6006Z" fill="#6583FE"/>
<path d="M33.8818 36.7167C33.5963 36.7167 33.365 36.4854 33.365 36.1999V30.6006H26.5405V36.1999C26.5405 36.4854 26.3092 36.7167 26.0237 36.7167C25.7382 36.7167 25.5068 36.4854 25.5068 36.1999V30.6006C25.5068 30.0306 25.9705 29.5669 26.5405 29.5669H33.365C33.9349 29.5669 34.3986 30.0306 34.3986 30.6006V36.1999C34.3986 36.4854 34.1673 36.7167 33.8818 36.7167Z" fill="#0000CC"/>
<path d="M46.3837 44.3119H13.5234L15.0122 37.0264C15.1105 36.5453 15.5338 36.1997 16.025 36.1997H43.8822C44.3733 36.1997 44.7966 36.5453 44.895 37.0264L46.3837 44.3119Z" fill="white"/>
<path d="M22.6338 36.1997H31.2777V44.3119H22.6338V36.1997Z" fill="#6583FE"/>
<path d="M19.4912 36.1997H23.7695V44.3119H19.4912V36.1997Z" fill="#6583FE"/>
<path d="M46.7749 47.4898H13.1313C12.5604 47.4898 12.0977 47.027 12.0977 46.4561V44.5071C12.0977 43.9362 12.5604 43.4734 13.1313 43.4734H46.7749C47.3458 43.4734 47.8086 43.9362 47.8086 44.5071V46.4561C47.8086 47.027 47.3458 47.4898 46.7749 47.4898Z" fill="white"/>
<path d="M13.3495 20.8837C17.3168 20.8837 20.5329 17.6676 20.5329 13.7003C20.5329 9.73299 17.3168 6.51685 13.3495 6.51685C9.38216 6.51685 6.16602 9.73299 6.16602 13.7003C6.16602 17.6676 9.38216 20.8837 13.3495 20.8837Z" fill="#6583FE"/>
<path d="M16.6924 12.1866H14.8633V10.3574C14.8633 9.78651 14.4006 9.32373 13.8297 9.32373H12.8702C12.2993 9.32373 11.8365 9.78651 11.8365 10.3574V12.1866H10.0073C9.43641 12.1866 8.97363 12.6494 8.97363 13.2203V14.1797C8.97363 14.7506 9.43641 15.2134 10.0073 15.2134H11.8364V17.0425C11.8364 17.6134 12.2992 18.0762 12.8701 18.0762H13.8295C14.4004 18.0762 14.8632 17.6134 14.8632 17.0425V15.2134H16.6923C17.2632 15.2134 17.726 14.7506 17.726 14.1797V13.2203C17.7261 12.6494 17.2633 12.1866 16.6924 12.1866Z" fill="white"/>
<path d="M46.7751 42.9566H46.634L45.401 36.9229C45.2823 36.3428 44.843 35.8916 44.2924 35.7392V21.8367C44.2924 13.9302 37.8599 7.4977 29.9534 7.4977C26.4785 7.4977 23.1687 8.7376 20.5609 11.0021C19.4652 8.08317 16.6465 6 13.3496 6C9.10376 6 5.64941 9.45435 5.64941 13.7003C5.64941 17.9462 9.10376 21.4006 13.3496 21.4006C17.5955 21.4006 21.0499 17.9462 21.0499 13.7003C21.0499 13.1531 20.9915 12.6193 20.8824 12.1041C23.3532 9.7996 26.5686 8.53148 29.9534 8.53148C37.29 8.53148 43.2587 14.5002 43.2587 21.8368V35.683H16.6481V23.4439C16.6481 23.1584 16.4167 22.927 16.1312 22.927C15.8457 22.927 15.6144 23.1584 15.6144 23.4439V35.7391C15.0635 35.8916 14.6242 36.3429 14.5057 36.923L13.2727 42.9566H13.1315C12.2765 42.9566 11.581 43.6521 11.581 44.5071V46.4561C11.581 47.3111 12.2765 48.0067 13.1315 48.0067H46.7751C47.63 48.0067 48.3256 47.3111 48.3256 46.4561V44.5071C48.3256 43.6522 47.63 42.9566 46.7751 42.9566ZM13.3496 20.3669C9.67363 20.3669 6.68309 17.3763 6.68309 13.7003C6.68309 10.0243 9.67363 7.03368 13.3496 7.03368C17.0256 7.03368 20.0162 10.0243 20.0162 13.7003C20.0162 17.3763 17.0256 20.3669 13.3496 20.3669ZM47.2919 46.4561C47.2919 46.7411 47.0601 46.973 46.7751 46.973H13.1315C12.8465 46.973 12.6147 46.7411 12.6147 46.4561V44.5071C12.6147 44.2222 12.8465 43.9903 13.1315 43.9903H38.6759C38.9614 43.9903 39.1927 43.759 39.1927 43.4735C39.1927 43.188 38.9614 42.9566 38.6759 42.9566H14.3277L15.5184 37.13C15.5674 36.8905 15.7803 36.7166 16.0248 36.7166H43.8819C44.1264 36.7166 44.3393 36.8906 44.3883 37.13L45.579 42.9566H41.6841C41.3986 42.9566 41.1673 43.188 41.1673 43.4735C41.1673 43.759 41.3986 43.9903 41.6841 43.9903H46.7751C47.0601 43.9903 47.2919 44.2222 47.2919 44.5071V46.4561Z" fill="#0000CC"/>
<path d="M13.7483 24.5278C14.0338 24.5278 14.2651 24.2965 14.2651 24.011C14.2651 23.7255 14.0338 23.4941 13.7483 23.4941H11.8274C11.5419 23.4941 11.3105 23.7255 11.3105 24.011C11.3105 24.2965 11.5419 24.5278 11.8274 24.5278H13.7483Z" fill="#0000CC"/>
<path d="M7.17578 25.9106C7.17578 26.1961 7.40712 26.4275 7.69262 26.4275H13.7482C14.0337 26.4275 14.2651 26.1961 14.2651 25.9106C14.2651 25.6251 14.0337 25.3938 13.7482 25.3938H7.69262C7.40712 25.3938 7.17578 25.6251 7.17578 25.9106Z" fill="#0000CC"/>
<path d="M14.2651 27.8108C14.2651 27.5253 14.0337 27.2939 13.7482 27.2939H7.69262C7.40712 27.2939 7.17578 27.5253 7.17578 27.8108C7.17578 28.0963 7.40712 28.3276 7.69262 28.3276H13.7482C14.0337 28.3276 14.2651 28.0962 14.2651 27.8108Z" fill="#0000CC"/>
<path d="M29.0662 32.6667H27.5139C27.2284 32.6667 26.9971 32.4354 26.9971 32.1499C26.9971 31.8644 27.2284 31.6331 27.5139 31.6331H29.0662C29.3517 31.6331 29.583 31.8644 29.583 32.1499C29.583 32.4354 29.3517 32.6667 29.0662 32.6667Z" fill="#0000CC"/>
<path d="M29.0662 34.4131H27.5139C27.2284 34.4131 26.9971 34.1817 26.9971 33.8962C26.9971 33.6107 27.2284 33.3794 27.5139 33.3794H29.0662C29.3517 33.3794 29.583 33.6107 29.583 33.8962C29.583 34.1816 29.3517 34.4131 29.0662 34.4131Z" fill="#0000CC"/>
<path d="M30.7352 27.2595C31.8068 27.2595 32.6756 25.7219 32.6756 23.8252C32.6756 21.9285 31.8068 20.3909 30.7352 20.3909C29.6636 20.3909 28.7949 21.9285 28.7949 23.8252C28.7949 25.7219 29.6636 27.2595 30.7352 27.2595Z" fill="white"/>
<path d="M29.5833 27.6503C30.126 27.6503 30.566 26.8715 30.566 25.9109C30.566 24.9502 30.126 24.1714 29.5833 24.1714C29.0406 24.1714 28.6006 24.9502 28.6006 25.9109C28.6006 26.8715 29.0406 27.6503 29.5833 27.6503Z" fill="white"/>
<path d="M29.5836 28.1672C28.7287 28.1672 28.084 27.1972 28.084 25.9108C28.084 24.6245 28.7287 23.6545 29.5836 23.6545C30.4386 23.6545 31.0832 24.6245 31.0832 25.9108C31.0832 27.1972 30.4386 28.1672 29.5836 28.1672ZM29.5836 24.6882C29.4639 24.6882 29.1177 25.1086 29.1177 25.9108C29.1177 26.7131 29.4639 27.1335 29.5836 27.1335C29.7033 27.1335 30.0495 26.7131 30.0495 25.9108C30.0495 25.1086 29.7034 24.6882 29.5836 24.6882Z" fill="#0000CC"/>
<path d="M8.72582 35.0789C8.44032 35.0789 8.20898 34.8475 8.20898 34.562V34.5466C8.20898 34.2611 8.44032 34.0298 8.72582 34.0298C9.01133 34.0298 9.24266 34.2611 9.24266 34.5466V34.562C9.24266 34.8475 9.01133 35.0789 8.72582 35.0789Z" fill="#6583FE"/>
<path d="M8.72582 37.9508C8.44032 37.9508 8.20898 37.7195 8.20898 37.434V37.4185C8.20898 37.1329 8.44032 36.9016 8.72582 36.9016C9.01133 36.9016 9.24266 37.1329 9.24266 37.4185V37.434C9.24266 37.7195 9.01133 37.9508 8.72582 37.9508Z" fill="#6583FE"/>
<path d="M7.48884 35.7931C7.40087 35.7931 7.31187 35.7707 7.23042 35.7235L7.21698 35.7157C6.96993 35.5726 6.88558 35.2565 7.02865 35.0095C7.17171 34.7623 7.48812 34.6781 7.73485 34.8211L7.74829 34.8289C7.99534 34.972 8.07969 35.2881 7.93663 35.5351C7.84091 35.7007 7.66725 35.7931 7.48884 35.7931Z" fill="#6583FE"/>
<path d="M9.97614 37.2295C9.88818 37.2295 9.79918 37.207 9.71773 37.1598L9.70429 37.152C9.45724 37.009 9.37289 36.6929 9.51595 36.4458C9.65901 36.1986 9.97542 36.1143 10.2222 36.2575L10.2356 36.2653C10.4826 36.4083 10.567 36.7244 10.4239 36.9715C10.3281 37.1369 10.1545 37.2295 9.97614 37.2295Z" fill="#6583FE"/>
<path d="M7.47641 37.2292C7.298 37.2292 7.12445 37.1368 7.02862 36.9712C6.88556 36.7241 6.97001 36.408 7.21696 36.265L7.2304 36.2572C7.47745 36.114 7.79365 36.1986 7.93661 36.4456C8.07967 36.6926 7.99522 37.0087 7.74827 37.1518L7.73483 37.1595C7.65338 37.2068 7.56428 37.2292 7.47641 37.2292Z" fill="#6583FE"/>
<path d="M9.96372 35.7932C9.7852 35.7932 9.61175 35.7007 9.51593 35.5352C9.37287 35.2881 9.45732 34.972 9.70426 34.8289L9.7177 34.8212C9.96465 34.6779 10.281 34.7626 10.4239 35.0095C10.567 35.2566 10.4825 35.5727 10.2356 35.7157L10.2221 35.7235C10.1407 35.7707 10.0515 35.7932 9.96372 35.7932Z" fill="#6583FE"/>
<path d="M47.8098 27.0664C47.5243 27.0664 47.293 26.8351 47.293 26.5496V26.5342C47.293 26.2487 47.5243 26.0173 47.8098 26.0173C48.0953 26.0173 48.3266 26.2487 48.3266 26.5342V26.5496C48.3266 26.8351 48.0952 27.0664 47.8098 27.0664Z" fill="#6583FE"/>
<path d="M47.8098 29.9385C47.5243 29.9385 47.293 29.7071 47.293 29.4216V29.4062C47.293 29.1207 47.5243 28.8894 47.8098 28.8894C48.0953 28.8894 48.3266 29.1207 48.3266 29.4062V29.4216C48.3266 29.707 48.0952 29.9385 47.8098 29.9385Z" fill="#6583FE"/>
<path d="M46.5718 27.7805C46.4839 27.7805 46.3949 27.7581 46.3134 27.7108L46.3 27.7031C46.0529 27.56 45.9686 27.2439 46.1117 26.9969C46.2547 26.7496 46.5711 26.6654 46.8179 26.8085L46.8313 26.8163C47.0783 26.9593 47.1627 27.2754 47.0196 27.5225C46.9238 27.688 46.7503 27.7805 46.5718 27.7805Z" fill="#6583FE"/>
<path d="M49.0591 29.2165C48.9712 29.2165 48.8822 29.194 48.8007 29.1468L48.7873 29.139C48.5402 28.996 48.4559 28.6799 48.599 28.4328C48.742 28.1857 49.0584 28.1014 49.3052 28.2445L49.3186 28.2522C49.5657 28.3953 49.65 28.7114 49.5069 28.9585C49.4111 29.124 49.2375 29.2165 49.0591 29.2165Z" fill="#6583FE"/>
<path d="M46.5594 29.2165C46.3809 29.2165 46.2075 29.1239 46.1116 28.9585C45.9686 28.7114 46.053 28.3953 46.3 28.2522L46.3134 28.2445C46.5606 28.1013 46.8767 28.1859 47.0196 28.4328C47.1627 28.6799 47.0782 28.996 46.8313 29.139L46.8178 29.1468C46.7364 29.194 46.6473 29.2165 46.5594 29.2165Z" fill="#6583FE"/>
<path d="M49.0467 27.7807C48.8682 27.7807 48.6948 27.6882 48.5989 27.5227C48.4559 27.2757 48.5403 26.9596 48.7873 26.8165L48.8007 26.8087C49.0478 26.6655 49.364 26.7501 49.5069 26.9971C49.65 27.2441 49.5655 27.5602 49.3186 27.7033L49.3051 27.711C49.2237 27.7583 49.1346 27.7807 49.0467 27.7807Z" fill="#6583FE"/>
<path d="M12.3446 34.3128C12.0591 34.3128 11.8277 34.0814 11.8277 33.7959C11.8277 33.435 11.5341 33.1413 11.1731 33.1413C10.8876 33.1413 10.6562 32.91 10.6562 32.6244C10.6562 32.3389 10.8876 32.1076 11.1731 32.1076C11.5341 32.1076 11.8277 31.8138 11.8277 31.4529C11.8277 31.1674 12.0591 30.936 12.3446 30.936C12.6301 30.936 12.8614 31.1674 12.8614 31.4529C12.8614 31.8138 13.1551 32.1076 13.516 32.1076C13.8015 32.1076 14.0329 32.3389 14.0329 32.6244C14.0329 32.91 13.8015 33.1413 13.516 33.1413C13.1551 33.1413 12.8614 33.435 12.8614 33.7959C12.8614 34.0814 12.6301 34.3128 12.3446 34.3128Z" fill="#6583FE"/>
<path d="M42.6043 9.70279C42.3188 9.70279 42.0875 9.47145 42.0875 9.18595C42.0875 8.82499 41.7938 8.53132 41.4329 8.53132C41.1474 8.53132 40.916 8.29998 40.916 8.01448C40.916 7.72898 41.1474 7.49764 41.4329 7.49764C41.7938 7.49764 42.0875 7.20397 42.0875 6.84301C42.0875 6.55751 42.3188 6.32617 42.6043 6.32617C42.8898 6.32617 43.1212 6.55751 43.1212 6.84301C43.1212 7.20397 43.4149 7.49764 43.7759 7.49764C44.0614 7.49764 44.2927 7.72898 44.2927 8.01448C44.2927 8.29998 44.0614 8.53132 43.7759 8.53132C43.4149 8.53132 43.1212 8.82499 43.1212 9.18595C43.1212 9.47145 42.8898 9.70279 42.6043 9.70279Z" fill="#6583FE"/>
<path d="M47.5555 12.1836C47.27 12.1836 47.0387 11.9523 47.0387 11.6668C47.0387 11.3058 46.745 11.0121 46.384 11.0121C46.0985 11.0121 45.8672 10.7808 45.8672 10.4953C45.8672 10.2098 46.0985 9.97846 46.384 9.97846C46.745 9.97846 47.0387 9.68469 47.0387 9.32372C47.0387 9.03822 47.27 8.80688 47.5555 8.80688C47.841 8.80688 48.0723 9.03822 48.0723 9.32372C48.0723 9.68469 48.366 9.97846 48.727 9.97846C49.0125 9.97846 49.2438 10.2098 49.2438 10.4953C49.2438 10.7808 49.0125 11.0121 48.727 11.0121C48.366 11.0121 48.0723 11.3058 48.0723 11.6668C48.0723 11.9523 47.8409 12.1836 47.5555 12.1836Z" fill="#6583FE"/>
<path d="M23.7698 43.4734C23.4843 43.4734 23.2529 43.2421 23.2529 42.9566V36.1997C23.2529 35.9142 23.4843 35.6829 23.7698 35.6829C24.0553 35.6829 24.2866 35.9142 24.2866 36.1997V42.9566C24.2866 43.2421 24.0553 43.4734 23.7698 43.4734Z" fill="#0000CC"/>
</svg>
