<svg width="55" height="55" viewBox="0 0 55 55" fill="none" xmlns="http://www.w3.org/2000/svg">
<path opacity="0.1" d="M47.2807 37.139H39.4939V27.4268H40.4086C40.8825 27.4268 41.2666 27.0427 41.2666 26.5688V19.2205C41.2666 18.7467 40.8825 18.3625 40.4086 18.3625H39.4939V10.6223C39.4939 9.38085 38.4875 8.37329 37.2449 8.37329H17.593C16.3504 8.37329 15.344 9.38085 15.344 10.6223V14.0136H14.4293C13.9554 14.0136 13.5713 14.3977 13.5713 14.8716V18.8464C13.5713 19.3203 13.9554 19.7044 14.4293 19.7044H15.344V21.7363H14.4293C13.9554 21.7363 13.5713 22.1204 13.5713 22.5943V26.5691C13.5713 27.0429 13.9554 27.4271 14.4293 27.4271H15.344V50.2455C15.344 51.4881 16.3504 52.4945 17.593 52.4945H37.2449C38.4875 52.4945 39.4939 51.4881 39.4939 50.2455V46.5656H47.2807C47.9017 46.5656 48.4052 46.0622 48.4052 45.4411V38.2634C48.4052 37.6424 47.9017 37.139 47.2807 37.139Z" fill="#2626BC"/>
<path d="M38.749 15.5513H40.4087C40.8826 15.5513 41.2667 15.9354 41.2667 16.4093V23.7576C41.2667 24.2315 40.8826 24.6156 40.4087 24.6156H38.749V15.5513Z" fill="white"/>
<path d="M16.089 11.2019H14.4293C13.9554 11.2019 13.5713 11.586 13.5713 12.0599V16.0347C13.5713 16.5086 13.9554 16.8927 14.4293 16.8927H16.089V11.2019Z" fill="white"/>
<path d="M16.089 18.9248H14.4293C13.9554 18.9248 13.5713 19.3089 13.5713 19.7828V23.7576C13.5713 24.2315 13.9554 24.6156 14.4293 24.6156H16.089V18.9248Z" fill="white"/>
<path d="M39.4937 7.81103V47.4342C39.4937 48.6768 38.4873 49.6832 37.2447 49.6832H17.5928C16.3502 49.6832 15.3438 48.6768 15.3438 47.4342V7.81103C15.3438 6.56957 16.3502 5.56201 17.5928 5.56201H37.2447C38.4873 5.56201 39.4937 6.56957 39.4937 7.81103Z" fill="white"/>
<path d="M31.85 8.76398H23.1382C22.6609 8.76398 22.2355 8.4625 22.0773 8.01213L21.2168 5.5625H33.7714L32.9109 8.01213C32.7528 8.4625 32.3274 8.76398 31.85 8.76398Z" fill="#6583FE"/>
<path d="M23.7752 18.7583C25.538 18.0276 26.3746 16.0063 25.644 14.2435C24.9133 12.4808 22.892 11.6441 21.1292 12.3748C19.3665 13.1054 18.5298 15.1267 19.2605 16.8895C19.9911 18.6522 22.0125 19.4889 23.7752 18.7583Z" fill="#6583FE"/>
<path d="M24.0515 14.8439H23.1719V13.9643C23.1719 13.6898 22.9494 13.4673 22.6749 13.4673H22.2135C21.939 13.4673 21.7165 13.6898 21.7165 13.9643V14.8439H20.8369C20.5624 14.8439 20.3398 15.0664 20.3398 15.3409V15.8023C20.3398 16.0768 20.5624 16.2994 20.8369 16.2994H21.7165V17.179C21.7165 17.4534 21.939 17.676 22.2135 17.676H22.6749C22.9494 17.676 23.1719 17.4534 23.1719 17.179V16.2994H24.0515C24.326 16.2994 24.5485 16.0768 24.5485 15.8023V15.3409C24.5485 15.0664 24.326 14.8439 24.0515 14.8439Z" fill="white"/>
<path d="M35.9439 16.4617H28.4636C28.153 16.4617 27.9014 16.2099 27.9014 15.8994C27.9014 15.5889 28.153 15.3372 28.4636 15.3372H35.9439C36.2544 15.3372 36.5061 15.5889 36.5061 15.8994C36.5061 16.21 36.2544 16.4617 35.9439 16.4617Z" fill="#0000CC"/>
<path d="M35.9439 18.5049H28.4636C28.153 18.5049 27.9014 18.2531 27.9014 17.9426C27.9014 17.6321 28.153 17.3804 28.4636 17.3804H35.9439C36.2544 17.3804 36.5061 17.6321 36.5061 17.9426C36.5061 18.2531 36.2544 18.5049 35.9439 18.5049Z" fill="#0000CC"/>
<path d="M31.4458 13.595H28.4636C28.153 13.595 27.9014 13.3432 27.9014 13.0327C27.9014 12.7222 28.153 12.4705 28.4636 12.4705H31.4458C31.7564 12.4705 32.0081 12.7222 32.0081 13.0327C32.0081 13.3432 31.7564 13.595 31.4458 13.595Z" fill="#0000CC"/>
<path d="M35.614 27.1602H19.2224C18.9119 27.1602 18.6602 26.9084 18.6602 26.5979V22.6514C18.6602 22.3408 18.9119 22.0891 19.2224 22.0891H35.614C35.9245 22.0891 36.1763 22.3408 36.1763 22.6514V26.5979C36.1763 26.9084 35.9246 27.1602 35.614 27.1602Z" fill="white"/>
<path d="M23.8767 22.0891H19.2234C18.9129 22.0891 18.6611 22.3409 18.6611 22.6514V26.5979C18.6611 26.9084 18.9129 27.1602 19.2234 27.1602H23.8767V22.0891Z" fill="#6583FE"/>
<path d="M33.1326 25.1873H26.2146C25.904 25.1873 25.6523 24.9355 25.6523 24.625C25.6523 24.3145 25.904 24.0627 26.2146 24.0627H33.1326C33.4431 24.0627 33.6948 24.3145 33.6948 24.625C33.6948 24.9355 33.4431 25.1873 33.1326 25.1873Z" fill="#0000CC"/>
<path d="M31.1594 32.7881H23.2676V33.9126H31.1594C31.47 33.9126 31.7216 33.6608 31.7216 33.3503C31.7216 33.0399 31.4699 32.7881 31.1594 32.7881Z" fill="#0000CC"/>
<path d="M27.7859 30.5449H23.2676V31.6694H27.7859C28.0965 31.6694 28.3481 31.4177 28.3481 31.1072C28.3481 30.7966 28.0963 30.5449 27.7859 30.5449Z" fill="#0000CC"/>
<path d="M23.7509 31.1069C23.7509 30.0768 22.9128 29.2388 21.8828 29.2388C20.8526 29.2388 20.0146 30.0769 20.0146 31.1069C20.0146 31.615 20.2191 32.0757 20.5494 32.4128C20.2192 32.7499 20.0146 33.2106 20.0146 33.7187C20.0146 34.0292 20.2664 34.2809 20.5769 34.2809C20.8874 34.2809 21.1392 34.0292 21.1392 33.7187C21.1392 33.3086 21.4728 32.9751 21.8828 32.9751C22.2929 32.9751 22.6264 33.3087 22.6264 33.7187C22.6264 34.0292 22.8782 34.2809 23.1887 34.2809C23.4992 34.2809 23.7509 34.0292 23.7509 33.7187C23.7509 33.2106 23.5465 32.7499 23.2162 32.4128C23.5464 32.0757 23.7509 31.615 23.7509 31.1069ZM21.8827 30.3632C22.2928 30.3632 22.6263 30.6968 22.6263 31.1068C22.6263 31.5169 22.2927 31.8504 21.8827 31.8504C21.4727 31.8504 21.139 31.5168 21.139 31.1068C21.139 30.6968 21.4727 30.3632 21.8827 30.3632Z" fill="#0000CC"/>
<path d="M34.373 37.7119H22.5916C22.281 37.7119 22.0293 37.4601 22.0293 37.1497C22.0293 36.8392 22.281 36.5874 22.5916 36.5874H34.373C34.6836 36.5874 34.9353 36.8392 34.9353 37.1497C34.9353 37.4601 34.6836 37.7119 34.373 37.7119Z" fill="#0000CC"/>
<path d="M20.4656 37.7187C20.7761 37.7187 21.0278 37.467 21.0278 37.1565V37.1436C21.0278 36.8331 20.7761 36.5813 20.4656 36.5813C20.1551 36.5813 19.9033 36.8331 19.9033 37.1436V37.1565C19.9033 37.467 20.155 37.7187 20.4656 37.7187Z" fill="#0000CC"/>
<path d="M35.7332 31.6755C36.0436 31.6755 36.2954 31.4238 36.2954 31.1133V31.1003C36.2954 30.7899 36.0436 30.5381 35.7332 30.5381C35.4227 30.5381 35.1709 30.7899 35.1709 31.1003V31.1133C35.1709 31.4239 35.4227 31.6755 35.7332 31.6755Z" fill="#0000CC"/>
<path d="M33.9597 31.6755C34.2702 31.6755 34.522 31.4238 34.522 31.1133V31.1003C34.522 30.7899 34.2702 30.5381 33.9597 30.5381C33.6492 30.5381 33.3975 30.7899 33.3975 31.1003V31.1133C33.3975 31.4239 33.6492 31.6755 33.9597 31.6755Z" fill="#0000CC"/>
<path d="M34.373 39.9072H22.5916C22.281 39.9072 22.0293 39.6554 22.0293 39.345C22.0293 39.0345 22.281 38.7827 22.5916 38.7827H34.373C34.6836 38.7827 34.9353 39.0345 34.9353 39.345C34.9353 39.6556 34.6836 39.9072 34.373 39.9072Z" fill="#0000CC"/>
<path d="M20.4656 39.9138C20.7761 39.9138 21.0278 39.662 21.0278 39.3516V39.3386C21.0278 39.0281 20.7761 38.7764 20.4656 38.7764C20.1551 38.7764 19.9033 39.0281 19.9033 39.3386V39.3516C19.9033 39.662 20.155 39.9138 20.4656 39.9138Z" fill="#0000CC"/>
<path d="M34.373 42.1025H22.5916C22.281 42.1025 22.0293 41.8508 22.0293 41.5403C22.0293 41.2298 22.281 40.978 22.5916 40.978H34.373C34.6836 40.978 34.9353 41.2298 34.9353 41.5403C34.9353 41.8508 34.6836 42.1025 34.373 42.1025Z" fill="#0000CC"/>
<path d="M20.4656 42.1091C20.7761 42.1091 21.0278 41.8573 21.0278 41.5469V41.5339C21.0278 41.2235 20.7761 40.9717 20.4656 40.9717C20.1551 40.9717 19.9033 41.2235 19.9033 41.5339V41.5469C19.9033 41.8573 20.155 42.1091 20.4656 42.1091Z" fill="#0000CC"/>
<path d="M8.531 33.2897C8.22041 33.2897 7.96875 33.038 7.96875 32.7274V32.7107C7.96875 32.4001 8.22041 32.1484 8.531 32.1484C8.84159 32.1484 9.09326 32.4001 9.09326 32.7107V32.7274C9.09326 33.038 8.84159 33.2897 8.531 33.2897Z" fill="#6583FE"/>
<path d="M8.531 36.4138C8.22041 36.4138 7.96875 36.1622 7.96875 35.8516V35.8347C7.96875 35.5241 8.22041 35.2725 8.531 35.2725C8.84159 35.2725 9.09326 35.5241 9.09326 35.8347V35.8516C9.09326 36.1622 8.84159 36.4138 8.531 36.4138Z" fill="#6583FE"/>
<path d="M7.18481 34.0668C7.08912 34.0668 6.9923 34.0424 6.90368 33.991L6.88907 33.9826C6.62031 33.827 6.52855 33.4831 6.68418 33.2143C6.8397 32.9455 7.18403 32.8537 7.45245 33.0095L7.46706 33.0179C7.73582 33.1735 7.82758 33.5174 7.67195 33.7862C7.56782 33.9662 7.3789 34.0668 7.18481 34.0668Z" fill="#6583FE"/>
<path d="M9.89087 35.6288C9.79517 35.6288 9.69835 35.6044 9.60974 35.553L9.59512 35.5446C9.32636 35.3889 9.2346 35.0451 9.39024 34.7763C9.54576 34.5074 9.88997 34.4158 10.1585 34.5714L10.1731 34.5798C10.4419 34.7355 10.5336 35.0794 10.378 35.3481C10.2738 35.5281 10.085 35.6288 9.89087 35.6288Z" fill="#6583FE"/>
<path d="M7.17129 35.6288C6.97709 35.6288 6.7884 35.5282 6.68416 35.3482C6.52852 35.0794 6.6204 34.7355 6.88904 34.5799L6.90366 34.5715C7.17242 34.4156 7.5164 34.5077 7.67192 34.7763C7.82756 35.0451 7.73568 35.389 7.46704 35.5446L7.45242 35.553C7.36381 35.6044 7.26688 35.6288 7.17129 35.6288Z" fill="#6583FE"/>
<path d="M9.87735 34.0668C9.68315 34.0668 9.49445 33.9662 9.39021 33.7861C9.23458 33.5174 9.32645 33.1735 9.5951 33.0179L9.60972 33.0095C9.87836 32.8536 10.2225 32.9457 10.378 33.2143C10.5336 33.4831 10.4417 33.827 10.1731 33.9826L10.1585 33.991C10.0699 34.0424 9.97282 34.0668 9.87735 34.0668Z" fill="#6583FE"/>
<path d="M45.6951 8.99985C45.3845 8.99985 45.1328 8.74818 45.1328 8.43759C45.1328 8.04492 44.8133 7.72533 44.4207 7.72533C44.1101 7.72533 43.8584 7.47366 43.8584 7.16308C43.8584 6.85249 44.1101 6.60082 44.4207 6.60082C44.8133 6.60082 45.1328 6.28135 45.1328 5.88867C45.1328 5.57808 45.3845 5.32642 45.6951 5.32642C46.0056 5.32642 46.2573 5.57808 46.2573 5.88867C46.2573 6.28135 46.5769 6.60082 46.9696 6.60082C47.2802 6.60082 47.5318 6.85249 47.5318 7.16308C47.5318 7.47366 47.2802 7.72533 46.9696 7.72533C46.5769 7.72533 46.2573 8.04492 46.2573 8.43759C46.2573 8.74818 46.0056 8.99985 45.6951 8.99985Z" fill="#6583FE"/>
<path d="M10.7576 30.6463C10.447 30.6463 10.1953 30.3947 10.1953 30.0841C10.1953 29.6914 9.87583 29.3718 9.48315 29.3718C9.17256 29.3718 8.9209 29.1202 8.9209 28.8096C8.9209 28.499 9.17256 28.2473 9.48315 28.2473C9.87583 28.2473 10.1953 27.9278 10.1953 27.5352C10.1953 27.2246 10.447 26.9729 10.7576 26.9729C11.0681 26.9729 11.3198 27.2246 11.3198 27.5352C11.3198 27.9278 11.6393 28.2473 12.032 28.2473C12.3426 28.2473 12.5942 28.499 12.5942 28.8096C12.5942 29.1202 12.3426 29.3718 12.032 29.3718C11.6393 29.3718 11.3198 29.6914 11.3198 30.0841C11.3198 30.3947 11.0681 30.6463 10.7576 30.6463Z" fill="#6583FE"/>
<path d="M49.908 29.3717C49.5974 29.3717 49.3457 29.1201 49.3457 28.8095V28.7927C49.3457 28.4821 49.5974 28.2305 49.908 28.2305C50.2185 28.2305 50.4702 28.4821 50.4702 28.7927V28.8095C50.4702 29.1201 50.2185 29.3717 49.908 29.3717Z" fill="#6583FE"/>
<path d="M49.908 32.496C49.5974 32.496 49.3457 32.2443 49.3457 31.9337V31.917C49.3457 31.6064 49.5974 31.3547 49.908 31.3547C50.2185 31.3547 50.4702 31.6064 50.4702 31.917V31.9337C50.4702 32.2443 50.2185 32.496 49.908 32.496Z" fill="#6583FE"/>
<path d="M48.5618 30.1488C48.4661 30.1488 48.3692 30.1244 48.2806 30.073L48.266 30.0646C47.9973 29.909 47.9055 29.5651 48.0611 29.2963C48.2167 29.0274 48.5609 28.9358 48.8294 29.0914L48.844 29.0999C49.1128 29.2555 49.2045 29.5994 49.0489 29.8681C48.9447 30.0483 48.7557 30.1488 48.5618 30.1488Z" fill="#6583FE"/>
<path d="M51.2678 31.7111C51.1721 31.7111 51.0753 31.6867 50.9867 31.6353L50.9721 31.6269C50.7033 31.4713 50.6116 31.1274 50.7672 30.8586C50.9228 30.5897 51.267 30.498 51.5355 30.6538L51.5501 30.6622C51.8188 30.8178 51.9106 31.1617 51.755 31.4305C51.6507 31.6105 51.4619 31.7111 51.2678 31.7111Z" fill="#6583FE"/>
<path d="M48.5483 31.7109C48.354 31.7109 48.1654 31.6103 48.0611 31.4302C47.9055 31.1614 47.9973 30.8176 48.266 30.6619L48.2806 30.6535C48.5494 30.4976 48.8934 30.5897 49.0489 30.8584C49.2045 31.1271 49.1126 31.471 48.844 31.6266L48.8294 31.6351C48.7407 31.6865 48.6437 31.7109 48.5483 31.7109Z" fill="#6583FE"/>
<path d="M51.2543 30.1488C51.0601 30.1488 50.8714 30.0482 50.7672 29.8681C50.6115 29.5994 50.7034 29.2555 50.9721 29.0999L50.9867 29.0914C51.2554 28.9357 51.5994 29.0277 51.7549 29.2963C51.9106 29.5651 51.8187 29.909 51.55 30.0646L51.5354 30.073C51.4468 30.1244 51.3499 30.1488 51.2543 30.1488Z" fill="#6583FE"/>
<path d="M44.4206 30.5134C44.1101 30.5134 43.8584 30.2617 43.8584 29.9511C43.8584 29.5585 43.5389 29.239 43.1462 29.239C42.8356 29.239 42.584 28.9873 42.584 28.6767C42.584 28.3662 42.8356 28.1145 43.1462 28.1145C43.5389 28.1145 43.8584 27.795 43.8584 27.4023C43.8584 27.0918 44.1101 26.8401 44.4206 26.8401C44.7312 26.8401 44.9829 27.0918 44.9829 27.4023C44.9829 27.795 45.3024 28.1145 45.6951 28.1145C46.0056 28.1145 46.2573 28.3662 46.2573 28.6767C46.2573 28.9873 46.0056 29.239 45.6951 29.239C45.3024 29.239 44.9829 29.5585 44.9829 29.9511C44.9829 30.2617 44.7312 30.5134 44.4206 30.5134Z" fill="#6583FE"/>
<path d="M33.3095 47.9416H21.5281C21.2175 47.9416 20.9658 47.6899 20.9658 47.3794C20.9658 47.0689 21.2175 46.8171 21.5281 46.8171H33.3095C33.6201 46.8171 33.8718 47.0689 33.8718 47.3794C33.8718 47.6899 33.6201 47.9416 33.3095 47.9416Z" fill="#0000CC"/>
<path d="M47.2805 43.7541H34.522C33.9009 43.7541 33.3975 43.2507 33.3975 42.6296V35.4519C33.3975 34.8308 33.9009 34.3274 34.522 34.3274H47.2805C47.9016 34.3274 48.405 34.8308 48.405 35.4519V42.6296C48.405 43.2507 47.9016 43.7541 47.2805 43.7541Z" fill="#6583FE"/>
<path d="M47.2804 33.7654H34.5219C33.5918 33.7654 32.8351 34.5221 32.8351 35.4521V42.6299C32.8351 43.5601 33.5918 44.3166 34.5219 44.3166H38.9314V47.4343C38.9314 48.3644 38.1747 49.1211 37.2446 49.1211H17.5927C16.6627 49.1211 15.906 48.3644 15.906 47.4343V7.81127C15.906 6.88119 16.6627 6.12451 17.5927 6.12451H37.2446C38.1747 6.12451 38.9314 6.88119 38.9314 7.81127V31.152C38.9314 31.4626 39.1831 31.7143 39.4937 31.7143C39.8043 31.7143 40.0559 31.4626 40.0559 31.152V25.1778H40.4083C41.1914 25.1778 41.8286 24.5407 41.8286 23.7576V16.4093C41.8286 15.6262 41.1914 14.9891 40.4083 14.9891H40.0559V7.81127C40.0559 6.26114 38.7948 5 37.2446 5H17.5927C16.0426 5 14.7815 6.26114 14.7815 7.81127V10.64H14.429C13.6459 10.64 13.0088 11.2771 13.0088 12.0602V16.035C13.0088 16.8181 13.6459 17.4553 14.429 17.4553H14.7815V18.3626H14.429C13.6459 18.3626 13.0088 18.9997 13.0088 19.7828V23.7576C13.0088 24.5407 13.6459 25.1778 14.429 25.1778H14.7815V47.4344C14.7815 48.9846 16.0426 50.2457 17.5927 50.2457H37.2446C38.7948 50.2457 40.0559 48.9846 40.0559 47.4344V44.3167H41.1595C41.4701 44.3167 41.7218 44.0651 41.7218 43.7545C41.7218 43.4439 41.4701 43.1922 41.1595 43.1922H34.5219C34.2118 43.1922 33.9596 42.94 33.9596 42.63V35.4522C33.9596 35.1422 34.2118 34.89 34.5219 34.89H47.2804C47.5905 34.89 47.8427 35.1422 47.8427 35.4522V42.63C47.8427 42.94 47.5905 43.1922 47.2804 43.1922H44.4319C44.1214 43.1922 43.8697 43.4439 43.8697 43.7545C43.8697 44.0651 44.1214 44.3167 44.4319 44.3167H47.2804C48.2105 44.3167 48.9672 43.5602 48.9672 42.63V35.4522C48.9672 34.5221 48.2105 33.7654 47.2804 33.7654ZM40.4083 16.1136C40.5714 16.1136 40.7041 16.2463 40.7041 16.4093V23.7576C40.7041 23.9206 40.5714 24.0533 40.4083 24.0533H40.0559V16.1137H40.4083V16.1136ZM14.429 16.3307C14.266 16.3307 14.1333 16.198 14.1333 16.0349V12.0601C14.1333 11.8971 14.266 11.7644 14.429 11.7644H14.7815V16.3305H14.429V16.3307ZM14.429 24.0532C14.266 24.0532 14.1333 23.9205 14.1333 23.7575V19.7827C14.1333 19.6197 14.266 19.487 14.429 19.487H14.7815V24.0531H14.429V24.0532Z" fill="#0000CC"/>
<path d="M45.1236 37.3606H43.0339C42.7233 37.3606 42.4717 37.1088 42.4717 36.7983C42.4717 36.4879 42.7233 36.2361 43.0339 36.2361H45.1236C45.4342 36.2361 45.6859 36.4879 45.6859 36.7983C45.6859 37.1088 45.4342 37.3606 45.1236 37.3606Z" fill="#0000CC"/>
<path d="M45.1236 39.4277H38.5359C38.2253 39.4277 37.9736 39.176 37.9736 38.8655C37.9736 38.555 38.2253 38.3032 38.5359 38.3032H45.1236C45.4342 38.3032 45.6858 38.555 45.6858 38.8655C45.6858 39.176 45.4342 39.4277 45.1236 39.4277Z" fill="#0000CC"/>
<path d="M45.1236 41.4944H38.5359C38.2253 41.4944 37.9736 41.2426 37.9736 40.9321C37.9736 40.6217 38.2253 40.3699 38.5359 40.3699H45.1236C45.4342 40.3699 45.6858 40.6217 45.6858 40.9321C45.6858 41.2426 45.4342 41.4944 45.1236 41.4944Z" fill="#0000CC"/>
<path d="M35.6149 27.7224H19.2231C18.6031 27.7224 18.0986 27.218 18.0986 26.5979V22.6514C18.0986 22.0313 18.6031 21.5269 19.2231 21.5269H35.6149C36.2349 21.5269 36.7394 22.0313 36.7394 22.6514V26.5979C36.7394 27.218 36.2348 27.7224 35.6149 27.7224ZM19.2231 22.6514V26.5979H35.6156L35.6149 22.6514H19.2231Z" fill="#0000CC"/>
</svg>
