<svg width="55" height="55" viewBox="0 0 55 55" fill="none" xmlns="http://www.w3.org/2000/svg">
<g opacity="0.1">
<path opacity="0.1" d="M23.9671 9.14453H13.8922C13.0704 9.14453 12.4043 9.81065 12.4043 10.6324C12.4043 11.4542 13.0704 12.1203 13.8922 12.1203H14.2252V45.9845C14.2252 48.5828 16.3314 50.689 18.9296 50.689C21.5278 50.689 23.6341 48.5828 23.6341 45.9845V12.1203H23.967C24.7887 12.1203 25.4549 11.4542 25.4549 10.6324C25.455 9.81065 24.7889 9.14453 23.9671 9.14453Z" fill="#2626BC"/>
<path opacity="0.1" d="M41.9387 9.14453H31.8639C31.0421 9.14453 30.376 9.81065 30.376 10.6324C30.376 11.4542 31.0421 12.1203 31.8639 12.1203H32.1968V45.9845C32.1968 48.5828 34.303 50.689 36.9012 50.689C39.4994 50.689 41.6056 48.5828 41.6056 45.9845V12.1203H41.9385C42.7603 12.1203 43.4264 11.4542 43.4264 10.6324C43.4267 9.81065 42.7604 9.14453 41.9387 9.14453Z" fill="#2626BC"/>
</g>
<path d="M18.93 48.0035C16.3318 48.0035 14.2256 45.8973 14.2256 43.2991V8.28076H23.6346V43.299C23.6345 45.8972 21.5282 48.0035 18.93 48.0035Z" fill="white"/>
<path d="M23.6347 23.1455V43.2989C23.6347 44.5977 23.1083 45.775 22.2564 46.6258C21.4046 47.4776 20.2294 48.004 18.9296 48.004C16.3321 48.004 14.2256 45.8975 14.2256 43.2989V23.1455H23.6347Z" fill="#6583FE"/>
<path d="M23.6348 29.1859V43.299C23.6348 44.0102 23.4769 44.6848 23.1933 45.2895C18.8287 45.1929 15.3203 41.6243 15.3203 37.2372C15.3203 32.7878 18.9265 29.1816 23.3759 29.1816C23.4629 29.1816 23.5488 29.1827 23.6348 29.1859Z" fill="white"/>
<path d="M23.6345 35.6724C21.9875 35.825 20.6982 37.2098 20.6982 38.8966C20.6982 40.5829 21.9878 41.9675 23.6345 42.12V35.6724Z" fill="#6583FE"/>
<path d="M18.328 33.6834C18.328 35.1529 17.1367 36.3442 15.6672 36.3442C15.1354 36.3442 14.6402 36.1885 14.2256 35.9199V31.4458C14.6402 31.1772 15.1354 31.0215 15.6672 31.0215C17.1367 31.0215 18.328 32.2128 18.328 33.6834Z" fill="white"/>
<path d="M14.2256 32.8162C15.474 32.7005 16.4513 31.6508 16.4513 30.3721C16.4513 29.0939 15.4737 28.0444 14.2256 27.9287V32.8162Z" fill="white"/>
<path d="M23.9671 9.43479H13.8922C13.0704 9.43479 12.4043 8.76866 12.4043 7.94688C12.4043 7.12511 13.0704 6.45898 13.8922 6.45898H23.9671C24.7889 6.45898 25.455 7.12521 25.455 7.94688C25.455 8.76866 24.7889 9.43479 23.9671 9.43479Z" fill="white"/>
<path d="M21.2658 17.3213H20.0225C19.7259 17.3213 19.4854 17.0808 19.4854 16.7842C19.4854 16.4876 19.7259 16.2471 20.0225 16.2471H21.2658C21.5624 16.2471 21.8029 16.4876 21.8029 16.7842C21.8029 17.0808 21.5625 17.3213 21.2658 17.3213Z" fill="#0000CC"/>
<path d="M21.2658 21.4121H20.0225C19.7259 21.4121 19.4854 21.1716 19.4854 20.875C19.4854 20.5784 19.7259 20.3379 20.0225 20.3379H21.2658C21.5624 20.3379 21.8029 20.5784 21.8029 20.875C21.8029 21.1716 21.5625 21.4121 21.2658 21.4121Z" fill="#0000CC"/>
<path d="M21.2658 25.5024H20.0225C19.7259 25.5024 19.4854 25.2619 19.4854 24.9653C19.4854 24.6687 19.7259 24.4282 20.0225 24.4282H21.2658C21.5624 24.4282 21.8029 24.6687 21.8029 24.9653C21.8029 25.2619 21.5625 25.5024 21.2658 25.5024Z" fill="#0000CC"/>
<path d="M21.2658 29.5928H20.0225C19.7259 29.5928 19.4854 29.3523 19.4854 29.0557C19.4854 28.7591 19.7259 28.5186 20.0225 28.5186H21.2658C21.5624 28.5186 21.8029 28.7591 21.8029 29.0557C21.8029 29.3523 21.5625 29.5928 21.2658 29.5928Z" fill="#0000CC"/>
<path d="M21.2658 33.6831H20.0225C19.7259 33.6831 19.4854 33.4426 19.4854 33.146C19.4854 32.8494 19.7259 32.6089 20.0225 32.6089H21.2658C21.5624 32.6089 21.8029 32.8494 21.8029 33.146C21.8029 33.4426 21.5625 33.6831 21.2658 33.6831Z" fill="#0000CC"/>
<path d="M21.2658 37.7739H20.0225C19.7259 37.7739 19.4854 37.5334 19.4854 37.2368C19.4854 36.9402 19.7259 36.6997 20.0225 36.6997H21.2658C21.5624 36.6997 21.8029 36.9402 21.8029 37.2368C21.8029 37.5334 21.5625 37.7739 21.2658 37.7739Z" fill="#0000CC"/>
<path d="M21.2658 41.8643H20.0225C19.7259 41.8643 19.4854 41.6237 19.4854 41.3271C19.4854 41.0306 19.7259 40.79 20.0225 40.79H21.2658C21.5624 40.79 21.8029 41.0306 21.8029 41.3271C21.8029 41.6237 21.5625 41.8643 21.2658 41.8643Z" fill="#0000CC"/>
<path d="M36.9017 48.0035C34.3035 48.0035 32.1973 45.8973 32.1973 43.2991V8.28076H41.6062V43.299C41.6061 45.8972 39.4999 48.0035 36.9017 48.0035Z" fill="white"/>
<path d="M41.6073 23.145V43.2984C41.6073 44.5972 41.081 45.7745 40.2291 46.6253C39.3772 47.4772 38.202 48.0035 36.9022 48.0035C34.3048 48.0035 32.1982 45.897 32.1982 43.2984V23.145H41.6073Z" fill="#6583FE"/>
<path d="M41.6066 19.7035V23.1453H34.7402C36.1958 21.0624 38.6128 19.6992 41.3478 19.6992C41.4348 19.6992 41.5207 19.7003 41.6066 19.7035Z" fill="#6583FE"/>
<path d="M41.6074 23.145V33.8163C41.6074 34.5274 41.4495 35.202 41.1659 35.8068C36.8014 35.7101 33.293 32.1416 33.293 27.7545C33.293 26.04 33.8279 24.4513 34.741 23.145H41.6074Z" fill="white"/>
<path d="M41.6066 21.5898V23.1453H39.1338C39.6494 22.2859 40.555 21.6876 41.6066 21.5898Z" fill="white"/>
<path d="M41.6068 23.145V28.037C39.9601 27.8845 38.6699 26.4998 38.6699 24.8133C38.6699 24.2031 38.8386 23.6316 39.134 23.145H41.6068Z" fill="#6583FE"/>
<path d="M36.2997 39.8812C36.2997 41.3507 35.1084 42.542 33.6389 42.542C33.1071 42.542 32.6119 42.3862 32.1973 42.1177V37.6436C32.6119 37.375 33.1071 37.2192 33.6389 37.2192C35.1084 37.2192 36.2997 38.4105 36.2997 39.8812Z" fill="white"/>
<path d="M32.1973 39.0138C33.4456 38.8981 34.4229 37.8484 34.4229 36.5699C34.4229 35.2917 33.4455 34.2422 32.1973 34.1265V39.0138Z" fill="white"/>
<path d="M41.9387 9.43479H31.8639C31.0421 9.43479 30.376 8.76866 30.376 7.94688C30.376 7.12511 31.0421 6.45898 31.8639 6.45898H41.9387C42.7604 6.45898 43.4266 7.12521 43.4266 7.94688C43.4267 8.76866 42.7604 9.43479 41.9387 9.43479Z" fill="white"/>
<path d="M23.9672 5.92188H18.6372C18.3406 5.92188 18.1001 6.16239 18.1001 6.45898C18.1001 6.75558 18.3406 6.99609 18.6372 6.99609H23.9672C24.4914 6.99609 24.918 7.42267 24.918 7.94688C24.918 8.4711 24.4914 8.89768 23.9672 8.89768H13.8923C13.368 8.89768 12.9414 8.4711 12.9414 7.94688C12.9414 7.42256 13.368 6.99609 13.8923 6.99609H15.5112C15.8077 6.99609 16.0483 6.75558 16.0483 6.45898C16.0483 6.16239 15.8077 5.92188 15.5112 5.92188H13.8923C12.7757 5.92188 11.8672 6.83034 11.8672 7.94688C11.8672 8.99457 12.6669 9.85889 13.6881 9.96158V43.299C13.6881 46.1892 16.0395 48.5405 18.9296 48.5405C21.8198 48.5405 24.1713 46.1892 24.1713 43.299V9.96158C25.1923 9.85889 25.9922 8.99457 25.9922 7.94688C25.9922 6.83023 25.0837 5.92188 23.9672 5.92188ZM18.9297 47.4664C16.6319 47.4664 14.7624 45.597 14.7624 43.2991V9.972H23.0971V43.2991C23.0971 45.597 21.2276 47.4664 18.9297 47.4664Z" fill="#0000CC"/>
<path d="M43.9639 7.94688C43.9639 6.83023 43.0554 5.92188 41.9388 5.92188H31.864C30.7473 5.92188 29.8389 6.83034 29.8389 7.94688C29.8389 9.06353 30.7473 9.972 31.864 9.972H41.0687V43.2991C41.0687 45.597 39.1993 47.4664 36.9014 47.4664C34.6036 47.4664 32.7341 45.597 32.7341 43.2991V12.5609C32.7341 12.2643 32.4936 12.0238 32.197 12.0238C31.9004 12.0238 31.6599 12.2643 31.6599 12.5609V43.299C31.6599 46.1892 34.0112 48.5405 36.9014 48.5405C39.7916 48.5405 42.143 46.1892 42.143 43.299V9.96158C43.1641 9.85889 43.9639 8.99457 43.9639 7.94688ZM41.9388 8.89778H31.864C31.3397 8.89778 30.9131 8.47121 30.9131 7.94688C30.9131 7.42267 31.3397 6.99609 31.864 6.99609H41.9388C42.4631 6.99609 42.8897 7.42267 42.8897 7.94688C42.8897 8.47121 42.4631 8.89778 41.9388 8.89778Z" fill="#0000CC"/>
<path d="M39.2374 17.3213H37.9941C37.6975 17.3213 37.457 17.0808 37.457 16.7842C37.457 16.4876 37.6975 16.2471 37.9941 16.2471H39.2374C39.534 16.2471 39.7746 16.4876 39.7746 16.7842C39.7746 17.0808 39.534 17.3213 39.2374 17.3213Z" fill="#0000CC"/>
<path d="M39.2374 21.4121H37.9941C37.6975 21.4121 37.457 21.1716 37.457 20.875C37.457 20.5784 37.6975 20.3379 37.9941 20.3379H39.2374C39.534 20.3379 39.7746 20.5784 39.7746 20.875C39.7746 21.1716 39.534 21.4121 39.2374 21.4121Z" fill="#0000CC"/>
<path d="M39.2374 25.5024H37.9941C37.6975 25.5024 37.457 25.2619 37.457 24.9653C37.457 24.6687 37.6975 24.4282 37.9941 24.4282H39.2374C39.534 24.4282 39.7746 24.6687 39.7746 24.9653C39.7746 25.2619 39.534 25.5024 39.2374 25.5024Z" fill="#0000CC"/>
<path d="M39.2374 29.5928H37.9941C37.6975 29.5928 37.457 29.3523 37.457 29.0557C37.457 28.7591 37.6975 28.5186 37.9941 28.5186H39.2374C39.534 28.5186 39.7746 28.7591 39.7746 29.0557C39.7746 29.3523 39.534 29.5928 39.2374 29.5928Z" fill="#0000CC"/>
<path d="M39.2374 33.6831H37.9941C37.6975 33.6831 37.457 33.4426 37.457 33.146C37.457 32.8494 37.6975 32.6089 37.9941 32.6089H39.2374C39.534 32.6089 39.7746 32.8494 39.7746 33.146C39.7746 33.4426 39.534 33.6831 39.2374 33.6831Z" fill="#0000CC"/>
<path d="M39.2374 37.7739H37.9941C37.6975 37.7739 37.457 37.5334 37.457 37.2368C37.457 36.9402 37.6975 36.6997 37.9941 36.6997H39.2374C39.534 36.6997 39.7746 36.9402 39.7746 37.2368C39.7746 37.5334 39.534 37.7739 39.2374 37.7739Z" fill="#0000CC"/>
<path d="M39.2374 41.8643H37.9941C37.6975 41.8643 37.457 41.6237 37.457 41.3271C37.457 41.0306 37.6975 40.79 37.9941 40.79H39.2374C39.534 40.79 39.7746 41.0306 39.7746 41.3271C39.7746 41.6237 39.534 41.8643 39.2374 41.8643Z" fill="#0000CC"/>
<path d="M47.2744 34.0908C46.9778 34.0908 46.7373 33.8503 46.7373 33.5537V33.5376C46.7373 33.241 46.9778 33.0005 47.2744 33.0005C47.571 33.0005 47.8115 33.241 47.8115 33.5376V33.5537C47.8115 33.8503 47.571 34.0908 47.2744 34.0908Z" fill="#6583FE"/>
<path d="M47.2744 37.0752C46.9778 37.0752 46.7373 36.8347 46.7373 36.5381V36.522C46.7373 36.2254 46.9778 35.9849 47.2744 35.9849C47.571 35.9849 47.8115 36.2254 47.8115 36.522V36.5381C47.8115 36.8347 47.571 37.0752 47.2744 37.0752Z" fill="#6583FE"/>
<path d="M45.9881 34.8329C45.8968 34.8329 45.8043 34.8096 45.7196 34.7605L45.7056 34.7525C45.4489 34.6038 45.3612 34.2753 45.5099 34.0186C45.6585 33.7619 45.9871 33.6742 46.2439 33.8229L46.2579 33.8309C46.5146 33.9796 46.6023 34.3081 46.4536 34.5649C46.354 34.7368 46.1736 34.8329 45.9881 34.8329Z" fill="#6583FE"/>
<path d="M48.5732 36.3252C48.4819 36.3252 48.3893 36.3019 48.3045 36.2528L48.2906 36.2447C48.0338 36.0961 47.9462 35.7676 48.0949 35.5107C48.2434 35.2541 48.572 35.1664 48.8289 35.315L48.8428 35.3231C49.0996 35.4717 49.1872 35.8002 49.0385 36.057C48.939 36.2291 48.7586 36.3252 48.5732 36.3252Z" fill="#6583FE"/>
<path d="M45.9752 36.3256C45.7898 36.3256 45.6095 36.2295 45.5099 36.0575C45.3612 35.8007 45.4489 35.4721 45.7056 35.3236L45.7196 35.3155C45.9764 35.1669 46.3049 35.2545 46.4535 35.5112C46.6021 35.768 46.5145 36.0966 46.2578 36.2453L46.2438 36.2533C46.1591 36.3022 46.0665 36.3256 45.9752 36.3256Z" fill="#6583FE"/>
<path d="M48.5602 34.833C48.3748 34.833 48.1944 34.737 48.0949 34.5649C47.9462 34.3082 48.0338 33.9796 48.2906 33.8309L48.3045 33.8229C48.5614 33.6742 48.89 33.7619 49.0386 34.0186C49.1872 34.2753 49.0996 34.6039 48.8428 34.7525L48.8289 34.7605C48.744 34.8096 48.6515 34.833 48.5602 34.833Z" fill="#6583FE"/>
<path d="M46.0563 30.7258C45.7597 30.7258 45.5192 30.4853 45.5192 30.1887C45.5192 29.8136 45.214 29.5084 44.8389 29.5084C44.5423 29.5084 44.3018 29.2679 44.3018 28.9713C44.3018 28.6747 44.5423 28.4342 44.8389 28.4342C45.214 28.4342 45.5192 28.129 45.5192 27.7539C45.5192 27.4573 45.7597 27.2168 46.0563 27.2168C46.3529 27.2168 46.5934 27.4573 46.5934 27.7539C46.5934 28.129 46.8986 28.4342 47.2737 28.4342C47.5703 28.4342 47.8108 28.6747 47.8108 28.9713C47.8108 29.2679 47.5703 29.5084 47.2737 29.5084C46.8986 29.5084 46.5934 29.8136 46.5934 30.1887C46.5934 30.4853 46.3529 30.7258 46.0563 30.7258Z" fill="#6583FE"/>
<path d="M10.2428 15.9939C9.94621 15.9939 9.70569 15.7534 9.70569 15.4568C9.70569 15.0817 9.40051 14.7765 9.02539 14.7765C8.7288 14.7765 8.48828 14.536 8.48828 14.2394C8.48828 13.9428 8.7288 13.7023 9.02539 13.7023C9.40051 13.7023 9.70569 13.3971 9.70569 13.022C9.70569 12.7254 9.94621 12.4849 10.2428 12.4849C10.5394 12.4849 10.7799 12.7254 10.7799 13.022C10.7799 13.3971 11.0851 13.7023 11.4602 13.7023C11.7568 13.7023 11.9973 13.9428 11.9973 14.2394C11.9973 14.536 11.7568 14.7765 11.4602 14.7765C11.0851 14.7765 10.7799 15.0817 10.7799 15.4568C10.7799 15.7534 10.5394 15.9939 10.2428 15.9939Z" fill="#6583FE"/>
<path d="M28.6334 45.3923C28.3368 45.3923 28.0963 45.1518 28.0963 44.8552C28.0963 44.4801 27.7911 44.1749 27.416 44.1749C27.1194 44.1749 26.8789 43.9344 26.8789 43.6378C26.8789 43.3412 27.1194 43.1007 27.416 43.1007C27.7911 43.1007 28.0963 42.7955 28.0963 42.4204C28.0963 42.1238 28.3368 41.8833 28.6334 41.8833C28.93 41.8833 29.1705 42.1238 29.1705 42.4204C29.1705 42.7955 29.4757 43.1007 29.8508 43.1007C30.1474 43.1007 30.3879 43.3412 30.3879 43.6378C30.3879 43.9344 30.1474 44.1749 29.8508 44.1749C29.4757 44.1749 29.1705 44.4801 29.1705 44.8552C29.1705 45.1518 28.93 45.3923 28.6334 45.3923Z" fill="#6583FE"/>
<path d="M7.72656 17.5732C7.42997 17.5732 7.18945 17.3327 7.18945 17.0361V17.02C7.18945 16.7234 7.42997 16.4829 7.72656 16.4829C8.02315 16.4829 8.26367 16.7234 8.26367 17.02V17.0361C8.26367 17.3328 8.02315 17.5732 7.72656 17.5732Z" fill="#6583FE"/>
<path d="M7.72656 20.5576C7.42997 20.5576 7.18945 20.3171 7.18945 20.0205V20.0044C7.18945 19.7078 7.42997 19.4673 7.72656 19.4673C8.02315 19.4673 8.26367 19.7078 8.26367 20.0044V20.0205C8.26367 20.3171 8.02315 20.5576 7.72656 20.5576Z" fill="#6583FE"/>
<path d="M6.44029 18.3155C6.34898 18.3155 6.25649 18.2922 6.17173 18.2431L6.15777 18.235C5.90103 18.0864 5.81337 17.7579 5.96204 17.501C6.11061 17.2443 6.43921 17.1566 6.69595 17.3053L6.70992 17.3134C6.96665 17.462 7.05431 17.7905 6.90564 18.0474C6.80606 18.2194 6.6257 18.3155 6.44029 18.3155Z" fill="#6583FE"/>
<path d="M9.02525 19.8076C8.93394 19.8076 8.84145 19.7843 8.75669 19.7352L8.74273 19.7272C8.48599 19.5785 8.39833 19.25 8.547 18.9932C8.69557 18.7366 9.02417 18.6488 9.28102 18.7974L9.29498 18.8055C9.55172 18.9542 9.63938 19.2827 9.4907 19.5395C9.39102 19.7115 9.21066 19.8076 9.02525 19.8076Z" fill="#6583FE"/>
<path d="M6.42739 19.8077C6.24198 19.8077 6.06162 19.7115 5.96204 19.5396C5.81337 19.2828 5.90103 18.9542 6.15777 18.8055L6.17173 18.7975C6.42858 18.6488 6.75707 18.7365 6.90564 18.9932C7.05431 19.25 6.96665 19.5786 6.70992 19.7272L6.69595 19.7353C6.6113 19.7844 6.5187 19.8077 6.42739 19.8077Z" fill="#6583FE"/>
<path d="M9.01235 18.3155C8.82694 18.3155 8.64658 18.2194 8.547 18.0474C8.39833 17.7906 8.48599 17.462 8.74273 17.3134L8.75669 17.3053C9.01354 17.1566 9.34214 17.2443 9.4906 17.501C9.63927 17.7578 9.55161 18.0864 9.29487 18.235L9.28091 18.2431C9.19615 18.2922 9.10366 18.3155 9.01235 18.3155Z" fill="#6583FE"/>
</svg>
