<svg width="55" height="55" viewBox="0 0 55 55" fill="none" xmlns="http://www.w3.org/2000/svg">
<path opacity="0.1" d="M47.2465 13.397H26.3785C26.0819 13.397 25.8414 13.6375 25.8414 13.9341V17.6991C25.8414 17.9957 26.0819 18.2362 26.3785 18.2362H27.2247V24.1392H7.75391C7.45731 24.1392 7.2168 24.3796 7.2168 24.6763V28.4413C7.2168 28.7379 7.45731 28.9784 7.75391 28.9784H8.60007V50.4674C8.60007 51.0607 9.081 51.5416 9.67429 51.5416H26.7016C27.0192 51.5416 27.3036 51.403 27.5003 51.184C27.697 51.403 27.9814 51.5416 28.299 51.5416H45.3263C45.9196 51.5416 46.4005 51.0607 46.4005 50.4674V18.2363H47.2467C47.5433 18.2363 47.7838 17.9958 47.7838 17.6992V13.9342C47.7836 13.6375 47.5431 13.397 47.2465 13.397Z" fill="#2626BC"/>
<path d="M45.327 48.8563H28.2998C27.7065 48.8563 27.2256 48.3753 27.2256 47.782V14.3608H46.4014V47.782C46.4013 48.3753 45.9203 48.8563 45.327 48.8563Z" fill="white"/>
<path d="M46.4007 44.5013H31.9697C31.3764 44.5013 30.8955 44.0203 30.8955 43.4271V32.2842C30.8955 31.6909 31.3764 31.21 31.9697 31.21H46.4007V44.5013Z" fill="white"/>
<path d="M46.4007 34.4593V31.21H31.9697C31.3764 31.21 30.8955 31.6909 30.8955 32.2842V34.4593H46.4007Z" fill="#6583FE"/>
<path d="M47.2469 15.5508H26.3789C26.0823 15.5508 25.8418 15.3103 25.8418 15.0137V11.2485C25.8418 10.9519 26.0823 10.7114 26.3789 10.7114H47.2469C47.5435 10.7114 47.784 10.9519 47.784 11.2485V15.0137C47.784 15.3103 47.5435 15.5508 47.2469 15.5508Z" fill="white"/>
<path d="M41.5568 37.2651H33.3369C33.0402 37.2651 32.7998 37.0246 32.7998 36.728C32.7998 36.4314 33.0402 36.1909 33.3369 36.1909H41.5568C41.8535 36.1909 42.0939 36.4314 42.0939 36.728C42.0939 37.0246 41.8535 37.2651 41.5568 37.2651Z" fill="#0000CC"/>
<path d="M41.5568 39.1987H33.3369C33.0402 39.1987 32.7998 38.9582 32.7998 38.6616C32.7998 38.365 33.0402 38.1245 33.3369 38.1245H41.5568C41.8535 38.1245 42.0939 38.365 42.0939 38.6616C42.0939 38.9582 41.8535 39.1987 41.5568 39.1987Z" fill="#0000CC"/>
<path d="M38.3342 41.1323H33.3369C33.0402 41.1323 32.7998 40.8918 32.7998 40.5952C32.7998 40.2986 33.0402 40.0581 33.3369 40.0581H38.3342C38.6309 40.0581 38.8713 40.2986 38.8713 40.5952C38.8713 40.8918 38.6309 41.1323 38.3342 41.1323Z" fill="#0000CC"/>
<path d="M43.9297 43.7329C44.2263 43.7329 44.4668 43.4924 44.4668 43.1958C44.4668 42.8992 44.2263 42.6587 43.9297 42.6587C43.6331 42.6587 43.3926 42.8992 43.3926 43.1958C43.3926 43.4924 43.6331 43.7329 43.9297 43.7329Z" fill="#0000CC"/>
<path d="M33.3369 33.397C33.6336 33.397 33.874 33.1565 33.874 32.8599C33.874 32.5632 33.6336 32.3228 33.3369 32.3228C33.0403 32.3228 32.7998 32.5632 32.7998 32.8599C32.7998 33.1565 33.0403 33.397 33.3369 33.397Z" fill="#0000CC"/>
<path d="M42.2158 43.7329C42.5125 43.7329 42.7529 43.4924 42.7529 43.1958C42.7529 42.8992 42.5125 42.6587 42.2158 42.6587C41.9192 42.6587 41.6787 42.8992 41.6787 43.1958C41.6787 43.4924 41.9192 43.7329 42.2158 43.7329Z" fill="#0000CC"/>
<path d="M40.502 43.7329C40.7986 43.7329 41.0391 43.4924 41.0391 43.1958C41.0391 42.8992 40.7986 42.6587 40.502 42.6587C40.2053 42.6587 39.9648 42.8992 39.9648 43.1958C39.9648 43.4924 40.2053 43.7329 40.502 43.7329Z" fill="#0000CC"/>
<path d="M26.702 48.8563H9.6748C9.08151 48.8563 8.60059 48.3753 8.60059 47.7821V25.103H27.7764V47.7821C27.7762 48.3753 27.2953 48.8563 26.702 48.8563Z" fill="white"/>
<path d="M27.7757 44.5013H13.3447C12.7514 44.5013 12.2705 44.0203 12.2705 43.4271V32.2842C12.2705 31.6909 12.7514 31.21 13.3447 31.21H27.7757V44.5013Z" fill="white"/>
<path d="M27.7757 34.4593V31.21H13.3447C12.7514 31.21 12.2705 31.6909 12.2705 32.2842V34.4593H27.7757Z" fill="#6583FE"/>
<path d="M28.6219 26.293H7.75391C7.45731 26.293 7.2168 26.0524 7.2168 25.7559V21.9907C7.2168 21.6941 7.45731 21.4536 7.75391 21.4536H28.6219C28.9185 21.4536 29.159 21.6941 29.159 21.9907V25.7559C29.159 26.0524 28.9185 26.293 28.6219 26.293Z" fill="#6583FE"/>
<path d="M47.2465 10.1743H26.3785C25.7862 10.1743 25.3043 10.6562 25.3043 11.2485V15.0137C25.3043 15.606 25.7862 16.0879 26.3785 16.0879H26.6875V20.9165H7.75391C7.16158 20.9165 6.67969 21.3984 6.67969 21.9907V25.7559C6.67969 26.3482 7.16158 26.8301 7.75391 26.8301H27.2387V47.782C27.2387 48.0781 26.9978 48.3191 26.7016 48.3191H9.67429C9.37812 48.3191 9.13718 48.0781 9.13718 47.782V29.4189C9.13718 29.1224 8.89666 28.8818 8.60007 28.8818C8.30348 28.8818 8.06296 29.1224 8.06296 29.4189V47.782C8.06296 48.6704 8.7858 49.3933 9.67429 49.3933H26.7016C26.9922 49.3933 27.2643 49.3149 27.5 49.1797C27.7416 49.318 28.0157 49.3933 28.299 49.3933H45.3263C46.2148 49.3933 46.9376 48.6704 46.9376 47.782V16.0879H47.2467C47.839 16.0879 48.3209 15.606 48.3209 15.0137V11.2485C48.3207 10.6562 47.8389 10.1743 47.2465 10.1743ZM7.75391 21.9907H8.97035V24.4177C8.97035 24.7143 9.21087 24.9548 9.50746 24.9548C9.80405 24.9548 10.0446 24.7143 10.0446 24.4177V21.9907H11.4505V24.4177C11.4505 24.7143 11.691 24.9548 11.9876 24.9548C12.2842 24.9548 12.5247 24.7143 12.5247 24.4177V21.9907H13.9307V24.4177C13.9307 24.7143 14.1712 24.9548 14.4678 24.9548C14.7644 24.9548 15.0049 24.7143 15.0049 24.4177V21.9907H16.4108V24.4177C16.4108 24.7143 16.6513 24.9548 16.9479 24.9548C17.2445 24.9548 17.485 24.7143 17.485 24.4177V21.9907H18.891V24.4177C18.891 24.7143 19.1315 24.9548 19.4281 24.9548C19.7247 24.9548 19.9652 24.7143 19.9652 24.4177V21.9907H21.3711V24.4177C21.3711 24.7143 21.6117 24.9548 21.9082 24.9548C22.2048 24.9548 22.4454 24.7143 22.4454 24.4177V21.9907H23.8513V24.4177C23.8513 24.7143 24.0918 24.9548 24.3884 24.9548C24.685 24.9548 24.9255 24.7143 24.9255 24.4177V21.9907H26.3314V24.4177C26.3314 24.7143 26.572 24.9548 26.8686 24.9548C27.1651 24.9548 27.4057 24.7143 27.4057 24.4177V21.9907H28.622L28.6226 25.7558H7.75391V21.9907ZM47.2465 15.0137H43.0352C42.7386 15.0137 42.4981 15.2542 42.4981 15.5508C42.4981 15.8474 42.7386 16.0879 43.0352 16.0879H45.8632V47.782C45.8632 48.0781 45.6223 48.3191 45.3261 48.3191H28.2989C28.2728 48.3191 28.2471 48.3156 28.2215 48.312C28.2796 48.1457 28.313 47.9679 28.313 47.782V26.8301H28.6219C29.2142 26.8301 29.6961 26.3482 29.6961 25.7559V21.9907C29.6961 21.3984 29.2142 20.9165 28.6219 20.9165H27.7618V16.0879H39.9092C40.2058 16.0879 40.4464 15.8474 40.4464 15.5508C40.4464 15.2542 40.2058 15.0137 39.9092 15.0137H26.3785V11.2485H27.5948V13.6755C27.5948 13.9721 27.8354 14.2126 28.1319 14.2126C28.4285 14.2126 28.6691 13.9721 28.6691 13.6755V11.2485H30.075V13.6755C30.075 13.9721 30.3155 14.2126 30.6121 14.2126C30.9087 14.2126 31.1492 13.9721 31.1492 13.6755V11.2485H32.5551V13.6755C32.5551 13.9721 32.7957 14.2126 33.0923 14.2126C33.3888 14.2126 33.6294 13.9721 33.6294 13.6755V11.2485H35.0353V13.6755C35.0353 13.9721 35.2758 14.2126 35.5724 14.2126C35.869 14.2126 36.1095 13.9721 36.1095 13.6755V11.2485H37.5155V13.6755C37.5155 13.9721 37.756 14.2126 38.0526 14.2126C38.3492 14.2126 38.5897 13.9721 38.5897 13.6755V11.2485H39.9956V13.6755C39.9956 13.9721 40.2361 14.2126 40.5327 14.2126C40.8293 14.2126 41.0698 13.9721 41.0698 13.6755V11.2485H42.4758V13.6755C42.4758 13.9721 42.7163 14.2126 43.0129 14.2126C43.3095 14.2126 43.55 13.9721 43.55 13.6755V11.2485H44.9559V13.6755C44.9559 13.9721 45.1964 14.2126 45.493 14.2126C45.7896 14.2126 46.0301 13.9721 46.0301 13.6755V11.2485H47.2466V15.0137H47.2465Z" fill="#0000CC"/>
<path d="M22.9318 37.2651H14.7119C14.4152 37.2651 14.1748 37.0246 14.1748 36.728C14.1748 36.4314 14.4152 36.1909 14.7119 36.1909H22.9318C23.2285 36.1909 23.4689 36.4314 23.4689 36.728C23.4689 37.0246 23.2285 37.2651 22.9318 37.2651Z" fill="#0000CC"/>
<path d="M22.9318 39.1987H14.7119C14.4152 39.1987 14.1748 38.9582 14.1748 38.6616C14.1748 38.365 14.4152 38.1245 14.7119 38.1245H22.9318C23.2285 38.1245 23.4689 38.365 23.4689 38.6616C23.4689 38.9582 23.2285 39.1987 22.9318 39.1987Z" fill="#0000CC"/>
<path d="M19.7092 41.1328H14.7119C14.4152 41.1328 14.1748 40.8923 14.1748 40.5957C14.1748 40.2991 14.4152 40.0586 14.7119 40.0586H19.7092C20.0059 40.0586 20.2463 40.2991 20.2463 40.5957C20.2463 40.8923 20.0059 41.1328 19.7092 41.1328Z" fill="#0000CC"/>
<path d="M25.3047 43.7329C25.6013 43.7329 25.8418 43.4924 25.8418 43.1958C25.8418 42.8992 25.6013 42.6587 25.3047 42.6587C25.0081 42.6587 24.7676 42.8992 24.7676 43.1958C24.7676 43.4924 25.0081 43.7329 25.3047 43.7329Z" fill="#0000CC"/>
<path d="M14.7119 33.397C15.0086 33.397 15.249 33.1565 15.249 32.8599C15.249 32.5632 15.0086 32.3228 14.7119 32.3228C14.4153 32.3228 14.1748 32.5632 14.1748 32.8599C14.1748 33.1565 14.4153 33.397 14.7119 33.397Z" fill="#0000CC"/>
<path d="M23.5908 43.7329C23.8875 43.7329 24.1279 43.4924 24.1279 43.1958C24.1279 42.8992 23.8875 42.6587 23.5908 42.6587C23.2942 42.6587 23.0537 42.8992 23.0537 43.1958C23.0537 43.4924 23.2942 43.7329 23.5908 43.7329Z" fill="#0000CC"/>
<path d="M21.877 43.7329C22.1736 43.7329 22.4141 43.4924 22.4141 43.1958C22.4141 42.8992 22.1736 42.6587 21.877 42.6587C21.5803 42.6587 21.3398 42.8992 21.3398 43.1958C21.3398 43.4924 21.5803 43.7329 21.877 43.7329Z" fill="#0000CC"/>
<path d="M41.6169 19.6567H33.2754C32.9788 19.6567 32.7383 19.4162 32.7383 19.1196C32.7383 18.823 32.9788 18.5825 33.2754 18.5825H41.6169C41.9135 18.5825 42.154 18.823 42.154 19.1196C42.154 19.4162 41.9136 19.6567 41.6169 19.6567Z" fill="#0000CC"/>
<path d="M20.2653 14.0115C19.9687 14.0115 19.7282 13.771 19.7282 13.4744C19.7282 13.0993 19.423 12.7941 19.0479 12.7941C18.7513 12.7941 18.5107 12.5536 18.5107 12.257C18.5107 11.9604 18.7513 11.7199 19.0479 11.7199C19.423 11.7199 19.7282 11.4147 19.7282 11.0396C19.7282 10.743 19.9687 10.5024 20.2653 10.5024C20.5619 10.5024 20.8024 10.743 20.8024 11.0396C20.8024 11.4147 21.1076 11.7199 21.4827 11.7199C21.7793 11.7199 22.0198 11.9604 22.0198 12.257C22.0198 12.5536 21.7793 12.7941 21.4827 12.7941C21.1076 12.7941 20.8024 13.0993 20.8024 13.4744C20.8024 13.771 20.5619 14.0115 20.2653 14.0115Z" fill="#6583FE"/>
<path d="M15.3922 10.9628C15.0956 10.9628 14.8551 10.7222 14.8551 10.4257C14.8551 10.0505 14.5499 9.74535 14.1748 9.74535C13.8782 9.74535 13.6377 9.50483 13.6377 9.20824C13.6377 8.91165 13.8782 8.67113 14.1748 8.67113C14.5499 8.67113 14.8551 8.36595 14.8551 7.99072C14.8551 7.69413 15.0956 7.45361 15.3922 7.45361C15.6888 7.45361 15.9293 7.69413 15.9293 7.99072C15.9293 8.36584 16.2345 8.67113 16.6096 8.67113C16.9062 8.67113 17.1467 8.91165 17.1467 9.20824C17.1467 9.50483 16.9062 9.74535 16.6096 9.74535C16.2345 9.74535 15.9293 10.0505 15.9293 10.4257C15.9293 10.7222 15.6888 10.9628 15.3922 10.9628Z" fill="#6583FE"/>
<path d="M50.3414 28.0476C50.0448 28.0476 49.8043 27.8071 49.8043 27.5105C49.8043 27.1354 49.4991 26.8302 49.124 26.8302C48.8274 26.8302 48.5869 26.5897 48.5869 26.2931C48.5869 25.9965 48.8274 25.756 49.124 25.756C49.4991 25.756 49.8043 25.4508 49.8043 25.0757C49.8043 24.7791 50.0448 24.5386 50.3414 24.5386C50.638 24.5386 50.8785 24.7791 50.8785 25.0757C50.8785 25.4508 51.1837 25.756 51.5588 25.756C51.8554 25.756 52.096 25.9965 52.096 26.2931C52.096 26.5897 51.8554 26.8302 51.5588 26.8302C51.1837 26.8302 50.8785 27.1354 50.8785 27.5105C50.8785 27.8071 50.6381 28.0476 50.3414 28.0476Z" fill="#6583FE"/>
<path d="M14.6934 14.4878C14.3968 14.4878 14.1562 14.2473 14.1562 13.9507V13.9346C14.1562 13.638 14.3968 13.3975 14.6934 13.3975C14.99 13.3975 15.2305 13.638 15.2305 13.9346V13.9507C15.2305 14.2473 14.99 14.4878 14.6934 14.4878Z" fill="#6583FE"/>
<path d="M14.6934 17.4722C14.3968 17.4722 14.1562 17.2317 14.1562 16.9351V16.9189C14.1562 16.6224 14.3968 16.3818 14.6934 16.3818C14.99 16.3818 15.2305 16.6224 15.2305 16.9189V16.9351C15.2305 17.2318 14.99 17.4722 14.6934 17.4722Z" fill="#6583FE"/>
<path d="M13.4071 15.2299C13.3162 15.2299 13.2242 15.2068 13.1398 15.1583L13.1258 15.1502C12.8687 15.0024 12.7802 14.674 12.9281 14.4168C13.0759 14.1598 13.4041 14.0712 13.6615 14.2191L13.6754 14.2271C13.9326 14.3749 14.0211 14.7033 13.8732 14.9605C13.7738 15.1333 13.593 15.2299 13.4071 15.2299Z" fill="#6583FE"/>
<path d="M15.9921 16.7217C15.9015 16.7217 15.8098 16.6988 15.7255 16.6505L15.7116 16.6424C15.4542 16.4949 15.3651 16.1668 15.5125 15.9094C15.66 15.652 15.9881 15.5628 16.2456 15.7103L16.2595 15.7184C16.5169 15.8659 16.606 16.194 16.4586 16.4514C16.3594 16.6246 16.1783 16.7217 15.9921 16.7217Z" fill="#6583FE"/>
<path d="M13.3942 16.7221C13.2082 16.7221 13.0274 16.6255 12.9281 16.4527C12.7802 16.1956 12.8687 15.8672 13.1258 15.7194L13.1398 15.7113C13.3971 15.5633 13.7254 15.652 13.8732 15.9091C14.0211 16.1662 13.9326 16.4946 13.6754 16.6424L13.6615 16.6505C13.5771 16.6991 13.485 16.7221 13.3942 16.7221Z" fill="#6583FE"/>
<path d="M15.9791 15.2295C15.7928 15.2295 15.6118 15.1325 15.5125 14.9593C15.3651 14.7019 15.4542 14.3737 15.7116 14.2262L15.7255 14.2182C15.9828 14.0706 16.3111 14.1599 16.4586 14.4172C16.606 14.6746 16.5169 15.0028 16.2595 15.1503L16.2456 15.1583C16.1614 15.2066 16.0695 15.2295 15.9791 15.2295Z" fill="#6583FE"/>
<path d="M50.2969 41.6231C50.0003 41.6231 49.7598 41.3825 49.7598 41.0859V41.0698C49.7598 40.7732 50.0003 40.5327 50.2969 40.5327C50.5935 40.5327 50.834 40.7732 50.834 41.0698V41.0859C50.834 41.3825 50.5935 41.6231 50.2969 41.6231Z" fill="#6583FE"/>
<path d="M50.2969 44.6074C50.0003 44.6074 49.7598 44.3669 49.7598 44.0703V44.0542C49.7598 43.7576 50.0003 43.5171 50.2969 43.5171C50.5935 43.5171 50.834 43.7576 50.834 44.0542V44.0703C50.834 44.3669 50.5935 44.6074 50.2969 44.6074Z" fill="#6583FE"/>
<path d="M49.0116 42.3657C48.9203 42.3657 48.8278 42.3424 48.743 42.2933L48.7291 42.2853C48.4723 42.1366 48.3847 41.8081 48.5333 41.5512C48.6819 41.2946 49.0105 41.207 49.2673 41.3555L49.2813 41.3636C49.538 41.5123 49.6257 41.8408 49.477 42.0975C49.3773 42.2696 49.197 42.3657 49.0116 42.3657Z" fill="#6583FE"/>
<path d="M51.5966 43.8583C51.5053 43.8583 51.4128 43.835 51.328 43.7859L51.314 43.7778C51.0573 43.6292 50.9696 43.3007 51.1183 43.0439C51.2669 42.7873 51.5955 42.6996 51.8522 42.8482L51.8662 42.8563C52.1229 43.0049 52.2106 43.3334 52.0619 43.5902C51.9625 43.7622 51.7821 43.8583 51.5966 43.8583Z" fill="#6583FE"/>
<path d="M48.9987 43.8578C48.8133 43.8578 48.6329 43.7617 48.5333 43.5897C48.3847 43.333 48.4723 43.0044 48.7291 42.8558L48.743 42.8477C48.9999 42.6992 49.3285 42.7867 49.4769 43.0435C49.6256 43.3002 49.5379 43.6288 49.2812 43.7774L49.2672 43.7854C49.1825 43.8345 49.09 43.8578 48.9987 43.8578Z" fill="#6583FE"/>
<path d="M51.5836 42.3652C51.3982 42.3652 51.2179 42.269 51.1183 42.097C50.9696 41.8403 51.0573 41.5117 51.314 41.3631L51.328 41.3551C51.5848 41.2065 51.9133 41.294 52.0619 41.5508C52.2105 41.8075 52.1229 42.1361 51.8662 42.2848L51.8522 42.2929C51.7675 42.3418 51.6749 42.3652 51.5836 42.3652Z" fill="#6583FE"/>
<path d="M46.4007 45.0394H31.9697C31.0812 45.0394 30.3584 44.3165 30.3584 43.428V32.2852C30.3584 31.3967 31.0812 30.6738 31.9697 30.6738H46.4007C46.6973 30.6738 46.9378 30.9143 46.9378 31.2109C46.9378 31.5075 46.6973 31.748 46.4007 31.748H31.9697C31.6736 31.748 31.4326 31.989 31.4326 32.2852V43.428C31.4326 43.7242 31.6736 43.9651 31.9697 43.9651H46.4007C46.6973 43.9651 46.9378 44.2057 46.9378 44.5022C46.9378 44.7988 46.6974 45.0394 46.4007 45.0394Z" fill="#0000CC"/>
<path d="M27.7757 45.0394H13.3447C12.4562 45.0394 11.7334 44.3165 11.7334 43.428V32.2852C11.7334 31.3967 12.4562 30.6738 13.3447 30.6738H27.7757C28.0723 30.6738 28.3128 30.9143 28.3128 31.2109C28.3128 31.5075 28.0723 31.748 27.7757 31.748H13.3447C13.0486 31.748 12.8076 31.989 12.8076 32.2852V43.428C12.8076 43.7242 13.0486 43.9651 13.3447 43.9651H27.7757C28.0723 43.9651 28.3128 44.2057 28.3128 44.5022C28.3128 44.7988 28.0724 45.0394 27.7757 45.0394Z" fill="#0000CC"/>
</svg>
