<svg width="56" height="55" viewBox="0 0 56 55" fill="none" xmlns="http://www.w3.org/2000/svg">
<g opacity="0.1">
<path opacity="0.1" d="M20.6332 46.0435H18.7838C18.5089 46.0435 18.2861 46.2657 18.2861 46.5397C18.2861 46.8138 18.5089 47.036 18.7838 47.036H20.6332C20.9081 47.036 21.1308 46.8138 21.1308 46.5397C21.1308 46.2657 20.9081 46.0435 20.6332 46.0435Z" fill="#2626BC"/>
<path opacity="0.1" d="M20.6327 47.8682H14.8023C14.5274 47.8682 14.3047 48.0904 14.3047 48.3644C14.3047 48.6385 14.5274 48.8607 14.8023 48.8607H20.6327C20.9076 48.8607 21.1303 48.6385 21.1303 48.3644C21.1303 48.0904 20.9076 47.8682 20.6327 47.8682Z" fill="#2626BC"/>
<path opacity="0.1" d="M20.6327 49.6924H14.8023C14.5274 49.6924 14.3047 49.9146 14.3047 50.1887C14.3047 50.4627 14.5274 50.6849 14.8023 50.6849H20.6327C20.9076 50.6849 21.1303 50.4627 21.1303 50.1887C21.1303 49.9146 20.9076 49.6924 20.6327 49.6924Z" fill="#2626BC"/>
<path opacity="0.1" d="M47.3259 39.9023H43.892C46.6512 36.7297 48.3212 32.5893 48.3212 28.0599C48.3212 18.0733 40.2034 9.97754 30.1898 9.97754C27.5432 9.97754 25.0293 10.5434 22.7625 11.5599V11.3381C22.7625 10.7899 22.317 10.3456 21.7673 10.3456H10.4754C9.9257 10.3456 9.48013 10.7899 9.48013 11.3381V17.6735C9.48013 18.2217 9.9257 18.6661 10.4754 18.6661H14.6943C13.0219 21.4039 12.0584 24.6197 12.0584 28.0599C12.0584 29.7308 12.2867 31.3482 12.7121 32.8841H11.6049C11.4134 32.8841 11.2581 33.0389 11.2581 33.2299V36.0407L8.8173 34.6353C8.6515 34.5399 8.43941 34.5965 8.34367 34.7619L6.93323 37.1983C6.83748 37.3636 6.89431 37.5752 7.06012 37.6706L9.50093 39.0761L7.06012 40.4815C6.89431 40.577 6.83748 40.7885 6.93323 40.9539L8.34367 43.3903C8.43941 43.5556 8.6515 43.6123 8.8173 43.5168L11.2581 42.1115V44.9223C11.2581 45.1132 11.4134 45.2681 11.6049 45.2681H14.4258C14.6172 45.2681 14.7725 45.1132 14.7725 44.9223V42.1115L17.2133 43.5168C17.3791 43.6123 17.5912 43.5556 17.6869 43.3903L18.5406 41.9157C21.6915 44.5532 25.7542 46.1425 30.1898 46.1425C31.8694 46.1425 33.4952 45.9137 35.0389 45.4875V47.2304C35.0389 47.7786 35.4844 48.223 36.0341 48.223H47.3259C47.8756 48.223 48.3212 47.7786 48.3212 47.2304V40.895C48.3212 40.3466 47.8755 39.9023 47.3259 39.9023Z" fill="#2626BC"/>
</g>
<path d="M30.19 43.6609C40.2037 43.6609 48.3214 35.5651 48.3214 25.5785C48.3214 15.5919 40.2037 7.49609 30.19 7.49609C20.1763 7.49609 12.0586 15.5919 12.0586 25.5785C12.0586 35.5651 20.1763 43.6609 30.19 43.6609Z" fill="#6583FE"/>
<path d="M39.7434 21.7689H34.0104V16.0513C34.0104 15.2291 33.342 14.5625 32.5175 14.5625H27.8633C27.0388 14.5625 26.3704 15.2291 26.3704 16.0513V21.7689H20.6374C19.8129 21.7689 19.1445 22.4355 19.1445 23.2577V27.8993C19.1445 28.7216 19.8129 29.3881 20.6374 29.3881H26.3704V35.1057C26.3704 35.9279 27.0388 36.5945 27.8633 36.5945H32.5175C33.342 36.5945 34.0104 35.9279 34.0104 35.1057V29.3881H39.7434C40.5679 29.3881 41.2363 28.7216 41.2363 27.8993V23.2577C41.2363 22.4355 40.568 21.7689 39.7434 21.7689Z" fill="white"/>
<path d="M19.0974 34.7165L17.6869 32.2801C17.5912 32.1148 17.3791 32.0581 17.2133 32.1536L14.7725 33.5589V30.7481C14.7725 30.5572 14.6172 30.4023 14.4258 30.4023H11.6049C11.4134 30.4023 11.2581 30.5572 11.2581 30.7481V33.5589L8.81731 32.1536C8.6515 32.0581 8.43941 32.1148 8.34367 32.2801L6.93323 34.7165C6.83748 34.8819 6.89431 35.0934 7.06012 35.1889L9.50093 36.5943L7.06012 37.9997C6.89431 38.0952 6.83748 38.3067 6.93323 38.472L8.34367 40.9084C8.43941 41.0738 8.6515 41.1305 8.81731 41.035L11.2581 39.6296V42.4404C11.2581 42.6314 11.4134 42.7862 11.6049 42.7862H14.4258C14.6172 42.7862 14.7725 42.6314 14.7725 42.4404V39.6296L17.2133 41.035C17.3791 41.1305 17.5912 41.0738 17.6869 40.9084L19.0974 38.472C19.1931 38.3067 19.1363 38.0952 18.9705 37.9997L16.5297 36.5943L18.9705 35.1889C19.1363 35.0934 19.1931 34.882 19.0974 34.7165Z" fill="white"/>
<path d="M21.7676 16.1848H10.4757C9.92604 16.1848 9.48047 15.7404 9.48047 15.1922V8.8568C9.48047 8.30862 9.92604 7.86426 10.4757 7.86426H21.7675C22.3172 7.86426 22.7628 8.30862 22.7628 8.8568V15.1922C22.7629 15.7404 22.3172 16.1848 21.7676 16.1848Z" fill="white"/>
<path d="M19.8588 10.5409H18.0093C17.7345 10.5409 17.5117 10.3187 17.5117 10.0446C17.5117 9.77057 17.7345 9.54834 18.0093 9.54834H19.8588C20.1337 9.54834 20.3564 9.77057 20.3564 10.0446C20.3564 10.3187 20.1336 10.5409 19.8588 10.5409Z" fill="#0000CC"/>
<path d="M19.8592 12.3656H14.0289C13.754 12.3656 13.5312 12.1434 13.5312 11.8693C13.5312 11.5953 13.754 11.373 14.0289 11.373H19.8592C20.1341 11.373 20.3569 11.5953 20.3569 11.8693C20.3569 12.1434 20.134 12.3656 19.8592 12.3656Z" fill="#0000CC"/>
<path d="M19.8592 14.1898H14.0289C13.754 14.1898 13.5312 13.9676 13.5312 13.6935C13.5312 13.4195 13.754 13.1973 14.0289 13.1973H19.8592C20.1341 13.1973 20.3569 13.4195 20.3569 13.6935C20.3569 13.9676 20.134 14.1898 19.8592 14.1898Z" fill="#0000CC"/>
<path d="M47.3262 45.7414H36.0343C35.4846 45.7414 35.0391 45.297 35.0391 44.7489V38.4134C35.0391 37.8653 35.4846 37.4209 36.0343 37.4209H47.3261C47.8758 37.4209 48.3214 37.8653 48.3214 38.4134V44.7489C48.3215 45.297 47.8758 45.7414 47.3262 45.7414Z" fill="white"/>
<path d="M20.6332 43.562H18.7837C18.5089 43.562 18.2861 43.7842 18.2861 44.0583C18.2861 44.3323 18.5089 44.5546 18.7837 44.5546H20.6332C20.9081 44.5546 21.1308 44.3323 21.1308 44.0583C21.1308 43.7842 20.9081 43.562 20.6332 43.562Z" fill="#0000CC"/>
<path d="M20.6327 45.3867H14.8023C14.5274 45.3867 14.3047 45.6089 14.3047 45.883C14.3047 46.157 14.5274 46.3793 14.8023 46.3793H20.6327C20.9076 46.3793 21.1303 46.157 21.1303 45.883C21.1303 45.6089 20.9076 45.3867 20.6327 45.3867Z" fill="#0000CC"/>
<path d="M20.6327 47.2109H14.8023C14.5274 47.2109 14.3047 47.4332 14.3047 47.7072C14.3047 47.9813 14.5274 48.2035 14.8023 48.2035H20.6327C20.9076 48.2035 21.1303 47.9813 21.1303 47.7072C21.1303 47.4332 20.9076 47.2109 20.6327 47.2109Z" fill="#0000CC"/>
<path d="M47.3262 36.9247H44.9421C47.4475 33.6862 48.8189 29.6881 48.8189 25.5787C48.8189 15.3344 40.4619 7 30.1899 7C27.761 7 25.4024 7.45975 23.1745 8.36415C22.9699 7.785 22.4173 7.36804 21.7674 7.36804H10.4757C9.65255 7.36804 8.98285 8.03592 8.98285 8.85685V15.1923C8.98285 16.0132 9.65255 16.6811 10.4757 16.6811H13.8327C12.3448 19.3984 11.561 22.4609 11.561 25.5787C11.561 26.0565 11.5795 26.5397 11.6159 27.0151C11.6359 27.2755 11.854 27.4735 12.1115 27.4735C12.1242 27.4735 12.1372 27.473 12.15 27.472C12.4241 27.4512 12.6292 27.2127 12.6082 26.9394C12.5737 26.4891 12.5562 26.0314 12.5562 25.5787C12.5562 22.4436 13.3937 19.3683 14.9773 16.6811H21.7674C22.5906 16.6811 23.2603 16.0132 23.2603 15.1923V9.39342C23.2862 9.38717 23.3121 9.38032 23.3374 9.3697C25.5078 8.45596 27.8133 7.99264 30.1899 7.99264C39.9132 7.99264 47.8237 15.8817 47.8237 25.5788C47.8237 29.7215 46.3515 33.7447 43.6783 36.9071C43.6736 36.9127 43.6706 36.9191 43.6662 36.9248H36.0343C35.2112 36.9248 34.5415 37.5927 34.5415 38.4137V42.6231C33.1266 42.9812 31.6642 43.1648 30.19 43.1648C26.1974 43.1648 22.2933 41.7989 19.1828 39.3178L19.5285 38.7207C19.6413 38.526 19.6714 38.2989 19.6131 38.0816C19.5546 37.8644 19.415 37.6828 19.2196 37.5704L17.5253 36.5948L19.2196 35.6191C19.415 35.5067 19.5546 35.3251 19.6131 35.1079C19.6714 34.8905 19.6413 34.6635 19.5285 34.4688L18.1181 32.0326C17.8853 31.6304 17.3676 31.4921 16.9647 31.7244L15.2705 32.7V30.7487C15.2705 30.2844 14.8917 29.9067 14.4261 29.9067H11.6051C11.1395 29.9067 10.7608 30.2845 10.7608 30.7487V32.7L9.06645 31.7243C8.66309 31.492 8.14576 31.6303 7.91308 32.0325L6.50263 34.4689C6.26984 34.871 6.40848 35.387 6.81165 35.6191L8.50594 36.5948L6.81155 37.5705C6.40838 37.8027 6.26984 38.3187 6.50263 38.7206L7.91308 41.157C8.14586 41.5592 8.66338 41.6974 9.06645 41.4652L10.7608 40.4896V42.4408C10.7608 42.9051 11.1396 43.2829 11.6051 43.2829H14.426C14.8917 43.2829 15.2704 42.9051 15.2704 42.4408V40.4896L16.9646 41.4651C17.3678 41.6972 17.8852 41.5589 18.118 41.1569L18.6798 40.1865C21.9465 42.7485 26.0226 44.1573 30.1899 44.1573C31.6617 44.1573 33.123 43.9844 34.5414 43.646V44.749C34.5414 45.5699 35.2111 46.2378 36.0342 46.2378H41.7083C41.9832 46.2378 42.2059 46.0156 42.2059 45.7415C42.2059 45.4675 41.9832 45.2452 41.7083 45.2452H36.0342C35.7598 45.2452 35.5366 45.0226 35.5366 44.749V38.4136C35.5366 38.1399 35.7598 37.9173 36.0342 37.9173H47.3262C47.6006 37.9173 47.8238 38.1399 47.8238 38.4136V44.749C47.8238 45.0226 47.6006 45.2452 47.3262 45.2452H44.6044C44.3295 45.2452 44.1068 45.4675 44.1068 45.7415C44.1068 46.0156 44.3295 46.2378 44.6044 46.2378H47.3262C48.1493 46.2378 48.819 45.5699 48.819 44.749V38.4136C48.819 37.5926 48.1494 36.9247 47.3262 36.9247ZM22.2652 15.1923C22.2652 15.4659 22.0419 15.6885 21.7675 15.6885H10.4757C10.2013 15.6885 9.97809 15.4659 9.97809 15.1923V8.85685C9.97809 8.58321 10.2013 8.36058 10.4757 8.36058H21.7675C22.0419 8.36058 22.2652 8.58321 22.2652 8.85685V15.1923ZM17.3316 40.5303L15.0215 39.2001C14.8676 39.1114 14.6779 39.1114 14.5239 39.2001C14.37 39.2888 14.2751 39.4526 14.2751 39.6299V42.2902H11.7561V39.6299C11.7561 39.4526 11.6612 39.2888 11.5073 39.2001C11.3533 39.1114 11.1636 39.1114 11.0097 39.2001L8.69951 40.5303L7.43994 38.3546L9.75008 37.0245C9.90404 36.9359 9.99889 36.772 9.99889 36.5947C9.99889 36.4174 9.90404 36.2536 9.75008 36.1649L7.43994 34.8347L8.69951 32.6591L11.0097 33.9892C11.1636 34.0779 11.3533 34.0779 11.5073 33.9892C11.6612 33.9005 11.7561 33.7367 11.7561 33.5594V30.8991H14.2752V33.5594C14.2752 33.7367 14.3701 33.9005 14.524 33.9892C14.678 34.0779 14.8677 34.0779 15.0216 33.9892L17.3317 32.6591L18.5912 34.8348L16.2811 36.1649C16.1271 36.2536 16.0323 36.4174 16.0323 36.5947C16.0323 36.7721 16.1271 36.9359 16.2811 37.0245L18.5912 38.3546L17.3316 40.5303Z" fill="#0000CC"/>
<path d="M45.4174 40.0985H43.5679C43.293 40.0985 43.0703 39.8763 43.0703 39.6022C43.0703 39.3282 43.293 39.106 43.5679 39.106H45.4174C45.6923 39.106 45.915 39.3282 45.915 39.6022C45.915 39.8763 45.6922 40.0985 45.4174 40.0985Z" fill="#0000CC"/>
<path d="M45.4178 41.9232H39.5875C39.3126 41.9232 39.0898 41.701 39.0898 41.4269C39.0898 41.1529 39.3126 40.9307 39.5875 40.9307H45.4178C45.6927 40.9307 45.9155 41.1529 45.9155 41.4269C45.9155 41.701 45.6926 41.9232 45.4178 41.9232Z" fill="#0000CC"/>
<path d="M45.4178 43.7474H39.5875C39.3126 43.7474 39.0898 43.5252 39.0898 43.2512C39.0898 42.9771 39.3126 42.7549 39.5875 42.7549H45.4178C45.6927 42.7549 45.9155 42.9771 45.9155 43.2512C45.9155 43.5253 45.6926 43.7474 45.4178 43.7474Z" fill="#0000CC"/>
<path d="M8.83062 18.8385C8.55574 18.8385 8.33301 18.6163 8.33301 18.3422V18.3273C8.33301 18.0533 8.55574 17.8311 8.83062 17.8311C9.10551 17.8311 9.32824 18.0533 9.32824 18.3273V18.3422C9.32824 18.6164 9.10551 18.8385 8.83062 18.8385Z" fill="#6583FE"/>
<path d="M8.83062 21.5958C8.55574 21.5958 8.33301 21.3736 8.33301 21.0995V21.0847C8.33301 20.8106 8.55574 20.5884 8.83062 20.5884C9.10551 20.5884 9.32824 20.8106 9.32824 21.0847V21.0995C9.32824 21.3736 9.10551 21.5958 8.83062 21.5958Z" fill="#6583FE"/>
<path d="M7.63913 19.5241C7.55553 19.5241 7.47083 19.503 7.39291 19.4587L7.37987 19.4512C7.14121 19.3153 7.05821 19.0122 7.19446 18.7742C7.33051 18.5362 7.63435 18.4534 7.87321 18.5893L7.88624 18.5967C8.1249 18.7326 8.2079 19.0357 8.07166 19.2738C7.9799 19.4341 7.8119 19.5241 7.63913 19.5241Z" fill="#6583FE"/>
<path d="M10.0336 20.903C9.94889 20.903 9.8632 20.8814 9.78478 20.8361L9.77184 20.8286C9.53398 20.6913 9.45277 20.3877 9.59051 20.1505C9.72825 19.9133 10.0329 19.8324 10.2705 19.9697L10.2834 19.9771C10.5213 20.1145 10.6025 20.418 10.4647 20.6553C10.3725 20.8141 10.2054 20.903 10.0336 20.903Z" fill="#6583FE"/>
<path d="M7.62711 20.9031C7.45473 20.9031 7.28724 20.8138 7.19518 20.654C7.05823 20.4162 7.14034 20.1129 7.3787 19.9763L7.39174 19.9689C7.63019 19.8323 7.93414 19.9143 8.07108 20.1519C8.20803 20.3896 8.12592 20.693 7.88756 20.8295L7.87452 20.837C7.7965 20.8817 7.71121 20.9031 7.62711 20.9031Z" fill="#6583FE"/>
<path d="M10.0216 19.5241C9.84936 19.5241 9.68186 19.4348 9.58981 19.2752C9.45276 19.0376 9.53477 18.7342 9.77303 18.5976L9.78597 18.5901C10.0244 18.4534 10.3285 18.5353 10.4654 18.7729C10.6025 19.0105 10.5204 19.3139 10.2822 19.4505L10.2693 19.4579C10.191 19.5028 10.1058 19.5241 10.0216 19.5241Z" fill="#6583FE"/>
<path d="M32.7252 46.9928C32.4503 46.9928 32.2275 46.7706 32.2275 46.4965V46.4816C32.2275 46.2076 32.4503 45.9854 32.7252 45.9854C33 45.9854 33.2228 46.2076 33.2228 46.4816V46.4965C33.2228 46.7706 33 46.9928 32.7252 46.9928Z" fill="#6583FE"/>
<path d="M32.7252 49.7501C32.4503 49.7501 32.2275 49.5279 32.2275 49.2538V49.2389C32.2275 48.9649 32.4503 48.7427 32.7252 48.7427C33 48.7427 33.2228 48.9649 33.2228 49.2389V49.2538C33.2228 49.528 33 49.7501 32.7252 49.7501Z" fill="#6583FE"/>
<path d="M31.5337 47.6784C31.4501 47.6784 31.3654 47.6573 31.2874 47.613L31.2744 47.6055C31.0357 47.4696 30.9527 47.1665 31.089 46.9285C31.225 46.6906 31.529 46.6077 31.7677 46.7436L31.7808 46.751C32.0194 46.8869 32.1024 47.19 31.9662 47.428C31.8745 47.5884 31.7065 47.6784 31.5337 47.6784Z" fill="#6583FE"/>
<path d="M33.9281 49.0578C33.8439 49.0578 33.7587 49.0365 33.6805 48.9916L33.6676 48.9842C33.4293 48.8476 33.3473 48.5442 33.4843 48.3066C33.6214 48.069 33.9254 47.9871 34.1638 48.1238L34.1767 48.1313C34.4149 48.2678 34.497 48.5713 34.3599 48.8089C34.2679 48.9685 34.1004 49.0578 33.9281 49.0578Z" fill="#6583FE"/>
<path d="M31.5216 49.0578C31.3488 49.0578 31.1807 48.9679 31.089 48.8075C30.9527 48.5694 31.0357 48.2663 31.2744 48.1304L31.2874 48.123C31.526 47.9871 31.8301 48.0699 31.9662 48.3079C32.1024 48.5459 32.0194 48.849 31.7808 48.9849L31.7677 48.9924C31.6901 49.0366 31.6052 49.0578 31.5216 49.0578Z" fill="#6583FE"/>
<path d="M33.9162 47.6784C33.7439 47.6784 33.5764 47.589 33.4843 47.4294C33.3473 47.1918 33.4293 46.8884 33.6676 46.7518L33.6805 46.7444C33.919 46.6078 34.223 46.6895 34.3599 46.9271C34.497 47.1647 34.415 47.4681 34.1767 47.6047L34.1638 47.6122C34.0856 47.6571 34.0004 47.6784 33.9162 47.6784Z" fill="#6583FE"/>
<path d="M47.9058 14.1988C47.6309 14.1988 47.4082 13.9766 47.4082 13.7025C47.4082 13.3559 47.1254 13.0739 46.7779 13.0739C46.503 13.0739 46.2803 12.8517 46.2803 12.5777C46.2803 12.3036 46.503 12.0814 46.7779 12.0814C47.1254 12.0814 47.4082 11.7994 47.4082 11.4528C47.4082 11.1788 47.6309 10.9565 47.9058 10.9565C48.1807 10.9565 48.4034 11.1788 48.4034 11.4528C48.4034 11.7994 48.6863 12.0814 49.0338 12.0814C49.3087 12.0814 49.5314 12.3036 49.5314 12.5777C49.5314 12.8517 49.3087 13.0739 49.0338 13.0739C48.6863 13.0739 48.4034 13.3559 48.4034 13.7025C48.4034 13.9766 48.1807 14.1988 47.9058 14.1988Z" fill="#6583FE"/>
<path d="M28.2339 48.3072C27.959 48.3072 27.7363 48.085 27.7363 47.8109C27.7363 47.4643 27.4536 47.1823 27.106 47.1823C26.8311 47.1823 26.6084 46.9601 26.6084 46.6861C26.6084 46.412 26.8311 46.1898 27.106 46.1898C27.4536 46.1898 27.7363 45.9078 27.7363 45.5612C27.7363 45.2872 27.959 45.0649 28.2339 45.0649C28.5088 45.0649 28.7315 45.2872 28.7315 45.5612C28.7315 45.9078 29.0144 46.1898 29.3619 46.1898C29.6368 46.1898 29.8595 46.412 29.8595 46.6861C29.8595 46.9601 29.6368 47.1823 29.3619 47.1823C29.0144 47.1823 28.7315 47.4643 28.7315 47.8109C28.7315 48.085 28.5088 48.3072 28.2339 48.3072Z" fill="#6583FE"/>
<path d="M44.6959 10.6104C44.421 10.6104 44.1983 10.3882 44.1983 10.1141C44.1983 9.76754 43.9155 9.48556 43.5679 9.48556C43.293 9.48556 43.0703 9.26333 43.0703 8.98929C43.0703 8.71524 43.293 8.49301 43.5679 8.49301C43.9155 8.49301 44.1983 8.21103 44.1983 7.86444C44.1983 7.59039 44.421 7.36816 44.6959 7.36816C44.9708 7.36816 45.1935 7.59039 45.1935 7.86444C45.1935 8.21103 45.4763 8.49301 45.8238 8.49301C46.0987 8.49301 46.3214 8.71524 46.3214 8.98929C46.3214 9.26333 46.0987 9.48556 45.8238 9.48556C45.4763 9.48556 45.1935 9.76754 45.1935 10.1141C45.1935 10.3882 44.9708 10.6104 44.6959 10.6104Z" fill="#6583FE"/>
</svg>
