<svg width="55" height="55" viewBox="0 0 55 55" fill="none" xmlns="http://www.w3.org/2000/svg">
<g opacity="0.1">
<path opacity="0.1" d="M26.3419 19.698C26.3419 19.0051 25.78 18.4432 25.0871 18.4432C24.394 18.4432 23.8323 19.0051 23.8323 19.698C23.8323 21.9518 21.9987 23.7854 19.7449 23.7854H18.8658C19.0387 22.9827 19.3812 22.2244 19.8821 21.5497C20.7813 20.3384 21.2142 18.9356 21.2143 17.5462C21.2145 15.4291 20.2096 13.3422 18.3179 12.0054C15.1846 9.79125 10.805 10.4746 8.53558 13.5315C6.04245 16.8899 4.72461 20.8607 4.72461 25.0145C4.72461 29.1684 6.04245 33.1393 8.53568 36.4977C10.8052 39.5547 15.1848 40.2379 18.3181 38.0235C21.4514 35.8093 22.1513 31.5359 19.882 28.4792C19.3918 27.819 19.0537 27.0787 18.8772 26.295H19.7449C21.9987 26.295 23.8323 28.1286 23.8323 30.3823V47.6152C23.8323 48.3081 24.3941 48.87 25.0871 48.87C25.7801 48.87 26.3419 48.3081 26.3419 47.6152V30.3823C26.3419 28.187 25.263 26.24 23.6087 25.0402C25.263 23.8403 26.3419 21.8933 26.3419 19.698Z" fill="#2626BC"/>
<path opacity="0.1" d="M46.4635 13.5315C44.1941 10.4745 39.8144 9.79128 36.6812 12.0054C34.7895 13.3423 33.7846 15.4291 33.7848 17.5462C33.7849 18.9356 34.2179 20.3384 35.117 21.5497C35.6179 22.2245 35.9603 22.9827 36.1333 23.7854H35.2542C33.0004 23.7854 31.1668 21.9518 31.1668 19.6981C31.1668 19.0051 30.6051 18.4433 29.912 18.4433C29.2191 18.4433 28.6572 19.0051 28.6572 19.6981C28.6572 21.8934 29.7361 23.8403 31.3904 25.0402C29.7361 26.24 28.6572 28.187 28.6572 30.3823V47.6152C28.6572 48.3082 29.219 48.87 29.912 48.87C30.605 48.87 31.1668 48.3082 31.1668 47.6152V30.3823C31.1668 28.1286 33.0004 26.295 35.2542 26.295H36.1219C35.9454 27.0787 35.6073 27.819 35.1171 28.4792C32.8478 31.5359 33.5477 35.8094 36.681 38.0235C39.8142 40.2378 44.1938 39.5547 46.4633 36.4977C48.9565 33.1394 50.2744 29.1685 50.2744 25.0145C50.2745 20.8607 48.9567 16.8899 46.4635 13.5315Z" fill="#2626BC"/>
</g>
<path d="M25.0873 46.3605C24.3944 46.3605 23.8325 45.7986 23.8325 45.1057V27.8728C23.8325 25.6191 21.9989 23.7855 19.7452 23.7855H15.9804C15.2874 23.7855 14.7256 23.2236 14.7256 22.5307C14.7256 21.8377 15.2874 21.2759 15.9804 21.2759H19.7452C23.3827 21.2759 26.3421 24.2352 26.3421 27.8728V45.1057C26.3421 45.7987 25.7804 46.3605 25.0873 46.3605Z" fill="white"/>
<path d="M21.2143 15.0365C21.2145 12.9194 20.2096 10.8325 18.3179 9.49568C15.1846 7.28151 10.805 7.96473 8.53558 11.0217C6.04245 14.3802 4.72461 18.3509 4.72461 22.5047C4.72461 26.6587 6.04245 30.6296 8.53568 33.9879C10.8052 37.0449 15.1848 37.728 18.3181 35.5138C21.4515 33.2996 22.1513 29.0262 19.882 25.9695C19.1314 24.9584 18.7346 23.7602 18.7346 22.5047C18.7346 21.2492 19.1313 20.0511 19.8821 19.04C20.7813 17.8286 21.2142 16.4259 21.2143 15.0365Z" fill="#6583FE"/>
<path d="M19.7452 23.7853H15.9804C15.2873 23.7853 14.7256 23.2235 14.7256 22.5305C14.7256 21.8376 15.2873 21.2757 15.9804 21.2757H19.7452C21.9989 21.2757 23.8325 19.4421 23.8325 17.1884C23.8325 16.4954 24.3943 15.9336 25.0873 15.9336C25.7803 15.9336 26.3421 16.4954 26.3421 17.1884C26.3421 20.8259 23.3828 23.7853 19.7452 23.7853Z" fill="white"/>
<path d="M17.258 25.9695C16.5075 24.9585 16.1106 23.7603 16.1106 22.5048C16.1106 21.2493 16.5074 20.0512 17.2581 19.04H11.8486V25.9696H17.258V25.9695Z" fill="#6583FE"/>
<path d="M15.8665 17.0045C17.3337 17.0045 18.5231 15.8151 18.5231 14.348C18.5231 12.8808 17.3337 11.6914 15.8665 11.6914C14.3993 11.6914 13.21 12.8808 13.21 14.348C13.21 15.8151 14.3993 17.0045 15.8665 17.0045Z" fill="white"/>
<path d="M15.0368 17.8986C15.2754 16.8892 14.6505 15.8774 13.6411 15.6388C12.6316 15.4002 11.6199 16.0251 11.3813 17.0345C11.1427 18.044 11.7675 19.0557 12.777 19.2944C13.7864 19.533 14.7982 18.9081 15.0368 17.8986Z" fill="white"/>
<path d="M29.912 46.3595C30.605 46.3595 31.1668 45.7977 31.1668 45.1047V27.8718C31.1668 25.6181 33.0004 23.7845 35.2542 23.7845H39.019C39.7119 23.7845 40.2737 23.2226 40.2737 22.5297C40.2737 21.8368 39.7119 21.2749 39.019 21.2749H35.2542C31.6166 21.2749 28.6572 24.2342 28.6572 27.8718V45.1047C28.6572 45.7978 29.219 46.3595 29.912 46.3595Z" fill="white"/>
<path d="M33.7852 15.0365C33.785 12.9194 34.7898 10.8325 36.6816 9.49568C39.8148 7.28151 44.1945 7.96473 46.4639 11.0217C48.957 14.3802 50.2748 18.3509 50.2748 22.5047C50.2748 26.6587 48.957 30.6296 46.4638 33.9879C44.1943 37.0449 39.8145 37.728 36.6814 35.5138C33.5481 33.2996 32.8482 29.0262 35.1176 25.9695C35.8681 24.9584 36.265 23.7602 36.265 22.5047C36.265 21.2492 35.8682 20.0511 35.1175 19.04C34.2182 17.8286 33.7853 16.4259 33.7852 15.0365Z" fill="#6583FE"/>
<path d="M35.2542 23.7853H39.019C39.712 23.7853 40.2737 23.2235 40.2737 22.5305C40.2737 21.8376 39.712 21.2757 39.019 21.2757H35.2542C33.0004 21.2757 31.1668 19.4421 31.1668 17.1884C31.1668 16.4954 30.6051 15.9336 29.912 15.9336C29.2191 15.9336 28.6572 16.4954 28.6572 17.1884C28.6572 20.8259 31.6165 23.7853 35.2542 23.7853Z" fill="white"/>
<path d="M37.7413 25.969C38.4919 24.958 38.8887 23.7598 38.8887 22.5043C38.8887 21.2488 38.492 20.0507 37.7412 19.0396H43.1507V25.9692H37.7413V25.969Z" fill="#6583FE"/>
<path d="M26.8437 17.1883C26.8437 16.2197 26.0555 15.4315 25.0869 15.4315C24.1183 15.4315 23.3302 16.2197 23.3302 17.1883C23.3302 19.1652 21.7219 20.7737 19.7448 20.7737H19.5278C19.7035 20.2651 19.956 19.7822 20.285 19.3391C21.2212 18.0781 21.716 16.5902 21.7161 15.0364C21.7163 12.6859 20.5542 10.4613 18.6076 9.08577C15.2586 6.71892 10.5594 7.45333 8.13251 10.7224C5.57463 14.1681 4.22266 18.2423 4.22266 22.5046C4.22266 26.7673 5.57473 30.8416 8.13261 34.287C9.59881 36.262 11.8937 37.3116 14.2198 37.3116C15.744 37.3116 17.2819 36.8606 18.6077 35.9236C20.2425 34.7683 21.3143 33.059 21.6257 31.1108C21.934 29.1823 21.4578 27.2501 20.2849 25.6703C19.967 25.2421 19.7188 24.7771 19.5438 24.2872H19.7448C21.7218 24.2872 23.3302 25.8956 23.3302 27.8726V45.1055C23.3302 46.0741 24.1183 46.8622 25.0869 46.8622C26.0555 46.8622 26.8437 46.0741 26.8437 45.1055V37.3068C26.8437 37.0295 26.6189 36.8049 26.3417 36.8049C26.0646 36.8049 25.8398 37.0295 25.8398 37.3068V45.1055C25.8398 45.5207 25.5021 45.8584 25.0869 45.8584C24.6718 45.8584 24.3341 45.5207 24.3341 45.1055V27.8726C24.3341 26.1793 23.4116 24.6985 22.0435 23.9031C22.5926 23.7146 23.1112 23.4608 23.5904 23.1507C25.0213 24.3164 25.8398 26.0251 25.8398 27.8726V34.3855C25.8398 34.6628 26.0646 34.8874 26.3417 34.8874C26.6189 34.8874 26.8437 34.6628 26.8437 34.3855V27.8726C26.8437 25.8023 25.9635 23.8804 24.4136 22.5292C25.9014 21.2269 26.8437 19.3161 26.8437 17.1883ZM19.4789 26.2686C20.4894 27.6296 20.8997 29.2929 20.6345 30.9523C20.3662 32.6315 19.4405 34.1057 18.0283 35.1038C15.121 37.1584 11.0432 36.5236 8.93869 33.6885C6.5102 30.4173 5.2266 26.5501 5.2266 22.5045C5.2266 18.4593 6.5102 14.592 8.93869 11.3207C10.2093 9.60898 12.1991 8.6994 14.2165 8.6994C15.5404 8.6994 16.8763 9.0913 18.0284 9.90541C19.7094 11.0933 20.7127 13.0113 20.7125 15.0363C20.7124 16.373 20.2859 17.6539 19.4792 18.7406C19.0181 19.3617 18.6812 20.048 18.4746 20.7736H16.9026C17.0785 20.2649 17.3323 19.7822 17.6613 19.339C17.8266 19.1163 17.7801 18.8019 17.5575 18.6368C17.335 18.4716 17.0206 18.518 16.8554 18.7406C16.0399 19.8389 15.609 21.1405 15.609 22.5045C15.609 23.8686 16.0399 25.1702 16.8553 26.2685C16.9537 26.4011 17.1052 26.4713 17.2587 26.4713C17.3627 26.4713 17.4676 26.4391 17.5575 26.3724C17.7801 26.2071 17.8266 25.8928 17.6613 25.6702C17.3435 25.242 17.0961 24.7768 16.9209 24.2871H18.4913C18.6988 24.9935 19.0289 25.6625 19.4789 26.2686ZM16.6702 23.2833C16.6325 23.0273 16.6125 22.7675 16.6125 22.5046C16.6125 22.2593 16.6301 22.0168 16.6629 21.7775H19.7448C22.2754 21.7775 24.3341 19.7187 24.3341 17.1883C24.3341 16.7731 24.6718 16.4354 25.0869 16.4354C25.5021 16.4354 25.8398 16.7731 25.8398 17.1883C25.8398 20.5491 23.1057 23.2833 19.7448 23.2833H16.6702Z" fill="#0000CC"/>
<path d="M46.8663 10.7224C44.4394 7.45343 39.7404 6.71892 36.3914 9.08567C34.4446 10.4612 33.2825 12.6858 33.2827 15.0363C33.2828 16.3477 33.6439 17.6366 34.3269 18.7636C34.4705 19.0007 34.7792 19.0763 35.0163 18.9326C35.2533 18.789 35.329 18.4803 35.1854 18.2433C34.5974 17.2733 34.2866 16.1643 34.2865 15.0364C34.2863 13.0114 35.2898 11.0933 36.9706 9.9055C39.8781 7.85095 43.9557 8.48577 46.0602 11.3209C48.4886 14.5922 49.7722 18.4595 49.7722 22.5047C49.7722 26.5502 48.4886 30.4175 46.0601 33.6887C43.9555 36.5236 39.8778 37.1586 36.9705 35.104C35.5582 34.1059 34.6326 32.6316 34.3643 30.9525C34.0991 29.2931 34.5095 27.6297 35.5199 26.2688C35.9692 25.6638 36.3007 24.9979 36.5097 24.2873H38.0782C37.9031 24.7771 37.6557 25.2422 37.3378 25.6704C37.1726 25.893 37.219 26.2074 37.4416 26.3726C37.5315 26.4393 37.6363 26.4714 37.7404 26.4714C37.8938 26.4714 38.0454 26.4014 38.1439 26.2687C38.9592 25.1704 39.3901 23.8688 39.3901 22.5047C39.3901 21.1407 38.9592 19.8391 38.1438 18.7408C37.9785 18.5182 37.6642 18.4717 37.4416 18.637C37.219 18.8021 37.1726 19.1165 37.3378 19.3392C37.6668 19.7824 37.9205 20.2651 38.0965 20.7738H35.2541C33.2772 20.7738 31.6687 19.1654 31.6687 17.1884C31.6687 16.2197 30.8806 15.4316 29.912 15.4316C28.9434 15.4316 28.1553 16.2197 28.1553 17.1884C28.1553 19.3162 29.0976 21.2269 30.5854 22.5291C29.0354 23.8802 28.1553 25.8022 28.1553 27.8725V45.1054C28.1553 46.074 28.9434 46.8621 29.912 46.8621C30.8806 46.8621 31.6687 46.074 31.6687 45.1054V27.8725C31.6687 25.8955 33.2771 24.2871 35.2541 24.2871H35.4556C35.2801 24.7785 35.0319 25.242 34.7141 25.6702C33.5412 27.25 33.0649 29.1822 33.3732 31.1107C33.6846 33.0589 34.7564 34.7683 36.3913 35.9235C37.7172 36.8606 39.2547 37.3115 40.7791 37.3115C43.1049 37.3114 45.4002 36.2617 46.8663 34.2869C49.4243 30.8415 50.7763 26.7672 50.7763 22.5045C50.7762 18.2423 49.4242 14.1681 46.8663 10.7224ZM29.159 17.1882C29.159 16.7731 29.4967 16.4354 29.9119 16.4354C30.3271 16.4354 30.6648 16.7731 30.6648 17.1882C30.6648 19.7187 32.7234 21.7775 35.254 21.7775H38.3359C38.3686 22.0168 38.3863 22.2593 38.3863 22.5046C38.3863 22.7674 38.3663 23.0273 38.3288 23.2833H35.254C31.8932 23.2833 29.159 20.5491 29.159 17.1882ZM30.6648 27.8725V45.1054C30.6648 45.5206 30.3271 45.8583 29.9119 45.8583C29.4967 45.8583 29.159 45.5206 29.159 45.1054V27.8725C29.159 26.0249 29.9774 24.3161 31.4084 23.1505C31.8877 23.4607 32.4063 23.7145 32.9553 23.903C31.5872 24.6984 30.6648 26.1792 30.6648 27.8725Z" fill="#0000CC"/>
<path d="M39.1321 17.004C40.5993 17.004 41.7887 15.8147 41.7887 14.3475C41.7887 12.8803 40.5993 11.6909 39.1321 11.6909C37.665 11.6909 36.4756 12.8803 36.4756 14.3475C36.4756 15.8147 37.665 17.004 39.1321 17.004Z" fill="white"/>
<path d="M42.2143 19.2738C43.2238 19.0352 43.8487 18.0234 43.61 17.014C43.3714 16.0045 42.3597 15.3796 41.3502 15.6182C40.3408 15.8569 39.7159 16.8686 39.9545 17.8781C40.1931 18.8875 41.2049 19.5124 42.2143 19.2738Z" fill="white"/>
<path d="M15.6806 43.8622C15.4034 43.8622 15.1787 43.6376 15.1787 43.3603C15.1787 43.0098 14.8935 42.7246 14.5429 42.7246C14.2658 42.7246 14.041 42.4999 14.041 42.2227C14.041 41.9454 14.2658 41.7208 14.5429 41.7208C14.8935 41.7208 15.1787 41.4355 15.1787 41.0849C15.1787 40.8077 15.4034 40.583 15.6806 40.583C15.9577 40.583 16.1825 40.8077 16.1825 41.0849C16.1825 41.4355 16.4677 41.7208 16.8182 41.7208C17.0954 41.7208 17.3202 41.9454 17.3202 42.2227C17.3202 42.4999 17.0954 42.7246 16.8182 42.7246C16.4677 42.7246 16.1825 43.0098 16.1825 43.3603C16.1825 43.6376 15.9577 43.8622 15.6806 43.8622Z" fill="#6583FE"/>
<path d="M41.789 42.7788C41.5118 42.7788 41.2871 42.5541 41.2871 42.2768C41.2871 41.9263 41.0019 41.641 40.6513 41.641C40.3742 41.641 40.1494 41.4163 40.1494 41.1391C40.1494 40.8618 40.3742 40.6372 40.6513 40.6372C41.0019 40.6372 41.2871 40.352 41.2871 40.0014C41.2871 39.7242 41.5118 39.4995 41.789 39.4995C42.0661 39.4995 42.2909 39.7242 42.2909 40.0014C42.2909 40.352 42.5761 40.6372 42.9267 40.6372C43.2039 40.6372 43.4287 40.8618 43.4287 41.1391C43.4287 41.4163 43.2039 41.641 42.9267 41.641C42.5762 41.641 42.2909 41.9263 42.2909 42.2768C42.2909 42.5541 42.0661 42.7788 41.789 42.7788Z" fill="#6583FE"/>
<path d="M27.4999 13.0683C27.2228 13.0683 26.998 12.8436 26.998 12.5664C26.998 12.2158 26.7128 11.9306 26.3623 11.9306C26.0851 11.9306 25.8604 11.7059 25.8604 11.4286C25.8604 11.1514 26.0851 10.9267 26.3623 10.9267C26.7128 10.9267 26.998 10.6415 26.998 10.291C26.998 10.0137 27.2228 9.78906 27.4999 9.78906C27.7771 9.78906 28.0018 10.0137 28.0018 10.291C28.0018 10.6415 28.287 10.9267 28.6376 10.9267C28.9147 10.9267 29.1395 11.1514 29.1395 11.4286C29.1395 11.7059 28.9147 11.9306 28.6376 11.9306C28.287 11.9306 28.0018 12.2158 28.0018 12.5664C28.0018 12.8436 27.7771 13.0683 27.4999 13.0683Z" fill="#6583FE"/>
<path d="M19.6836 38.3714C19.4064 38.3714 19.1816 38.1468 19.1816 37.8695V37.8545C19.1816 37.5772 19.4064 37.3525 19.6836 37.3525C19.9607 37.3525 20.1855 37.5772 20.1855 37.8545V37.8695C20.1855 38.1467 19.9607 38.3714 19.6836 38.3714Z" fill="#6583FE"/>
<path d="M19.6836 41.16C19.4064 41.16 19.1816 40.9354 19.1816 40.6581V40.643C19.1816 40.3658 19.4064 40.1411 19.6836 40.1411C19.9607 40.1411 20.1855 40.3658 20.1855 40.643V40.6581C20.1855 40.9354 19.9607 41.16 19.6836 41.16Z" fill="#6583FE"/>
<path d="M18.4823 39.0648C18.397 39.0648 18.3106 39.043 18.2314 38.9972L18.2183 38.9896C17.9784 38.8507 17.8965 38.5437 18.0354 38.3038C18.1743 38.0639 18.4813 37.9819 18.7214 38.1209L18.7344 38.1284C18.9743 38.2674 19.0562 38.5743 18.9173 38.8143C18.8241 38.975 18.6556 39.0648 18.4823 39.0648Z" fill="#6583FE"/>
<path d="M20.8974 40.4598C20.8122 40.4598 20.7261 40.4381 20.6471 40.3925L20.6341 40.385C20.3939 40.2465 20.3115 39.9395 20.45 39.6995C20.5885 39.4594 20.8955 39.3769 21.1356 39.5155L21.1486 39.523C21.3887 39.6615 21.4712 39.9685 21.3326 40.2085C21.2397 40.3697 21.0709 40.4598 20.8974 40.4598Z" fill="#6583FE"/>
<path d="M18.4703 40.4594C18.297 40.4594 18.1285 40.3695 18.0354 40.2088C17.8965 39.9689 17.9784 39.6619 18.2183 39.523L18.2314 39.5154C18.4714 39.3764 18.7784 39.4584 18.9173 39.6984C19.0562 39.9383 18.9743 40.2452 18.7344 40.3842L18.7214 40.3917C18.642 40.4376 18.5556 40.4594 18.4703 40.4594Z" fill="#6583FE"/>
<path d="M20.8853 39.0649C20.7117 39.0649 20.543 38.9749 20.45 38.8137C20.3115 38.5735 20.3939 38.2667 20.634 38.1281L20.6471 38.1206C20.8872 37.9818 21.1942 38.0644 21.3326 38.3046C21.4711 38.5447 21.3887 38.8516 21.1486 38.9901L21.1356 38.9977C21.0567 39.0433 20.9704 39.0649 20.8853 39.0649Z" fill="#6583FE"/>
<path d="M31.6943 8.0189C31.4171 8.0189 31.1924 7.79424 31.1924 7.51698V7.50192C31.1924 7.22466 31.4171 7 31.6943 7C31.9715 7 32.1962 7.22466 32.1962 7.50192V7.51698C32.1962 7.79424 31.9715 8.0189 31.6943 8.0189Z" fill="#6583FE"/>
<path d="M31.6943 10.808C31.4171 10.808 31.1924 10.5833 31.1924 10.306V10.291C31.1924 10.0137 31.4171 9.78906 31.6943 9.78906C31.9715 9.78906 32.1962 10.0137 32.1962 10.291V10.306C32.1962 10.5832 31.9715 10.808 31.6943 10.808Z" fill="#6583FE"/>
<path d="M30.4931 8.71235C30.4077 8.71235 30.3213 8.69057 30.2421 8.64469L30.2291 8.63717C29.9891 8.49823 29.9072 8.19126 30.0462 7.95134C30.1851 7.71133 30.492 7.62931 30.732 7.76844L30.745 7.77597C30.985 7.9149 31.0668 8.22188 30.9279 8.4618C30.835 8.62251 30.6663 8.71235 30.4931 8.71235Z" fill="#6583FE"/>
<path d="M32.9082 10.107C32.824 10.107 32.7386 10.0858 32.6603 10.0413L32.6473 10.0339C32.4064 9.89673 32.3222 9.59015 32.4594 9.34933C32.5966 9.10841 32.9032 9.02449 33.1439 9.16142L33.1569 9.16884C33.3979 9.30597 33.482 9.61254 33.3449 9.85336C33.2523 10.0159 33.0826 10.107 32.9082 10.107Z" fill="#6583FE"/>
<path d="M30.481 10.1072C30.3067 10.1072 30.1374 10.0163 30.0447 9.85409C29.9072 9.61347 29.9908 9.3069 30.2315 9.16937L30.2446 9.16194C30.4852 9.02441 30.7919 9.10793 30.9294 9.34865C31.0669 9.58927 30.9833 9.89585 30.7426 10.0334L30.7295 10.0408C30.651 10.0858 30.5654 10.1072 30.481 10.1072Z" fill="#6583FE"/>
<path d="M32.896 8.71283C32.7225 8.71283 32.5537 8.62279 32.4608 8.46157C32.3223 8.22145 32.4047 7.91458 32.6448 7.77605L32.6578 7.76852C32.898 7.62979 33.2049 7.7123 33.3434 7.95252C33.4819 8.19264 33.3995 8.49952 33.1594 8.63805L33.1463 8.64557C33.0673 8.69115 32.9811 8.71283 32.896 8.71283Z" fill="#6583FE"/>
</svg>
