<svg width="56" height="55" viewBox="0 0 56 55" fill="none" xmlns="http://www.w3.org/2000/svg">
<path opacity="0.1" d="M46.326 23.0591C45.196 21.635 43.1224 21.3941 41.6945 22.521L38.676 24.9032V21.4033C38.676 20.8104 38.1945 20.3291 37.5988 20.3291H17.7959C17.2014 20.3291 16.7188 20.8104 16.7188 21.4033V26.7712H13.6006C13.0057 26.7712 12.5234 27.2521 12.5234 27.8454V34.7021C12.5234 35.2954 13.0057 35.7764 13.6006 35.7764H16.7188V47.2727C16.7188 49.275 18.3474 50.8992 20.3563 50.8992H35.0396C37.0484 50.8992 38.676 49.275 38.676 47.2727V44.1H39.1686C39.4348 44.1 39.6505 43.8848 39.6505 43.6193V38.1595C39.6505 37.8941 39.4348 37.6789 39.1686 37.6789H38.676V33.2899L45.7865 27.6783C47.2144 26.5513 47.456 24.4833 46.326 23.0591Z" fill="#2626BC"/>
<path d="M34.4064 33.9735L30.3145 28.8164L41.6939 19.8358C43.1219 18.7088 45.1956 18.9498 46.3255 20.3739C47.4555 21.798 47.2139 23.8661 45.7859 24.9929L34.4064 33.9735Z" fill="white"/>
<path d="M38.6759 18.7178V44.5871C38.6759 46.5895 37.0484 48.2137 35.0395 48.2137H20.3562C18.3474 48.2137 16.7188 46.5895 16.7188 44.5871V18.7178C16.7188 18.1248 17.2013 17.6436 17.7959 17.6436H37.5988C38.1944 17.6436 38.6759 18.1248 38.6759 18.7178Z" fill="white"/>
<path d="M38.6769 18.7178V23.9718L21.1661 48.2147H20.3572C18.3483 48.2147 16.7197 46.5895 16.7197 44.5882V18.7178C16.7197 18.1248 17.2023 17.6436 17.7968 17.6436H37.5997C38.1954 17.6436 38.6769 18.1248 38.6769 18.7178Z" fill="white"/>
<path d="M38.6759 18.7178V28.5909L16.7188 22.3755V18.7178C16.7188 18.1248 17.2013 17.6436 17.7959 17.6436H37.5988C38.1944 17.6436 38.6759 18.1248 38.6759 18.7178Z" fill="white"/>
<path d="M22.5906 17.6441H17.5859V11.747C17.5859 10.3688 18.7063 9.25146 20.0882 9.25146C21.4701 9.25146 22.5905 10.3688 22.5905 11.747V17.6441H22.5906Z" fill="white"/>
<path d="M27.5954 17.6439H22.5908V9.80167C22.5908 8.42345 23.7111 7.30615 25.0931 7.30615C26.475 7.30615 27.5953 8.42345 27.5953 9.80167V17.6439H27.5954Z" fill="white"/>
<path d="M32.5994 17.6438H27.5947V6.43741C27.5947 5.05919 28.715 3.94189 30.097 3.94189C31.4789 3.94189 32.5992 5.05919 32.5992 6.43741V17.6438H32.5994Z" fill="white"/>
<path d="M37.6042 17.6434H32.5996V8.80851C32.5996 7.43028 33.7199 6.31299 35.1019 6.31299C36.4838 6.31299 37.6041 7.43028 37.6041 8.80851V17.6434H37.6042Z" fill="white"/>
<path d="M33.8975 35.4743V40.9341C33.8975 41.1995 34.1132 41.4147 34.3794 41.4147H39.1687C39.4348 41.4147 39.6506 41.1995 39.6506 40.9341V35.4743C39.6506 35.2088 39.4348 34.9937 39.1687 34.9937H34.3794C34.1133 34.9937 33.8975 35.2088 33.8975 35.4743ZM37.1418 39.8681H35.4791V36.5403H37.1418V39.8681Z" fill="white"/>
<path d="M25.8215 33.0911H13.6006C13.0057 33.0911 12.5234 32.6102 12.5234 32.0169V25.1602C12.5234 24.5669 13.0057 24.0859 13.6006 24.0859H25.8215C26.4164 24.0859 26.8986 24.5669 26.8986 25.1602V32.0169C26.8986 32.6101 26.4164 33.0911 25.8215 33.0911Z" fill="white"/>
<path d="M46.7487 20.0406C45.4362 18.3865 43.0192 18.1056 41.3606 19.4146L39.2153 21.1077V18.7181C39.2153 18.02 38.767 17.4258 38.143 17.2026V8.80897C38.143 7.13684 36.7789 5.77634 35.1022 5.77634C34.3542 5.77634 33.6687 6.04769 33.1384 6.49617V6.43752C33.1384 4.76539 31.7743 3.40479 30.0976 3.40479C28.4209 3.40479 27.0568 4.76528 27.0568 6.43752V7.48886C26.5265 7.04037 25.8411 6.76902 25.0931 6.76902C23.535 6.76902 22.2475 7.944 22.073 9.45199C21.54 8.99287 20.8464 8.71411 20.0884 8.71411C18.4118 8.71411 17.0476 10.0746 17.0476 11.7467V17.2917C16.5332 17.5616 16.1812 18.0992 16.1812 18.718V23.5488H13.601C12.7101 23.5488 11.9854 24.2716 11.9854 25.1601V32.0168C11.9854 32.9053 12.7101 33.6281 13.601 33.6281H25.822C26.7128 33.6281 27.4376 32.9053 27.4376 32.0168V25.1601C27.4376 24.2716 26.7128 23.5488 25.822 23.5488H17.2583V18.718C17.2583 18.4218 17.4999 18.1809 17.7969 18.1809H32.6C32.8974 18.1809 33.1385 17.9405 33.1385 17.6438V8.80897C33.1385 7.72905 34.0195 6.85056 35.1023 6.85056C36.1852 6.85056 37.066 7.72916 37.066 8.80897V17.1068H35.7345C35.4371 17.1068 35.1959 17.3472 35.1959 17.6439C35.1959 17.9406 35.4371 18.181 35.7345 18.181H37.5997C37.8967 18.181 38.1383 18.4219 38.1383 18.7181V34.4566H34.3798C33.8171 34.4566 33.3593 34.9131 33.3593 35.4744V40.9342C33.3593 41.4954 33.8171 41.9519 34.3798 41.9519H38.1383V44.587C38.1383 46.2909 36.7483 47.6772 35.0397 47.6772H20.3569C18.6483 47.6772 17.2583 46.291 17.2583 44.587V36.2172C17.2583 35.9205 17.0171 35.6801 16.7197 35.6801C16.4223 35.6801 16.1812 35.9205 16.1812 36.2172V44.587C16.1812 46.8833 18.0544 48.7514 20.3569 48.7514H35.0396C37.3421 48.7514 39.2153 46.8833 39.2153 44.587V41.9496C39.7565 41.9252 40.1895 41.4798 40.1895 40.9342V35.4744C40.1895 34.9287 39.7565 34.4833 39.2153 34.4589V30.8641L46.121 25.4141C46.9245 24.7801 47.4321 23.872 47.5507 22.857C47.6693 21.8419 47.3845 20.8418 46.7487 20.0406ZM26.3605 25.1602V32.0169C26.3605 32.3131 26.1189 32.554 25.822 32.554H13.601C13.3041 32.554 13.0625 32.3131 13.0625 32.0169V25.1602C13.0625 24.864 13.3041 24.6231 13.601 24.6231H25.822C26.1189 24.6231 26.3605 24.864 26.3605 25.1602ZM18.1247 11.7468C18.1247 10.6669 19.0056 9.78844 20.0884 9.78844C21.1713 9.78844 22.0522 10.667 22.0522 11.7468V17.1068H18.1248V11.7468H18.1247ZM23.1293 11.7468V9.80165C23.1293 8.72174 24.0102 7.84324 25.093 7.84324C26.1757 7.84324 27.0567 8.72185 27.0567 9.80165V17.1068H23.1291V11.7468H23.1293ZM28.1339 9.80165V6.43752C28.1339 5.35761 29.0148 4.479 30.0976 4.479C31.1804 4.479 32.0613 5.35761 32.0613 6.43752V8.80897V17.1068H28.1339V9.80165ZM34.4365 35.5308H39.1125V40.8776H34.4365V35.5308ZM46.4809 22.7327C46.3957 23.4626 46.0305 24.1156 45.4527 24.5716L39.2154 29.4941V22.4775L42.0291 20.2569C43.222 19.3156 44.9603 19.5176 45.9041 20.7071C46.3614 21.2834 46.5661 22.0027 46.4809 22.7327Z" fill="#0000CC"/>
<path d="M37.1416 36.0034H35.479C35.1816 36.0034 34.9404 36.2438 34.9404 36.5405V39.8683C34.9404 40.165 35.1816 40.4055 35.479 40.4055H37.1416C37.439 40.4055 37.6802 40.165 37.6802 39.8683V36.5405C37.6802 36.2439 37.439 36.0034 37.1416 36.0034ZM36.6031 39.3312H36.0176V37.0776H36.6031V39.3312Z" fill="#0000CC"/>
<path d="M23.756 26.9829H21.7544C21.4569 26.9829 21.2158 26.7424 21.2158 26.4458C21.2158 26.1492 21.4569 25.9087 21.7544 25.9087H23.756C24.0535 25.9087 24.2946 26.1492 24.2946 26.4458C24.2946 26.7424 24.0535 26.9829 23.756 26.9829Z" fill="#0000CC"/>
<path d="M23.7559 28.9575H17.4458C17.1483 28.9575 16.9072 28.717 16.9072 28.4204C16.9072 28.1238 17.1483 27.8833 17.4458 27.8833H23.7559C24.0534 27.8833 24.2945 28.1238 24.2945 28.4204C24.2945 28.717 24.0534 28.9575 23.7559 28.9575Z" fill="#0000CC"/>
<path d="M23.7559 30.9316H17.4458C17.1483 30.9316 16.9072 30.6911 16.9072 30.3945C16.9072 30.0979 17.1483 29.8574 17.4458 29.8574H23.7559C24.0534 29.8574 24.2945 30.0979 24.2945 30.3945C24.2945 30.6911 24.0534 30.9316 23.7559 30.9316Z" fill="#0000CC"/>
<path d="M11.2505 19.3295C10.9531 19.3295 10.7119 19.0891 10.7119 18.7924C10.7119 18.4172 10.4059 18.1119 10.0298 18.1119C9.73238 18.1119 9.49121 17.8715 9.49121 17.5748C9.49121 17.2781 9.73238 17.0377 10.0298 17.0377C10.4059 17.0377 10.7119 16.7325 10.7119 16.3574C10.7119 16.0607 10.9531 15.8203 11.2505 15.8203C11.5479 15.8203 11.789 16.0607 11.789 16.3574C11.789 16.7325 12.095 17.0377 12.4713 17.0377C12.7687 17.0377 13.0098 17.2781 13.0098 17.5748C13.0098 17.8715 12.7687 18.1119 12.4713 18.1119C12.0952 18.1119 11.789 18.4172 11.789 18.7924C11.789 19.0891 11.5479 19.3295 11.2505 19.3295Z" fill="#6583FE"/>
<path d="M47.1676 33.7615C46.8702 33.7615 46.629 33.5211 46.629 33.2244C46.629 32.8493 46.323 32.5441 45.9468 32.5441C45.6494 32.5441 45.4082 32.3037 45.4082 32.007C45.4082 31.7103 45.6494 31.4699 45.9468 31.4699C46.3229 31.4699 46.629 31.1647 46.629 30.7896C46.629 30.4929 46.8702 30.2524 47.1676 30.2524C47.465 30.2524 47.7061 30.4929 47.7061 30.7896C47.7061 31.1647 48.0121 31.4699 48.3883 31.4699C48.6857 31.4699 48.9268 31.7103 48.9268 32.007C48.9268 32.3037 48.6857 32.5441 48.3883 32.5441C48.0121 32.5441 47.7061 32.8493 47.7061 33.2244C47.7061 33.5211 47.4651 33.7615 47.1676 33.7615Z" fill="#6583FE"/>
<path d="M12.5239 45.5526C12.2265 45.5526 11.9854 45.3122 11.9854 45.0155C11.9854 44.6404 11.6793 44.3351 11.3032 44.3351C11.0058 44.3351 10.7646 44.0947 10.7646 43.798C10.7646 43.5013 11.0058 43.2609 11.3032 43.2609C11.6793 43.2609 11.9854 42.9557 11.9854 42.5806C11.9854 42.2839 12.2265 42.0435 12.5239 42.0435C12.8213 42.0435 13.0625 42.2839 13.0625 42.5806C13.0625 42.9557 13.3685 43.2609 13.7447 43.2609C14.0421 43.2609 14.2833 43.5013 14.2833 43.798C14.2833 44.0947 14.0421 44.3351 13.7447 44.3351C13.3686 44.3351 13.0625 44.6404 13.0625 45.0155C13.0625 45.3122 12.8213 45.5526 12.5239 45.5526Z" fill="#6583FE"/>
<path d="M13.062 10.4526C12.7646 10.4526 12.5234 10.2122 12.5234 9.91553V9.89941C12.5234 9.60271 12.7646 9.3623 13.062 9.3623C13.3594 9.3623 13.6006 9.60271 13.6006 9.89941V9.91553C13.6006 10.2122 13.3594 10.4526 13.062 10.4526Z" fill="#6583FE"/>
<path d="M13.062 13.437C12.7646 13.437 12.5234 13.1966 12.5234 12.8999V12.8838C12.5234 12.5871 12.7646 12.3467 13.062 12.3467C13.3594 12.3467 13.6006 12.5871 13.6006 12.8838V12.8999C13.6006 13.1966 13.3594 13.437 13.062 13.437Z" fill="#6583FE"/>
<path d="M11.7728 11.1949C11.6813 11.1949 11.5885 11.1715 11.5035 11.1225L11.4895 11.1144C11.2321 10.9657 11.1442 10.6372 11.2933 10.3805C11.4423 10.1236 11.7716 10.036 12.0292 10.1848L12.0432 10.1928C12.3006 10.3415 12.3885 10.67 12.2394 10.9267C12.1396 11.0987 11.9587 11.1949 11.7728 11.1949Z" fill="#6583FE"/>
<path d="M14.3646 12.687C14.2733 12.687 14.1809 12.6638 14.0961 12.615L14.0821 12.607C13.8244 12.4587 13.736 12.1302 13.8846 11.8734C14.0333 11.6163 14.3626 11.5282 14.6202 11.6765L14.6342 11.6845C14.8919 11.8328 14.9803 12.1613 14.8316 12.4181C14.7319 12.5905 14.5508 12.687 14.3646 12.687Z" fill="#6583FE"/>
<path d="M11.7599 12.687C11.574 12.687 11.3931 12.5909 11.2933 12.4189C11.1442 12.1622 11.2321 11.8337 11.4895 11.685L11.5035 11.6769C11.7611 11.5282 12.0905 11.6159 12.2394 11.8727C12.3885 12.1294 12.3006 12.4579 12.0432 12.6066L12.0292 12.6146C11.9442 12.6637 11.8515 12.687 11.7599 12.687Z" fill="#6583FE"/>
<path d="M14.3517 11.1949C14.1654 11.1949 13.9844 11.0985 13.8846 10.926C13.736 10.6691 13.8244 10.3407 14.0821 10.1924L14.0961 10.1844C14.3537 10.0359 14.6831 10.1242 14.8317 10.3813C14.9803 10.6382 14.8919 10.9666 14.6342 11.1149L14.6202 11.1229C14.5355 11.1717 14.4429 11.1949 14.3517 11.1949Z" fill="#6583FE"/>
<path d="M45.7348 36.4302C45.4375 36.4302 45.1963 36.1898 45.1963 35.8931V35.877C45.1963 35.5803 45.4375 35.3398 45.7348 35.3398C46.0322 35.3398 46.2734 35.5803 46.2734 35.877V35.8931C46.2734 36.1898 46.0322 36.4302 45.7348 36.4302Z" fill="#6583FE"/>
<path d="M45.7348 39.4146C45.4375 39.4146 45.1963 39.1741 45.1963 38.8774V38.8613C45.1963 38.5646 45.4375 38.3242 45.7348 38.3242C46.0322 38.3242 46.2734 38.5646 46.2734 38.8613V38.8774C46.2734 39.1741 46.0322 39.4146 45.7348 39.4146Z" fill="#6583FE"/>
<path d="M44.4458 37.1721C44.3552 37.1721 44.2633 37.1492 44.1791 37.1012L44.1651 37.0932C43.9068 36.9461 43.817 36.618 43.9646 36.3605C44.1122 36.1029 44.4412 36.0136 44.6994 36.1607L44.7134 36.1687C44.9717 36.3158 45.0614 36.6439 44.9139 36.9014C44.8144 37.0749 44.6326 37.1721 44.4458 37.1721Z" fill="#6583FE"/>
<path d="M47.0375 38.6646C46.9459 38.6646 46.8532 38.6413 46.7682 38.5922L46.7542 38.5842C46.4968 38.4355 46.4089 38.107 46.5579 37.8502C46.707 37.5935 47.0363 37.5056 47.2938 37.6545L47.3078 37.6626C47.5653 37.8113 47.6532 38.1397 47.5041 38.3965C47.4043 38.5685 47.2234 38.6646 47.0375 38.6646Z" fill="#6583FE"/>
<path d="M44.4328 38.6646C44.2468 38.6646 44.066 38.5684 43.9661 38.3965C43.8171 38.1397 43.905 37.8112 44.1624 37.6626L44.1764 37.6545C44.4339 37.5056 44.7633 37.5936 44.9123 37.8502C45.0614 38.107 44.9735 38.4354 44.716 38.5841L44.702 38.5922C44.6172 38.6413 44.5243 38.6646 44.4328 38.6646Z" fill="#6583FE"/>
<path d="M47.0245 37.1723C46.8375 37.1723 46.6558 37.075 46.5564 36.9014C46.4088 36.644 46.4986 36.3159 46.7568 36.1687L46.7709 36.1608C47.0289 36.0135 47.3581 36.103 47.5057 36.3606C47.6532 36.6181 47.5635 36.9461 47.3052 37.0933L47.2912 37.1013C47.207 37.1494 47.1152 37.1723 47.0245 37.1723Z" fill="#6583FE"/>
</svg>
